<svg xmlns="http://www.w3.org/2000/svg" width="51.002" height="51" viewBox="0 0 51.002 51">
  <g id="_12" data-name="12" transform="translate(-230.499 -230.519)">
    <path id="Path" d="M279.71,253.374l-4.047-1.019a19.039,19.039,0,0,0-.817-3l3.01-2.9a1.679,1.679,0,0,0,.324-1.963c-.173-.333-.347-.658-.537-.98l-.159-.267c-.133-.226-.265-.451-.409-.677a1.676,1.676,0,0,0-1.861-.688l-4.014,1.149a20.128,20.128,0,0,0-2.207-2.2l1.151-4.018a1.687,1.687,0,0,0-.7-1.865c-.22-.141-.445-.272-.672-.406l-.267-.159c-.321-.189-.65-.363-.989-.542a1.68,1.68,0,0,0-1.954.334l-2.894,3a19.383,19.383,0,0,0-3.022-.808l-1.012-4.061a1.658,1.658,0,0,0-1.524-1.251c-.744-.035-1.489-.035-2.227,0a1.664,1.664,0,0,0-1.53,1.261l-1.02,4.048a19.069,19.069,0,0,0-3.005.817l-2.9-3.01a1.676,1.676,0,0,0-1.962-.325c-.333.174-.658.348-.98.538l-.269.16c-.225.132-.449.263-.675.408a1.68,1.68,0,0,0-.688,1.861l1.15,4.014a19.875,19.875,0,0,0-2.2,2.207l-4.018-1.151a1.683,1.683,0,0,0-1.864.694c-.146.228-.282.46-.416.693l-.145.246c-.188.316-.359.639-.543.988a1.677,1.677,0,0,0,.333,1.956l3,2.9a19.343,19.343,0,0,0-.809,3.021l-4.064,1.011a1.659,1.659,0,0,0-1.25,1.526c-.022.37-.03.743-.03,1.114s.008.743.026,1.113a1.665,1.665,0,0,0,1.264,1.529l4.049,1.02a18.746,18.746,0,0,0,.816,3.005l-3.009,2.9a1.683,1.683,0,0,0-.313,1.98c.171.324.342.647.529.962l.145.25c.137.233.274.465.417.693a.833.833,0,1,0,1.4-.9c-.134-.21-.259-.424-.385-.64l-.15-.255c-.173-.289-.333-.583-.488-.89l3.009-2.9a1.666,1.666,0,0,0,.406-1.75,18.146,18.146,0,0,1-.74-2.75,1.657,1.657,0,0,0-1.235-1.327l-4.053-1c-.016-.349-.025-.7-.025-1.042s.008-.691.027-1.024l4.057-1.01a1.655,1.655,0,0,0,1.23-1.321,18.089,18.089,0,0,1,.742-2.761,1.667,1.667,0,0,0-.408-1.75l-3.009-2.906c.157-.3.313-.6.487-.886l.15-.25c.125-.216.25-.43.387-.63l4.014,1.15a1.666,1.666,0,0,0,1.723-.516,18.778,18.778,0,0,1,2.029-2.029,1.666,1.666,0,0,0,.515-1.718l-1.161-4.023c.2-.129.409-.25.616-.373l.277-.167c.3-.176.6-.333.892-.488l2.9,3.008a1.668,1.668,0,0,0,1.756.407,18.148,18.148,0,0,1,2.75-.74,1.654,1.654,0,0,0,1.328-1.231l1-4.053c.69-.032,1.391-.034,2.059,0l1.008,4.06a1.652,1.652,0,0,0,1.321,1.229,17.917,17.917,0,0,1,2.761.743,1.666,1.666,0,0,0,1.75-.409l2.885-3.018c.3.161.608.32.9.5l.276.166c.208.123.416.244.608.376l-1.146,4.009a1.668,1.668,0,0,0,.516,1.723,18.87,18.87,0,0,1,2.029,2.029,1.656,1.656,0,0,0,1.718.515l4.019-1.161c.13.2.25.411.374.62l.161.275c.177.3.334.6.489.891l-3.008,2.9a1.666,1.666,0,0,0-.407,1.756,18.115,18.115,0,0,1,.74,2.75,1.656,1.656,0,0,0,1.235,1.333l4.052,1c.016.34.025.683.025,1.028s-.009.69-.026,1.024l-4.058,1.01a1.652,1.652,0,0,0-1.229,1.321,18.061,18.061,0,0,1-.743,2.761,1.667,1.667,0,0,0,.409,1.75l3.016,2.888c-.16.3-.32.608-.495.9l-.167.276c-.123.208-.244.417-.376.608l-4.008-1.149a1.665,1.665,0,0,0-1.722.516,18.688,18.688,0,0,1-2.03,2.028,1.67,1.67,0,0,0-.515,1.719l1.161,4.018c-.2.13-.411.25-.619.375l-.275.161c-.3.177-.6.334-.891.489l-2.9-3.008a1.668,1.668,0,0,0-1.756-.408,18.033,18.033,0,0,1-2.75.74,1.658,1.658,0,0,0-1.333,1.235l-1,4.053c-.69.033-1.391.034-2.061,0l-1-4.059a1.652,1.652,0,0,0-1.321-1.229,18.143,18.143,0,0,1-2.761-.743,1.666,1.666,0,0,0-1.75.408l-2.885,3.019c-.3-.161-.608-.32-.9-.5l-.278-.167c-.208-.123-.417-.244-.617-.373a.833.833,0,0,0-.9,1.4c.22.141.444.273.667.4l.271.161c.32.189.649.363.987.542a1.681,1.681,0,0,0,1.955-.334l2.895-3a19.355,19.355,0,0,0,3.022.809l1.011,4.061a1.656,1.656,0,0,0,1.524,1.254q.557.028,1.114.029c.372,0,.743-.008,1.112-.026a1.666,1.666,0,0,0,1.531-1.265l1.019-4.048a18.957,18.957,0,0,0,3.005-.816l2.9,3.01a1.679,1.679,0,0,0,1.963.324c.333-.173.658-.347.98-.537l.266-.159c.227-.133.452-.265.678-.409a1.683,1.683,0,0,0,.688-1.862l-1.149-4.013a20.218,20.218,0,0,0,2.2-2.207l4.018,1.151a1.685,1.685,0,0,0,1.865-.7c.14-.22.272-.445.4-.672l.16-.267c.189-.321.363-.65.541-.989a1.677,1.677,0,0,0-.333-1.954l-3-2.894a19.494,19.494,0,0,0,.808-3.022l4.061-1.012a1.658,1.658,0,0,0,1.254-1.524c.018-.371.026-.744.026-1.115s-.008-.744-.026-1.112a1.666,1.666,0,0,0-1.265-1.531Z" fill="#4dd0e1" stroke="#4dd0e1" stroke-width="1"/>
    <path id="Shape" d="M256,271.018a15.085,15.085,0,1,0-12.2-6.327L231.74,276.75a2.5,2.5,0,1,0,3.527,3.533l12.061-12.065a14.949,14.949,0,0,0,8.672,2.8Zm-13.334-15a13.395,13.395,0,1,1,5.854,11.01l1.8-1.806a10.666,10.666,0,0,0,5.675,1.63,10.834,10.834,0,1,0-10.834-10.834,10.66,10.66,0,0,0,1.63,5.676l-1.805,1.8A13.283,13.283,0,0,1,242.666,256.017Zm16.668,5.833a2.5,2.5,0,0,0,2.5-2.5v-6.667a2.5,2.5,0,0,0-2.5-2.5h-6.668a2.5,2.5,0,0,0,0,5h.64l-5.293,5.293a9,9,0,0,1-1.18-4.459A9.167,9.167,0,1,1,256,265.184a8.993,8.993,0,0,1-4.458-1.18l5.291-5.292v.638A2.5,2.5,0,0,0,259.334,261.85ZM234.086,279.1a.834.834,0,0,1-1.175,0,.814.814,0,0,1,0-1.166L255.9,254.942a.833.833,0,0,0-.586-1.425h-2.651a.833.833,0,0,1,0-1.667h6.668a.833.833,0,0,1,.833.833v6.667a.833.833,0,1,1-1.667,0V256.7a.833.833,0,0,0-1.422-.589Z" fill="#4dd0e1" stroke="#4dd0e1" stroke-width="1"/>
  </g>
</svg>
