<svg xmlns="http://www.w3.org/2000/svg" width="50" height="50" viewBox="0 0 50 50">
  <g id="_13" data-name="13" transform="translate(-231 -231)">
    <path id="Path_193771" data-name="Path 193771" d="M259.511,267.05a6.452,6.452,0,1,0-7.022,0,11.3,11.3,0,0,0-7.779,10.724V281h22.58v-3.226A11.3,11.3,0,0,0,259.511,267.05Zm.994,9.111-3.226,3.226h-.163L260.48,269.2a9.684,9.684,0,0,1,1.623,1.069l-.385,2.183-2.951,1.967Zm-10.222-3.705-.385-2.184a9.686,9.686,0,0,1,1.623-1.069l3.364,10.184h-.163l-3.226-3.226,1.739-1.738Zm.878-10.811A4.839,4.839,0,1,1,256,266.484,4.844,4.844,0,0,1,251.161,261.645Zm7.828,6.929L256,277.622l-2.988-9.048a9.6,9.6,0,0,1,5.977,0Zm-12.666,9.2a9.632,9.632,0,0,1,2.182-6.111l.309,1.752,1.888,1.259-1.487,1.487,3.225,3.226h-6.117Zm19.354,1.613H259.56l3.225-3.226-1.487-1.488,1.888-1.258.309-1.753a9.637,9.637,0,0,1,2.182,6.112Z" fill="#4dd0e1"/>
    <path id="Path_193772" data-name="Path 193772" d="M251.968,253.581h8.064V243.9h3.927L256,231.965,248.041,243.9h3.927Zm-.912-11.291L256,234.873l4.944,7.417h-2.525v9.678h-4.838V242.29Z" fill="#4dd0e1"/>
    <path id="Path_193773" data-name="Path 193773" d="M232.391,242.069l2.782,13.908,2.733-2.733,6.859,7.133,5.934-5.933-7.133-6.86,2.733-2.733Zm16.006,12.4-3.608,3.608-6.86-7.133-1.765,1.765-1.716-8.581,8.581,1.716-1.764,1.765Z" fill="#4dd0e1"/>
    <path id="Path_193774" data-name="Path 193774" d="M261.3,254.444l5.934,5.933,6.86-7.133,2.733,2.733,2.781-13.908L265.7,244.85l2.733,2.733Zm16.252-10.319-1.716,8.581-1.765-1.764-6.86,7.133-3.608-3.608,7.133-6.86-1.764-1.765Z" fill="#4dd0e1"/>
    <path id="Path_193775" data-name="Path 193775" d="M233.419,235.839a2.42,2.42,0,1,0-2.419-2.42A2.423,2.423,0,0,0,233.419,235.839Zm0-3.226a.806.806,0,1,1-.806.806A.808.808,0,0,1,233.419,232.613Z" fill="#4dd0e1"/>
    <path id="Path_193776" data-name="Path 193776" d="M239.828,240.971l1.14-1.14,1.084,1.083-1.141,1.14Z" fill="#4dd0e1"/>
    <path id="Path_193777" data-name="Path 193777" d="M235.267,236.409l1.141-1.14,1.14,1.14-1.14,1.14Z" fill="#4dd0e1"/>
    <path id="Path_193778" data-name="Path 193778" d="M237.548,238.69l1.141-1.14,1.14,1.14-1.14,1.141Z" fill="#4dd0e1"/>
    <path id="Path_193779" data-name="Path 193779" d="M233.419,276.161a2.419,2.419,0,1,0,2.42,2.42A2.422,2.422,0,0,0,233.419,276.161Zm0,3.226a.807.807,0,1,1,.807-.806A.807.807,0,0,1,233.419,279.387Z" fill="#4dd0e1"/>
    <path id="Path_193780" data-name="Path 193780" d="M239.825,271.026l1.083-1.083,1.141,1.14-1.084,1.083Z" fill="#4dd0e1"/>
    <path id="Path_193781" data-name="Path 193781" d="M235.263,275.587l1.14-1.14,1.141,1.14-1.141,1.141Z" fill="#4dd0e1"/>
    <path id="Path_193782" data-name="Path 193782" d="M237.544,273.306l1.141-1.141,1.14,1.141-1.14,1.14Z" fill="#4dd0e1"/>
    <path id="Path_193783" data-name="Path 193783" d="M278.581,276.161a2.419,2.419,0,1,0,2.419,2.42A2.423,2.423,0,0,0,278.581,276.161Zm0,3.226a.807.807,0,1,1,.806-.806A.808.808,0,0,1,278.581,279.387Z" fill="#4dd0e1"/>
    <path id="Path_193784" data-name="Path 193784" d="M274.441,275.591l1.141-1.14,1.14,1.14-1.14,1.14Z" fill="#4dd0e1"/>
    <path id="Path_193785" data-name="Path 193785" d="M269.938,271.087l1.14-1.141,1.083,1.084-1.14,1.14Z" fill="#4dd0e1"/>
    <path id="Path_193786" data-name="Path 193786" d="M272.16,273.31l1.14-1.141,1.14,1.141-1.14,1.14Z" fill="#4dd0e1"/>
    <path id="Path_193787" data-name="Path 193787" d="M278.581,235.839a2.42,2.42,0,1,0-2.42-2.42A2.422,2.422,0,0,0,278.581,235.839Zm0-3.226a.806.806,0,1,1-.807.806A.807.807,0,0,1,278.581,232.613Z" fill="#4dd0e1"/>
    <path id="Path_193788" data-name="Path 193788" d="M272.165,238.694l1.14-1.14,1.14,1.14-1.14,1.141Z" fill="#4dd0e1"/>
    <path id="Path_193789" data-name="Path 193789" d="M274.445,236.413l1.14-1.14,1.141,1.14-1.141,1.141Z" fill="#4dd0e1"/>
    <path id="Path_193790" data-name="Path 193790" d="M269.941,240.916l1.083-1.083,1.14,1.141-1.083,1.083Z" fill="#4dd0e1"/>
    <path id="Path_193791" data-name="Path 193791" d="M278.581,260.839A2.419,2.419,0,1,0,281,263.258,2.422,2.422,0,0,0,278.581,260.839Zm0,3.226a.807.807,0,1,1,.806-.807A.809.809,0,0,1,278.581,264.065Z" fill="#4dd0e1"/>
    <path id="Path_193792" data-name="Path 193792" d="M272.935,262.452h1.613v1.613h-1.613Z" fill="#4dd0e1"/>
    <path id="Path_193793" data-name="Path 193793" d="M266.484,262.452H268.1v1.613h-1.613Z" fill="#4dd0e1"/>
    <path id="Path_193794" data-name="Path 193794" d="M269.71,262.452h1.613v1.613H269.71Z" fill="#4dd0e1"/>
    <path id="Path_193795" data-name="Path 193795" d="M233.419,265.677A2.419,2.419,0,1,0,231,263.258,2.422,2.422,0,0,0,233.419,265.677Zm0-3.225a.807.807,0,1,1-.806.806A.808.808,0,0,1,233.419,262.452Z" fill="#4dd0e1"/>
    <path id="Path_193796" data-name="Path 193796" d="M240.677,262.452h1.613v1.613h-1.613Z" fill="#4dd0e1"/>
    <path id="Path_193797" data-name="Path 193797" d="M237.452,262.452h1.613v1.613h-1.613Z" fill="#4dd0e1"/>
    <path id="Path_193798" data-name="Path 193798" d="M243.9,262.452h1.613v1.613H243.9Z" fill="#4dd0e1"/>
  </g>
</svg>
