<svg xmlns="http://www.w3.org/2000/svg" width="36.667" height="50" viewBox="0 0 36.667 50">
  <g id="_14" data-name="14" transform="translate(-221.67 -219.141)">
    <g id="Group_136921" data-name="Group 136921">
      <g id="Group_136920" data-name="Group 136920">
        <path id="Path_193757" data-name="Path 193757" d="M258.191,240.77a2.493,2.493,0,0,0-4.7.008h-5.154v-3.333h3.334a.833.833,0,0,0,.833-.833h0v-3.487a2.5,2.5,0,1,0-1.667,0v2.653h-2.5v-1.666a.835.835,0,0,0-.833-.834h-1.667v-4.32a2.5,2.5,0,1,0-1.666,0v4.32h-3.334v-13.3a.833.833,0,0,0-.833-.833h0c-10.28,0-18.333,7.443-18.333,16.944,0,4.513,1.791,10.489,4.676,15.594.518.917,1.194,1.88,1.909,2.9,1.512,2.156,3.2,4.58,3.379,6.691a2.367,2.367,0,0,0-1,1.978,2.477,2.477,0,0,0,.551,1.547,2.567,2.567,0,0,0-.764,1.845,2.5,2.5,0,0,0,2.5,2.5h14.166a2.517,2.517,0,0,0,2.5-2.531v-.028a2.486,2.486,0,0,0-.767-1.8,2.575,2.575,0,0,0,.554-1.6,2.39,2.39,0,0,0-2.394-2.385c-.036,0-.071,0-.106,0h-6.037V244.945H242.5v2.5a.833.833,0,0,0,.833.833h2.5v.987a2.5,2.5,0,1,0,1.667,0v-1.82a.833.833,0,0,0-.833-.833h-2.5v-1.667H247.5a.833.833,0,0,0,.833-.833h0v-1.667h5.154a2.5,2.5,0,0,0,4.7-1.675Zm-6.521-10.825a.833.833,0,1,1-.834.833A.833.833,0,0,1,251.67,229.945Zm-22.05,23.678c-.692-.987-1.345-1.918-1.823-2.764-2.71-4.8-4.461-10.595-4.461-14.774,0-8.31,6.889-14.875,15.834-15.259v5.821c-.222.017-.447.037-.689.066a.833.833,0,0,0-.714.656l-.254,1.207c-.21.05-.418.106-.626.169l-.831-.926a.831.831,0,0,0-.947-.211,12.514,12.514,0,0,0-2.622,1.531.834.834,0,0,0-.29.925l.383,1.165c-.158.148-.311.3-.46.459l-1.164-.382a.838.838,0,0,0-.925.289,12.526,12.526,0,0,0-1.532,2.623.834.834,0,0,0,.211.948l.926.83q-.093.309-.167.619l-1.3.259a.833.833,0,0,0-.67.817v2.842a.833.833,0,0,0,.67.817l1.3.258q.074.311.167.62l-.927.83a.834.834,0,0,0-.21.947,12.482,12.482,0,0,0,1.532,2.623.836.836,0,0,0,.925.29l1.164-.383c.149.157.3.311.46.459l-.383,1.164a.833.833,0,0,0,.29.925,12.5,12.5,0,0,0,2.622,1.533.837.837,0,0,0,.948-.211l.83-.926c.208.062.417.119.626.168l.253,1.207a.834.834,0,0,0,.715.656c.242.03.467.05.689.066v9.232h-5.9C232.924,258.352,231.184,255.853,229.62,253.623Zm2.883-14.511a7.508,7.508,0,0,0,6.667,7.45v2.866l-.138-.656a.834.834,0,0,0-.668-.649,9,9,0,0,1-1.452-.392.844.844,0,0,0-.282-.048.829.829,0,0,0-.62.277l-.784.874a10.855,10.855,0,0,1-1.254-.736l.361-1.1a.834.834,0,0,0-.253-.9,9.105,9.105,0,0,1-1.067-1.066.835.835,0,0,0-.9-.252l-1.1.362a10.815,10.815,0,0,1-.737-1.255l.875-.784a.835.835,0,0,0,.228-.9,9.129,9.129,0,0,1-.391-1.452.834.834,0,0,0-.657-.669l-1.165-.233v-1.475l1.165-.232a.834.834,0,0,0,.657-.669,9.14,9.14,0,0,1,.391-1.453.832.832,0,0,0-.229-.9l-.874-.783a10.935,10.935,0,0,1,.737-1.255l1.1.362a.837.837,0,0,0,.9-.252,9.375,9.375,0,0,1,1.068-1.069.832.832,0,0,0,.252-.894l-.361-1.1a10.72,10.72,0,0,1,1.254-.737l.783.874a.837.837,0,0,0,.9.229,9,9,0,0,1,1.452-.392.83.83,0,0,0,.667-.648l.139-.656v2.865A7.509,7.509,0,0,0,232.5,239.112Zm6.667-5.767v11.533a5.825,5.825,0,0,1,0-11.533Zm8.75,33.3a.835.835,0,0,1-.834.833H232.92a.849.849,0,0,1-.835-.863v-.029a.835.835,0,0,1,.834-.833h14.166a.848.848,0,0,1,.834.863Zm-1.047-4.167a.764.764,0,0,1,.83.69.609.609,0,0,1,0,.085.833.833,0,0,1-.833.833h-13.74a.85.85,0,0,1-.835-.863v-.029a.753.753,0,0,1,.785-.719l.049,0Zm-.2-11.7a.834.834,0,1,1-.834.834A.833.833,0,0,1,246.67,250.778Zm-1.667-25a.834.834,0,1,1-.833.834A.833.833,0,0,1,245,225.778Zm1.667,17.5h-5.834v-8.333h5.834Zm9.166-.833a.834.834,0,1,1,.834-.833A.833.833,0,0,1,255.836,242.445Z" fill="#4dd0e1"/>
      </g>
    </g>
    <g id="Group_136923" data-name="Group 136923">
      <g id="Group_136922" data-name="Group 136922">
        <path id="Path_193758" data-name="Path 193758" d="M248.04,257.233a14.21,14.21,0,0,0-.779,1.628l1.55.614a12.284,12.284,0,0,1,.688-1.436Z" fill="#4dd0e1"/>
      </g>
    </g>
    <g id="Group_136925" data-name="Group 136925">
      <g id="Group_136924" data-name="Group 136924">
        <path id="Path_193759" data-name="Path 193759" d="M249.914,254.3c-.327.47-.654.949-.967,1.432l1.4.905c.3-.467.619-.929.936-1.385Z" fill="#4dd0e1"/>
      </g>
    </g>
    <g id="Group_136927" data-name="Group 136927">
      <g id="Group_136926" data-name="Group 136926">
        <path id="Path_193760" data-name="Path 193760" d="M251.81,251.525c-.281.446-.6.908-.923,1.381l1.369.951c.344-.495.671-.977.964-1.445Z" fill="#4dd0e1"/>
      </g>
    </g>
    <g id="Group_136929" data-name="Group 136929">
      <g id="Group_136928" data-name="Group 136928">
        <path id="Path_193761" data-name="Path 193761" d="M253.374,248.621q-.358.75-.749,1.482l1.469.786q.41-.765.784-1.55Z" fill="#4dd0e1"/>
      </g>
    </g>
    <g id="Group_136931" data-name="Group 136931">
      <g id="Group_136930" data-name="Group 136930">
        <path id="Path_193762" data-name="Path 193762" d="M254.675,245.563c-.193.515-.4,1.031-.618,1.543l1.534.652q.34-.8.644-1.609Z" fill="#4dd0e1"/>
      </g>
    </g>
    <g id="Group_136933" data-name="Group 136933">
      <g id="Group_136932" data-name="Group 136932">
        <path id="Path_193763" data-name="Path 193763" d="M258.335,235.919l-1.666.013v.153c0,.465-.022.959-.065,1.467l1.661.14c.047-.555.07-1.1.07-1.607Z" fill="#4dd0e1"/>
      </g>
    </g>
    <g id="Group_136935" data-name="Group 136935">
      <g id="Group_136934" data-name="Group 136934">
        <path id="Path_193764" data-name="Path 193764" d="M257.911,232.372l-1.623.379a14.308,14.308,0,0,1,.278,1.58l1.655-.2A16.161,16.161,0,0,0,257.911,232.372Z" fill="#4dd0e1"/>
      </g>
    </g>
    <g id="Group_136937" data-name="Group 136937">
      <g id="Group_136936" data-name="Group 136936">
        <path id="Path_193765" data-name="Path 193765" d="M256.713,229l-1.5.729a14.745,14.745,0,0,1,.622,1.48l1.569-.558A15.912,15.912,0,0,0,256.713,229Z" fill="#4dd0e1"/>
      </g>
    </g>
    <g id="Group_136939" data-name="Group 136939">
      <g id="Group_136938" data-name="Group 136938">
        <path id="Path_193766" data-name="Path 193766" d="M254.807,225.987l-1.306,1.036a15.029,15.029,0,0,1,.932,1.311l1.409-.891A16.9,16.9,0,0,0,254.807,225.987Z" fill="#4dd0e1"/>
      </g>
    </g>
    <g id="Group_136941" data-name="Group 136941">
      <g id="Group_136940" data-name="Group 136940">
        <path id="Path_193767" data-name="Path 193767" d="M252.309,223.443l-1.062,1.285a15.5,15.5,0,0,1,1.188,1.089l1.188-1.168A17.648,17.648,0,0,0,252.309,223.443Z" fill="#4dd0e1"/>
      </g>
    </g>
    <g id="Group_136943" data-name="Group 136943">
      <g id="Group_136942" data-name="Group 136942">
        <path id="Path_193768" data-name="Path 193768" d="M249.361,221.457l-.793,1.466c.476.258.942.539,1.385.837l.93-1.383C250.4,222.05,249.884,221.74,249.361,221.457Z" fill="#4dd0e1"/>
      </g>
    </g>
    <g id="Group_136945" data-name="Group 136945">
      <g id="Group_136944" data-name="Group 136944">
        <path id="Path_193769" data-name="Path 193769" d="M246.094,220.074l-.5,1.589c.519.164,1.03.353,1.518.561l.652-1.534C247.223,220.462,246.663,220.255,246.094,220.074Z" fill="#4dd0e1"/>
      </g>
    </g>
    <g id="Group_136947" data-name="Group 136947">
      <g id="Group_136946" data-name="Group 136946">
        <path id="Path_193770" data-name="Path 193770" d="M242.637,219.309l-.214,1.654c.538.069,1.076.163,1.6.279l.361-1.627C243.811,219.488,243.223,219.386,242.637,219.309Z" fill="#4dd0e1"/>
      </g>
    </g>
  </g>
</svg>
