<svg xmlns="http://www.w3.org/2000/svg" width="555" height="402" viewBox="0 0 555 402">
  <g id="_10" data-name="10" transform="translate(-812 -3910.895)">
    <g id="Group_141150" data-name="Group 141150">
      <path id="Path_199719" data-name="Path 199719" d="M0,0H510V2H0Z" transform="translate(857 3910.895)" fill="#4dd0e1" opacity="0.2"/>
      <path id="Path_199720" data-name="Path 199720" d="M0,0H510V2H0Z" transform="translate(857 4310.895)" fill="#4dd0e1" opacity="0.2"/>
      <path id="Path_199721" data-name="Path 199721" d="M0,0H190V402H0Z" transform="translate(1177 3910.895)" fill="#4dd0e1"/>
      <path id="metaverso-nft-ob-01-1" d="M15,0H529a15,15,0,0,1,15,15V369a15,15,0,0,1-15,15H15A15,15,0,0,1,0,369V15A15,15,0,0,1,15,0Z" transform="translate(812 3919.895)" fill="#fff"/>
      <path id="Path_199742" data-name="Path 199742" d="M6.386-3.777H2.729V0H.825V-9.242H6.843V-7.7H2.729v2.387H6.386ZM9.763,0H7.922V-6.868H9.763ZM7.814-8.646a.9.9,0,0,1,.276-.679,1.037,1.037,0,0,1,.752-.267,1.04,1.04,0,0,1,.749.267.9.9,0,0,1,.279.679.9.9,0,0,1-.282.686,1.042,1.042,0,0,1-.746.267A1.042,1.042,0,0,1,8.1-7.96.9.9,0,0,1,7.814-8.646Zm3.193,5.161a4.025,4.025,0,0,1,.752-2.545A2.437,2.437,0,0,1,13.787-7a2.138,2.138,0,0,1,1.758.774l.076-.647h1.663v6.64a2.935,2.935,0,0,1-.409,1.568,2.629,2.629,0,0,1-1.152,1.016,4.05,4.05,0,0,1-1.739.349,3.766,3.766,0,0,1-1.473-.3,2.614,2.614,0,0,1-1.085-.778L12.238.508a2.149,2.149,0,0,0,1.663.768,1.573,1.573,0,0,0,1.136-.39,1.464,1.464,0,0,0,.406-1.108V-.59a2.122,2.122,0,0,1-1.669.717,2.431,2.431,0,0,1-2-.968,4.024,4.024,0,0,1-.765-2.568Zm1.834.137a2.506,2.506,0,0,0,.375,1.465,1.191,1.191,0,0,0,1.028.531,1.274,1.274,0,0,0,1.2-.629V-4.874A1.271,1.271,0,0,0,14.257-5.5a1.2,1.2,0,0,0-1.038.54A2.825,2.825,0,0,0,12.841-3.348ZM22.807-.7a2.3,2.3,0,0,1-1.879.825,2.17,2.17,0,0,1-1.685-.635,2.71,2.71,0,0,1-.594-1.86v-4.5h1.834v4.442q0,1.074.978,1.074A1.325,1.325,0,0,0,22.744-2V-6.868h1.841V0H22.858Zm7.021-4.45a4.984,4.984,0,0,0-.66-.051,1.344,1.344,0,0,0-1.365.7V0H25.968V-6.868H27.7l.051.819A1.7,1.7,0,0,1,29.282-7a1.922,1.922,0,0,1,.571.083ZM34.5,0a2.037,2.037,0,0,1-.184-.616,2.22,2.22,0,0,1-1.733.743A2.439,2.439,0,0,1,30.91-.457a1.878,1.878,0,0,1-.663-1.473,1.941,1.941,0,0,1,.809-1.676A3.994,3.994,0,0,1,33.4-4.2h.844v-.394a1.132,1.132,0,0,0-.244-.762.961.961,0,0,0-.771-.286,1.093,1.093,0,0,0-.727.222.755.755,0,0,0-.263.609H30.4a1.843,1.843,0,0,1,.368-1.1,2.434,2.434,0,0,1,1.041-.8A3.794,3.794,0,0,1,33.319-7a3,3,0,0,1,2.015.638,2.232,2.232,0,0,1,.746,1.793v2.977a3.284,3.284,0,0,0,.273,1.479V0ZM32.982-1.276a1.58,1.58,0,0,0,.749-.181,1.188,1.188,0,0,0,.508-.486V-3.123h-.686q-1.377,0-1.466.952l-.006.108a.734.734,0,0,0,.241.565A.937.937,0,0,0,32.982-1.276ZM45.106,0H43.272V-7.071l-2.19.679V-7.884L44.91-9.255h.2ZM54.33-3.821a4.682,4.682,0,0,1-.793,2.933A2.77,2.77,0,0,1,51.213.127a2.789,2.789,0,0,1-2.311-1,4.545,4.545,0,0,1-.819-2.856v-1.7a4.621,4.621,0,0,1,.8-2.939,2.79,2.79,0,0,1,2.314-1,2.793,2.793,0,0,1,2.311.993,4.531,4.531,0,0,1,.819,2.853ZM52.5-5.692a3.384,3.384,0,0,0-.314-1.674A1.062,1.062,0,0,0,51.2-7.89a1.043,1.043,0,0,0-.955.5,3.167,3.167,0,0,0-.327,1.56v2.249A3.553,3.553,0,0,0,50.226-1.9a1.048,1.048,0,0,0,.987.55,1.03,1.03,0,0,0,.971-.527A3.468,3.468,0,0,0,52.5-3.493ZM3.485,8.758,5.1,16.286l4.24-7.528h1.568L9.306,18H8.119l.635-3.656.755-3.72L5.319,18H4.405l-1.65-7.522-.571,3.986L1.568,18H.375L1.98,8.758Zm12.143,8.563a2.652,2.652,0,0,1-2.05.806,1.712,1.712,0,0,1-1.457-.7,2.7,2.7,0,0,1-.352-1.854l.736-4.437h1.149l-.743,4.456a2.96,2.96,0,0,0-.013.546,1.136,1.136,0,0,0,.273.717.931.931,0,0,0,.673.279,2.061,2.061,0,0,0,1.9-1l.863-5h1.149L16.567,18H15.482Zm5.624.806a2.476,2.476,0,0,1-2.006-.946,3.255,3.255,0,0,1-.609-2.355l.032-.273a4.57,4.57,0,0,1,.606-1.866,3.526,3.526,0,0,1,1.216-1.273A2.836,2.836,0,0,1,22.039,11a2.184,2.184,0,0,1,1.663.7,2.9,2.9,0,0,1,.66,1.841,5.379,5.379,0,0,1-.025.825l-.07.527H19.779a2.32,2.32,0,0,0,.308,1.587,1.458,1.458,0,0,0,1.26.679,2.443,2.443,0,0,0,1.879-.914l.66.559a3.021,3.021,0,0,1-1.114.974A3.157,3.157,0,0,1,21.252,18.127Zm.73-6.164a1.678,1.678,0,0,0-1.241.482,3.429,3.429,0,0,0-.841,1.492l3.339.006.025-.1a1.879,1.879,0,0,0-.257-1.33A1.209,1.209,0,0,0,21.982,11.963Zm7.293,4.177q.1-.711-.781-1L27.3,14.788q-1.511-.521-1.46-1.727a1.9,1.9,0,0,1,.828-1.489A2.95,2.95,0,0,1,28.514,11a2.46,2.46,0,0,1,1.692.606,1.92,1.92,0,0,1,.625,1.546l-1.143-.006a1.072,1.072,0,0,0-.324-.838,1.281,1.281,0,0,0-.9-.336,1.673,1.673,0,0,0-1.028.292,1.069,1.069,0,0,0-.463.749q-.083.6.73.87l.578.159a3.719,3.719,0,0,1,1.676.793,1.515,1.515,0,0,1,.457,1.212A1.926,1.926,0,0,1,30,17.168a2.4,2.4,0,0,1-1.016.727,3.4,3.4,0,0,1-1.352.232,2.679,2.679,0,0,1-1.8-.638,1.972,1.972,0,0,1-.686-1.609l1.149.006a1.217,1.217,0,0,0,.368.927,1.407,1.407,0,0,0,1.009.349,1.979,1.979,0,0,0,1.085-.263A1.014,1.014,0,0,0,29.275,16.14ZM34.62,9.469l-.292,1.663h1.25l-.159.908H34.176l-.717,4.272a1.489,1.489,0,0,0-.006.3.484.484,0,0,0,.54.5,3.291,3.291,0,0,0,.559-.063l-.089.958a3.126,3.126,0,0,1-.838.114,1.2,1.2,0,0,1-1.028-.5,1.952,1.952,0,0,1-.267-1.323l.7-4.253H31.814l.159-.908h1.212l.292-1.663Zm5.421,2.71-.54-.057a1.966,1.966,0,0,0-1.739,1L36.918,18H35.769l1.193-6.868,1.111-.006-.171.8a2.054,2.054,0,0,1,1.72-.933,2.107,2.107,0,0,1,.546.1ZM44.046,18A1.539,1.539,0,0,1,44,17.638l.019-.362a2.816,2.816,0,0,1-2.006.851,2.052,2.052,0,0,1-1.476-.574,1.739,1.739,0,0,1-.517-1.406,2.114,2.114,0,0,1,.955-1.7,4.067,4.067,0,0,1,2.345-.613l1.2.006.076-.546a1.255,1.255,0,0,0-.238-.974,1.149,1.149,0,0,0-.9-.371,1.772,1.772,0,0,0-1.044.289,1.229,1.229,0,0,0-.555.8l-1.155.006a1.841,1.841,0,0,1,.47-1.07,2.733,2.733,0,0,1,1.06-.724A3.424,3.424,0,0,1,43.57,11a2.277,2.277,0,0,1,1.669.651,2.018,2.018,0,0,1,.5,1.66l-.559,3.4-.032.489a2.4,2.4,0,0,0,.076.692L45.214,18Zm-1.8-.889a2,2,0,0,0,1.044-.263,2.644,2.644,0,0,0,.847-.765l.248-1.416-.87-.006A3.294,3.294,0,0,0,41.85,15a1.262,1.262,0,0,0-.654.971.983.983,0,0,0,.225.8A1.073,1.073,0,0,0,42.244,17.111ZM54.158,18a1.539,1.539,0,0,1-.044-.362l.019-.362a2.816,2.816,0,0,1-2.006.851,2.052,2.052,0,0,1-1.476-.574,1.739,1.739,0,0,1-.517-1.406,2.114,2.114,0,0,1,.955-1.7,4.067,4.067,0,0,1,2.345-.613l1.2.006.076-.546a1.255,1.255,0,0,0-.238-.974,1.149,1.149,0,0,0-.9-.371,1.772,1.772,0,0,0-1.044.289,1.229,1.229,0,0,0-.555.8l-1.155.006a1.841,1.841,0,0,1,.47-1.07,2.733,2.733,0,0,1,1.06-.724A3.424,3.424,0,0,1,53.682,11a2.277,2.277,0,0,1,1.669.651,2.018,2.018,0,0,1,.5,1.66l-.559,3.4-.032.489a2.4,2.4,0,0,0,.076.692L55.326,18Zm-1.8-.889a2,2,0,0,0,1.044-.263,2.644,2.644,0,0,0,.847-.765l.248-1.416-.87-.006A3.294,3.294,0,0,0,51.962,15a1.262,1.262,0,0,0-.654.971.983.983,0,0,0,.225.8A1.073,1.073,0,0,0,52.355,17.111Zm4.856-2.558a5.344,5.344,0,0,1,.578-1.892A3.275,3.275,0,0,1,58.9,11.4a2.54,2.54,0,0,1,1.454-.4,2.145,2.145,0,0,1,1.765.838l.66-3.586h1.149L62.239,18H61.191l.121-.736a2.532,2.532,0,0,1-2.006.863,1.9,1.9,0,0,1-1.517-.746,3.25,3.25,0,0,1-.609-1.933A6.173,6.173,0,0,1,57.211,14.553Zm1.1.656a2.38,2.38,0,0,0,.324,1.407,1.168,1.168,0,0,0,1,.514,2.075,2.075,0,0,0,1.771-1l.546-3.17A1.425,1.425,0,0,0,60.576,12a1.741,1.741,0,0,0-1.2.409,2.645,2.645,0,0,0-.787,1.2A4.941,4.941,0,0,0,58.316,15.209Zm8.709,2.918a2.476,2.476,0,0,1-2.006-.946,3.255,3.255,0,0,1-.609-2.355l.032-.273a4.57,4.57,0,0,1,.606-1.866,3.526,3.526,0,0,1,1.216-1.273A2.836,2.836,0,0,1,67.812,11a2.184,2.184,0,0,1,1.663.7,2.9,2.9,0,0,1,.66,1.841,5.379,5.379,0,0,1-.025.825l-.07.527H65.552a2.32,2.32,0,0,0,.308,1.587,1.458,1.458,0,0,0,1.26.679A2.443,2.443,0,0,0,69,16.254l.66.559a3.021,3.021,0,0,1-1.114.974A3.157,3.157,0,0,1,67.025,18.127Zm.73-6.164a1.678,1.678,0,0,0-1.241.482,3.429,3.429,0,0,0-.841,1.492l3.339.006.025-.1a1.879,1.879,0,0,0-.257-1.33A1.209,1.209,0,0,0,67.755,11.963ZM73.7,17.175a1.743,1.743,0,0,0,1.111-.359,1.706,1.706,0,0,0,.647-.974l1.085-.006a2.449,2.449,0,0,1-.517,1.181,2.99,2.99,0,0,1-2.377,1.111,2.451,2.451,0,0,1-1.45-.448,2.506,2.506,0,0,1-.873-1.212,4.04,4.04,0,0,1-.19-1.749l.032-.317a4.554,4.554,0,0,1,.578-1.771,3.34,3.34,0,0,1,1.193-1.216A2.964,2.964,0,0,1,74.56,11a2.321,2.321,0,0,1,1.727.724,2.5,2.5,0,0,1,.647,1.771l-1.073-.006a1.649,1.649,0,0,0-.375-1.089,1.306,1.306,0,0,0-.978-.441,1.831,1.831,0,0,0-1.489.667,3.491,3.491,0,0,0-.74,1.917l-.019.165a5.505,5.505,0,0,0-.013.838,1.914,1.914,0,0,0,.419,1.174A1.346,1.346,0,0,0,73.7,17.175Zm8.125.146a2.652,2.652,0,0,1-2.05.806,1.712,1.712,0,0,1-1.457-.7,2.7,2.7,0,0,1-.352-1.854l.736-4.437h1.149L79.1,15.588a2.96,2.96,0,0,0-.013.546,1.136,1.136,0,0,0,.273.717.931.931,0,0,0,.673.279,2.061,2.061,0,0,0,1.9-1l.863-5h1.149L82.761,18H81.675ZM88.677,18a1.538,1.538,0,0,1-.044-.362l.019-.362a2.816,2.816,0,0,1-2.006.851,2.052,2.052,0,0,1-1.476-.574,1.739,1.739,0,0,1-.517-1.406,2.114,2.114,0,0,1,.955-1.7,4.067,4.067,0,0,1,2.345-.613l1.2.006.076-.546a1.255,1.255,0,0,0-.238-.974,1.149,1.149,0,0,0-.9-.371,1.772,1.772,0,0,0-1.044.289,1.229,1.229,0,0,0-.555.8l-1.155.006a1.841,1.841,0,0,1,.47-1.07,2.733,2.733,0,0,1,1.06-.724A3.424,3.424,0,0,1,88.2,11a2.277,2.277,0,0,1,1.669.651,2.018,2.018,0,0,1,.5,1.66l-.559,3.4-.032.489a2.4,2.4,0,0,0,.076.692L89.845,18Zm-1.8-.889a2,2,0,0,0,1.044-.263,2.644,2.644,0,0,0,.847-.765l.248-1.416-.87-.006A3.294,3.294,0,0,0,86.48,15a1.262,1.262,0,0,0-.654.971.983.983,0,0,0,.225.8A1.073,1.073,0,0,0,86.874,17.111Zm4.856-2.558a5.344,5.344,0,0,1,.578-1.892A3.275,3.275,0,0,1,93.418,11.4a2.54,2.54,0,0,1,1.454-.4,2.145,2.145,0,0,1,1.765.838L97.3,8.25h1.149L96.757,18H95.71l.121-.736a2.532,2.532,0,0,1-2.006.863,1.9,1.9,0,0,1-1.517-.746,3.25,3.25,0,0,1-.609-1.933A6.173,6.173,0,0,1,91.73,14.553Zm1.1.656a2.38,2.38,0,0,0,.324,1.407,1.168,1.168,0,0,0,1,.514,2.075,2.075,0,0,0,1.771-1l.546-3.17A1.425,1.425,0,0,0,95.094,12a1.741,1.741,0,0,0-1.2.409,2.645,2.645,0,0,0-.787,1.2A4.942,4.942,0,0,0,92.834,15.209ZM102.775,18a1.538,1.538,0,0,1-.044-.362l.019-.362a2.816,2.816,0,0,1-2.006.851,2.052,2.052,0,0,1-1.476-.574,1.739,1.739,0,0,1-.517-1.406,2.114,2.114,0,0,1,.955-1.7,4.067,4.067,0,0,1,2.345-.613l1.2.006.076-.546a1.255,1.255,0,0,0-.238-.974,1.149,1.149,0,0,0-.9-.371,1.772,1.772,0,0,0-1.044.289,1.229,1.229,0,0,0-.555.8l-1.155.006a1.841,1.841,0,0,1,.47-1.07,2.733,2.733,0,0,1,1.06-.724A3.424,3.424,0,0,1,102.3,11a2.277,2.277,0,0,1,1.669.651,2.018,2.018,0,0,1,.5,1.66l-.559,3.4-.032.489a2.4,2.4,0,0,0,.076.692l-.013.108Zm-1.8-.889a2,2,0,0,0,1.044-.263,2.644,2.644,0,0,0,.847-.765l.248-1.416-.87-.006a3.294,3.294,0,0,0-1.663.343,1.262,1.262,0,0,0-.654.971.983.983,0,0,0,.225.8A1.073,1.073,0,0,0,100.972,17.111Z" transform="translate(852 3972.895)" fill="#12263f"/>
      <path id="Path_199743" data-name="Path 199743" d="M0,0H4V40H0Z" transform="translate(832 3956.895)" fill="#4dd0e1"/>
      <g id="Path_199722" data-name="Path 199722" transform="translate(848 4184.895)" fill="#feca2e">
        <path d="M 135 97 L 1 97 L 1 1 L 135 1 L 135 97 Z" stroke="none"/>
        <path d="M 2 2 L 2 96 L 134 96 L 134 2 L 2 2 M 0 0 L 136 0 L 136 98 L 0 98 L 0 0 Z" stroke="none" fill="#fff"/>
      </g>
      <g id="Path_199723" data-name="Path 199723" transform="translate(1024 4025.894)" fill="#feca2e">
        <path d="M 110.797981262207 48.53320693969727 L 24.76661491394043 48.53320693969727 C 21.55770492553711 48.53320693969727 18.44530487060547 47.90494918823242 15.51588726043701 46.66591262817383 C 12.68588733673096 45.46893310546875 10.14408779144287 43.75513076782227 7.961087703704834 41.5721321105957 C 5.778069496154785 39.38913345336914 4.064269542694092 36.84731292724609 2.867287635803223 34.017333984375 C 1.628251194953918 31.08791542053223 0.9999966621398926 27.97551536560059 0.9999966621398926 24.76660537719727 C 0.9999966621398926 21.55769538879395 1.628251194953918 18.4452953338623 2.867287635803223 15.51587772369385 C 4.064269542694092 12.6858959197998 5.778069496154785 10.14407825469971 7.961087703704834 7.96107816696167 C 10.14408779144287 5.778078079223633 12.68588733673096 4.064278125762939 15.51588726043701 2.86729621887207 C 18.44530487060547 1.628259897232056 21.55770492553711 1.00000536441803 24.76661491394043 1.00000536441803 L 110.797981262207 1.00000536441803 C 114.0068893432617 1.00000536441803 117.1192855834961 1.628259897232056 120.0487060546875 2.86729621887207 C 122.8787078857422 4.064278125762939 125.4205093383789 5.778078079223633 127.6035079956055 7.96107816696167 C 129.7864990234375 10.14407825469971 131.5003051757812 12.68587779998779 132.6972808837891 15.51587772369385 C 133.9363250732422 18.4452953338623 134.5645751953125 21.55769538879395 134.5645751953125 24.76660537719727 C 134.5645751953125 27.97551536560059 133.9363250732422 31.08791542053223 132.6972808837891 34.017333984375 C 131.5003051757812 36.84733200073242 129.7864990234375 39.38913345336914 127.6035079956055 41.5721321105957 C 125.4205093383789 43.75513076782227 122.8787078857422 45.46893310546875 120.0487060546875 46.66591262817383 C 117.1192855834961 47.90494918823242 114.0068893432617 48.53320693969727 110.797981262207 48.53320693969727 Z" stroke="none"/>
        <path d="M 24.76660919189453 2.000003814697266 C 21.69224548339844 2.000003814697266 18.71092987060547 2.601665496826172 15.90542602539062 3.788307189941406 C 13.19462585449219 4.934864044189453 10.75966644287109 6.576705932617188 8.668190002441406 8.668186187744141 C 6.576690673828125 10.75968551635742 4.934844970703125 13.19464492797852 3.788284301757812 15.90542602539062 C 2.601654052734375 18.7109260559082 1.999984741210938 21.69224548339844 1.999984741210938 24.76660537719727 C 1.999984741210938 27.84096527099609 2.601654052734375 30.82228469848633 3.788284301757812 33.62778472900391 C 4.934844970703125 36.33856582641602 6.576690673828125 38.77352523803711 8.668190002441406 40.86502456665039 C 10.75966644287109 42.95650482177734 13.19462585449219 44.59834671020508 15.90542602539062 45.74490356445312 C 18.71092987060547 46.93154525756836 21.69224548339844 47.53320693969727 24.76660919189453 47.53320693969727 L 110.797966003418 47.53320693969727 C 113.8723297119141 47.53320693969727 116.853645324707 46.93154525756836 119.6591491699219 45.74490356445312 C 122.3699264526367 44.59834671020508 124.8048858642578 42.95650482177734 126.8963851928711 40.86502456665039 C 128.9878692626953 38.77352523803711 130.6297149658203 36.33856582641602 131.7762603759766 33.62778472900391 C 132.9629058837891 30.82228469848633 133.5645751953125 27.84096527099609 133.5645751953125 24.76660537719727 C 133.5645751953125 21.69224548339844 132.9629058837891 18.7109260559082 131.7762603759766 15.90542602539062 C 130.6297149658203 13.19464492797852 128.9878692626953 10.75968551635742 126.8963851928711 8.668186187744141 C 124.8048858642578 6.576705932617188 122.3699264526367 4.934864044189453 119.6591491699219 3.788307189941406 C 116.853645324707 2.601665496826172 113.8723297119141 2.000003814697266 110.797966003418 2.000003814697266 L 24.76660919189453 2.000003814697266 M 24.76660919189453 3.814697265625e-06 L 110.797966003418 3.814697265625e-06 C 124.476188659668 3.814697265625e-06 135.5645751953125 11.08838653564453 135.5645751953125 24.76660537719727 C 135.5645751953125 38.44482421875 124.476188659668 49.53320693969727 110.797966003418 49.53320693969727 L 24.76660919189453 49.53320693969727 C 11.08838653564453 49.53320693969727 -1.52587890625e-05 38.44482421875 -1.52587890625e-05 24.76660537719727 C -1.52587890625e-05 11.08838653564453 11.08838653564453 3.814697265625e-06 24.76660919189453 3.814697265625e-06 Z" stroke="none" fill="#fff"/>
      </g>
      <path id="Path_199724" data-name="Path 199724" d="M0,0V11.884" transform="translate(1092.156 4078.683)" fill="none" stroke="#0f2771" stroke-width="1.5"/>
      <path id="Path_199725" data-name="Path 199725" d="M6.952,0,13.9,12.166H0Z" transform="translate(1099.604 4102.58) rotate(180)" fill="#0f2771"/>
      <path id="Path_199726" data-name="Path 199726" d="M-31.418-9.953v6.768a3.175,3.175,0,0,1-.885,2.3,3.567,3.567,0,0,1-2.382,1l-.349.014a3.725,3.725,0,0,1-2.6-.882,3.154,3.154,0,0,1-.984-2.427V-9.953h1.3v6.74a2.277,2.277,0,0,0,.595,1.678,2.286,2.286,0,0,0,1.7.6,2.3,2.3,0,0,0,1.706-.595,2.272,2.272,0,0,0,.591-1.675V-9.953ZM-28.349-7.4l.041.93a2.7,2.7,0,0,1,2.215-1.066q2.345,0,2.365,2.646V0h-1.265V-4.895a1.7,1.7,0,0,0-.366-1.183,1.466,1.466,0,0,0-1.118-.383,1.825,1.825,0,0,0-1.08.328,2.228,2.228,0,0,0-.725.861V0h-1.265V-7.4ZM-17.254,0a2.657,2.657,0,0,1-.178-.779,2.822,2.822,0,0,1-2.105.916,2.611,2.611,0,0,1-1.794-.619,2,2,0,0,1-.7-1.569,2.091,2.091,0,0,1,.878-1.794,4.142,4.142,0,0,1,2.471-.639h1.23v-.581a1.42,1.42,0,0,0-.4-1.056,1.593,1.593,0,0,0-1.169-.393,1.844,1.844,0,0,0-1.135.342,1.007,1.007,0,0,0-.458.827h-1.271a1.745,1.745,0,0,1,.393-1.07,2.683,2.683,0,0,1,1.066-.817,3.588,3.588,0,0,1,1.48-.3,2.924,2.924,0,0,1,2,.639,2.306,2.306,0,0,1,.752,1.76v3.4a4.162,4.162,0,0,0,.26,1.62V0Zm-2.1-.964a2.223,2.223,0,0,0,1.128-.308,1.861,1.861,0,0,0,.772-.8V-3.589h-.991q-2.324,0-2.324,1.36a1.151,1.151,0,0,0,.4.93A1.524,1.524,0,0,0-19.353-.964ZM-9.55-7.4l.034.82a2.732,2.732,0,0,1,2.194-.957A2.115,2.115,0,0,1-5.209-6.344a2.8,2.8,0,0,1,.96-.861,2.837,2.837,0,0,1,1.4-.328q2.434,0,2.475,2.577V0H-1.641V-4.881A1.7,1.7,0,0,0-2-6.067,1.6,1.6,0,0,0-3.22-6.46a1.677,1.677,0,0,0-1.169.42,1.706,1.706,0,0,0-.54,1.131V0H-6.2V-4.847A1.411,1.411,0,0,0-7.779-6.46a1.692,1.692,0,0,0-1.7,1.06V0h-1.265V-7.4ZM6.1-.731A2.686,2.686,0,0,1,3.931.137a2.3,2.3,0,0,1-1.8-.687A2.974,2.974,0,0,1,1.5-2.584V-7.4H2.769v4.778q0,1.682,1.367,1.682a1.893,1.893,0,0,0,1.928-1.08V-7.4H7.328V0h-1.2Zm6.221.868A3.232,3.232,0,0,1,9.871-.851a3.666,3.666,0,0,1-.943-2.642v-.232a4.438,4.438,0,0,1,.42-1.965,3.28,3.28,0,0,1,1.176-1.354,2.956,2.956,0,0,1,1.637-.489,2.77,2.77,0,0,1,2.242.95,4.114,4.114,0,0,1,.8,2.721v.526H10.192a2.629,2.629,0,0,0,.639,1.767A2.009,2.009,0,0,0,12.387-.9a2.2,2.2,0,0,0,1.135-.273,2.851,2.851,0,0,0,.813-.725l.772.6A3.106,3.106,0,0,1,12.318.137Zm-.157-6.631a1.687,1.687,0,0,0-1.285.557,2.708,2.708,0,0,0-.643,1.562h3.705v-.1a2.409,2.409,0,0,0-.52-1.494A1.588,1.588,0,0,0,12.161-6.494Zm8.812,4.532a.931.931,0,0,0-.386-.8,3.718,3.718,0,0,0-1.347-.489,6.367,6.367,0,0,1-1.524-.492,2.169,2.169,0,0,1-.834-.684,1.635,1.635,0,0,1-.27-.943A1.919,1.919,0,0,1,17.38-6.9a3,3,0,0,1,1.965-.629,3.091,3.091,0,0,1,2.041.649,2.063,2.063,0,0,1,.783,1.661H20.9a1.142,1.142,0,0,0-.441-.9,1.652,1.652,0,0,0-1.111-.376,1.729,1.729,0,0,0-1.08.3.947.947,0,0,0-.39.786.767.767,0,0,0,.362.69,4.458,4.458,0,0,0,1.309.444,6.821,6.821,0,0,1,1.535.506,2.239,2.239,0,0,1,.872.708,1.74,1.74,0,0,1,.284,1.008,1.893,1.893,0,0,1-.793,1.589,3.326,3.326,0,0,1-2.058.6,3.725,3.725,0,0,1-1.572-.314,2.557,2.557,0,0,1-1.07-.878,2.117,2.117,0,0,1-.386-1.22h1.265a1.309,1.309,0,0,0,.509,1.008A1.976,1.976,0,0,0,19.387-.9a2.039,2.039,0,0,0,1.152-.291A.893.893,0,0,0,20.973-1.962ZM25.6-9.187V-7.4h1.381v.978H25.6v4.593a1.027,1.027,0,0,0,.185.667.777.777,0,0,0,.629.222,3.062,3.062,0,0,0,.6-.082V0a3.688,3.688,0,0,1-.971.136,1.575,1.575,0,0,1-1.278-.513,2.2,2.2,0,0,1-.431-1.456V-6.419H22.989V-7.4h1.347V-9.187Zm6.433,2.926a3.79,3.79,0,0,0-.622-.048,1.667,1.667,0,0,0-1.688,1.06V0H28.458V-7.4h1.23l.021.854a1.969,1.969,0,0,1,1.764-.991,1.292,1.292,0,0,1,.561.1ZM37.488,0a2.657,2.657,0,0,1-.178-.779,2.822,2.822,0,0,1-2.105.916,2.611,2.611,0,0,1-1.794-.619,2,2,0,0,1-.7-1.569,2.091,2.091,0,0,1,.878-1.794,4.142,4.142,0,0,1,2.471-.639h1.23v-.581a1.42,1.42,0,0,0-.4-1.056,1.593,1.593,0,0,0-1.169-.393,1.844,1.844,0,0,0-1.135.342,1.007,1.007,0,0,0-.458.827H32.86a1.745,1.745,0,0,1,.393-1.07,2.683,2.683,0,0,1,1.066-.817,3.588,3.588,0,0,1,1.48-.3,2.924,2.924,0,0,1,2,.639,2.306,2.306,0,0,1,.752,1.76v3.4a4.162,4.162,0,0,0,.26,1.62V0Zm-2.1-.964a2.223,2.223,0,0,0,1.128-.308,1.861,1.861,0,0,0,.772-.8V-3.589H36.3q-2.324,0-2.324,1.36a1.151,1.151,0,0,0,.4.93A1.524,1.524,0,0,0,35.39-.964Z" transform="translate(1089.636 4056.274)" fill="#12263f"/>
      <path id="Path_199727" data-name="Path 199727" d="M-30.324-3.76A4.333,4.333,0,0,1-29.518-6.5a2.551,2.551,0,0,1,2.112-1.036,2.565,2.565,0,0,1,2.058.889V-10.5h1.265V0h-1.162l-.062-.793a2.575,2.575,0,0,1-2.112.93,2.526,2.526,0,0,1-2.1-1.053,4.382,4.382,0,0,1-.81-2.748Zm1.265.144a3.281,3.281,0,0,0,.52,1.969A1.68,1.68,0,0,0-27.1-.937a1.845,1.845,0,0,0,1.757-1.08v-3.4A1.859,1.859,0,0,0-27.091-6.46a1.687,1.687,0,0,0-1.449.718A3.612,3.612,0,0,0-29.06-3.616ZM-19.052.137A3.232,3.232,0,0,1-21.5-.851a3.666,3.666,0,0,1-.943-2.642v-.232a4.438,4.438,0,0,1,.42-1.965,3.28,3.28,0,0,1,1.176-1.354,2.956,2.956,0,0,1,1.637-.489,2.77,2.77,0,0,1,2.242.95,4.114,4.114,0,0,1,.8,2.721v.526h-5.011a2.629,2.629,0,0,0,.639,1.767A2.009,2.009,0,0,0-18.983-.9a2.2,2.2,0,0,0,1.135-.273,2.851,2.851,0,0,0,.813-.725l.772.6A3.106,3.106,0,0,1-19.052.137Zm-.157-6.631a1.687,1.687,0,0,0-1.285.557,2.708,2.708,0,0,0-.643,1.562h3.705v-.1a2.409,2.409,0,0,0-.52-1.494A1.588,1.588,0,0,0-19.209-6.494ZM-8.442-3.616A4.4,4.4,0,0,1-9.222-.892,2.49,2.49,0,0,1-11.313.137,2.578,2.578,0,0,1-13.48-.854L-13.542,0H-14.7V-10.5h1.265v3.917a2.564,2.564,0,0,1,2.112-.95A2.505,2.505,0,0,1-9.211-6.515a4.53,4.53,0,0,1,.769,2.789ZM-9.707-3.76a3.417,3.417,0,0,0-.5-2,1.652,1.652,0,0,0-1.436-.7,1.857,1.857,0,0,0-1.8,1.162v3.2A1.909,1.909,0,0,0-11.628-.937a1.643,1.643,0,0,0,1.415-.7A3.634,3.634,0,0,0-9.707-3.76ZM-3.78.137A3.232,3.232,0,0,1-6.228-.851a3.666,3.666,0,0,1-.943-2.642v-.232a4.438,4.438,0,0,1,.42-1.965A3.28,3.28,0,0,1-5.575-7.044a2.956,2.956,0,0,1,1.637-.489,2.77,2.77,0,0,1,2.242.95A4.114,4.114,0,0,1-.9-3.862v.526H-5.906a2.629,2.629,0,0,0,.639,1.767A2.009,2.009,0,0,0-3.712-.9a2.2,2.2,0,0,0,1.135-.273,2.851,2.851,0,0,0,.813-.725l.772.6A3.106,3.106,0,0,1-3.78.137Zm-.157-6.631a1.687,1.687,0,0,0-1.285.557,2.708,2.708,0,0,0-.643,1.562H-2.16v-.1a2.409,2.409,0,0,0-.52-1.494A1.588,1.588,0,0,0-3.937-6.494ZM8.34-1.962a.931.931,0,0,0-.386-.8,3.718,3.718,0,0,0-1.347-.489,6.367,6.367,0,0,1-1.524-.492,2.169,2.169,0,0,1-.834-.684,1.635,1.635,0,0,1-.27-.943A1.919,1.919,0,0,1,4.748-6.9a3,3,0,0,1,1.965-.629,3.091,3.091,0,0,1,2.041.649,2.063,2.063,0,0,1,.783,1.661H8.265a1.142,1.142,0,0,0-.441-.9,1.652,1.652,0,0,0-1.111-.376,1.729,1.729,0,0,0-1.08.3.947.947,0,0,0-.39.786.767.767,0,0,0,.362.69,4.458,4.458,0,0,0,1.309.444,6.821,6.821,0,0,1,1.535.506,2.239,2.239,0,0,1,.872.708A1.74,1.74,0,0,1,9.6-2.051,1.893,1.893,0,0,1,8.812-.461a3.326,3.326,0,0,1-2.058.6A3.725,3.725,0,0,1,5.182-.178a2.557,2.557,0,0,1-1.07-.878,2.117,2.117,0,0,1-.386-1.22H4.99A1.309,1.309,0,0,0,5.5-1.268,1.976,1.976,0,0,0,6.754-.9a2.039,2.039,0,0,0,1.152-.291A.893.893,0,0,0,8.34-1.962Zm5.981,2.1a3.232,3.232,0,0,1-2.447-.988,3.666,3.666,0,0,1-.943-2.642v-.232a4.438,4.438,0,0,1,.42-1.965,3.28,3.28,0,0,1,1.176-1.354,2.956,2.956,0,0,1,1.637-.489,2.77,2.77,0,0,1,2.242.95,4.114,4.114,0,0,1,.8,2.721v.526H12.2a2.629,2.629,0,0,0,.639,1.767A2.009,2.009,0,0,0,14.39-.9a2.2,2.2,0,0,0,1.135-.273,2.851,2.851,0,0,0,.813-.725l.772.6A3.106,3.106,0,0,1,14.321.137Zm-.157-6.631a1.687,1.687,0,0,0-1.285.557,2.708,2.708,0,0,0-.643,1.562h3.705v-.1a2.409,2.409,0,0,0-.52-1.494A1.588,1.588,0,0,0,14.164-6.494Zm8.08.232a3.79,3.79,0,0,0-.622-.048,1.667,1.667,0,0,0-1.688,1.06V0H18.669V-7.4H19.9l.021.854a1.969,1.969,0,0,1,1.764-.991,1.292,1.292,0,0,1,.561.1Zm.376,5.6a.792.792,0,0,1,.195-.547.742.742,0,0,1,.584-.219.765.765,0,0,1,.591.219.776.776,0,0,1,.2.547.734.734,0,0,1-.2.526A.778.778,0,0,1,23.4.075a.755.755,0,0,1-.584-.212A.748.748,0,0,1,22.62-.663Zm2.987,0A.792.792,0,0,1,25.8-1.21a.742.742,0,0,1,.584-.219.765.765,0,0,1,.591.219.776.776,0,0,1,.2.547.734.734,0,0,1-.2.526.778.778,0,0,1-.591.212A.755.755,0,0,1,25.8-.137.748.748,0,0,1,25.607-.663Zm2.837,0a.792.792,0,0,1,.195-.547.742.742,0,0,1,.584-.219.765.765,0,0,1,.591.219.776.776,0,0,1,.2.547.734.734,0,0,1-.2.526.778.778,0,0,1-.591.212.755.755,0,0,1-.584-.212A.748.748,0,0,1,28.444-.663Z" transform="translate(1090.194 4119.533)" fill="#12263f"/>
      <path id="Path_199728" data-name="Path 199728" d="M0,0H162.162" transform="translate(1009.6 4130.248)" fill="none" stroke="#0f2771" stroke-width="1.5"/>
      <path id="Path_199729" data-name="Path 199729" d="M7.13,0l7.13,14.078H0Z" transform="translate(1185.253 4122.608) rotate(90)" fill="#0f2771"/>
      <path id="Path_199730" data-name="Path 199730" d="M7.13,0l7.13,12.223H0Z" transform="translate(997 4136.869) rotate(-90)" fill="#0f2771"/>
      <g id="Path_199731" data-name="Path 199731" transform="translate(848 4104.895)" fill="#4dd0e1">
        <path d="M 111.5 48 L 24.5 48 C 21.32707214355469 48 18.24959945678711 47.37879943847656 15.35303592681885 46.15367126464844 C 12.55480003356934 44.97010803222656 10.04150867462158 43.27552795410156 7.882981777191162 41.11701965332031 C 5.724472522735596 38.95849227905273 4.029891014099121 36.4452018737793 2.846327304840088 33.64696502685547 C 1.62119996547699 30.75040054321289 1 27.67292785644531 1 24.5 C 1 21.32707214355469 1.62119996547699 18.24959945678711 2.846327304840088 15.35303592681885 C 4.029891014099121 12.55480003356934 5.724472522735596 10.04150867462158 7.882981777191162 7.882981777191162 C 10.04150867462158 5.724472522735596 12.55480003356934 4.029891014099121 15.35303592681885 2.846327304840088 C 18.24959945678711 1.62119996547699 21.32707214355469 1 24.5 1 L 111.5 1 C 114.6729278564453 1 117.7503967285156 1.62119996547699 120.6469650268555 2.846327304840088 C 123.445198059082 4.029891014099121 125.9584884643555 5.724472522735596 128.1170196533203 7.882981777191162 C 130.2755279541016 10.04150867462158 131.9701080322266 12.55480003356934 133.1536712646484 15.35303592681885 C 134.3787994384766 18.24959945678711 135 21.32707214355469 135 24.5 C 135 27.67292785644531 134.3787994384766 30.75040054321289 133.1536712646484 33.64696502685547 C 131.9701080322266 36.4452018737793 130.2755279541016 38.95849227905273 128.1170196533203 41.11701965332031 C 125.9584884643555 43.27552795410156 123.445198059082 44.97010803222656 120.6469650268555 46.15367126464844 C 117.7503967285156 47.37879943847656 114.6729278564453 48 111.5 48 Z" stroke="none"/>
        <path d="M 24.5 2 C 21.46163940429688 2 18.51522064208984 2.594619750976562 15.74259948730469 3.767341613769531 C 13.06356048583984 4.900478363037109 10.65709686279297 6.523078918457031 8.590103149414062 8.590099334716797 C 6.523086547851562 10.65710067749023 4.900482177734375 13.06356048583984 3.767333984375 15.74259948730469 C 2.594619750976562 18.51522064208984 2 21.46163940429688 2 24.5 C 2 27.53836059570312 2.594619750976562 30.48477935791016 3.767333984375 33.25740051269531 C 4.900482177734375 35.93643951416016 6.523086547851562 38.34289932250977 8.590103149414062 40.4099006652832 C 10.65709686279297 42.47692108154297 13.06356048583984 44.09952163696289 15.74259948730469 45.23265838623047 C 18.51522064208984 46.40538024902344 21.46163940429688 47 24.5 47 L 111.5 47 C 114.5383605957031 47 117.4847793579102 46.40538024902344 120.2574005126953 45.23265838623047 C 122.9364395141602 44.09952163696289 125.342903137207 42.47692108154297 127.4098968505859 40.4099006652832 C 129.4769134521484 38.34289932250977 131.0995178222656 35.93643951416016 132.232666015625 33.25740051269531 C 133.4053802490234 30.48477935791016 134 27.53836059570312 134 24.5 C 134 21.46163940429688 133.4053802490234 18.51522064208984 132.232666015625 15.74259948730469 C 131.0995178222656 13.06356048583984 129.4769134521484 10.65710067749023 127.4098968505859 8.590099334716797 C 125.342903137207 6.523078918457031 122.9364395141602 4.900478363037109 120.2574005126953 3.767341613769531 C 117.4847793579102 2.594619750976562 114.5383605957031 2 111.5 2 L 24.5 2 M 24.5 0 L 111.5 0 C 125.0309829711914 0 136 10.96902084350586 136 24.5 C 136 38.03097915649414 125.0309829711914 49 111.5 49 L 24.5 49 C 10.96901702880859 49 0 38.03097915649414 0 24.5 C 0 10.96902084350586 10.96901702880859 0 24.5 0 Z" stroke="none" fill="#fff"/>
      </g>
      <path id="Path_199732" data-name="Path 199732" d="M-41.559-4.026H-43.9V0h-1.319V-9.953h3.295a3.9,3.9,0,0,1,2.587.766,2.755,2.755,0,0,1,.906,2.229,2.68,2.68,0,0,1-.5,1.62,3,3,0,0,1-1.4,1.032l2.338,4.225V0H-39.4ZM-43.9-5.1h2.017a2.275,2.275,0,0,0,1.555-.507,1.714,1.714,0,0,0,.578-1.356A1.8,1.8,0,0,0-40.3-8.38a2.33,2.33,0,0,0-1.589-.5H-43.9ZM-33.718.137a3.232,3.232,0,0,1-2.447-.988,3.666,3.666,0,0,1-.943-2.642v-.232a4.438,4.438,0,0,1,.42-1.965,3.28,3.28,0,0,1,1.176-1.354,2.956,2.956,0,0,1,1.637-.489,2.77,2.77,0,0,1,2.242.95,4.114,4.114,0,0,1,.8,2.721v.526h-5.011a2.629,2.629,0,0,0,.639,1.767A2.009,2.009,0,0,0-33.65-.9a2.2,2.2,0,0,0,1.135-.273,2.851,2.851,0,0,0,.813-.725l.772.6A3.106,3.106,0,0,1-33.718.137Zm-.157-6.631a1.687,1.687,0,0,0-1.285.557A2.708,2.708,0,0,0-35.8-4.375H-32.1v-.1a2.409,2.409,0,0,0-.52-1.494A1.588,1.588,0,0,0-33.875-6.494Zm10.753,2.878A4.429,4.429,0,0,1-23.9-.9,2.476,2.476,0,0,1-25.987.137a2.713,2.713,0,0,1-2.119-.854V2.844h-1.265V-7.4h1.155l.062.82a2.605,2.605,0,0,1,2.146-.957,2.522,2.522,0,0,1,2.109,1,4.477,4.477,0,0,1,.776,2.8Zm-1.265-.144a3.268,3.268,0,0,0-.533-1.976,1.718,1.718,0,0,0-1.463-.725,1.859,1.859,0,0,0-1.723,1.019v3.534A1.863,1.863,0,0,0-26.37-.9a1.71,1.71,0,0,0,1.446-.721A3.567,3.567,0,0,0-24.387-3.76Zm6.446-2.5a3.79,3.79,0,0,0-.622-.048,1.667,1.667,0,0,0-1.688,1.06V0h-1.265V-7.4h1.23l.021.854A1.969,1.969,0,0,1-18.5-7.533a1.292,1.292,0,0,1,.561.1Zm4.1,6.4a3.232,3.232,0,0,1-2.447-.988,3.666,3.666,0,0,1-.943-2.642v-.232a4.438,4.438,0,0,1,.42-1.965,3.28,3.28,0,0,1,1.176-1.354A2.956,2.956,0,0,1-14-7.533a2.77,2.77,0,0,1,2.242.95,4.114,4.114,0,0,1,.8,2.721v.526h-5.011a2.629,2.629,0,0,0,.639,1.767A2.009,2.009,0,0,0-13.771-.9a2.2,2.2,0,0,0,1.135-.273,2.851,2.851,0,0,0,.813-.725l.772.6A3.106,3.106,0,0,1-13.839.137ZM-14-6.494a1.687,1.687,0,0,0-1.285.557,2.708,2.708,0,0,0-.643,1.562h3.705v-.1a2.409,2.409,0,0,0-.52-1.494A1.588,1.588,0,0,0-14-6.494Zm8.812,4.532a.931.931,0,0,0-.386-.8,3.718,3.718,0,0,0-1.347-.489,6.367,6.367,0,0,1-1.524-.492,2.169,2.169,0,0,1-.834-.684,1.635,1.635,0,0,1-.27-.943A1.919,1.919,0,0,1-8.777-6.9a3,3,0,0,1,1.965-.629,3.091,3.091,0,0,1,2.041.649,2.063,2.063,0,0,1,.783,1.661H-5.26a1.142,1.142,0,0,0-.441-.9,1.652,1.652,0,0,0-1.111-.376,1.729,1.729,0,0,0-1.08.3.947.947,0,0,0-.39.786.767.767,0,0,0,.362.69,4.458,4.458,0,0,0,1.309.444,6.821,6.821,0,0,1,1.535.506,2.239,2.239,0,0,1,.872.708A1.74,1.74,0,0,1-3.92-2.051,1.893,1.893,0,0,1-4.713-.461a3.326,3.326,0,0,1-2.058.6A3.725,3.725,0,0,1-8.343-.178a2.557,2.557,0,0,1-1.07-.878A2.117,2.117,0,0,1-9.8-2.276h1.265a1.309,1.309,0,0,0,.509,1.008A1.976,1.976,0,0,0-6.771-.9a2.039,2.039,0,0,0,1.152-.291A.893.893,0,0,0-5.185-1.962ZM.8.137A3.232,3.232,0,0,1-1.651-.851a3.666,3.666,0,0,1-.943-2.642v-.232a4.438,4.438,0,0,1,.42-1.965A3.28,3.28,0,0,1-1-7.044,2.956,2.956,0,0,1,.639-7.533a2.77,2.77,0,0,1,2.242.95,4.114,4.114,0,0,1,.8,2.721v.526H-1.33A2.629,2.629,0,0,0-.69-1.569,2.009,2.009,0,0,0,.865-.9,2.2,2.2,0,0,0,2-1.169a2.851,2.851,0,0,0,.813-.725l.772.6A3.106,3.106,0,0,1,.8.137ZM.639-6.494a1.687,1.687,0,0,0-1.285.557,2.708,2.708,0,0,0-.643,1.562H2.417v-.1A2.409,2.409,0,0,0,1.9-5.964,1.588,1.588,0,0,0,.639-6.494Zm5.7-.9.041.93A2.7,2.7,0,0,1,8.6-7.533q2.345,0,2.365,2.646V0H9.7V-4.895a1.7,1.7,0,0,0-.366-1.183A1.466,1.466,0,0,0,8.213-6.46a1.825,1.825,0,0,0-1.08.328,2.228,2.228,0,0,0-.725.861V0H5.144V-7.4Zm8.244-1.791V-7.4h1.381v.978H14.584v4.593a1.027,1.027,0,0,0,.185.667.777.777,0,0,0,.629.222,3.062,3.062,0,0,0,.6-.082V0a3.688,3.688,0,0,1-.971.136A1.575,1.575,0,0,1,13.75-.376a2.2,2.2,0,0,1-.431-1.456V-6.419H11.973V-7.4H13.32V-9.187ZM22.008,0a2.657,2.657,0,0,1-.178-.779,2.822,2.822,0,0,1-2.105.916,2.611,2.611,0,0,1-1.794-.619,2,2,0,0,1-.7-1.569,2.091,2.091,0,0,1,.878-1.794,4.142,4.142,0,0,1,2.471-.639h1.23v-.581a1.42,1.42,0,0,0-.4-1.056,1.593,1.593,0,0,0-1.169-.393,1.844,1.844,0,0,0-1.135.342,1.007,1.007,0,0,0-.458.827H17.38a1.745,1.745,0,0,1,.393-1.07,2.683,2.683,0,0,1,1.066-.817,3.588,3.588,0,0,1,1.48-.3,2.924,2.924,0,0,1,2,.639,2.306,2.306,0,0,1,.752,1.76v3.4a4.162,4.162,0,0,0,.26,1.62V0Zm-2.1-.964a2.223,2.223,0,0,0,1.128-.308,1.861,1.861,0,0,0,.772-.8V-3.589h-.991q-2.324,0-2.324,1.36a1.151,1.151,0,0,0,.4.93A1.524,1.524,0,0,0,19.91-.964Zm6.863-8.224V-7.4h1.381v.978H26.773v4.593a1.027,1.027,0,0,0,.185.667.777.777,0,0,0,.629.222,3.062,3.062,0,0,0,.6-.082V0a3.688,3.688,0,0,1-.971.136,1.575,1.575,0,0,1-1.278-.513,2.2,2.2,0,0,1-.431-1.456V-6.419H24.162V-7.4h1.347V-9.187ZM31,0H29.74V-7.4H31ZM29.637-9.358a.755.755,0,0,1,.188-.52.706.706,0,0,1,.557-.212.717.717,0,0,1,.561.212.747.747,0,0,1,.191.52.722.722,0,0,1-.191.513.73.73,0,0,1-.561.205.718.718,0,0,1-.557-.205A.73.73,0,0,1,29.637-9.358Zm5.831,7.643L37.3-7.4h1.292L35.94,0h-.964L32.3-7.4h1.292ZM44.273,0A2.657,2.657,0,0,1,44.1-.779,2.822,2.822,0,0,1,41.99.137,2.611,2.611,0,0,1,40.2-.482a2,2,0,0,1-.7-1.569,2.091,2.091,0,0,1,.878-1.794,4.142,4.142,0,0,1,2.471-.639h1.23v-.581a1.42,1.42,0,0,0-.4-1.056,1.593,1.593,0,0,0-1.169-.393,1.844,1.844,0,0,0-1.135.342,1.007,1.007,0,0,0-.458.827H39.645a1.745,1.745,0,0,1,.393-1.07A2.683,2.683,0,0,1,41.1-7.232a3.588,3.588,0,0,1,1.48-.3,2.924,2.924,0,0,1,2,.639,2.306,2.306,0,0,1,.752,1.76v3.4a4.162,4.162,0,0,0,.26,1.62V0Zm-2.1-.964A2.223,2.223,0,0,0,43.3-1.271a1.861,1.861,0,0,0,.772-.8V-3.589h-.991q-2.324,0-2.324,1.36a1.151,1.151,0,0,0,.4.93A1.524,1.524,0,0,0,42.174-.964Z" transform="translate(913.684 4135.176)" fill="#12263f"/>
      <path id="Path_199733" data-name="Path 199733" d="M0,0V11.884" transform="translate(916.277 4181.915) rotate(180)" fill="none" stroke="#0f2771" stroke-width="1.5"/>
      <path id="Path_199734" data-name="Path 199734" d="M7,0l7,12H0Z" transform="translate(909 4157.895)" fill="#0f2771"/>
      <path id="Path_199735" data-name="Path 199735" d="M16.121,7.549h-2V11H12.986V2.469h2.824a3.343,3.343,0,0,1,2.218.656,2.361,2.361,0,0,1,.776,1.91,2.3,2.3,0,0,1-.431,1.389,2.571,2.571,0,0,1-1.2.885l2,3.621V11H17.973Zm-2-.92h1.729a1.95,1.95,0,0,0,1.333-.434,1.469,1.469,0,0,0,.5-1.162A1.547,1.547,0,0,0,17.2,3.817a2,2,0,0,0-1.362-.429H14.117Zm8.725,4.488a2.77,2.77,0,0,1-2.1-.847,3.142,3.142,0,0,1-.809-2.265v-.2a3.8,3.8,0,0,1,.36-1.685A2.811,2.811,0,0,1,21.3,4.962a2.534,2.534,0,0,1,1.4-.419,2.374,2.374,0,0,1,1.922.814,3.526,3.526,0,0,1,.686,2.332v.451H21.02a2.254,2.254,0,0,0,.548,1.515,1.722,1.722,0,0,0,1.333.577A1.888,1.888,0,0,0,23.873,10a2.444,2.444,0,0,0,.7-.621l.662.516A2.662,2.662,0,0,1,22.842,11.117Zm-.135-5.684a1.446,1.446,0,0,0-1.1.478,2.321,2.321,0,0,0-.551,1.339H24.23V7.168a2.065,2.065,0,0,0-.445-1.28A1.361,1.361,0,0,0,22.707,5.434ZM31.924,7.9a3.8,3.8,0,0,1-.662,2.332,2.122,2.122,0,0,1-1.793.885,2.325,2.325,0,0,1-1.816-.732v3.053H26.568V4.66h.99l.053.7a2.233,2.233,0,0,1,1.84-.82,2.162,2.162,0,0,1,1.808.861,3.838,3.838,0,0,1,.665,2.4ZM30.84,7.777a2.8,2.8,0,0,0-.457-1.693,1.472,1.472,0,0,0-1.254-.621,1.593,1.593,0,0,0-1.477.873V9.365a1.6,1.6,0,0,0,1.488.867,1.465,1.465,0,0,0,1.239-.618A3.058,3.058,0,0,0,30.84,7.777Zm5.525-2.145a3.248,3.248,0,0,0-.533-.041,1.428,1.428,0,0,0-1.447.908V11H33.3V4.66h1.055l.018.732a1.688,1.688,0,0,1,1.512-.85,1.107,1.107,0,0,1,.48.082Zm3.516,5.484a2.77,2.77,0,0,1-2.1-.847,3.142,3.142,0,0,1-.809-2.265v-.2a3.8,3.8,0,0,1,.36-1.685,2.811,2.811,0,0,1,1.008-1.16,2.534,2.534,0,0,1,1.4-.419,2.374,2.374,0,0,1,1.922.814,3.526,3.526,0,0,1,.686,2.332v.451H38.059a2.254,2.254,0,0,0,.548,1.515,1.722,1.722,0,0,0,1.333.577A1.888,1.888,0,0,0,40.912,10a2.444,2.444,0,0,0,.7-.621l.662.516A2.662,2.662,0,0,1,39.881,11.117Zm-.135-5.684a1.446,1.446,0,0,0-1.1.478,2.321,2.321,0,0,0-.551,1.339H41.27V7.168a2.065,2.065,0,0,0-.445-1.28A1.361,1.361,0,0,0,39.746,5.434ZM47.3,9.318a.8.8,0,0,0-.331-.683,3.187,3.187,0,0,0-1.154-.419,5.457,5.457,0,0,1-1.307-.422,1.859,1.859,0,0,1-.715-.586,1.4,1.4,0,0,1-.231-.809,1.645,1.645,0,0,1,.659-1.318A2.574,2.574,0,0,1,45.9,4.543a2.649,2.649,0,0,1,1.749.557,1.768,1.768,0,0,1,.671,1.424h-1.09a.979.979,0,0,0-.378-.768,1.416,1.416,0,0,0-.952-.322,1.482,1.482,0,0,0-.926.258.812.812,0,0,0-.334.674.658.658,0,0,0,.311.592,3.821,3.821,0,0,0,1.122.381,5.847,5.847,0,0,1,1.315.434,1.919,1.919,0,0,1,.747.606,1.491,1.491,0,0,1,.243.864A1.623,1.623,0,0,1,47.7,10.6a2.851,2.851,0,0,1-1.764.513,3.193,3.193,0,0,1-1.348-.27,2.192,2.192,0,0,1-.917-.753,1.815,1.815,0,0,1-.331-1.046h1.084a1.122,1.122,0,0,0,.437.864,1.693,1.693,0,0,0,1.075.319,1.748,1.748,0,0,0,.987-.249A.765.765,0,0,0,47.3,9.318Zm5.127,1.8a2.77,2.77,0,0,1-2.1-.847,3.142,3.142,0,0,1-.809-2.265v-.2a3.8,3.8,0,0,1,.36-1.685,2.811,2.811,0,0,1,1.008-1.16,2.534,2.534,0,0,1,1.4-.419,2.374,2.374,0,0,1,1.922.814A3.526,3.526,0,0,1,54.9,7.689v.451H50.6a2.254,2.254,0,0,0,.548,1.515,1.722,1.722,0,0,0,1.333.577A1.888,1.888,0,0,0,53.457,10a2.444,2.444,0,0,0,.7-.621l.662.516A2.662,2.662,0,0,1,52.426,11.117Zm-.135-5.684a1.446,1.446,0,0,0-1.1.478,2.321,2.321,0,0,0-.551,1.339h3.176V7.168a2.065,2.065,0,0,0-.445-1.28A1.361,1.361,0,0,0,52.291,5.434Zm4.887-.773.035.8a2.31,2.31,0,0,1,1.9-.914q2.01,0,2.027,2.268V11H60.055V6.8a1.459,1.459,0,0,0-.313-1.014,1.256,1.256,0,0,0-.958-.328,1.564,1.564,0,0,0-.926.281,1.91,1.91,0,0,0-.621.738V11H56.152V4.66Zm7.066-1.535V4.66h1.184V5.5H64.244V9.435a.88.88,0,0,0,.158.572.666.666,0,0,0,.539.191,2.624,2.624,0,0,0,.516-.07V11a3.161,3.161,0,0,1-.832.116,1.35,1.35,0,0,1-1.1-.439A1.888,1.888,0,0,1,63.16,9.43V5.5H62.006V4.66H63.16V3.125ZM70.607,11a2.277,2.277,0,0,1-.152-.668,2.419,2.419,0,0,1-1.8.785,2.238,2.238,0,0,1-1.538-.53,1.716,1.716,0,0,1-.6-1.345A1.792,1.792,0,0,1,67.265,7.7a3.55,3.55,0,0,1,2.118-.548h1.055v-.5a1.217,1.217,0,0,0-.34-.905,1.366,1.366,0,0,0-1-.337,1.581,1.581,0,0,0-.973.293.863.863,0,0,0-.393.709h-1.09a1.5,1.5,0,0,1,.337-.917,2.3,2.3,0,0,1,.914-.7,3.075,3.075,0,0,1,1.269-.258,2.506,2.506,0,0,1,1.717.548A1.976,1.976,0,0,1,71.521,6.6V9.518a3.567,3.567,0,0,0,.223,1.389V11Zm-1.8-.826a1.905,1.905,0,0,0,.967-.264,1.6,1.6,0,0,0,.662-.686v-1.3h-.85Q67.6,7.924,67.6,9.09a.987.987,0,0,0,.34.8A1.306,1.306,0,0,0,68.809,10.174ZM77.369,11H76.285V2h1.084Zm5.648,0a2.277,2.277,0,0,1-.152-.668,2.419,2.419,0,0,1-1.8.785,2.238,2.238,0,0,1-1.538-.53,1.716,1.716,0,0,1-.6-1.345A1.792,1.792,0,0,1,79.675,7.7a3.55,3.55,0,0,1,2.118-.548h1.055v-.5a1.217,1.217,0,0,0-.34-.905,1.366,1.366,0,0,0-1-.337,1.581,1.581,0,0,0-.973.293.863.863,0,0,0-.393.709h-1.09a1.5,1.5,0,0,1,.337-.917,2.3,2.3,0,0,1,.914-.7,3.075,3.075,0,0,1,1.269-.258,2.506,2.506,0,0,1,1.717.548A1.976,1.976,0,0,1,83.932,6.6V9.518a3.567,3.567,0,0,0,.223,1.389V11Zm-1.8-.826a1.905,1.905,0,0,0,.967-.264,1.6,1.6,0,0,0,.662-.686v-1.3H82q-1.992,0-1.992,1.166a.987.987,0,0,0,.34.8A1.306,1.306,0,0,0,81.219,10.174Zm8.1-.855a.8.8,0,0,0-.331-.683,3.187,3.187,0,0,0-1.154-.419,5.457,5.457,0,0,1-1.307-.422,1.859,1.859,0,0,1-.715-.586,1.4,1.4,0,0,1-.231-.809,1.645,1.645,0,0,1,.659-1.318,2.574,2.574,0,0,1,1.685-.539,2.649,2.649,0,0,1,1.749.557,1.768,1.768,0,0,1,.671,1.424h-1.09a.979.979,0,0,0-.378-.768,1.416,1.416,0,0,0-.952-.322A1.482,1.482,0,0,0,87,5.691a.812.812,0,0,0-.334.674.658.658,0,0,0,.311.592,3.821,3.821,0,0,0,1.122.381,5.847,5.847,0,0,1,1.315.434,1.919,1.919,0,0,1,.747.606,1.491,1.491,0,0,1,.243.864,1.623,1.623,0,0,1-.68,1.362,2.851,2.851,0,0,1-1.764.513,3.193,3.193,0,0,1-1.348-.27,2.192,2.192,0,0,1-.917-.753,1.815,1.815,0,0,1-.331-1.046h1.084a1.122,1.122,0,0,0,.437.864,1.693,1.693,0,0,0,1.075.319,1.748,1.748,0,0,0,.987-.249A.765.765,0,0,0,89.322,9.318ZM15.482,26.232a1.561,1.561,0,0,0,1.014-.352,1.237,1.237,0,0,0,.48-.879H18a1.966,1.966,0,0,1-.375,1.037,2.47,2.47,0,0,1-.923.785,2.663,2.663,0,0,1-1.222.293,2.612,2.612,0,0,1-2.06-.864,3.442,3.442,0,0,1-.765-2.364v-.182A3.817,3.817,0,0,1,13,22.061a2.588,2.588,0,0,1,.976-1.119,2.771,2.771,0,0,1,1.5-.4,2.543,2.543,0,0,1,1.772.639A2.283,2.283,0,0,1,18,22.84H16.977a1.494,1.494,0,0,0-.466-1.011,1.449,1.449,0,0,0-1.034-.4,1.517,1.517,0,0,0-1.28.595,2.793,2.793,0,0,0-.454,1.72v.205a2.737,2.737,0,0,0,.451,1.688A1.524,1.524,0,0,0,15.482,26.232ZM23.135,27a2.277,2.277,0,0,1-.152-.668,2.419,2.419,0,0,1-1.8.785,2.238,2.238,0,0,1-1.538-.53,1.716,1.716,0,0,1-.6-1.345,1.792,1.792,0,0,1,.753-1.538,3.55,3.55,0,0,1,2.118-.548h1.055v-.5a1.217,1.217,0,0,0-.34-.905,1.366,1.366,0,0,0-1-.337,1.581,1.581,0,0,0-.973.293.863.863,0,0,0-.393.709h-1.09A1.5,1.5,0,0,1,19.5,21.5a2.3,2.3,0,0,1,.914-.7,3.075,3.075,0,0,1,1.269-.258,2.506,2.506,0,0,1,1.717.548,1.976,1.976,0,0,1,.645,1.509v2.918a3.567,3.567,0,0,0,.223,1.389V27Zm-1.8-.826a1.905,1.905,0,0,0,.967-.264,1.6,1.6,0,0,0,.662-.686v-1.3h-.85q-1.992,0-1.992,1.166a.987.987,0,0,0,.34.8A1.306,1.306,0,0,0,21.336,26.174Zm7.477-4.541a3.248,3.248,0,0,0-.533-.041,1.428,1.428,0,0,0-1.447.908V27H25.748V20.66H26.8l.018.732a1.688,1.688,0,0,1,1.512-.85,1.107,1.107,0,0,1,.48.082ZM33.488,27a2.277,2.277,0,0,1-.152-.668,2.419,2.419,0,0,1-1.8.785,2.238,2.238,0,0,1-1.538-.53,1.716,1.716,0,0,1-.6-1.345,1.792,1.792,0,0,1,.753-1.538,3.55,3.55,0,0,1,2.118-.548h1.055v-.5a1.217,1.217,0,0,0-.34-.905,1.366,1.366,0,0,0-1-.337,1.581,1.581,0,0,0-.973.293.863.863,0,0,0-.393.709h-1.09a1.5,1.5,0,0,1,.337-.917,2.3,2.3,0,0,1,.914-.7,3.075,3.075,0,0,1,1.269-.258,2.506,2.506,0,0,1,1.717.548A1.976,1.976,0,0,1,34.4,22.6v2.918a3.567,3.567,0,0,0,.223,1.389V27Zm-1.8-.826a1.905,1.905,0,0,0,.967-.264,1.6,1.6,0,0,0,.662-.686v-1.3h-.85q-1.992,0-1.992,1.166a.987.987,0,0,0,.34.8A1.306,1.306,0,0,0,31.689,26.174Zm6.955.059a1.561,1.561,0,0,0,1.014-.352,1.237,1.237,0,0,0,.48-.879h1.025a1.966,1.966,0,0,1-.375,1.037,2.47,2.47,0,0,1-.923.785,2.663,2.663,0,0,1-1.222.293,2.612,2.612,0,0,1-2.06-.864,3.442,3.442,0,0,1-.765-2.364v-.182a3.817,3.817,0,0,1,.34-1.646,2.588,2.588,0,0,1,.976-1.119,2.771,2.771,0,0,1,1.5-.4,2.543,2.543,0,0,1,1.772.639,2.283,2.283,0,0,1,.753,1.658H40.139a1.494,1.494,0,0,0-.466-1.011,1.449,1.449,0,0,0-1.034-.4,1.517,1.517,0,0,0-1.28.595,2.793,2.793,0,0,0-.454,1.72v.205a2.737,2.737,0,0,0,.451,1.688A1.524,1.524,0,0,0,38.645,26.232Zm5.209-7.107V20.66h1.184V21.5H43.854v3.937a.88.88,0,0,0,.158.572.666.666,0,0,0,.539.191,2.624,2.624,0,0,0,.516-.07V27a3.161,3.161,0,0,1-.832.116,1.35,1.35,0,0,1-1.1-.439,1.888,1.888,0,0,1-.369-1.248V21.5H41.615V20.66H42.77V19.125Zm5.08,7.992a2.77,2.77,0,0,1-2.1-.847,3.142,3.142,0,0,1-.809-2.265v-.2a3.8,3.8,0,0,1,.36-1.685,2.811,2.811,0,0,1,1.008-1.16,2.534,2.534,0,0,1,1.4-.419,2.374,2.374,0,0,1,1.922.814,3.526,3.526,0,0,1,.686,2.332v.451H47.111a2.254,2.254,0,0,0,.548,1.515,1.722,1.722,0,0,0,1.333.577A1.888,1.888,0,0,0,49.965,26a2.444,2.444,0,0,0,.7-.621l.662.516A2.662,2.662,0,0,1,48.934,27.117ZM48.8,21.434a1.446,1.446,0,0,0-1.1.478,2.321,2.321,0,0,0-.551,1.339h3.176v-.082a2.065,2.065,0,0,0-.445-1.28A1.361,1.361,0,0,0,48.8,21.434Zm6.926.2a3.248,3.248,0,0,0-.533-.041,1.428,1.428,0,0,0-1.447.908V27H52.66V20.66h1.055l.018.732a1.688,1.688,0,0,1,1.512-.85,1.107,1.107,0,0,1,.48.082ZM57.9,27h-1.09V20.66H57.9Zm.012-8.994h1.313l-1.57,1.723-.873,0Zm5.467,7.313a.8.8,0,0,0-.331-.683,3.187,3.187,0,0,0-1.154-.419,5.457,5.457,0,0,1-1.307-.422,1.859,1.859,0,0,1-.715-.586,1.4,1.4,0,0,1-.231-.809,1.645,1.645,0,0,1,.659-1.318,2.574,2.574,0,0,1,1.685-.539,2.649,2.649,0,0,1,1.749.557,1.768,1.768,0,0,1,.671,1.424h-1.09a.979.979,0,0,0-.378-.768,1.416,1.416,0,0,0-.952-.322,1.482,1.482,0,0,0-.926.258.812.812,0,0,0-.334.674.658.658,0,0,0,.311.592,3.821,3.821,0,0,0,1.122.381,5.847,5.847,0,0,1,1.315.434,1.919,1.919,0,0,1,.747.606,1.491,1.491,0,0,1,.243.864,1.623,1.623,0,0,1-.68,1.362,2.851,2.851,0,0,1-1.764.513,3.193,3.193,0,0,1-1.348-.27,2.192,2.192,0,0,1-.917-.753,1.815,1.815,0,0,1-.331-1.046h1.084a1.122,1.122,0,0,0,.437.864,1.693,1.693,0,0,0,1.075.319A1.748,1.748,0,0,0,63,25.983.765.765,0,0,0,63.377,25.318Zm3.967-6.193V20.66h1.184V21.5H67.344v3.937a.88.88,0,0,0,.158.572.666.666,0,0,0,.539.191,2.624,2.624,0,0,0,.516-.07V27a3.161,3.161,0,0,1-.832.116,1.35,1.35,0,0,1-1.1-.439,1.888,1.888,0,0,1-.369-1.248V21.5H65.105V20.66H66.26V19.125ZM70.971,27H69.887V20.66h1.084ZM69.8,18.979a.647.647,0,0,1,.161-.445.6.6,0,0,1,.478-.182.614.614,0,0,1,.48.182.64.64,0,0,1,.164.445.619.619,0,0,1-.164.439.626.626,0,0,1-.48.176.616.616,0,0,1-.478-.176A.626.626,0,0,1,69.8,18.979Zm5.449,7.254a1.561,1.561,0,0,0,1.014-.352,1.237,1.237,0,0,0,.48-.879h1.025a1.966,1.966,0,0,1-.375,1.037,2.47,2.47,0,0,1-.923.785,2.663,2.663,0,0,1-1.222.293,2.612,2.612,0,0,1-2.06-.864,3.442,3.442,0,0,1-.765-2.364v-.182a3.817,3.817,0,0,1,.34-1.646,2.588,2.588,0,0,1,.976-1.119,2.771,2.771,0,0,1,1.5-.4,2.543,2.543,0,0,1,1.772.639,2.283,2.283,0,0,1,.753,1.658H76.742a1.494,1.494,0,0,0-.466-1.011,1.449,1.449,0,0,0-1.034-.4,1.517,1.517,0,0,0-1.28.595,2.793,2.793,0,0,0-.454,1.72v.205a2.737,2.737,0,0,0,.451,1.688A1.524,1.524,0,0,0,75.248,26.232ZM82.9,27a2.277,2.277,0,0,1-.152-.668,2.419,2.419,0,0,1-1.8.785,2.238,2.238,0,0,1-1.538-.53,1.716,1.716,0,0,1-.6-1.345,1.792,1.792,0,0,1,.753-1.538,3.55,3.55,0,0,1,2.118-.548H82.73v-.5a1.217,1.217,0,0,0-.34-.905,1.366,1.366,0,0,0-1-.337,1.581,1.581,0,0,0-.973.293.863.863,0,0,0-.393.709h-1.09a1.5,1.5,0,0,1,.337-.917,2.3,2.3,0,0,1,.914-.7,3.075,3.075,0,0,1,1.269-.258,2.506,2.506,0,0,1,1.717.548,1.976,1.976,0,0,1,.645,1.509v2.918a3.567,3.567,0,0,0,.223,1.389V27Zm-1.8-.826a1.905,1.905,0,0,0,.967-.264,1.6,1.6,0,0,0,.662-.686v-1.3h-.85q-1.992,0-1.992,1.166a.987.987,0,0,0,.34.8A1.306,1.306,0,0,0,81.1,26.174Zm8.1-.855a.8.8,0,0,0-.331-.683,3.187,3.187,0,0,0-1.154-.419,5.457,5.457,0,0,1-1.307-.422,1.859,1.859,0,0,1-.715-.586,1.4,1.4,0,0,1-.231-.809,1.645,1.645,0,0,1,.659-1.318,2.574,2.574,0,0,1,1.685-.539,2.649,2.649,0,0,1,1.749.557,1.768,1.768,0,0,1,.671,1.424h-1.09a.979.979,0,0,0-.378-.768,1.416,1.416,0,0,0-.952-.322,1.482,1.482,0,0,0-.926.258.812.812,0,0,0-.334.674.658.658,0,0,0,.311.592,3.821,3.821,0,0,0,1.122.381,5.847,5.847,0,0,1,1.315.434,1.919,1.919,0,0,1,.747.606,1.491,1.491,0,0,1,.243.864,1.623,1.623,0,0,1-.68,1.362,2.851,2.851,0,0,1-1.764.513,3.193,3.193,0,0,1-1.348-.27,2.192,2.192,0,0,1-.917-.753,1.815,1.815,0,0,1-.331-1.046h1.084a1.122,1.122,0,0,0,.437.864,1.693,1.693,0,0,0,1.075.319,1.748,1.748,0,0,0,.987-.249A.765.765,0,0,0,89.205,25.318ZM6.857,43V34.469H9.266a3.877,3.877,0,0,1,1.969.492,3.329,3.329,0,0,1,1.321,1.4,4.558,4.558,0,0,1,.472,2.086v.545a4.574,4.574,0,0,1-.466,2.115,3.277,3.277,0,0,1-1.33,1.395,4.124,4.124,0,0,1-2.013.5Zm1.125-7.611V42.08H9.166a2.575,2.575,0,0,0,2.024-.809,3.344,3.344,0,0,0,.724-2.3v-.5a3.4,3.4,0,0,0-.683-2.261,2.429,2.429,0,0,0-1.937-.818Zm9.205,7.729a2.77,2.77,0,0,1-2.1-.847,3.142,3.142,0,0,1-.809-2.265v-.2a3.8,3.8,0,0,1,.36-1.685,2.811,2.811,0,0,1,1.008-1.16,2.534,2.534,0,0,1,1.4-.419,2.374,2.374,0,0,1,1.922.814,3.526,3.526,0,0,1,.686,2.332v.451H15.365a2.254,2.254,0,0,0,.548,1.515,1.722,1.722,0,0,0,1.333.577A1.888,1.888,0,0,0,18.219,42a2.444,2.444,0,0,0,.7-.621l.662.516A2.662,2.662,0,0,1,17.188,43.117Zm-.135-5.684a1.446,1.446,0,0,0-1.1.478A2.321,2.321,0,0,0,15.4,39.25h3.176v-.082a2.065,2.065,0,0,0-.445-1.28A1.361,1.361,0,0,0,17.053,37.434ZM25.063,43H23.979V34h1.084Zm5.648,0a2.277,2.277,0,0,1-.152-.668,2.419,2.419,0,0,1-1.8.785,2.238,2.238,0,0,1-1.538-.53,1.716,1.716,0,0,1-.6-1.345,1.792,1.792,0,0,1,.753-1.538,3.55,3.55,0,0,1,2.118-.548h1.055v-.5a1.217,1.217,0,0,0-.34-.905,1.366,1.366,0,0,0-1-.337,1.581,1.581,0,0,0-.973.293.863.863,0,0,0-.393.709h-1.09a1.5,1.5,0,0,1,.337-.917A2.3,2.3,0,0,1,28,36.8a3.075,3.075,0,0,1,1.269-.258,2.506,2.506,0,0,1,1.717.548,1.976,1.976,0,0,1,.645,1.509v2.918a3.567,3.567,0,0,0,.223,1.389V43Zm-1.8-.826a1.905,1.905,0,0,0,.967-.264,1.6,1.6,0,0,0,.662-.686v-1.3h-.85q-1.992,0-1.992,1.166a.987.987,0,0,0,.34.8A1.306,1.306,0,0,0,28.912,42.174ZM41.65,39.9a3.8,3.8,0,0,1-.662,2.332,2.122,2.122,0,0,1-1.793.885,2.325,2.325,0,0,1-1.816-.732v3.053H36.295V36.66h.99l.053.7a2.233,2.233,0,0,1,1.84-.82,2.162,2.162,0,0,1,1.808.861,3.838,3.838,0,0,1,.665,2.4Zm-1.084-.123a2.8,2.8,0,0,0-.457-1.693,1.472,1.472,0,0,0-1.254-.621,1.593,1.593,0,0,0-1.477.873v3.029a1.6,1.6,0,0,0,1.488.867,1.465,1.465,0,0,0,1.239-.618A3.058,3.058,0,0,0,40.566,39.777Zm2.174-.006a3.745,3.745,0,0,1,.366-1.676,2.732,2.732,0,0,1,1.02-1.148,2.775,2.775,0,0,1,1.491-.4,2.674,2.674,0,0,1,2.095.9,3.449,3.449,0,0,1,.8,2.385V39.9a3.777,3.777,0,0,1-.354,1.661,2.692,2.692,0,0,1-1.014,1.146,2.807,2.807,0,0,1-1.515.41,2.667,2.667,0,0,1-2.089-.9,3.432,3.432,0,0,1-.8-2.373Zm1.09.129a2.712,2.712,0,0,0,.489,1.693,1.658,1.658,0,0,0,2.622-.009,2.966,2.966,0,0,0,.486-1.813,2.708,2.708,0,0,0-.5-1.69,1.574,1.574,0,0,0-1.315-.647,1.557,1.557,0,0,0-1.295.639A2.944,2.944,0,0,0,43.83,39.9Zm11.408,0a3.77,3.77,0,0,1-.668,2.335,2.134,2.134,0,0,1-1.793.882,2.21,2.21,0,0,1-1.857-.85L50.867,43h-1V34h1.084v3.357a2.2,2.2,0,0,1,1.811-.814,2.147,2.147,0,0,1,1.813.873,3.883,3.883,0,0,1,.659,2.391Zm-1.084-.123a2.929,2.929,0,0,0-.428-1.711,1.416,1.416,0,0,0-1.23-.6,1.591,1.591,0,0,0-1.541,1V41.2a1.636,1.636,0,0,0,1.553,1,1.408,1.408,0,0,0,1.213-.6A3.115,3.115,0,0,0,54.154,39.777ZM57.781,43H56.7V34h1.084Zm5.648,0a2.277,2.277,0,0,1-.152-.668,2.419,2.419,0,0,1-1.8.785,2.238,2.238,0,0,1-1.538-.53,1.716,1.716,0,0,1-.6-1.345,1.792,1.792,0,0,1,.753-1.538,3.55,3.55,0,0,1,2.118-.548H63.26v-.5a1.217,1.217,0,0,0-.34-.905,1.366,1.366,0,0,0-1-.337,1.581,1.581,0,0,0-.973.293.863.863,0,0,0-.393.709h-1.09A1.5,1.5,0,0,1,59.8,37.5a2.3,2.3,0,0,1,.914-.7,3.075,3.075,0,0,1,1.269-.258,2.506,2.506,0,0,1,1.717.548,1.976,1.976,0,0,1,.645,1.509v2.918a3.567,3.567,0,0,0,.223,1.389V43Zm-1.8-.826a1.905,1.905,0,0,0,.967-.264,1.6,1.6,0,0,0,.662-.686v-1.3h-.85q-1.992,0-1.992,1.166a.987.987,0,0,0,.34.8A1.306,1.306,0,0,0,61.631,42.174Zm6.955.059a1.561,1.561,0,0,0,1.014-.352A1.237,1.237,0,0,0,70.08,41h1.025a1.966,1.966,0,0,1-.375,1.037,2.47,2.47,0,0,1-.923.785,2.663,2.663,0,0,1-1.222.293,2.612,2.612,0,0,1-2.06-.864,3.442,3.442,0,0,1-.765-2.364v-.182a3.817,3.817,0,0,1,.34-1.646,2.588,2.588,0,0,1,.976-1.119,2.771,2.771,0,0,1,1.5-.4,2.543,2.543,0,0,1,1.772.639,2.283,2.283,0,0,1,.753,1.658H70.08a1.494,1.494,0,0,0-.466-1.011,1.449,1.449,0,0,0-1.034-.4,1.517,1.517,0,0,0-1.28.595,2.793,2.793,0,0,0-.454,1.72v.205a2.737,2.737,0,0,0,.451,1.688A1.524,1.524,0,0,0,68.586,42.232ZM73.5,43H72.418V36.66H73.5ZM72.33,34.979a.647.647,0,0,1,.161-.445.6.6,0,0,1,.478-.182.614.614,0,0,1,.48.182.64.64,0,0,1,.164.445.619.619,0,0,1-.164.439.626.626,0,0,1-.48.176.616.616,0,0,1-.478-.176A.626.626,0,0,1,72.33,34.979Zm2.619,4.793a3.745,3.745,0,0,1,.366-1.676,2.732,2.732,0,0,1,1.02-1.148,2.775,2.775,0,0,1,1.491-.4,2.674,2.674,0,0,1,2.095.9,3.449,3.449,0,0,1,.8,2.385V39.9a3.777,3.777,0,0,1-.354,1.661,2.692,2.692,0,0,1-1.014,1.146,2.807,2.807,0,0,1-1.515.41,2.667,2.667,0,0,1-2.089-.9,3.432,3.432,0,0,1-.8-2.373Zm1.09.129a2.712,2.712,0,0,0,.489,1.693,1.658,1.658,0,0,0,2.622-.009,2.966,2.966,0,0,0,.486-1.813,2.708,2.708,0,0,0-.5-1.69,1.574,1.574,0,0,0-1.315-.647,1.557,1.557,0,0,0-1.295.639A2.944,2.944,0,0,0,76.039,39.9ZM78.318,34h1.313l-1.57,1.723-.873,0Zm4.787,2.66.035.8a2.31,2.31,0,0,1,1.9-.914q2.01,0,2.027,2.268V43H85.982V38.8a1.459,1.459,0,0,0-.313-1.014,1.256,1.256,0,0,0-.958-.328,1.564,1.564,0,0,0-.926.281,1.91,1.91,0,0,0-.621.738V43H82.08V36.66Zm10.822,3.158H91.068v-.885h2.859ZM15.052,51.389H12.31V59H11.19V51.389H8.454v-.92h6.6ZM17.325,59H16.241V52.66h1.084Zm-1.172-8.021a.647.647,0,0,1,.161-.445.6.6,0,0,1,.478-.182.614.614,0,0,1,.48.182.64.64,0,0,1,.164.445.619.619,0,0,1-.164.439.626.626,0,0,1-.48.176.616.616,0,0,1-.478-.176A.626.626,0,0,1,16.153,50.979ZM24.415,55.9a3.8,3.8,0,0,1-.662,2.332,2.122,2.122,0,0,1-1.793.885,2.325,2.325,0,0,1-1.816-.732v3.053H19.06V52.66h.99l.053.7a2.233,2.233,0,0,1,1.84-.82,2.162,2.162,0,0,1,1.808.861,3.838,3.838,0,0,1,.665,2.4Zm-1.084-.123a2.8,2.8,0,0,0-.457-1.693,1.472,1.472,0,0,0-1.254-.621,1.593,1.593,0,0,0-1.477.873v3.029a1.6,1.6,0,0,0,1.488.867,1.465,1.465,0,0,0,1.239-.618A3.058,3.058,0,0,0,23.331,55.777Zm2.174-.006a3.745,3.745,0,0,1,.366-1.676,2.732,2.732,0,0,1,1.02-1.148,2.775,2.775,0,0,1,1.491-.4,2.674,2.674,0,0,1,2.095.9,3.449,3.449,0,0,1,.8,2.385V55.9a3.777,3.777,0,0,1-.354,1.661,2.692,2.692,0,0,1-1.014,1.146,2.807,2.807,0,0,1-1.515.41,2.667,2.667,0,0,1-2.089-.9,3.432,3.432,0,0,1-.8-2.373Zm1.09.129a2.712,2.712,0,0,0,.489,1.693,1.658,1.658,0,0,0,2.622-.009,2.966,2.966,0,0,0,.486-1.813,2.708,2.708,0,0,0-.5-1.69,1.574,1.574,0,0,0-1.315-.647,1.557,1.557,0,0,0-1.295.639A2.944,2.944,0,0,0,26.595,55.9Zm8.748-.123a3.714,3.714,0,0,1,.691-2.347,2.352,2.352,0,0,1,3.574-.126V50h1.084v9h-1l-.053-.68a2.208,2.208,0,0,1-1.811.8,2.165,2.165,0,0,1-1.8-.9,3.756,3.756,0,0,1-.694-2.355Zm1.084.123a2.812,2.812,0,0,0,.445,1.688,1.44,1.44,0,0,0,1.23.609,1.581,1.581,0,0,0,1.506-.926V54.359a1.593,1.593,0,0,0-1.494-.9,1.446,1.446,0,0,0-1.242.615A3.1,3.1,0,0,0,36.427,55.9ZM45,59.117a2.77,2.77,0,0,1-2.1-.847,3.142,3.142,0,0,1-.809-2.265v-.2a3.8,3.8,0,0,1,.36-1.685,2.811,2.811,0,0,1,1.008-1.16,2.534,2.534,0,0,1,1.4-.419,2.374,2.374,0,0,1,1.922.814,3.526,3.526,0,0,1,.686,2.332v.451H43.183a2.254,2.254,0,0,0,.548,1.515,1.722,1.722,0,0,0,1.333.577A1.888,1.888,0,0,0,46.036,58a2.444,2.444,0,0,0,.7-.621l.662.516A2.662,2.662,0,0,1,45,59.117Zm-.135-5.684a1.446,1.446,0,0,0-1.1.478,2.321,2.321,0,0,0-.551,1.339h3.176v-.082a2.065,2.065,0,0,0-.445-1.28A1.361,1.361,0,0,0,44.87,53.434Zm7.852-.773.029.7a2.341,2.341,0,0,1,1.881-.82,1.813,1.813,0,0,1,1.811,1.02,2.4,2.4,0,0,1,.823-.738,2.431,2.431,0,0,1,1.2-.281q2.086,0,2.121,2.209V59H59.5V54.816A1.456,1.456,0,0,0,59.19,53.8a1.368,1.368,0,0,0-1.043-.337,1.437,1.437,0,0,0-1,.36,1.462,1.462,0,0,0-.463.97V59h-1.09V54.846a1.209,1.209,0,0,0-1.354-1.383,1.45,1.45,0,0,0-1.459.908V59H51.7V52.66Zm13.412,5.713a2.3,2.3,0,0,1-1.857.744,1.971,1.971,0,0,1-1.544-.589,2.549,2.549,0,0,1-.536-1.743V52.66H63.28v4.1q0,1.441,1.172,1.441a1.623,1.623,0,0,0,1.652-.926V52.66h1.084V59H66.157Zm5.332.744a2.77,2.77,0,0,1-2.1-.847,3.142,3.142,0,0,1-.809-2.265v-.2a3.8,3.8,0,0,1,.36-1.685,2.811,2.811,0,0,1,1.008-1.16,2.534,2.534,0,0,1,1.4-.419,2.374,2.374,0,0,1,1.922.814,3.526,3.526,0,0,1,.686,2.332v.451H69.644a2.254,2.254,0,0,0,.548,1.515,1.722,1.722,0,0,0,1.333.577A1.888,1.888,0,0,0,72.5,58a2.444,2.444,0,0,0,.7-.621l.662.516A2.662,2.662,0,0,1,71.466,59.117Zm-.135-5.684a1.446,1.446,0,0,0-1.1.478,2.321,2.321,0,0,0-.551,1.339h3.176v-.082a2.065,2.065,0,0,0-.445-1.28A1.361,1.361,0,0,0,71.331,53.434Zm7.553,3.885a.8.8,0,0,0-.331-.683,3.187,3.187,0,0,0-1.154-.419,5.457,5.457,0,0,1-1.307-.422,1.859,1.859,0,0,1-.715-.586,1.4,1.4,0,0,1-.231-.809,1.645,1.645,0,0,1,.659-1.318,2.574,2.574,0,0,1,1.685-.539,2.649,2.649,0,0,1,1.749.557,1.768,1.768,0,0,1,.671,1.424h-1.09a.979.979,0,0,0-.378-.768,1.416,1.416,0,0,0-.952-.322,1.482,1.482,0,0,0-.926.258.812.812,0,0,0-.334.674.658.658,0,0,0,.311.592,3.821,3.821,0,0,0,1.122.381,5.847,5.847,0,0,1,1.315.434,1.919,1.919,0,0,1,.747.606,1.491,1.491,0,0,1,.243.864,1.623,1.623,0,0,1-.68,1.362,2.851,2.851,0,0,1-1.764.513,3.193,3.193,0,0,1-1.348-.27,2.192,2.192,0,0,1-.917-.753,1.815,1.815,0,0,1-.331-1.046h1.084a1.122,1.122,0,0,0,.437.864,1.693,1.693,0,0,0,1.075.319,1.748,1.748,0,0,0,.987-.249A.765.765,0,0,0,78.884,57.318Zm3.967-6.193V52.66h1.184V53.5H82.851v3.937a.88.88,0,0,0,.158.572.666.666,0,0,0,.539.191,2.624,2.624,0,0,0,.516-.07V59a3.161,3.161,0,0,1-.832.116,1.35,1.35,0,0,1-1.1-.439,1.888,1.888,0,0,1-.369-1.248V53.5H80.612V52.66h1.154V51.125Zm5.514,2.508a3.248,3.248,0,0,0-.533-.041,1.428,1.428,0,0,0-1.447.908V59H85.3V52.66h1.055l.018.732a1.688,1.688,0,0,1,1.512-.85,1.107,1.107,0,0,1,.48.082ZM93.04,59a2.277,2.277,0,0,1-.152-.668,2.419,2.419,0,0,1-1.8.785,2.238,2.238,0,0,1-1.538-.53,1.716,1.716,0,0,1-.6-1.345A1.792,1.792,0,0,1,89.7,55.7a3.55,3.55,0,0,1,2.118-.548H92.87v-.5a1.217,1.217,0,0,0-.34-.905,1.366,1.366,0,0,0-1-.337,1.581,1.581,0,0,0-.973.293.863.863,0,0,0-.393.709h-1.09a1.5,1.5,0,0,1,.337-.917,2.3,2.3,0,0,1,.914-.7,3.075,3.075,0,0,1,1.269-.258,2.506,2.506,0,0,1,1.717.548,1.976,1.976,0,0,1,.645,1.509v2.918a3.567,3.567,0,0,0,.223,1.389V59Zm-1.8-.826a1.905,1.905,0,0,0,.967-.264,1.6,1.6,0,0,0,.662-.686v-1.3h-.85q-1.992,0-1.992,1.166a.987.987,0,0,0,.34.8A1.306,1.306,0,0,0,91.241,58.174Z" transform="translate(864 4199.895)" fill="#12263f"/>
      <g id="Path_199736" data-name="Path 199736" transform="translate(1199 4184.895)" fill="#feca2e">
        <path d="M 135 97 L 1 97 L 1 1 L 135 1 L 135 97 Z" stroke="none"/>
        <path d="M 2 2 L 2 96 L 134 96 L 134 2 L 2 2 M 0 0 L 136 0 L 136 98 L 0 98 L 0 0 Z" stroke="none" fill="#fff"/>
      </g>
      <g id="Path_199737" data-name="Path 199737" transform="translate(1199 4104.895)" fill="#4dd0e1">
        <path d="M 111.5 48 L 24.5 48 C 21.32707214355469 48 18.24959945678711 47.37879943847656 15.35303592681885 46.15367126464844 C 12.55480003356934 44.97010803222656 10.04150867462158 43.27552795410156 7.882981777191162 41.11701965332031 C 5.724472522735596 38.95849227905273 4.029891014099121 36.4452018737793 2.846327304840088 33.64696502685547 C 1.62119996547699 30.75040054321289 1 27.67292785644531 1 24.5 C 1 21.32707214355469 1.62119996547699 18.24959945678711 2.846327304840088 15.35303592681885 C 4.029891014099121 12.55480003356934 5.724472522735596 10.04150867462158 7.882981777191162 7.882981777191162 C 10.04150867462158 5.724472522735596 12.55480003356934 4.029891014099121 15.35303592681885 2.846327304840088 C 18.24959945678711 1.62119996547699 21.32707214355469 1 24.5 1 L 111.5 1 C 114.6729278564453 1 117.7503967285156 1.62119996547699 120.6469650268555 2.846327304840088 C 123.445198059082 4.029891014099121 125.9584884643555 5.724472522735596 128.1170196533203 7.882981777191162 C 130.2755279541016 10.04150867462158 131.9701080322266 12.55480003356934 133.1536712646484 15.35303592681885 C 134.3787994384766 18.24959945678711 135 21.32707214355469 135 24.5 C 135 27.67292785644531 134.3787994384766 30.75040054321289 133.1536712646484 33.64696502685547 C 131.9701080322266 36.4452018737793 130.2755279541016 38.95849227905273 128.1170196533203 41.11701965332031 C 125.9584884643555 43.27552795410156 123.445198059082 44.97010803222656 120.6469650268555 46.15367126464844 C 117.7503967285156 47.37879943847656 114.6729278564453 48 111.5 48 Z" stroke="none"/>
        <path d="M 24.5 2 C 21.46163940429688 2 18.51522064208984 2.594619750976562 15.74259948730469 3.767341613769531 C 13.06356048583984 4.900478363037109 10.65709686279297 6.523078918457031 8.590103149414062 8.590099334716797 C 6.523086547851562 10.65710067749023 4.900482177734375 13.06356048583984 3.767333984375 15.74259948730469 C 2.594619750976562 18.51522064208984 2 21.46163940429688 2 24.5 C 2 27.53836059570312 2.594619750976562 30.48477935791016 3.767333984375 33.25740051269531 C 4.900482177734375 35.93643951416016 6.523086547851562 38.34289932250977 8.590103149414062 40.4099006652832 C 10.65709686279297 42.47692108154297 13.06356048583984 44.09952163696289 15.74259948730469 45.23265838623047 C 18.51522064208984 46.40538024902344 21.46163940429688 47 24.5 47 L 111.5 47 C 114.5383605957031 47 117.4847793579102 46.40538024902344 120.2574005126953 45.23265838623047 C 122.9364395141602 44.09952163696289 125.342903137207 42.47692108154297 127.4098968505859 40.4099006652832 C 129.4769134521484 38.34289932250977 131.0995178222656 35.93643951416016 132.232666015625 33.25740051269531 C 133.4053802490234 30.48477935791016 134 27.53836059570312 134 24.5 C 134 21.46163940429688 133.4053802490234 18.51522064208984 132.232666015625 15.74259948730469 C 131.0995178222656 13.06356048583984 129.4769134521484 10.65710067749023 127.4098968505859 8.590099334716797 C 125.342903137207 6.523078918457031 122.9364395141602 4.900478363037109 120.2574005126953 3.767341613769531 C 117.4847793579102 2.594619750976562 114.5383605957031 2 111.5 2 L 24.5 2 M 24.5 0 L 111.5 0 C 125.0309829711914 0 136 10.96902084350586 136 24.5 C 136 38.03097915649414 125.0309829711914 49 111.5 49 L 24.5 49 C 10.96901702880859 49 0 38.03097915649414 0 24.5 C 0 10.96902084350586 10.96901702880859 0 24.5 0 Z" stroke="none" fill="#fff"/>
      </g>
      <path id="Path_199738" data-name="Path 199738" d="M-24.657-2.6h-4.17L-29.764,0h-1.354l3.8-9.953h1.148L-22.36,0h-1.347Zm-3.773-1.073h3.384l-1.7-4.655Zm6.9-.082A4.333,4.333,0,0,1-20.72-6.5a2.551,2.551,0,0,1,2.112-1.036,2.565,2.565,0,0,1,2.058.889V-10.5h1.265V0h-1.162l-.062-.793a2.575,2.575,0,0,1-2.112.93,2.526,2.526,0,0,1-2.1-1.053,4.382,4.382,0,0,1-.81-2.748Zm1.265.144a3.281,3.281,0,0,0,.52,1.969,1.68,1.68,0,0,0,1.436.711,1.845,1.845,0,0,0,1.757-1.08v-3.4A1.859,1.859,0,0,0-18.293-6.46a1.687,1.687,0,0,0-1.449.718A3.612,3.612,0,0,0-20.262-3.616ZM-10.254.137A3.232,3.232,0,0,1-12.7-.851a3.666,3.666,0,0,1-.943-2.642v-.232a4.438,4.438,0,0,1,.42-1.965,3.28,3.28,0,0,1,1.176-1.354,2.956,2.956,0,0,1,1.637-.489,2.77,2.77,0,0,1,2.242.95,4.114,4.114,0,0,1,.8,2.721v.526H-12.38a2.629,2.629,0,0,0,.639,1.767A2.009,2.009,0,0,0-10.186-.9a2.2,2.2,0,0,0,1.135-.273,2.851,2.851,0,0,0,.813-.725l.772.6A3.106,3.106,0,0,1-10.254.137Zm-.157-6.631a1.687,1.687,0,0,0-1.285.557,2.708,2.708,0,0,0-.643,1.562h3.705v-.1a2.409,2.409,0,0,0-.52-1.494A1.588,1.588,0,0,0-10.411-6.494ZM-2.939-.9a1.822,1.822,0,0,0,1.183-.41A1.443,1.443,0,0,0-1.2-2.331H0a2.293,2.293,0,0,1-.437,1.21,2.881,2.881,0,0,1-1.077.916A3.107,3.107,0,0,1-2.939.137a3.047,3.047,0,0,1-2.4-1.008A4.016,4.016,0,0,1-6.234-3.63v-.212a4.453,4.453,0,0,1,.4-1.921A3.02,3.02,0,0,1-4.7-7.068a3.233,3.233,0,0,1,1.753-.465,2.966,2.966,0,0,1,2.068.745A2.663,2.663,0,0,1,0-4.854H-1.2A1.743,1.743,0,0,0-1.74-6.033a1.691,1.691,0,0,0-1.207-.461A1.77,1.77,0,0,0-4.44-5.8a3.259,3.259,0,0,0-.53,2.006v.239a3.194,3.194,0,0,0,.526,1.969A1.779,1.779,0,0,0-2.939-.9Zm8.928.164A2.686,2.686,0,0,1,3.821.137,2.3,2.3,0,0,1,2.02-.55a2.974,2.974,0,0,1-.625-2.034V-7.4H2.659v4.778q0,1.682,1.367,1.682a1.893,1.893,0,0,0,1.928-1.08V-7.4H7.219V0h-1.2ZM13.706,0a2.657,2.657,0,0,1-.178-.779,2.822,2.822,0,0,1-2.105.916A2.611,2.611,0,0,1,9.628-.482a2,2,0,0,1-.7-1.569,2.091,2.091,0,0,1,.878-1.794,4.142,4.142,0,0,1,2.471-.639h1.23v-.581a1.42,1.42,0,0,0-.4-1.056,1.593,1.593,0,0,0-1.169-.393,1.844,1.844,0,0,0-1.135.342,1.007,1.007,0,0,0-.458.827H9.078a1.745,1.745,0,0,1,.393-1.07,2.683,2.683,0,0,1,1.066-.817,3.588,3.588,0,0,1,1.48-.3,2.924,2.924,0,0,1,2,.639,2.306,2.306,0,0,1,.752,1.76v3.4a4.162,4.162,0,0,0,.26,1.62V0Zm-2.1-.964a2.223,2.223,0,0,0,1.128-.308,1.861,1.861,0,0,0,.772-.8V-3.589h-.991q-2.324,0-2.324,1.36a1.151,1.151,0,0,0,.4.93A1.524,1.524,0,0,0,11.607-.964Zm4.84-2.8A4.333,4.333,0,0,1,17.254-6.5a2.551,2.551,0,0,1,2.112-1.036,2.565,2.565,0,0,1,2.058.889V-10.5h1.265V0H21.526l-.062-.793a2.575,2.575,0,0,1-2.112.93,2.526,2.526,0,0,1-2.1-1.053,4.382,4.382,0,0,1-.81-2.748Zm1.265.144a3.281,3.281,0,0,0,.52,1.969,1.68,1.68,0,0,0,1.436.711,1.845,1.845,0,0,0,1.757-1.08v-3.4A1.859,1.859,0,0,0,19.681-6.46a1.687,1.687,0,0,0-1.449.718A3.612,3.612,0,0,0,17.712-3.616ZM29.217,0a2.657,2.657,0,0,1-.178-.779,2.822,2.822,0,0,1-2.105.916,2.611,2.611,0,0,1-1.794-.619,2,2,0,0,1-.7-1.569,2.091,2.091,0,0,1,.878-1.794,4.142,4.142,0,0,1,2.471-.639h1.23v-.581a1.42,1.42,0,0,0-.4-1.056,1.593,1.593,0,0,0-1.169-.393,1.844,1.844,0,0,0-1.135.342,1.007,1.007,0,0,0-.458.827H24.589a1.745,1.745,0,0,1,.393-1.07,2.683,2.683,0,0,1,1.066-.817,3.588,3.588,0,0,1,1.48-.3,2.924,2.924,0,0,1,2,.639,2.306,2.306,0,0,1,.752,1.76v3.4a4.162,4.162,0,0,0,.26,1.62V0Zm-2.1-.964a2.223,2.223,0,0,0,1.128-.308,1.861,1.861,0,0,0,.772-.8V-3.589h-.991q-2.324,0-2.324,1.36a1.151,1.151,0,0,0,.4.93A1.524,1.524,0,0,0,27.118-.964Z" transform="translate(1265.63 4135.353)" fill="#12263f"/>
      <path id="Path_199739" data-name="Path 199739" d="M0,0V11.884" transform="translate(1267.713 4181.915) rotate(180)" fill="none" stroke="#0f2771" stroke-width="1.5"/>
      <path id="Path_199740" data-name="Path 199740" d="M7,0l7,12H0Z" transform="translate(1260 4157.895)" fill="#0f2771"/>
      <path id="Path_199741" data-name="Path 199741" d="M16.229,7.057h-3.7V10.08h4.295V11h-5.42V2.469h5.361v.92H12.532V6.137h3.7ZM19.235,11H18.151V2h1.084Zm6.176-7.875V4.66h1.184V5.5H25.411V9.435a.88.88,0,0,0,.158.572.666.666,0,0,0,.539.191,2.624,2.624,0,0,0,.516-.07V11a3.161,3.161,0,0,1-.832.116,1.35,1.35,0,0,1-1.1-.439,1.888,1.888,0,0,1-.369-1.248V5.5H23.173V4.66h1.154V3.125ZM31.774,11a2.277,2.277,0,0,1-.152-.668,2.419,2.419,0,0,1-1.8.785,2.238,2.238,0,0,1-1.538-.53,1.716,1.716,0,0,1-.6-1.345A1.792,1.792,0,0,1,28.432,7.7a3.55,3.55,0,0,1,2.118-.548H31.6v-.5a1.217,1.217,0,0,0-.34-.905,1.366,1.366,0,0,0-1-.337,1.581,1.581,0,0,0-.973.293.863.863,0,0,0-.393.709h-1.09a1.5,1.5,0,0,1,.337-.917,2.3,2.3,0,0,1,.914-.7,3.075,3.075,0,0,1,1.269-.258,2.506,2.506,0,0,1,1.717.548A1.976,1.976,0,0,1,32.688,6.6V9.518a3.567,3.567,0,0,0,.223,1.389V11Zm-1.8-.826a1.905,1.905,0,0,0,.967-.264,1.6,1.6,0,0,0,.662-.686v-1.3h-.85q-1.992,0-1.992,1.166a.987.987,0,0,0,.34.8A1.306,1.306,0,0,0,29.976,10.174ZM35.407,4.66l.029.7a2.341,2.341,0,0,1,1.881-.82,1.813,1.813,0,0,1,1.811,1.02,2.4,2.4,0,0,1,.823-.738,2.431,2.431,0,0,1,1.2-.281q2.086,0,2.121,2.209V11H42.187V6.816A1.456,1.456,0,0,0,41.876,5.8a1.368,1.368,0,0,0-1.043-.337,1.437,1.437,0,0,0-1,.36,1.462,1.462,0,0,0-.463.97V11h-1.09V6.846a1.209,1.209,0,0,0-1.354-1.383,1.45,1.45,0,0,0-1.459.908V11H34.382V4.66ZM48.819,11a2.277,2.277,0,0,1-.152-.668,2.419,2.419,0,0,1-1.8.785,2.238,2.238,0,0,1-1.538-.53,1.716,1.716,0,0,1-.6-1.345A1.792,1.792,0,0,1,45.477,7.7a3.55,3.55,0,0,1,2.118-.548h1.055v-.5a1.217,1.217,0,0,0-.34-.905,1.366,1.366,0,0,0-1-.337,1.581,1.581,0,0,0-.973.293.863.863,0,0,0-.393.709h-1.09a1.5,1.5,0,0,1,.337-.917,2.3,2.3,0,0,1,.914-.7,3.075,3.075,0,0,1,1.269-.258,2.506,2.506,0,0,1,1.717.548A1.976,1.976,0,0,1,49.733,6.6V9.518a3.567,3.567,0,0,0,.223,1.389V11Zm-1.8-.826a1.905,1.905,0,0,0,.967-.264,1.6,1.6,0,0,0,.662-.686v-1.3H47.8q-1.992,0-1.992,1.166a.987.987,0,0,0,.34.8A1.306,1.306,0,0,0,47.021,10.174ZM52.458,4.66l.035.8a2.31,2.31,0,0,1,1.9-.914q2.01,0,2.027,2.268V11H55.335V6.8a1.459,1.459,0,0,0-.313-1.014,1.256,1.256,0,0,0-.958-.328,1.564,1.564,0,0,0-.926.281,1.91,1.91,0,0,0-.621.738V11H51.433V4.66Zm3.586-2.473a1.457,1.457,0,0,1-.36,1.025,1.17,1.17,0,0,1-.9.393,1.32,1.32,0,0,1-.416-.059,2.244,2.244,0,0,1-.46-.24,1.992,1.992,0,0,0-.41-.22,1,1,0,0,0-.29-.038.538.538,0,0,0-.41.185.669.669,0,0,0-.17.472L51.9,3.664a1.529,1.529,0,0,1,.354-1.037,1.137,1.137,0,0,1,.9-.41,1.092,1.092,0,0,1,.369.059,2.69,2.69,0,0,1,.445.229,2.62,2.62,0,0,0,.431.223.989.989,0,0,0,.331.053.524.524,0,0,0,.419-.2.7.7,0,0,0,.167-.463Zm1.723,5.584A3.745,3.745,0,0,1,58.133,6.1a2.732,2.732,0,0,1,1.02-1.148,2.775,2.775,0,0,1,1.491-.4,2.674,2.674,0,0,1,2.095.9,3.449,3.449,0,0,1,.8,2.385V7.9a3.777,3.777,0,0,1-.354,1.661,2.692,2.692,0,0,1-1.014,1.146,2.807,2.807,0,0,1-1.515.41,2.667,2.667,0,0,1-2.089-.9,3.432,3.432,0,0,1-.8-2.373Zm1.09.129a2.712,2.712,0,0,0,.489,1.693,1.658,1.658,0,0,0,2.622-.009,2.966,2.966,0,0,0,.486-1.813,2.708,2.708,0,0,0-.5-1.69,1.574,1.574,0,0,0-1.315-.647,1.557,1.557,0,0,0-1.295.639A2.944,2.944,0,0,0,58.856,7.9ZM67.6,7.777A3.714,3.714,0,0,1,68.3,5.431,2.352,2.352,0,0,1,71.87,5.3V2h1.084v9h-1l-.053-.68a2.208,2.208,0,0,1-1.811.8,2.165,2.165,0,0,1-1.8-.9A3.756,3.756,0,0,1,67.6,7.859Zm1.084.123a2.812,2.812,0,0,0,.445,1.688,1.44,1.44,0,0,0,1.23.609,1.581,1.581,0,0,0,1.506-.926V6.359a1.593,1.593,0,0,0-1.494-.9,1.446,1.446,0,0,0-1.242.615A3.1,3.1,0,0,0,68.688,7.9Zm8.578,3.217a2.77,2.77,0,0,1-2.1-.847,3.142,3.142,0,0,1-.809-2.265v-.2a3.8,3.8,0,0,1,.36-1.685,2.811,2.811,0,0,1,1.008-1.16,2.534,2.534,0,0,1,1.4-.419,2.374,2.374,0,0,1,1.922.814,3.526,3.526,0,0,1,.686,2.332v.451H75.444a2.254,2.254,0,0,0,.548,1.515,1.722,1.722,0,0,0,1.333.577A1.888,1.888,0,0,0,78.3,10a2.444,2.444,0,0,0,.7-.621l.662.516A2.662,2.662,0,0,1,77.267,11.117Zm-.135-5.684a1.446,1.446,0,0,0-1.1.478,2.321,2.321,0,0,0-.551,1.339h3.176V7.168a2.065,2.065,0,0,0-.445-1.28A1.361,1.361,0,0,0,77.132,5.434ZM85.142,11H84.058V2h1.084Zm5.648,0a2.277,2.277,0,0,1-.152-.668,2.419,2.419,0,0,1-1.8.785,2.238,2.238,0,0,1-1.538-.53,1.716,1.716,0,0,1-.6-1.345A1.792,1.792,0,0,1,87.447,7.7a3.55,3.55,0,0,1,2.118-.548H90.62v-.5a1.217,1.217,0,0,0-.34-.905,1.366,1.366,0,0,0-1-.337,1.581,1.581,0,0,0-.973.293.863.863,0,0,0-.393.709h-1.09A1.5,1.5,0,0,1,87.16,5.5a2.3,2.3,0,0,1,.914-.7,3.075,3.075,0,0,1,1.269-.258,2.506,2.506,0,0,1,1.717.548A1.976,1.976,0,0,1,91.7,6.6V9.518a3.567,3.567,0,0,0,.223,1.389V11Zm-1.8-.826a1.905,1.905,0,0,0,.967-.264,1.6,1.6,0,0,0,.662-.686v-1.3h-.85q-1.992,0-1.992,1.166a.987.987,0,0,0,.34.8A1.306,1.306,0,0,0,88.991,10.174ZM6.983,20.66l.029.7a2.341,2.341,0,0,1,1.881-.82,1.813,1.813,0,0,1,1.811,1.02,2.4,2.4,0,0,1,.823-.738,2.431,2.431,0,0,1,1.2-.281q2.086,0,2.121,2.209V27H13.763V22.816a1.456,1.456,0,0,0-.311-1.017,1.368,1.368,0,0,0-1.043-.337,1.437,1.437,0,0,0-1,.36,1.462,1.462,0,0,0-.463.97V27H9.854V22.846A1.209,1.209,0,0,0,8.5,21.463a1.45,1.45,0,0,0-1.459.908V27H5.958V20.66ZM20.4,26.373a2.3,2.3,0,0,1-1.857.744,1.971,1.971,0,0,1-1.544-.589,2.549,2.549,0,0,1-.536-1.743V20.66h1.084v4.1q0,1.441,1.172,1.441a1.623,1.623,0,0,0,1.652-.926V20.66H21.45V27H20.419Zm5.332.744a2.77,2.77,0,0,1-2.1-.847,3.142,3.142,0,0,1-.809-2.265v-.2a3.8,3.8,0,0,1,.36-1.685,2.811,2.811,0,0,1,1.008-1.16,2.534,2.534,0,0,1,1.4-.419,2.374,2.374,0,0,1,1.922.814,3.526,3.526,0,0,1,.686,2.332v.451H23.905a2.254,2.254,0,0,0,.548,1.515,1.722,1.722,0,0,0,1.333.577A1.888,1.888,0,0,0,26.759,26a2.444,2.444,0,0,0,.7-.621l.662.516A2.662,2.662,0,0,1,25.728,27.117Zm-.135-5.684a1.446,1.446,0,0,0-1.1.478,2.321,2.321,0,0,0-.551,1.339h3.176v-.082a2.065,2.065,0,0,0-.445-1.28A1.361,1.361,0,0,0,25.593,21.434Zm7.553,3.885a.8.8,0,0,0-.331-.683,3.187,3.187,0,0,0-1.154-.419,5.457,5.457,0,0,1-1.307-.422,1.859,1.859,0,0,1-.715-.586,1.4,1.4,0,0,1-.231-.809,1.645,1.645,0,0,1,.659-1.318,2.574,2.574,0,0,1,1.685-.539A2.649,2.649,0,0,1,33.5,21.1a1.768,1.768,0,0,1,.671,1.424h-1.09a.979.979,0,0,0-.378-.768,1.416,1.416,0,0,0-.952-.322,1.482,1.482,0,0,0-.926.258.812.812,0,0,0-.334.674.658.658,0,0,0,.311.592,3.821,3.821,0,0,0,1.122.381,5.847,5.847,0,0,1,1.315.434,1.919,1.919,0,0,1,.747.606,1.491,1.491,0,0,1,.243.864,1.623,1.623,0,0,1-.68,1.362,2.851,2.851,0,0,1-1.764.513,3.193,3.193,0,0,1-1.348-.27,2.192,2.192,0,0,1-.917-.753,1.815,1.815,0,0,1-.331-1.046h1.084a1.122,1.122,0,0,0,.437.864,1.693,1.693,0,0,0,1.075.319,1.748,1.748,0,0,0,.987-.249A.765.765,0,0,0,33.146,25.318Zm3.967-6.193V20.66H38.3V21.5H37.112v3.937a.88.88,0,0,0,.158.572.666.666,0,0,0,.539.191,2.624,2.624,0,0,0,.516-.07V27a3.161,3.161,0,0,1-.832.116,1.35,1.35,0,0,1-1.1-.439,1.888,1.888,0,0,1-.369-1.248V21.5H34.874V20.66h1.154V19.125Zm5.514,2.508a3.248,3.248,0,0,0-.533-.041,1.428,1.428,0,0,0-1.447.908V27H39.562V20.66h1.055l.018.732a1.688,1.688,0,0,1,1.512-.85,1.107,1.107,0,0,1,.48.082ZM47.3,27a2.277,2.277,0,0,1-.152-.668,2.419,2.419,0,0,1-1.8.785,2.238,2.238,0,0,1-1.538-.53,1.716,1.716,0,0,1-.6-1.345,1.792,1.792,0,0,1,.753-1.538,3.55,3.55,0,0,1,2.118-.548h1.055v-.5a1.217,1.217,0,0,0-.34-.905,1.366,1.366,0,0,0-1-.337,1.581,1.581,0,0,0-.973.293.863.863,0,0,0-.393.709h-1.09a1.5,1.5,0,0,1,.337-.917,2.3,2.3,0,0,1,.914-.7,3.075,3.075,0,0,1,1.269-.258,2.506,2.506,0,0,1,1.717.548,1.976,1.976,0,0,1,.645,1.509v2.918a3.567,3.567,0,0,0,.223,1.389V27Zm-1.8-.826a1.905,1.905,0,0,0,.967-.264,1.6,1.6,0,0,0,.662-.686v-1.3h-.85q-1.992,0-1.992,1.166a.987.987,0,0,0,.34.8A1.306,1.306,0,0,0,45.5,26.174Zm7.119-2.4a3.714,3.714,0,0,1,.691-2.347,2.352,2.352,0,0,1,3.574-.126V18h1.084v9h-1l-.053-.68a2.208,2.208,0,0,1-1.811.8,2.165,2.165,0,0,1-1.8-.9,3.756,3.756,0,0,1-.694-2.355Zm1.084.123a2.812,2.812,0,0,0,.445,1.688,1.44,1.44,0,0,0,1.23.609,1.581,1.581,0,0,0,1.506-.926V22.359a1.593,1.593,0,0,0-1.494-.9,1.446,1.446,0,0,0-1.242.615A3.1,3.1,0,0,0,53.706,23.9Zm8.578,3.217a2.77,2.77,0,0,1-2.1-.847,3.142,3.142,0,0,1-.809-2.265v-.2a3.8,3.8,0,0,1,.36-1.685,2.811,2.811,0,0,1,1.008-1.16,2.534,2.534,0,0,1,1.4-.419,2.374,2.374,0,0,1,1.922.814,3.526,3.526,0,0,1,.686,2.332v.451H60.462a2.254,2.254,0,0,0,.548,1.515,1.722,1.722,0,0,0,1.333.577A1.888,1.888,0,0,0,63.315,26a2.444,2.444,0,0,0,.7-.621l.662.516A2.662,2.662,0,0,1,62.284,27.117Zm-.135-5.684a1.446,1.446,0,0,0-1.1.478A2.321,2.321,0,0,0,60.5,23.25h3.176v-.082a2.065,2.065,0,0,0-.445-1.28A1.361,1.361,0,0,0,62.149,21.434ZM71.378,23.9a3.77,3.77,0,0,1-.668,2.335,2.134,2.134,0,0,1-1.793.882,2.21,2.21,0,0,1-1.857-.85L67.007,27h-1V18h1.084v3.357a2.2,2.2,0,0,1,1.811-.814,2.147,2.147,0,0,1,1.813.873,3.883,3.883,0,0,1,.659,2.391Zm-1.084-.123a2.929,2.929,0,0,0-.428-1.711,1.416,1.416,0,0,0-1.23-.6,1.591,1.591,0,0,0-1.541,1V25.2a1.636,1.636,0,0,0,1.553,1,1.408,1.408,0,0,0,1.213-.6A3.115,3.115,0,0,0,70.294,23.777Zm5.08,3.34a2.77,2.77,0,0,1-2.1-.847,3.142,3.142,0,0,1-.809-2.265v-.2a3.8,3.8,0,0,1,.36-1.685,2.811,2.811,0,0,1,1.008-1.16,2.534,2.534,0,0,1,1.4-.419,2.374,2.374,0,0,1,1.922.814,3.526,3.526,0,0,1,.686,2.332v.451H73.552a2.254,2.254,0,0,0,.548,1.515,1.722,1.722,0,0,0,1.333.577A1.888,1.888,0,0,0,76.405,26a2.444,2.444,0,0,0,.7-.621l.662.516A2.662,2.662,0,0,1,75.374,27.117Zm-.135-5.684a1.446,1.446,0,0,0-1.1.478,2.321,2.321,0,0,0-.551,1.339h3.176v-.082a2.065,2.065,0,0,0-.445-1.28A1.361,1.361,0,0,0,75.239,21.434Zm10.523,3.885a.8.8,0,0,0-.331-.683,3.187,3.187,0,0,0-1.154-.419,5.457,5.457,0,0,1-1.307-.422,1.859,1.859,0,0,1-.715-.586,1.4,1.4,0,0,1-.231-.809,1.645,1.645,0,0,1,.659-1.318,2.574,2.574,0,0,1,1.685-.539,2.649,2.649,0,0,1,1.749.557,1.768,1.768,0,0,1,.671,1.424H85.7a.979.979,0,0,0-.378-.768,1.416,1.416,0,0,0-.952-.322,1.482,1.482,0,0,0-.926.258.812.812,0,0,0-.334.674.658.658,0,0,0,.311.592,3.821,3.821,0,0,0,1.122.381,5.847,5.847,0,0,1,1.315.434,1.919,1.919,0,0,1,.747.606,1.491,1.491,0,0,1,.243.864,1.623,1.623,0,0,1-.68,1.362,2.851,2.851,0,0,1-1.764.513,3.193,3.193,0,0,1-1.348-.27,2.192,2.192,0,0,1-.917-.753,1.815,1.815,0,0,1-.331-1.046h1.084a1.122,1.122,0,0,0,.437.864,1.693,1.693,0,0,0,1.075.319,1.748,1.748,0,0,0,.987-.249A.765.765,0,0,0,85.763,25.318Zm5.127,1.8a2.77,2.77,0,0,1-2.1-.847,3.142,3.142,0,0,1-.809-2.265v-.2a3.8,3.8,0,0,1,.36-1.685,2.811,2.811,0,0,1,1.008-1.16,2.534,2.534,0,0,1,1.4-.419,2.374,2.374,0,0,1,1.922.814,3.526,3.526,0,0,1,.686,2.332v.451H89.067a2.254,2.254,0,0,0,.548,1.515,1.722,1.722,0,0,0,1.333.577A1.888,1.888,0,0,0,91.921,26a2.444,2.444,0,0,0,.7-.621l.662.516A2.662,2.662,0,0,1,90.89,27.117Zm-.135-5.684a1.446,1.446,0,0,0-1.1.478A2.321,2.321,0,0,0,89.1,23.25h3.176v-.082a2.065,2.065,0,0,0-.445-1.28A1.361,1.361,0,0,0,90.755,21.434Zm6.926.2a3.248,3.248,0,0,0-.533-.041A1.428,1.428,0,0,0,95.7,22.5V27H94.616V20.66h1.055l.018.732a1.688,1.688,0,0,1,1.512-.85,1.107,1.107,0,0,1,.48.082Zm-69.056,16a3.248,3.248,0,0,0-.533-.041,1.428,1.428,0,0,0-1.447.908V43H25.561V36.66h1.055l.018.732a1.688,1.688,0,0,1,1.512-.85,1.107,1.107,0,0,1,.48.082Zm3.516,5.484a2.77,2.77,0,0,1-2.1-.847,3.142,3.142,0,0,1-.809-2.265v-.2a3.8,3.8,0,0,1,.36-1.685,2.811,2.811,0,0,1,1.008-1.16,2.534,2.534,0,0,1,1.4-.419,2.374,2.374,0,0,1,1.922.814,3.526,3.526,0,0,1,.686,2.332v.451H30.318a2.254,2.254,0,0,0,.548,1.515,1.722,1.722,0,0,0,1.333.577A1.888,1.888,0,0,0,33.172,42a2.444,2.444,0,0,0,.7-.621l.662.516A2.662,2.662,0,0,1,32.141,43.117Zm-.135-5.684a1.446,1.446,0,0,0-1.1.478,2.321,2.321,0,0,0-.551,1.339h3.176v-.082a2.065,2.065,0,0,0-.445-1.28A1.361,1.361,0,0,0,32.006,37.434ZM39.781,43a2.277,2.277,0,0,1-.152-.668,2.419,2.419,0,0,1-1.8.785,2.238,2.238,0,0,1-1.538-.53,1.716,1.716,0,0,1-.6-1.345,1.792,1.792,0,0,1,.753-1.538,3.55,3.55,0,0,1,2.118-.548h1.055v-.5a1.217,1.217,0,0,0-.34-.905,1.366,1.366,0,0,0-1-.337,1.581,1.581,0,0,0-.973.293.863.863,0,0,0-.393.709h-1.09a1.5,1.5,0,0,1,.337-.917,2.3,2.3,0,0,1,.914-.7,3.075,3.075,0,0,1,1.269-.258,2.506,2.506,0,0,1,1.717.548A1.976,1.976,0,0,1,40.7,38.6v2.918a3.567,3.567,0,0,0,.223,1.389V43Zm-1.8-.826a1.905,1.905,0,0,0,.967-.264,1.6,1.6,0,0,0,.662-.686v-1.3h-.85q-1.992,0-1.992,1.166a.987.987,0,0,0,.34.8A1.306,1.306,0,0,0,37.982,42.174Zm5.59.826H42.488V34h1.084Zm2.754-6.34.029.7a2.341,2.341,0,0,1,1.881-.82,1.813,1.813,0,0,1,1.811,1.02,2.4,2.4,0,0,1,.823-.738,2.431,2.431,0,0,1,1.2-.281q2.086,0,2.121,2.209V43H53.105V38.816a1.456,1.456,0,0,0-.311-1.017,1.368,1.368,0,0,0-1.043-.337,1.437,1.437,0,0,0-1,.36,1.462,1.462,0,0,0-.463.97V43H49.2V38.846a1.209,1.209,0,0,0-1.354-1.383,1.45,1.45,0,0,0-1.459.908V43H45.3V36.66Zm12.129,6.457a2.77,2.77,0,0,1-2.1-.847,3.142,3.142,0,0,1-.809-2.265v-.2a3.8,3.8,0,0,1,.36-1.685,2.811,2.811,0,0,1,1.008-1.16,2.534,2.534,0,0,1,1.4-.419,2.374,2.374,0,0,1,1.922.814,3.526,3.526,0,0,1,.686,2.332v.451H56.633a2.254,2.254,0,0,0,.548,1.515,1.722,1.722,0,0,0,1.333.577A1.888,1.888,0,0,0,59.486,42a2.444,2.444,0,0,0,.7-.621l.662.516A2.662,2.662,0,0,1,58.455,43.117Zm-.135-5.684a1.446,1.446,0,0,0-1.1.478,2.321,2.321,0,0,0-.551,1.339h3.176v-.082a2.065,2.065,0,0,0-.445-1.28A1.361,1.361,0,0,0,58.32,37.434Zm4.887-.773.035.8a2.31,2.31,0,0,1,1.9-.914q2.01,0,2.027,2.268V43H66.084V38.8a1.459,1.459,0,0,0-.313-1.014,1.256,1.256,0,0,0-.958-.328,1.564,1.564,0,0,0-.926.281,1.91,1.91,0,0,0-.621.738V43H62.182V36.66Zm7.066-1.535V36.66h1.184V37.5H70.273v3.937a.88.88,0,0,0,.158.572.666.666,0,0,0,.539.191,2.624,2.624,0,0,0,.516-.07V43a3.161,3.161,0,0,1-.832.116,1.35,1.35,0,0,1-1.1-.439,1.888,1.888,0,0,1-.369-1.248V37.5H68.035V36.66h1.154V35.125Zm5.08,7.992a2.77,2.77,0,0,1-2.1-.847,3.142,3.142,0,0,1-.809-2.265v-.2a3.8,3.8,0,0,1,.36-1.685,2.811,2.811,0,0,1,1.008-1.16,2.534,2.534,0,0,1,1.4-.419,2.374,2.374,0,0,1,1.922.814,3.526,3.526,0,0,1,.686,2.332v.451H73.531a2.254,2.254,0,0,0,.548,1.515,1.722,1.722,0,0,0,1.333.577A1.888,1.888,0,0,0,76.385,42a2.444,2.444,0,0,0,.7-.621l.662.516A2.662,2.662,0,0,1,75.354,43.117Zm-.135-5.684a1.446,1.446,0,0,0-1.1.478,2.321,2.321,0,0,0-.551,1.339h3.176v-.082a2.065,2.065,0,0,0-.445-1.28A1.361,1.361,0,0,0,75.219,37.434ZM24.061,57.318a.8.8,0,0,0-.331-.683,3.187,3.187,0,0,0-1.154-.419,5.457,5.457,0,0,1-1.307-.422,1.859,1.859,0,0,1-.715-.586,1.4,1.4,0,0,1-.231-.809,1.645,1.645,0,0,1,.659-1.318,2.574,2.574,0,0,1,1.685-.539,2.649,2.649,0,0,1,1.749.557,1.768,1.768,0,0,1,.671,1.424H24a.979.979,0,0,0-.378-.768,1.416,1.416,0,0,0-.952-.322,1.482,1.482,0,0,0-.926.258.812.812,0,0,0-.334.674.658.658,0,0,0,.311.592,3.821,3.821,0,0,0,1.122.381,5.847,5.847,0,0,1,1.315.434,1.919,1.919,0,0,1,.747.606,1.491,1.491,0,0,1,.243.864,1.623,1.623,0,0,1-.68,1.362,2.851,2.851,0,0,1-1.764.513,3.193,3.193,0,0,1-1.348-.27,2.192,2.192,0,0,1-.917-.753,1.815,1.815,0,0,1-.331-1.046h1.084a1.122,1.122,0,0,0,.437.864,1.693,1.693,0,0,0,1.075.319,1.748,1.748,0,0,0,.987-.249A.765.765,0,0,0,24.061,57.318ZM27.734,59H26.65V52.66h1.084Zm-1.172-8.021a.647.647,0,0,1,.161-.445.6.6,0,0,1,.478-.182.614.614,0,0,1,.48.182.64.64,0,0,1,.164.445.619.619,0,0,1-.164.439.626.626,0,0,1-.48.176.616.616,0,0,1-.478-.176A.626.626,0,0,1,26.563,50.979Zm2.648,4.8a3.726,3.726,0,0,1,.686-2.358,2.363,2.363,0,0,1,3.627-.056l.053-.7h.99v6.188a2.579,2.579,0,0,1-.729,1.939,2.692,2.692,0,0,1-1.96.709,3.261,3.261,0,0,1-1.342-.293,2.31,2.31,0,0,1-1-.8l.563-.65a2.12,2.12,0,0,0,1.705.861,1.661,1.661,0,0,0,1.233-.445,1.7,1.7,0,0,0,.442-1.254v-.545a2.228,2.228,0,0,1-1.775.75,2.166,2.166,0,0,1-1.8-.9A3.918,3.918,0,0,1,29.211,55.777Zm1.09.123a2.843,2.843,0,0,0,.439,1.685,1.428,1.428,0,0,0,1.23.612,1.588,1.588,0,0,0,1.506-.932V54.371a1.606,1.606,0,0,0-1.494-.908,1.441,1.441,0,0,0-1.236.615A3.1,3.1,0,0,0,30.3,55.9Zm6.926-3.24.035.8a2.31,2.31,0,0,1,1.9-.914q2.01,0,2.027,2.268V59H40.1V54.8a1.459,1.459,0,0,0-.313-1.014,1.256,1.256,0,0,0-.958-.328,1.564,1.564,0,0,0-.926.281,1.91,1.91,0,0,0-.621.738V59H36.2V52.66ZM44,59H42.916V52.66H44Zm-1.172-8.021a.647.647,0,0,1,.161-.445.6.6,0,0,1,.478-.182.614.614,0,0,1,.48.182.64.64,0,0,1,.164.445.619.619,0,0,1-.164.439.626.626,0,0,1-.48.176.616.616,0,0,1-.478-.176A.626.626,0,0,1,42.828,50.979ZM46.1,59V53.5h-1V52.66h1v-.539a2.2,2.2,0,0,1,.606-1.652,2.352,2.352,0,0,1,1.714-.592,5.161,5.161,0,0,1,1.658.357l-.182.914a3.756,3.756,0,0,0-1.395-.293,1.364,1.364,0,0,0-1,.313,1.292,1.292,0,0,0-.308.94v.551h1.295V53.5H47.188V59Zm4.518,0h-1.09V52.66h1.09Zm4.307-.768a1.561,1.561,0,0,0,1.014-.352,1.237,1.237,0,0,0,.48-.879h1.025a1.966,1.966,0,0,1-.375,1.037,2.47,2.47,0,0,1-.923.785,2.663,2.663,0,0,1-1.222.293,2.612,2.612,0,0,1-2.06-.864,3.442,3.442,0,0,1-.765-2.364v-.182a3.817,3.817,0,0,1,.34-1.646,2.588,2.588,0,0,1,.976-1.119,2.771,2.771,0,0,1,1.5-.4,2.543,2.543,0,0,1,1.772.639,2.283,2.283,0,0,1,.753,1.658H56.416a1.494,1.494,0,0,0-.466-1.011,1.449,1.449,0,0,0-1.034-.4,1.517,1.517,0,0,0-1.28.595,2.793,2.793,0,0,0-.454,1.72v.205a2.737,2.737,0,0,0,.451,1.688A1.524,1.524,0,0,0,54.922,58.232ZM62.574,59a2.277,2.277,0,0,1-.152-.668,2.419,2.419,0,0,1-1.8.785,2.238,2.238,0,0,1-1.538-.53,1.716,1.716,0,0,1-.6-1.345,1.792,1.792,0,0,1,.753-1.538,3.55,3.55,0,0,1,2.118-.548H62.4v-.5a1.217,1.217,0,0,0-.34-.905,1.366,1.366,0,0,0-1-.337,1.581,1.581,0,0,0-.973.293.863.863,0,0,0-.393.709h-1.09a1.5,1.5,0,0,1,.337-.917,2.3,2.3,0,0,1,.914-.7,3.075,3.075,0,0,1,1.269-.258,2.506,2.506,0,0,1,1.717.548,1.976,1.976,0,0,1,.645,1.509v2.918a3.567,3.567,0,0,0,.223,1.389V59Zm-1.8-.826a1.905,1.905,0,0,0,.967-.264,1.6,1.6,0,0,0,.662-.686v-1.3h-.85q-1.992,0-1.992,1.166a.987.987,0,0,0,.34.8A1.306,1.306,0,0,0,60.775,58.174Zm5.883-7.049V52.66h1.184V53.5H66.658v3.937a.88.88,0,0,0,.158.572.666.666,0,0,0,.539.191,2.624,2.624,0,0,0,.516-.07V59a3.161,3.161,0,0,1-.832.116,1.35,1.35,0,0,1-1.1-.439,1.888,1.888,0,0,1-.369-1.248V53.5H64.42V52.66h1.154V51.125ZM70.285,59H69.2V52.66h1.084Zm-1.172-8.021a.647.647,0,0,1,.161-.445.6.6,0,0,1,.478-.182.614.614,0,0,1,.48.182.64.64,0,0,1,.164.445.619.619,0,0,1-.164.439.626.626,0,0,1-.48.176.616.616,0,0,1-.478-.176A.626.626,0,0,1,69.113,50.979Zm5,6.551,1.57-4.869h1.107L74.516,59h-.826l-2.3-6.34H72.5ZM81.658,59a2.277,2.277,0,0,1-.152-.668,2.419,2.419,0,0,1-1.8.785,2.238,2.238,0,0,1-1.538-.53,1.716,1.716,0,0,1-.6-1.345,1.792,1.792,0,0,1,.753-1.538,3.55,3.55,0,0,1,2.118-.548h1.055v-.5a1.217,1.217,0,0,0-.34-.905,1.366,1.366,0,0,0-1-.337,1.581,1.581,0,0,0-.973.293.863.863,0,0,0-.393.709h-1.09a1.5,1.5,0,0,1,.337-.917,2.3,2.3,0,0,1,.914-.7,3.075,3.075,0,0,1,1.269-.258,2.506,2.506,0,0,1,1.717.548,1.976,1.976,0,0,1,.645,1.509v2.918a3.567,3.567,0,0,0,.223,1.389V59Zm-1.8-.826a1.905,1.905,0,0,0,.967-.264,1.6,1.6,0,0,0,.662-.686v-1.3h-.85q-1.992,0-1.992,1.166a.987.987,0,0,0,.34.8A1.306,1.306,0,0,0,79.859,58.174Z" transform="translate(1217 4199.895)" fill="#12263f"/>
    </g>
  </g>
</svg>
