<svg xmlns="http://www.w3.org/2000/svg" width="555" height="402" viewBox="0 0 555 402">
  <g id="Grupo_141151" data-name="Grupo 141151" transform="translate(-9819 8081)">
    <path id="Trazado_199499" data-name="Trazado 199499" d="M0,0H510V2H0Z" transform="translate(9864 -8081)" fill="#4dd0e1" opacity="0.2"/>
    <path id="Trazado_199500" data-name="Trazado 199500" d="M0,0H510V2H0Z" transform="translate(9864 -7681)" fill="#4dd0e1" opacity="0.2"/>
    <path id="Trazado_199501" data-name="Trazado 199501" d="M0,0H190V402H0Z" transform="translate(10184 -8081)" fill="#4dd0e1"/>
    <path id="metaverso-nft-ob-01-1" d="M15,0H529a15,15,0,0,1,15,15V369a15,15,0,0,1-15,15H15A15,15,0,0,1,0,369V15A15,15,0,0,1,15,0Z" transform="translate(9819 -8072)" fill="#fff"/>
    <path id="Trazado_199511" data-name="Trazado 199511" d="M3.258-11.375,6.977-2.094,10.7-11.375h1.945V0h-1.5V-4.43l.141-4.781L7.547,0H6.4L2.672-9.187,2.82-4.43V0H1.32V-11.375ZM18.57.156a3.693,3.693,0,0,1-2.8-1.129A4.19,4.19,0,0,1,14.7-3.992v-.266a5.073,5.073,0,0,1,.48-2.246A3.748,3.748,0,0,1,16.52-8.051a3.378,3.378,0,0,1,1.871-.559,3.166,3.166,0,0,1,2.563,1.086,4.7,4.7,0,0,1,.914,3.109v.6H16.141a3,3,0,0,0,.73,2.02,2.3,2.3,0,0,0,1.777.77,2.517,2.517,0,0,0,1.3-.312,3.259,3.259,0,0,0,.93-.828l.883.688A3.55,3.55,0,0,1,18.57.156Zm-.18-7.578a1.928,1.928,0,0,0-1.469.637A3.1,3.1,0,0,0,16.188-5h4.234v-.109a2.753,2.753,0,0,0-.594-1.707A1.815,1.815,0,0,0,18.391-7.422Zm4.8,3.125a4.952,4.952,0,0,1,.922-3.129,2.915,2.915,0,0,1,2.414-1.184,2.932,2.932,0,0,1,2.352,1.016V-12H30.32V0H28.992l-.07-.906A2.943,2.943,0,0,1,26.508.156a2.887,2.887,0,0,1-2.395-1.2,5.008,5.008,0,0,1-.926-3.141Zm1.445.164a3.749,3.749,0,0,0,.594,2.25,1.92,1.92,0,0,0,1.641.813A2.108,2.108,0,0,0,28.875-2.3V-6.187a2.125,2.125,0,0,0-1.992-1.2,1.929,1.929,0,0,0-1.656.82A4.128,4.128,0,0,0,24.633-4.133ZM34.133,0H32.688V-8.453h1.445ZM32.57-10.7a.863.863,0,0,1,.215-.594.807.807,0,0,1,.637-.242.819.819,0,0,1,.641.242.854.854,0,0,1,.219.594.826.826,0,0,1-.219.586.834.834,0,0,1-.641.234.821.821,0,0,1-.637-.234A.834.834,0,0,1,32.57-10.7ZM41.664,0a3.036,3.036,0,0,1-.2-.891A3.225,3.225,0,0,1,39.055.156,2.984,2.984,0,0,1,37-.551a2.287,2.287,0,0,1-.8-1.793,2.39,2.39,0,0,1,1-2.051,4.733,4.733,0,0,1,2.824-.73h1.406v-.664A1.623,1.623,0,0,0,40.984-7a1.821,1.821,0,0,0-1.336-.449,2.107,2.107,0,0,0-1.3.391,1.151,1.151,0,0,0-.523.945H36.375a2,2,0,0,1,.449-1.223,3.066,3.066,0,0,1,1.219-.934,4.1,4.1,0,0,1,1.691-.344,3.342,3.342,0,0,1,2.289.73,2.635,2.635,0,0,1,.859,2.012v3.891a4.757,4.757,0,0,0,.3,1.852V0Zm-2.4-1.1a2.54,2.54,0,0,0,1.289-.352,2.127,2.127,0,0,0,.883-.914V-4.1H40.3q-2.656,0-2.656,1.555A1.316,1.316,0,0,0,38.1-1.484,1.742,1.742,0,0,0,39.266-1.1Zm9.492-3.2a4.952,4.952,0,0,1,.922-3.129,2.915,2.915,0,0,1,2.414-1.184,2.932,2.932,0,0,1,2.352,1.016V-12h1.445V0H54.563l-.07-.906A2.943,2.943,0,0,1,52.078.156a2.887,2.887,0,0,1-2.395-1.2,5.008,5.008,0,0,1-.926-3.141Zm1.445.164a3.749,3.749,0,0,0,.594,2.25,1.92,1.92,0,0,0,1.641.813A2.108,2.108,0,0,0,54.445-2.3V-6.187a2.125,2.125,0,0,0-1.992-1.2,1.929,1.929,0,0,0-1.656.82A4.128,4.128,0,0,0,50.2-4.133ZM61.641.156a3.693,3.693,0,0,1-2.8-1.129,4.19,4.19,0,0,1-1.078-3.02v-.266a5.073,5.073,0,0,1,.48-2.246A3.748,3.748,0,0,1,59.59-8.051a3.378,3.378,0,0,1,1.871-.559,3.166,3.166,0,0,1,2.563,1.086,4.7,4.7,0,0,1,.914,3.109v.6H59.211a3,3,0,0,0,.73,2.02,2.3,2.3,0,0,0,1.777.77,2.517,2.517,0,0,0,1.3-.312,3.259,3.259,0,0,0,.93-.828l.883.688A3.55,3.55,0,0,1,61.641.156Zm-.18-7.578a1.928,1.928,0,0,0-1.469.637A3.1,3.1,0,0,0,59.258-5h4.234v-.109A2.753,2.753,0,0,0,62.9-6.816,1.815,1.815,0,0,0,61.461-7.422ZM72.141,0H70.7V-12h1.445Zm7.531,0a3.036,3.036,0,0,1-.2-.891A3.225,3.225,0,0,1,77.063.156a2.984,2.984,0,0,1-2.051-.707,2.288,2.288,0,0,1-.8-1.793,2.39,2.39,0,0,1,1-2.051,4.733,4.733,0,0,1,2.824-.73h1.406v-.664A1.623,1.623,0,0,0,78.992-7a1.821,1.821,0,0,0-1.336-.449,2.108,2.108,0,0,0-1.3.391,1.151,1.151,0,0,0-.523.945H74.383a2,2,0,0,1,.449-1.223,3.066,3.066,0,0,1,1.219-.934,4.1,4.1,0,0,1,1.691-.344,3.342,3.342,0,0,1,2.289.73,2.635,2.635,0,0,1,.859,2.012v3.891a4.757,4.757,0,0,0,.3,1.852V0Zm-2.4-1.1a2.54,2.54,0,0,0,1.289-.352,2.127,2.127,0,0,0,.883-.914V-4.1H78.313q-2.656,0-2.656,1.555a1.316,1.316,0,0,0,.453,1.063A1.742,1.742,0,0,0,77.273-1.1Zm10.8-1.141a1.064,1.064,0,0,0-.441-.91A4.249,4.249,0,0,0,86.1-3.711a7.277,7.277,0,0,1-1.742-.562,2.479,2.479,0,0,1-.953-.781,1.869,1.869,0,0,1-.309-1.078,2.193,2.193,0,0,1,.879-1.758,3.432,3.432,0,0,1,2.246-.719,3.532,3.532,0,0,1,2.332.742,2.357,2.357,0,0,1,.895,1.9H87.992a1.3,1.3,0,0,0-.5-1.023,1.888,1.888,0,0,0-1.27-.43,1.976,1.976,0,0,0-1.234.344,1.082,1.082,0,0,0-.445.9.877.877,0,0,0,.414.789,5.1,5.1,0,0,0,1.5.508A7.8,7.8,0,0,1,88.2-4.3a2.558,2.558,0,0,1,1,.809,1.988,1.988,0,0,1,.324,1.152,2.163,2.163,0,0,1-.906,1.816,3.8,3.8,0,0,1-2.352.684,4.257,4.257,0,0,1-1.8-.359,2.922,2.922,0,0,1-1.223-1A2.42,2.42,0,0,1,82.8-2.6H84.25a1.5,1.5,0,0,0,.582,1.152,2.258,2.258,0,0,0,1.434.426,2.331,2.331,0,0,0,1.316-.332A1.02,1.02,0,0,0,88.078-2.242Zm8.648-6.211.039.938a3.122,3.122,0,0,1,2.508-1.094,2.417,2.417,0,0,1,2.414,1.359,3.2,3.2,0,0,1,1.1-.984,3.242,3.242,0,0,1,1.6-.375q2.781,0,2.828,2.945V0h-1.445V-5.578a1.941,1.941,0,0,0-.414-1.355,1.823,1.823,0,0,0-1.391-.449,1.916,1.916,0,0,0-1.336.48,1.949,1.949,0,0,0-.617,1.293V0h-1.453V-5.539a1.613,1.613,0,0,0-1.8-1.844A1.934,1.934,0,0,0,96.8-6.172V0H95.359V-8.453ZM112.9.156a3.693,3.693,0,0,1-2.8-1.129,4.19,4.19,0,0,1-1.078-3.02v-.266A5.073,5.073,0,0,1,109.5-6.5a3.748,3.748,0,0,1,1.344-1.547,3.378,3.378,0,0,1,1.871-.559,3.166,3.166,0,0,1,2.563,1.086,4.7,4.7,0,0,1,.914,3.109v.6h-5.727a3,3,0,0,0,.73,2.02,2.3,2.3,0,0,0,1.777.77,2.517,2.517,0,0,0,1.3-.312,3.259,3.259,0,0,0,.93-.828l.883.688A3.55,3.55,0,0,1,112.9.156Zm-.18-7.578a1.928,1.928,0,0,0-1.469.637A3.1,3.1,0,0,0,110.516-5h4.234v-.109a2.753,2.753,0,0,0-.594-1.707A1.815,1.815,0,0,0,112.719-7.422Zm4.8,3.125a4.952,4.952,0,0,1,.922-3.129,2.915,2.915,0,0,1,2.414-1.184A2.932,2.932,0,0,1,123.2-7.594V-12h1.445V0H123.32l-.07-.906A2.943,2.943,0,0,1,120.836.156a2.887,2.887,0,0,1-2.395-1.2,5.008,5.008,0,0,1-.926-3.141Zm1.445.164a3.749,3.749,0,0,0,.594,2.25,1.92,1.92,0,0,0,1.641.813A2.109,2.109,0,0,0,123.2-2.3V-6.187a2.125,2.125,0,0,0-1.992-1.2,1.929,1.929,0,0,0-1.656.82A4.128,4.128,0,0,0,118.961-4.133ZM128.461,0h-1.445V-8.453h1.445ZM126.9-10.7a.863.863,0,0,1,.215-.594.807.807,0,0,1,.637-.242.819.819,0,0,1,.641.242.854.854,0,0,1,.219.594.826.826,0,0,1-.219.586.834.834,0,0,1-.641.234.821.821,0,0,1-.637-.234A.834.834,0,0,1,126.9-10.7Zm3.523,6.4a4.952,4.952,0,0,1,.922-3.129,2.915,2.915,0,0,1,2.414-1.184,2.932,2.932,0,0,1,2.352,1.016V-12h1.445V0h-1.328l-.07-.906A2.943,2.943,0,0,1,133.742.156a2.887,2.887,0,0,1-2.395-1.2,5.008,5.008,0,0,1-.926-3.141Zm1.445.164a3.749,3.749,0,0,0,.594,2.25,1.919,1.919,0,0,0,1.641.813A2.108,2.108,0,0,0,136.109-2.3V-6.187a2.125,2.125,0,0,0-1.992-1.2,1.929,1.929,0,0,0-1.656.82A4.128,4.128,0,0,0,131.867-4.133ZM145.016,0a3.036,3.036,0,0,1-.2-.891A3.225,3.225,0,0,1,142.406.156a2.984,2.984,0,0,1-2.051-.707,2.287,2.287,0,0,1-.8-1.793,2.39,2.39,0,0,1,1-2.051,4.733,4.733,0,0,1,2.824-.73h1.406v-.664A1.623,1.623,0,0,0,144.336-7,1.821,1.821,0,0,0,143-7.445a2.107,2.107,0,0,0-1.3.391,1.151,1.151,0,0,0-.523.945h-1.453a2,2,0,0,1,.449-1.223,3.066,3.066,0,0,1,1.219-.934,4.1,4.1,0,0,1,1.691-.344,3.342,3.342,0,0,1,2.289.73,2.635,2.635,0,0,1,.859,2.012v3.891a4.757,4.757,0,0,0,.3,1.852V0Zm-2.4-1.1a2.54,2.54,0,0,0,1.289-.352,2.127,2.127,0,0,0,.883-.914V-4.1h-1.133Q141-4.1,141-2.547a1.316,1.316,0,0,0,.453,1.063A1.742,1.742,0,0,0,142.617-1.1Zm10.8-1.141a1.064,1.064,0,0,0-.441-.91,4.249,4.249,0,0,0-1.539-.559,7.277,7.277,0,0,1-1.742-.562,2.479,2.479,0,0,1-.953-.781,1.869,1.869,0,0,1-.309-1.078,2.193,2.193,0,0,1,.879-1.758,3.432,3.432,0,0,1,2.246-.719,3.532,3.532,0,0,1,2.332.742,2.357,2.357,0,0,1,.895,1.9h-1.453a1.3,1.3,0,0,0-.5-1.023,1.888,1.888,0,0,0-1.27-.43,1.976,1.976,0,0,0-1.234.344,1.082,1.082,0,0,0-.445.9.877.877,0,0,0,.414.789,5.1,5.1,0,0,0,1.5.508,7.8,7.8,0,0,1,1.754.578,2.558,2.558,0,0,1,1,.809,1.988,1.988,0,0,1,.324,1.152,2.163,2.163,0,0,1-.906,1.816,3.8,3.8,0,0,1-2.352.684,4.257,4.257,0,0,1-1.8-.359,2.922,2.922,0,0,1-1.223-1,2.42,2.42,0,0,1-.441-1.395h1.445a1.5,1.5,0,0,0,.582,1.152,2.258,2.258,0,0,0,1.434.426,2.331,2.331,0,0,0,1.316-.332A1.02,1.02,0,0,0,153.422-2.242Z" transform="translate(9859 -7999)" fill="#12263f"/>
    <path id="Trazado_194449" data-name="Trazado 194449" d="M5690.4-10318.569v182.069H6167.49" transform="translate(4168.598 2359.348)" fill="none" stroke="#e8e8e8" stroke-width="1"/>
    <path id="Trazado_194450" data-name="Trazado 194450" d="M5690.4-10297.3H6168.05" transform="translate(4168.598 2359.348)" fill="none" stroke="#e8e8e8" stroke-width="1"/>
    <path id="Trazado_194451" data-name="Trazado 194451" d="M5690.4-10297.3H6168.05" transform="translate(4168.598 2338.079)" fill="none" stroke="#e8e8e8" stroke-width="1"/>
    <path id="Trazado_194452" data-name="Trazado 194452" d="M5690.4-10297.3H6168.05" transform="translate(4168.598 2383.616)" fill="none" stroke="#e8e8e8" stroke-width="1"/>
    <path id="Trazado_194453" data-name="Trazado 194453" d="M5690.4-10297.3H6168.05" transform="translate(4168.598 2404.885)" fill="none" stroke="#e8e8e8" stroke-width="1"/>
    <path id="Trazado_194454" data-name="Trazado 194454" d="M5690.4-10297.3H6168.05" transform="translate(4168.598 2429.153)" fill="none" stroke="#e8e8e8" stroke-width="1"/>
    <path id="Trazado_194455" data-name="Trazado 194455" d="M5690.4-10297.3H6168.05" transform="translate(4168.598 2450.422)" fill="none" stroke="#e8e8e8" stroke-width="1"/>
    <path id="Trazado_194456" data-name="Trazado 194456" d="M5690.4-10297.3H6168.05" transform="translate(4168.598 2474.69)" fill="none" stroke="#e8e8e8" stroke-width="1"/>
    <path id="Trazado_194457" data-name="Trazado 194457" d="M63,219.8s94.348,13.07,133.763-65.623S268.949,55.234,288.218,73s61.714,87.375,61.714,87.375,25.308,67.84,144.235,60.237" transform="translate(9809.887 -7997.474)" fill="none" stroke="#4dd0e1" stroke-miterlimit="10" stroke-width="3"/>
    <path id="Trazado_199502" data-name="Trazado 199502" d="M5.109,8H4.383V3.184l-1.457.535V3.063L5,2.285h.113ZM8.277,4.8H8.82a1.193,1.193,0,0,0,.8-.27.9.9,0,0,0,.293-.707.882.882,0,0,0-1-1,1.036,1.036,0,0,0-.748.268.936.936,0,0,0-.279.709H7.172a1.451,1.451,0,0,1,.494-1.123,1.8,1.8,0,0,1,1.256-.447,1.779,1.779,0,0,1,1.262.426,1.538,1.538,0,0,1,.457,1.184,1.248,1.248,0,0,1-.24.719,1.451,1.451,0,0,1-.654.52,1.4,1.4,0,0,1,.725.492,1.367,1.367,0,0,1,.256.84,1.551,1.551,0,0,1-.5,1.215,1.872,1.872,0,0,1-1.3.449,1.922,1.922,0,0,1-1.3-.434,1.438,1.438,0,0,1-.5-1.145h.727a.93.93,0,0,0,.293.719,1.114,1.114,0,0,0,.785.27,1.093,1.093,0,0,0,.8-.273A1.054,1.054,0,0,0,10,6.43a.956.956,0,0,0-.3-.762,1.328,1.328,0,0,0-.879-.273H8.277Zm7.008.77a3.305,3.305,0,0,1-.434,1.887,1.542,1.542,0,0,1-1.355.617,1.553,1.553,0,0,1-1.348-.6,3.137,3.137,0,0,1-.453-1.8V4.707a3.232,3.232,0,0,1,.434-1.863,1.554,1.554,0,0,1,1.359-.609,1.568,1.568,0,0,1,1.352.588,3.119,3.119,0,0,1,.445,1.814Zm-.723-.988A2.648,2.648,0,0,0,14.3,3.248a.887.887,0,0,0-.816-.42.876.876,0,0,0-.809.418,2.585,2.585,0,0,0-.262,1.285V5.688a2.69,2.69,0,0,0,.268,1.361.886.886,0,0,0,.811.439.874.874,0,0,0,.795-.414,2.593,2.593,0,0,0,.271-1.3Z" transform="translate(9885.098 -7756.652) rotate(-90)" fill="#12263f"/>
    <path id="Trazado_199503" data-name="Trazado 199503" d="M5.109,8H4.383V3.184l-1.457.535V3.063L5,2.285h.113Zm5.168-1.91h.789v.59h-.789V8H9.551V6.68H6.961V6.254L9.508,2.313h.77Zm-2.5,0h1.77V3.3l-.086.156Zm7.5-.516a3.305,3.305,0,0,1-.434,1.887,1.542,1.542,0,0,1-1.355.617,1.553,1.553,0,0,1-1.348-.6,3.137,3.137,0,0,1-.453-1.8V4.707a3.232,3.232,0,0,1,.434-1.863,1.554,1.554,0,0,1,1.359-.609,1.568,1.568,0,0,1,1.352.588,3.119,3.119,0,0,1,.445,1.814Zm-.723-.988A2.648,2.648,0,0,0,14.3,3.248a.887.887,0,0,0-.816-.42.876.876,0,0,0-.809.418,2.585,2.585,0,0,0-.262,1.285V5.688a2.69,2.69,0,0,0,.268,1.361.886.886,0,0,0,.811.439.874.874,0,0,0,.795-.414,2.593,2.593,0,0,0,.271-1.3Z" transform="translate(9933.098 -7756.652) rotate(-90)" fill="#12263f"/>
    <path id="Trazado_199504" data-name="Trazado 199504" d="M5.109,8H4.383V3.184l-1.457.535V3.063L5,2.285h.113ZM7.559,5.148l.289-2.836h2.914V2.98h-2.3L8.289,4.531a1.835,1.835,0,0,1,.949-.246,1.569,1.569,0,0,1,1.234.514,2.013,2.013,0,0,1,.457,1.389,1.943,1.943,0,0,1-.475,1.385,1.73,1.73,0,0,1-1.326.506A1.8,1.8,0,0,1,7.9,7.66,1.668,1.668,0,0,1,7.355,6.5h.684a1.148,1.148,0,0,0,.348.736,1.081,1.081,0,0,0,.742.248.975.975,0,0,0,.791-.344,1.437,1.437,0,0,0,.287-.949A1.319,1.319,0,0,0,9.9,5.279a1.056,1.056,0,0,0-.826-.346,1.191,1.191,0,0,0-.742.207L8.137,5.3Zm7.727.426a3.305,3.305,0,0,1-.434,1.887,1.542,1.542,0,0,1-1.355.617,1.553,1.553,0,0,1-1.348-.6,3.137,3.137,0,0,1-.453-1.8V4.707a3.232,3.232,0,0,1,.434-1.863,1.554,1.554,0,0,1,1.359-.609,1.568,1.568,0,0,1,1.352.588,3.119,3.119,0,0,1,.445,1.814Zm-.723-.988A2.648,2.648,0,0,0,14.3,3.248a.887.887,0,0,0-.816-.42.876.876,0,0,0-.809.418,2.585,2.585,0,0,0-.262,1.285V5.688a2.69,2.69,0,0,0,.268,1.361.886.886,0,0,0,.811.439.874.874,0,0,0,.795-.414,2.593,2.593,0,0,0,.271-1.3Z" transform="translate(9981.098 -7756.652) rotate(-90)" fill="#12263f"/>
    <path id="Trazado_199505" data-name="Trazado 199505" d="M5.109,8H4.383V3.184l-1.457.535V3.063L5,2.285h.113Zm4.953-5.691v.613H9.93a1.9,1.9,0,0,0-1.344.5,2.081,2.081,0,0,0-.578,1.363A1.543,1.543,0,0,1,9.234,4.27a1.475,1.475,0,0,1,1.186.523,2.019,2.019,0,0,1,.443,1.352,2.013,2.013,0,0,1-.479,1.406A1.648,1.648,0,0,1,9.1,8.078a1.623,1.623,0,0,1-1.324-.627A2.485,2.485,0,0,1,7.27,5.836V5.559a3.744,3.744,0,0,1,.67-2.4,2.46,2.46,0,0,1,1.994-.85ZM9.113,4.871A1.215,1.215,0,0,0,8,5.652v.266a1.866,1.866,0,0,0,.316,1.133.948.948,0,0,0,.789.43.919.919,0,0,0,.768-.359,1.491,1.491,0,0,0,.279-.941,1.492,1.492,0,0,0-.283-.947A.908.908,0,0,0,9.113,4.871Zm6.172.7a3.305,3.305,0,0,1-.434,1.887,1.542,1.542,0,0,1-1.355.617,1.553,1.553,0,0,1-1.348-.6,3.137,3.137,0,0,1-.453-1.8V4.707a3.232,3.232,0,0,1,.434-1.863,1.554,1.554,0,0,1,1.359-.609,1.568,1.568,0,0,1,1.352.588,3.119,3.119,0,0,1,.445,1.814Zm-.723-.988A2.648,2.648,0,0,0,14.3,3.248a.887.887,0,0,0-.816-.42.876.876,0,0,0-.809.418,2.585,2.585,0,0,0-.262,1.285V5.688a2.69,2.69,0,0,0,.268,1.361.886.886,0,0,0,.811.439.874.874,0,0,0,.795-.414,2.593,2.593,0,0,0,.271-1.3Z" transform="translate(10029.098 -7756.652) rotate(-90)" fill="#12263f"/>
    <path id="Trazado_199506" data-name="Trazado 199506" d="M5.109,8H4.383V3.184l-1.457.535V3.063L5,2.285h.113ZM10.9,2.719,8.543,8H7.785l2.348-5.094H7.055V2.313H10.9Zm4.387,2.855a3.305,3.305,0,0,1-.434,1.887,1.542,1.542,0,0,1-1.355.617,1.553,1.553,0,0,1-1.348-.6,3.137,3.137,0,0,1-.453-1.8V4.707a3.232,3.232,0,0,1,.434-1.863,1.554,1.554,0,0,1,1.359-.609,1.568,1.568,0,0,1,1.352.588,3.119,3.119,0,0,1,.445,1.814Zm-.723-.988A2.648,2.648,0,0,0,14.3,3.248a.887.887,0,0,0-.816-.42.876.876,0,0,0-.809.418,2.585,2.585,0,0,0-.262,1.285V5.688a2.69,2.69,0,0,0,.268,1.361.886.886,0,0,0,.811.439.874.874,0,0,0,.795-.414,2.593,2.593,0,0,0,.271-1.3Z" transform="translate(10077.098 -7756.652) rotate(-90)" fill="#12263f"/>
    <path id="Trazado_199507" data-name="Trazado 199507" d="M5.109,8H4.383V3.184l-1.457.535V3.063L5,2.285h.113Zm5.566-4.2a1.321,1.321,0,0,1-.225.758,1.528,1.528,0,0,1-.607.52,1.63,1.63,0,0,1,.705.559,1.406,1.406,0,0,1,.26.832,1.486,1.486,0,0,1-.5,1.176A1.913,1.913,0,0,1,9,8.078a1.9,1.9,0,0,1-1.314-.439,1.493,1.493,0,0,1-.494-1.174,1.448,1.448,0,0,1,.252-.832,1.568,1.568,0,0,1,.7-.562,1.491,1.491,0,0,1-.6-.52A1.34,1.34,0,0,1,7.324,3.8a1.47,1.47,0,0,1,.461-1.141A1.729,1.729,0,0,1,9,2.234a1.731,1.731,0,0,1,1.213.422A1.467,1.467,0,0,1,10.676,3.8Zm-.59,2.652a1.048,1.048,0,0,0-.3-.777,1.074,1.074,0,0,0-.791-.3A1.017,1.017,0,0,0,7.914,6.449a1.01,1.01,0,0,0,.287.762,1.1,1.1,0,0,0,.8.277,1.1,1.1,0,0,0,.8-.279A1.007,1.007,0,0,0,10.086,6.449ZM9,2.828a.932.932,0,0,0-.689.264.969.969,0,0,0-.264.717.964.964,0,0,0,.26.7,1.032,1.032,0,0,0,1.387,0,.964.964,0,0,0,.26-.7.964.964,0,0,0-.27-.707A.919.919,0,0,0,9,2.828Zm6.285,2.746a3.305,3.305,0,0,1-.434,1.887,1.542,1.542,0,0,1-1.355.617,1.553,1.553,0,0,1-1.348-.6,3.137,3.137,0,0,1-.453-1.8V4.707a3.232,3.232,0,0,1,.434-1.863,1.554,1.554,0,0,1,1.359-.609,1.568,1.568,0,0,1,1.352.588,3.119,3.119,0,0,1,.445,1.814Zm-.723-.988A2.648,2.648,0,0,0,14.3,3.248a.887.887,0,0,0-.816-.42.876.876,0,0,0-.809.418,2.585,2.585,0,0,0-.262,1.285V5.688a2.69,2.69,0,0,0,.268,1.361.886.886,0,0,0,.811.439.874.874,0,0,0,.795-.414,2.593,2.593,0,0,0,.271-1.3Z" transform="translate(10125.098 -7756.652) rotate(-90)" fill="#12263f"/>
    <path id="Trazado_199508" data-name="Trazado 199508" d="M5.109,8H4.383V3.184l-1.457.535V3.063L5,2.285h.113ZM10,5.5a1.768,1.768,0,0,1-.541.434,1.468,1.468,0,0,1-.689.164,1.515,1.515,0,0,1-.857-.242,1.574,1.574,0,0,1-.564-.682,2.324,2.324,0,0,1-.2-.971,2.368,2.368,0,0,1,.217-1.027,1.593,1.593,0,0,1,.615-.7,1.754,1.754,0,0,1,.93-.242,1.588,1.588,0,0,1,1.33.631,2.752,2.752,0,0,1,.486,1.721V4.8a3.677,3.677,0,0,1-.656,2.424A2.521,2.521,0,0,1,8.086,8H7.945V7.391H8.1a1.99,1.99,0,0,0,1.375-.466A2,2,0,0,0,10,5.5Zm-1.113,0a1.116,1.116,0,0,0,.67-.223A1.313,1.313,0,0,0,10,4.727V4.438a1.989,1.989,0,0,0-.309-1.156A.943.943,0,0,0,8.145,3.2a1.507,1.507,0,0,0-.289.963,1.568,1.568,0,0,0,.279.959A.884.884,0,0,0,8.883,5.5Zm6.4.074a3.305,3.305,0,0,1-.434,1.887,1.542,1.542,0,0,1-1.355.617,1.553,1.553,0,0,1-1.348-.6,3.137,3.137,0,0,1-.453-1.8V4.707a3.232,3.232,0,0,1,.434-1.863,1.554,1.554,0,0,1,1.359-.609,1.568,1.568,0,0,1,1.352.588,3.119,3.119,0,0,1,.445,1.814Zm-.723-.988A2.648,2.648,0,0,0,14.3,3.248a.887.887,0,0,0-.816-.42.876.876,0,0,0-.809.418,2.585,2.585,0,0,0-.262,1.285V5.688a2.69,2.69,0,0,0,.268,1.361.886.886,0,0,0,.811.439.874.874,0,0,0,.795-.414,2.593,2.593,0,0,0,.271-1.3Z" transform="translate(10173.098 -7756.652) rotate(-90)" fill="#12263f"/>
    <path id="Trazado_199509" data-name="Trazado 199509" d="M6.461,8H2.734V7.48L4.7,5.293a4.677,4.677,0,0,0,.6-.807,1.346,1.346,0,0,0,.166-.643,1.02,1.02,0,0,0-.27-.73.942.942,0,0,0-.719-.285,1.116,1.116,0,0,0-.838.307,1.171,1.171,0,0,0-.3.854H2.625a1.677,1.677,0,0,1,.506-1.27,1.875,1.875,0,0,1,1.354-.484,1.8,1.8,0,0,1,1.254.416A1.419,1.419,0,0,1,6.2,3.758a3.253,3.253,0,0,1-1.07,2L3.605,7.41H6.461Zm4.332-2.426a3.305,3.305,0,0,1-.434,1.887A1.542,1.542,0,0,1,9,8.078a1.553,1.553,0,0,1-1.348-.6,3.137,3.137,0,0,1-.453-1.8V4.707a3.232,3.232,0,0,1,.434-1.863A1.554,1.554,0,0,1,9,2.234a1.568,1.568,0,0,1,1.352.588,3.119,3.119,0,0,1,.445,1.814Zm-.723-.988a2.648,2.648,0,0,0-.258-1.338A.887.887,0,0,0,9,2.828a.876.876,0,0,0-.809.418,2.585,2.585,0,0,0-.262,1.285V5.688a2.69,2.69,0,0,0,.268,1.361A.886.886,0,0,0,9,7.488.874.874,0,0,0,9.8,7.074a2.593,2.593,0,0,0,.271-1.3Zm5.215.988a3.305,3.305,0,0,1-.434,1.887,1.542,1.542,0,0,1-1.355.617,1.553,1.553,0,0,1-1.348-.6,3.137,3.137,0,0,1-.453-1.8V4.707a3.232,3.232,0,0,1,.434-1.863,1.554,1.554,0,0,1,1.359-.609,1.568,1.568,0,0,1,1.352.588,3.119,3.119,0,0,1,.445,1.814Zm-.723-.988A2.648,2.648,0,0,0,14.3,3.248a.887.887,0,0,0-.816-.42.876.876,0,0,0-.809.418,2.585,2.585,0,0,0-.262,1.285V5.688a2.69,2.69,0,0,0,.268,1.361.886.886,0,0,0,.811.439.874.874,0,0,0,.795-.414,2.593,2.593,0,0,0,.271-1.3Z" transform="translate(10221.098 -7756.652) rotate(-90)" fill="#12263f"/>
    <path id="Trazado_199510" data-name="Trazado 199510" d="M6.461,8H2.734V7.48L4.7,5.293a4.677,4.677,0,0,0,.6-.807,1.346,1.346,0,0,0,.166-.643,1.02,1.02,0,0,0-.27-.73.942.942,0,0,0-.719-.285,1.116,1.116,0,0,0-.838.307,1.171,1.171,0,0,0-.3.854H2.625a1.677,1.677,0,0,1,.506-1.27,1.875,1.875,0,0,1,1.354-.484,1.8,1.8,0,0,1,1.254.416A1.419,1.419,0,0,1,6.2,3.758a3.253,3.253,0,0,1-1.07,2L3.605,7.41H6.461ZM9.6,8H8.875V3.184l-1.457.535V3.063l2.07-.777H9.6Zm5.684-2.426a3.305,3.305,0,0,1-.434,1.887,1.542,1.542,0,0,1-1.355.617,1.553,1.553,0,0,1-1.348-.6,3.137,3.137,0,0,1-.453-1.8V4.707a3.232,3.232,0,0,1,.434-1.863,1.554,1.554,0,0,1,1.359-.609,1.568,1.568,0,0,1,1.352.588,3.119,3.119,0,0,1,.445,1.814Zm-.723-.988A2.648,2.648,0,0,0,14.3,3.248a.887.887,0,0,0-.816-.42.876.876,0,0,0-.809.418,2.585,2.585,0,0,0-.262,1.285V5.688a2.69,2.69,0,0,0,.268,1.361.886.886,0,0,0,.811.439.874.874,0,0,0,.795-.414,2.593,2.593,0,0,0,.271-1.3Z" transform="translate(10269.098 -7756.652) rotate(-90)" fill="#12263f"/>
  </g>
</svg>
