<svg xmlns="http://www.w3.org/2000/svg" width="555" height="402" viewBox="0 0 555 402">
  <g id="_13" data-name="13" transform="translate(-9819 7784)">
    <path id="Path_199592" data-name="Path 199592" d="M0,0H510V2H0Z" transform="translate(9864 -7784)" fill="#4dd0e1" opacity="0.2"/>
    <path id="Path_199593" data-name="Path 199593" d="M0,0H510V2H0Z" transform="translate(9864 -7384)" fill="#4dd0e1" opacity="0.2"/>
    <path id="Path_199594" data-name="Path 199594" d="M0,0H190V402H0Z" transform="translate(10184 -7784)" fill="#4dd0e1"/>
    <path id="metaverso-nft-ob-01-1" d="M15,0H529a15,15,0,0,1,15,15V369a15,15,0,0,1-15,15H15A15,15,0,0,1,0,369V15A15,15,0,0,1,15,0Z" transform="translate(9819 -7775)" fill="#fff"/>
    <path id="Path_199604" data-name="Path 199604" d="M6.386-3.777H2.729V0H.825V-9.242H6.843V-7.7H2.729v2.387H6.386ZM9.763,0H7.922V-6.868H9.763ZM7.814-8.646a.9.9,0,0,1,.276-.679,1.037,1.037,0,0,1,.752-.267,1.04,1.04,0,0,1,.749.267.9.9,0,0,1,.279.679.9.9,0,0,1-.282.686,1.042,1.042,0,0,1-.746.267A1.042,1.042,0,0,1,8.1-7.96.9.9,0,0,1,7.814-8.646Zm3.193,5.161a4.025,4.025,0,0,1,.752-2.545A2.437,2.437,0,0,1,13.787-7a2.138,2.138,0,0,1,1.758.774l.076-.647h1.663v6.64a2.935,2.935,0,0,1-.409,1.568,2.629,2.629,0,0,1-1.152,1.016,4.05,4.05,0,0,1-1.739.349,3.766,3.766,0,0,1-1.473-.3,2.614,2.614,0,0,1-1.085-.778L12.238.508a2.149,2.149,0,0,0,1.663.768,1.573,1.573,0,0,0,1.136-.39,1.464,1.464,0,0,0,.406-1.108V-.59a2.122,2.122,0,0,1-1.669.717,2.431,2.431,0,0,1-2-.968,4.024,4.024,0,0,1-.765-2.568Zm1.834.137a2.506,2.506,0,0,0,.375,1.465,1.191,1.191,0,0,0,1.028.531,1.274,1.274,0,0,0,1.2-.629V-4.874A1.271,1.271,0,0,0,14.257-5.5a1.2,1.2,0,0,0-1.038.54A2.825,2.825,0,0,0,12.841-3.348ZM22.807-.7a2.3,2.3,0,0,1-1.879.825,2.17,2.17,0,0,1-1.685-.635,2.71,2.71,0,0,1-.594-1.86v-4.5h1.834v4.442q0,1.074.978,1.074A1.325,1.325,0,0,0,22.744-2V-6.868h1.841V0H22.858Zm7.021-4.45a4.984,4.984,0,0,0-.66-.051,1.344,1.344,0,0,0-1.365.7V0H25.968V-6.868H27.7l.051.819A1.7,1.7,0,0,1,29.282-7a1.922,1.922,0,0,1,.571.083ZM34.5,0a2.037,2.037,0,0,1-.184-.616,2.22,2.22,0,0,1-1.733.743A2.439,2.439,0,0,1,30.91-.457a1.878,1.878,0,0,1-.663-1.473,1.941,1.941,0,0,1,.809-1.676A3.994,3.994,0,0,1,33.4-4.2h.844v-.394a1.132,1.132,0,0,0-.244-.762.961.961,0,0,0-.771-.286,1.093,1.093,0,0,0-.727.222.755.755,0,0,0-.263.609H30.4a1.843,1.843,0,0,1,.368-1.1,2.434,2.434,0,0,1,1.041-.8A3.794,3.794,0,0,1,33.319-7a3,3,0,0,1,2.015.638,2.232,2.232,0,0,1,.746,1.793v2.977a3.284,3.284,0,0,0,.273,1.479V0ZM32.982-1.276a1.58,1.58,0,0,0,.749-.181,1.188,1.188,0,0,0,.508-.486V-3.123h-.686q-1.377,0-1.466.952l-.006.108a.734.734,0,0,0,.241.565A.937.937,0,0,0,32.982-1.276ZM45.106,0H43.272V-7.071l-2.19.679V-7.884L44.91-9.255h.2Zm7.458,0H50.73V-7.071l-2.19.679V-7.884l3.828-1.371h.2ZM3.485,8.758,5.1,16.286l4.24-7.528h1.568L9.306,18H8.119l.635-3.656.755-3.72L5.319,18H4.405l-1.65-7.522-.571,3.986L1.568,18H.375L1.98,8.758Zm10.753,9.369a2.476,2.476,0,0,1-2.006-.946,3.255,3.255,0,0,1-.609-2.355l.032-.273a4.57,4.57,0,0,1,.606-1.866,3.526,3.526,0,0,1,1.216-1.273A2.836,2.836,0,0,1,15.025,11a2.184,2.184,0,0,1,1.663.7,2.9,2.9,0,0,1,.66,1.841,5.379,5.379,0,0,1-.025.825l-.07.527H12.765a2.32,2.32,0,0,0,.308,1.587,1.458,1.458,0,0,0,1.26.679,2.443,2.443,0,0,0,1.879-.914l.66.559a3.021,3.021,0,0,1-1.114.974A3.157,3.157,0,0,1,14.238,18.127Zm.73-6.164a1.678,1.678,0,0,0-1.241.482,3.429,3.429,0,0,0-.841,1.492l3.339.006.025-.1a1.879,1.879,0,0,0-.257-1.33A1.209,1.209,0,0,0,14.968,11.963Zm3.371,2.59a5.344,5.344,0,0,1,.578-1.892A3.275,3.275,0,0,1,20.027,11.4,2.54,2.54,0,0,1,21.48,11a2.145,2.145,0,0,1,1.765.838l.66-3.586h1.149L23.366,18H22.318l.121-.736a2.532,2.532,0,0,1-2.006.863,1.9,1.9,0,0,1-1.517-.746,3.25,3.25,0,0,1-.609-1.933A6.173,6.173,0,0,1,18.338,14.553Zm1.1.656a2.38,2.38,0,0,0,.324,1.407,1.168,1.168,0,0,0,1,.514,2.075,2.075,0,0,0,1.771-1l.546-3.17A1.425,1.425,0,0,0,21.7,12a1.741,1.741,0,0,0-1.2.409,2.645,2.645,0,0,0-.787,1.2A4.942,4.942,0,0,0,19.443,15.209ZM26.425,18H25.283l1.193-6.868h1.143Zm.946-9.375a.629.629,0,0,1,.486.175.653.653,0,0,1,.194.492.677.677,0,0,1-.679.692.633.633,0,0,1-.489-.171.621.621,0,0,1-.184-.482.72.72,0,0,1,.19-.5A.671.671,0,0,1,27.371,8.625ZM32.506,18a1.539,1.539,0,0,1-.044-.362l.019-.362a2.816,2.816,0,0,1-2.006.851A2.052,2.052,0,0,1,29,17.552a1.739,1.739,0,0,1-.517-1.406,2.114,2.114,0,0,1,.955-1.7,4.067,4.067,0,0,1,2.345-.613l1.2.006.076-.546a1.255,1.255,0,0,0-.238-.974,1.149,1.149,0,0,0-.9-.371,1.772,1.772,0,0,0-1.044.289,1.229,1.229,0,0,0-.555.8l-1.155.006a1.841,1.841,0,0,1,.47-1.07,2.733,2.733,0,0,1,1.06-.724A3.424,3.424,0,0,1,32.03,11a2.277,2.277,0,0,1,1.669.651,2.018,2.018,0,0,1,.5,1.66l-.559,3.4-.032.489a2.4,2.4,0,0,0,.076.692L33.674,18Zm-1.8-.889a2,2,0,0,0,1.044-.263,2.644,2.644,0,0,0,.847-.765l.248-1.416-.87-.006A3.294,3.294,0,0,0,30.31,15a1.262,1.262,0,0,0-.654.971.983.983,0,0,0,.225.8A1.073,1.073,0,0,0,30.7,17.111Zm8.042-2.558a5.344,5.344,0,0,1,.578-1.892A3.275,3.275,0,0,1,40.435,11.4a2.54,2.54,0,0,1,1.454-.4,2.145,2.145,0,0,1,1.765.838l.66-3.586h1.149L43.773,18H42.726l.121-.736a2.532,2.532,0,0,1-2.006.863,1.9,1.9,0,0,1-1.517-.746,3.25,3.25,0,0,1-.609-1.933A6.173,6.173,0,0,1,38.746,14.553Zm1.1.656a2.38,2.38,0,0,0,.324,1.407,1.168,1.168,0,0,0,1,.514,2.075,2.075,0,0,0,1.771-1l.546-3.17A1.425,1.425,0,0,0,42.11,12a1.741,1.741,0,0,0-1.2.409,2.645,2.645,0,0,0-.787,1.2A4.941,4.941,0,0,0,39.851,15.209Zm8.709,2.918a2.476,2.476,0,0,1-2.006-.946,3.255,3.255,0,0,1-.609-2.355l.032-.273a4.57,4.57,0,0,1,.606-1.866A3.526,3.526,0,0,1,47.8,11.414,2.836,2.836,0,0,1,49.347,11a2.184,2.184,0,0,1,1.663.7,2.9,2.9,0,0,1,.66,1.841,5.379,5.379,0,0,1-.025.825l-.07.527H47.087a2.32,2.32,0,0,0,.308,1.587,1.458,1.458,0,0,0,1.26.679,2.443,2.443,0,0,0,1.879-.914l.66.559a3.021,3.021,0,0,1-1.114.974A3.157,3.157,0,0,1,48.56,18.127Zm.73-6.164a1.678,1.678,0,0,0-1.241.482,3.429,3.429,0,0,0-.841,1.492l3.339.006.025-.1a1.879,1.879,0,0,0-.257-1.33A1.209,1.209,0,0,0,49.29,11.963ZM56.761,18H55.618l1.688-9.75h1.149Zm6.081,0a1.539,1.539,0,0,1-.044-.362l.019-.362a2.816,2.816,0,0,1-2.006.851,2.052,2.052,0,0,1-1.476-.574,1.739,1.739,0,0,1-.517-1.406,2.114,2.114,0,0,1,.955-1.7,4.067,4.067,0,0,1,2.345-.613l1.2.006.076-.546a1.255,1.255,0,0,0-.238-.974,1.149,1.149,0,0,0-.9-.371,1.772,1.772,0,0,0-1.044.289,1.229,1.229,0,0,0-.555.8l-1.155.006a1.841,1.841,0,0,1,.47-1.07,2.733,2.733,0,0,1,1.06-.724A3.424,3.424,0,0,1,62.366,11a2.277,2.277,0,0,1,1.669.651,2.018,2.018,0,0,1,.5,1.66l-.559,3.4-.032.489a2.4,2.4,0,0,0,.076.692L64.01,18Zm-1.8-.889a2,2,0,0,0,1.044-.263,2.644,2.644,0,0,0,.847-.765l.248-1.416-.87-.006A3.294,3.294,0,0,0,60.646,15a1.262,1.262,0,0,0-.654.971.983.983,0,0,0,.225.8A1.073,1.073,0,0,0,61.039,17.111Zm8.779-.971q.1-.711-.781-1l-1.193-.349q-1.511-.521-1.46-1.727a1.9,1.9,0,0,1,.828-1.489A2.95,2.95,0,0,1,69.056,11a2.46,2.46,0,0,1,1.692.606,1.92,1.92,0,0,1,.625,1.546L70.23,13.15a1.072,1.072,0,0,0-.324-.838,1.281,1.281,0,0,0-.9-.336,1.673,1.673,0,0,0-1.028.292,1.069,1.069,0,0,0-.463.749q-.083.6.73.87l.578.159a3.719,3.719,0,0,1,1.676.793,1.515,1.515,0,0,1,.457,1.212,1.926,1.926,0,0,1-.419,1.117,2.4,2.4,0,0,1-1.016.727,3.4,3.4,0,0,1-1.352.232,2.679,2.679,0,0,1-1.8-.638,1.972,1.972,0,0,1-.686-1.609l1.149.006a1.217,1.217,0,0,0,.368.927,1.407,1.407,0,0,0,1.009.349A1.979,1.979,0,0,0,69.3,16.9,1.014,1.014,0,0,0,69.818,16.14Zm7.763-5.015-.146.768A2.686,2.686,0,0,1,79.523,11a2.119,2.119,0,0,1,1.108.3,1.463,1.463,0,0,1,.625.806A2.836,2.836,0,0,1,83.535,11a1.816,1.816,0,0,1,1.517.692,2.472,2.472,0,0,1,.362,1.79L84.659,18H83.516l.749-4.526a2.391,2.391,0,0,0,0-.6q-.121-.863-1.13-.882a1.735,1.735,0,0,0-1.139.39,1.806,1.806,0,0,0-.657,1.057L80.558,18H79.4l.762-4.52a1.451,1.451,0,0,0-.213-1.085A1.119,1.119,0,0,0,79.035,12a1.881,1.881,0,0,0-1.708.978L76.458,18H75.309L76.5,11.132Zm11.819,7a2.476,2.476,0,0,1-2.006-.946,3.255,3.255,0,0,1-.609-2.355l.032-.273a4.57,4.57,0,0,1,.606-1.866,3.526,3.526,0,0,1,1.216-1.273A2.836,2.836,0,0,1,90.188,11a2.184,2.184,0,0,1,1.663.7,2.9,2.9,0,0,1,.66,1.841,5.379,5.379,0,0,1-.025.825l-.07.527H87.928a2.32,2.32,0,0,0,.308,1.587,1.458,1.458,0,0,0,1.26.679,2.443,2.443,0,0,0,1.879-.914l.66.559a3.021,3.021,0,0,1-1.114.974A3.157,3.157,0,0,1,89.4,18.127Zm.73-6.164a1.678,1.678,0,0,0-1.241.482,3.429,3.429,0,0,0-.841,1.492l3.339.006.025-.1a1.879,1.879,0,0,0-.257-1.33A1.209,1.209,0,0,0,90.13,11.963Zm3.371,2.59a5.344,5.344,0,0,1,.578-1.892A3.275,3.275,0,0,1,95.189,11.4a2.54,2.54,0,0,1,1.454-.4,2.145,2.145,0,0,1,1.765.838l.66-3.586h1.149L98.528,18H97.481l.121-.736a2.532,2.532,0,0,1-2.006.863,1.9,1.9,0,0,1-1.517-.746,3.25,3.25,0,0,1-.609-1.933A6.173,6.173,0,0,1,93.5,14.553Zm1.1.656a2.38,2.38,0,0,0,.324,1.407,1.168,1.168,0,0,0,1,.514,2.075,2.075,0,0,0,1.771-1l.546-3.17A1.425,1.425,0,0,0,96.865,12a1.741,1.741,0,0,0-1.2.409,2.645,2.645,0,0,0-.787,1.2A4.942,4.942,0,0,0,94.605,15.209ZM101.588,18h-1.143l1.193-6.868h1.143Zm.946-9.375a.629.629,0,0,1,.486.175.653.653,0,0,1,.194.492.677.677,0,0,1-.679.692.633.633,0,0,1-.489-.171.621.621,0,0,1-.184-.482.72.72,0,0,1,.19-.5A.671.671,0,0,1,102.534,8.625Zm1.263,5.929a5.344,5.344,0,0,1,.578-1.892,3.275,3.275,0,0,1,1.111-1.263,2.54,2.54,0,0,1,1.454-.4,2.145,2.145,0,0,1,1.765.838l.66-3.586h1.149L108.824,18h-1.047l.121-.736a2.532,2.532,0,0,1-2.006.863,1.9,1.9,0,0,1-1.517-.746,3.25,3.25,0,0,1-.609-1.933A6.173,6.173,0,0,1,103.8,14.553Zm1.1.656a2.38,2.38,0,0,0,.324,1.407,1.168,1.168,0,0,0,1,.514,2.075,2.075,0,0,0,1.771-1l.546-3.17A1.425,1.425,0,0,0,107.161,12a1.741,1.741,0,0,0-1.2.409,2.645,2.645,0,0,0-.787,1.2A4.942,4.942,0,0,0,104.9,15.209ZM114.842,18a1.538,1.538,0,0,1-.044-.362l.019-.362a2.816,2.816,0,0,1-2.006.851,2.052,2.052,0,0,1-1.476-.574,1.739,1.739,0,0,1-.517-1.406,2.114,2.114,0,0,1,.955-1.7,4.067,4.067,0,0,1,2.345-.613l1.2.006.076-.546a1.255,1.255,0,0,0-.238-.974,1.149,1.149,0,0,0-.9-.371,1.772,1.772,0,0,0-1.044.289,1.229,1.229,0,0,0-.555.8l-1.155.006a1.841,1.841,0,0,1,.47-1.07,2.733,2.733,0,0,1,1.06-.724A3.424,3.424,0,0,1,114.366,11a2.277,2.277,0,0,1,1.669.651,2.018,2.018,0,0,1,.5,1.66l-.559,3.4-.032.489a2.4,2.4,0,0,0,.076.692L116.01,18Zm-1.8-.889a2,2,0,0,0,1.044-.263,2.644,2.644,0,0,0,.847-.765l.248-1.416-.87-.006a3.294,3.294,0,0,0-1.663.343,1.262,1.262,0,0,0-.654.971.983.983,0,0,0,.225.8A1.073,1.073,0,0,0,113.039,17.111Zm8.779-.971q.1-.711-.781-1l-1.193-.349q-1.511-.521-1.46-1.727a1.9,1.9,0,0,1,.828-1.489A2.95,2.95,0,0,1,121.056,11a2.46,2.46,0,0,1,1.692.606,1.92,1.92,0,0,1,.625,1.546l-1.143-.006a1.072,1.072,0,0,0-.324-.838,1.281,1.281,0,0,0-.9-.336,1.673,1.673,0,0,0-1.028.292,1.069,1.069,0,0,0-.463.749q-.083.6.73.87l.578.159a3.719,3.719,0,0,1,1.676.793,1.515,1.515,0,0,1,.457,1.212,1.926,1.926,0,0,1-.419,1.117,2.4,2.4,0,0,1-1.016.727,3.4,3.4,0,0,1-1.352.232,2.679,2.679,0,0,1-1.8-.638,1.972,1.972,0,0,1-.686-1.609l1.149.006a1.217,1.217,0,0,0,.368.927,1.407,1.407,0,0,0,1.009.349A1.979,1.979,0,0,0,121.3,16.9,1.014,1.014,0,0,0,121.818,16.14Z" transform="translate(9859 -7722)" fill="#12263f"/>
    <path id="Path_199605" data-name="Path 199605" d="M0,0H4V40H0Z" transform="translate(9839 -7738)" fill="#4dd0e1"/>
    <path id="Path_194449" data-name="Path 194449" d="M5690.4-10318.569v182.069H6167.49" transform="translate(4168.598 2656.348)" fill="none" stroke="#e8e8e8" stroke-width="1"/>
    <path id="Path_194450" data-name="Path 194450" d="M5690.4-10297.3H6168.05" transform="translate(4168.598 2656.348)" fill="none" stroke="#e8e8e8" stroke-width="1"/>
    <path id="Path_194451" data-name="Path 194451" d="M5690.4-10297.3H6168.05" transform="translate(4168.598 2635.079)" fill="none" stroke="#e8e8e8" stroke-width="1"/>
    <path id="Path_194452" data-name="Path 194452" d="M5690.4-10297.3H6168.05" transform="translate(4168.598 2680.616)" fill="none" stroke="#e8e8e8" stroke-width="1"/>
    <path id="Path_194453" data-name="Path 194453" d="M5690.4-10297.3H6168.05" transform="translate(4168.598 2701.885)" fill="none" stroke="#e8e8e8" stroke-width="1"/>
    <path id="Path_194454" data-name="Path 194454" d="M5690.4-10297.3H6168.05" transform="translate(4168.598 2726.153)" fill="none" stroke="#e8e8e8" stroke-width="1"/>
    <path id="Path_194455" data-name="Path 194455" d="M5690.4-10297.3H6168.05" transform="translate(4168.598 2747.422)" fill="none" stroke="#e8e8e8" stroke-width="1"/>
    <path id="Path_194456" data-name="Path 194456" d="M5690.4-10297.3H6168.05" transform="translate(4168.598 2771.69)" fill="none" stroke="#e8e8e8" stroke-width="1"/>
    <path id="Path_194457" data-name="Path 194457" d="M63,219.8s94.348,13.07,133.763-65.623S268.949,55.234,288.218,73s61.714,87.375,61.714,87.375,25.308,67.84,144.235,60.237" transform="translate(9809.887 -7700.474)" fill="none" stroke="#4dd0e1" stroke-miterlimit="10" stroke-width="3"/>
    <path id="Path_199595" data-name="Path 199595" d="M5.109,8H4.383V3.184l-1.457.535V3.063L5,2.285h.113ZM8.277,4.8H8.82a1.193,1.193,0,0,0,.8-.27.9.9,0,0,0,.293-.707.882.882,0,0,0-1-1,1.036,1.036,0,0,0-.748.268.936.936,0,0,0-.279.709H7.172a1.451,1.451,0,0,1,.494-1.123,1.8,1.8,0,0,1,1.256-.447,1.779,1.779,0,0,1,1.262.426,1.538,1.538,0,0,1,.457,1.184,1.248,1.248,0,0,1-.24.719,1.451,1.451,0,0,1-.654.52,1.4,1.4,0,0,1,.725.492,1.367,1.367,0,0,1,.256.84,1.551,1.551,0,0,1-.5,1.215,1.872,1.872,0,0,1-1.3.449,1.922,1.922,0,0,1-1.3-.434,1.438,1.438,0,0,1-.5-1.145h.727a.93.93,0,0,0,.293.719,1.114,1.114,0,0,0,.785.27,1.093,1.093,0,0,0,.8-.273A1.054,1.054,0,0,0,10,6.43a.956.956,0,0,0-.3-.762,1.328,1.328,0,0,0-.879-.273H8.277Zm7.008.77a3.305,3.305,0,0,1-.434,1.887,1.542,1.542,0,0,1-1.355.617,1.553,1.553,0,0,1-1.348-.6,3.137,3.137,0,0,1-.453-1.8V4.707a3.232,3.232,0,0,1,.434-1.863,1.554,1.554,0,0,1,1.359-.609,1.568,1.568,0,0,1,1.352.588,3.119,3.119,0,0,1,.445,1.814Zm-.723-.988A2.648,2.648,0,0,0,14.3,3.248a.887.887,0,0,0-.816-.42.876.876,0,0,0-.809.418,2.585,2.585,0,0,0-.262,1.285V5.688a2.69,2.69,0,0,0,.268,1.361.886.886,0,0,0,.811.439.874.874,0,0,0,.795-.414,2.593,2.593,0,0,0,.271-1.3Z" transform="translate(9885.098 -7459.652) rotate(-90)" fill="#12263f"/>
    <path id="Path_199596" data-name="Path 199596" d="M5.109,8H4.383V3.184l-1.457.535V3.063L5,2.285h.113Zm5.168-1.91h.789v.59h-.789V8H9.551V6.68H6.961V6.254L9.508,2.313h.77Zm-2.5,0h1.77V3.3l-.086.156Zm7.5-.516a3.305,3.305,0,0,1-.434,1.887,1.542,1.542,0,0,1-1.355.617,1.553,1.553,0,0,1-1.348-.6,3.137,3.137,0,0,1-.453-1.8V4.707a3.232,3.232,0,0,1,.434-1.863,1.554,1.554,0,0,1,1.359-.609,1.568,1.568,0,0,1,1.352.588,3.119,3.119,0,0,1,.445,1.814Zm-.723-.988A2.648,2.648,0,0,0,14.3,3.248a.887.887,0,0,0-.816-.42.876.876,0,0,0-.809.418,2.585,2.585,0,0,0-.262,1.285V5.688a2.69,2.69,0,0,0,.268,1.361.886.886,0,0,0,.811.439.874.874,0,0,0,.795-.414,2.593,2.593,0,0,0,.271-1.3Z" transform="translate(9933.098 -7459.652) rotate(-90)" fill="#12263f"/>
    <path id="Path_199597" data-name="Path 199597" d="M5.109,8H4.383V3.184l-1.457.535V3.063L5,2.285h.113ZM7.559,5.148l.289-2.836h2.914V2.98h-2.3L8.289,4.531a1.835,1.835,0,0,1,.949-.246,1.569,1.569,0,0,1,1.234.514,2.013,2.013,0,0,1,.457,1.389,1.943,1.943,0,0,1-.475,1.385,1.73,1.73,0,0,1-1.326.506A1.8,1.8,0,0,1,7.9,7.66,1.668,1.668,0,0,1,7.355,6.5h.684a1.148,1.148,0,0,0,.348.736,1.081,1.081,0,0,0,.742.248.975.975,0,0,0,.791-.344,1.437,1.437,0,0,0,.287-.949A1.319,1.319,0,0,0,9.9,5.279a1.056,1.056,0,0,0-.826-.346,1.191,1.191,0,0,0-.742.207L8.137,5.3Zm7.727.426a3.305,3.305,0,0,1-.434,1.887,1.542,1.542,0,0,1-1.355.617,1.553,1.553,0,0,1-1.348-.6,3.137,3.137,0,0,1-.453-1.8V4.707a3.232,3.232,0,0,1,.434-1.863,1.554,1.554,0,0,1,1.359-.609,1.568,1.568,0,0,1,1.352.588,3.119,3.119,0,0,1,.445,1.814Zm-.723-.988A2.648,2.648,0,0,0,14.3,3.248a.887.887,0,0,0-.816-.42.876.876,0,0,0-.809.418,2.585,2.585,0,0,0-.262,1.285V5.688a2.69,2.69,0,0,0,.268,1.361.886.886,0,0,0,.811.439.874.874,0,0,0,.795-.414,2.593,2.593,0,0,0,.271-1.3Z" transform="translate(9981.098 -7459.652) rotate(-90)" fill="#12263f"/>
    <path id="Path_199598" data-name="Path 199598" d="M5.109,8H4.383V3.184l-1.457.535V3.063L5,2.285h.113Zm4.953-5.691v.613H9.93a1.9,1.9,0,0,0-1.344.5,2.081,2.081,0,0,0-.578,1.363A1.543,1.543,0,0,1,9.234,4.27a1.475,1.475,0,0,1,1.186.523,2.019,2.019,0,0,1,.443,1.352,2.013,2.013,0,0,1-.479,1.406A1.648,1.648,0,0,1,9.1,8.078a1.623,1.623,0,0,1-1.324-.627A2.485,2.485,0,0,1,7.27,5.836V5.559a3.744,3.744,0,0,1,.67-2.4,2.46,2.46,0,0,1,1.994-.85ZM9.113,4.871A1.215,1.215,0,0,0,8,5.652v.266a1.866,1.866,0,0,0,.316,1.133.948.948,0,0,0,.789.43.919.919,0,0,0,.768-.359,1.491,1.491,0,0,0,.279-.941,1.492,1.492,0,0,0-.283-.947A.908.908,0,0,0,9.113,4.871Zm6.172.7a3.305,3.305,0,0,1-.434,1.887,1.542,1.542,0,0,1-1.355.617,1.553,1.553,0,0,1-1.348-.6,3.137,3.137,0,0,1-.453-1.8V4.707a3.232,3.232,0,0,1,.434-1.863,1.554,1.554,0,0,1,1.359-.609,1.568,1.568,0,0,1,1.352.588,3.119,3.119,0,0,1,.445,1.814Zm-.723-.988A2.648,2.648,0,0,0,14.3,3.248a.887.887,0,0,0-.816-.42.876.876,0,0,0-.809.418,2.585,2.585,0,0,0-.262,1.285V5.688a2.69,2.69,0,0,0,.268,1.361.886.886,0,0,0,.811.439.874.874,0,0,0,.795-.414,2.593,2.593,0,0,0,.271-1.3Z" transform="translate(10029.098 -7459.652) rotate(-90)" fill="#12263f"/>
    <path id="Path_199599" data-name="Path 199599" d="M5.109,8H4.383V3.184l-1.457.535V3.063L5,2.285h.113ZM10.9,2.719,8.543,8H7.785l2.348-5.094H7.055V2.313H10.9Zm4.387,2.855a3.305,3.305,0,0,1-.434,1.887,1.542,1.542,0,0,1-1.355.617,1.553,1.553,0,0,1-1.348-.6,3.137,3.137,0,0,1-.453-1.8V4.707a3.232,3.232,0,0,1,.434-1.863,1.554,1.554,0,0,1,1.359-.609,1.568,1.568,0,0,1,1.352.588,3.119,3.119,0,0,1,.445,1.814Zm-.723-.988A2.648,2.648,0,0,0,14.3,3.248a.887.887,0,0,0-.816-.42.876.876,0,0,0-.809.418,2.585,2.585,0,0,0-.262,1.285V5.688a2.69,2.69,0,0,0,.268,1.361.886.886,0,0,0,.811.439.874.874,0,0,0,.795-.414,2.593,2.593,0,0,0,.271-1.3Z" transform="translate(10077.098 -7459.652) rotate(-90)" fill="#12263f"/>
    <path id="Path_199600" data-name="Path 199600" d="M5.109,8H4.383V3.184l-1.457.535V3.063L5,2.285h.113Zm5.566-4.2a1.321,1.321,0,0,1-.225.758,1.528,1.528,0,0,1-.607.52,1.63,1.63,0,0,1,.705.559,1.406,1.406,0,0,1,.26.832,1.486,1.486,0,0,1-.5,1.176A1.913,1.913,0,0,1,9,8.078a1.9,1.9,0,0,1-1.314-.439,1.493,1.493,0,0,1-.494-1.174,1.448,1.448,0,0,1,.252-.832,1.568,1.568,0,0,1,.7-.562,1.491,1.491,0,0,1-.6-.52A1.34,1.34,0,0,1,7.324,3.8a1.47,1.47,0,0,1,.461-1.141A1.729,1.729,0,0,1,9,2.234a1.731,1.731,0,0,1,1.213.422A1.467,1.467,0,0,1,10.676,3.8Zm-.59,2.652a1.048,1.048,0,0,0-.3-.777,1.074,1.074,0,0,0-.791-.3A1.017,1.017,0,0,0,7.914,6.449a1.01,1.01,0,0,0,.287.762,1.1,1.1,0,0,0,.8.277,1.1,1.1,0,0,0,.8-.279A1.007,1.007,0,0,0,10.086,6.449ZM9,2.828a.932.932,0,0,0-.689.264.969.969,0,0,0-.264.717.964.964,0,0,0,.26.7,1.032,1.032,0,0,0,1.387,0,.964.964,0,0,0,.26-.7.964.964,0,0,0-.27-.707A.919.919,0,0,0,9,2.828Zm6.285,2.746a3.305,3.305,0,0,1-.434,1.887,1.542,1.542,0,0,1-1.355.617,1.553,1.553,0,0,1-1.348-.6,3.137,3.137,0,0,1-.453-1.8V4.707a3.232,3.232,0,0,1,.434-1.863,1.554,1.554,0,0,1,1.359-.609,1.568,1.568,0,0,1,1.352.588,3.119,3.119,0,0,1,.445,1.814Zm-.723-.988A2.648,2.648,0,0,0,14.3,3.248a.887.887,0,0,0-.816-.42.876.876,0,0,0-.809.418,2.585,2.585,0,0,0-.262,1.285V5.688a2.69,2.69,0,0,0,.268,1.361.886.886,0,0,0,.811.439.874.874,0,0,0,.795-.414,2.593,2.593,0,0,0,.271-1.3Z" transform="translate(10125.098 -7459.652) rotate(-90)" fill="#12263f"/>
    <path id="Path_199601" data-name="Path 199601" d="M5.109,8H4.383V3.184l-1.457.535V3.063L5,2.285h.113ZM10,5.5a1.768,1.768,0,0,1-.541.434,1.468,1.468,0,0,1-.689.164,1.515,1.515,0,0,1-.857-.242,1.574,1.574,0,0,1-.564-.682,2.324,2.324,0,0,1-.2-.971,2.368,2.368,0,0,1,.217-1.027,1.593,1.593,0,0,1,.615-.7,1.754,1.754,0,0,1,.93-.242,1.588,1.588,0,0,1,1.33.631,2.752,2.752,0,0,1,.486,1.721V4.8a3.677,3.677,0,0,1-.656,2.424A2.521,2.521,0,0,1,8.086,8H7.945V7.391H8.1a1.99,1.99,0,0,0,1.375-.466A2,2,0,0,0,10,5.5Zm-1.113,0a1.116,1.116,0,0,0,.67-.223A1.313,1.313,0,0,0,10,4.727V4.438a1.989,1.989,0,0,0-.309-1.156A.943.943,0,0,0,8.145,3.2a1.507,1.507,0,0,0-.289.963,1.568,1.568,0,0,0,.279.959A.884.884,0,0,0,8.883,5.5Zm6.4.074a3.305,3.305,0,0,1-.434,1.887,1.542,1.542,0,0,1-1.355.617,1.553,1.553,0,0,1-1.348-.6,3.137,3.137,0,0,1-.453-1.8V4.707a3.232,3.232,0,0,1,.434-1.863,1.554,1.554,0,0,1,1.359-.609,1.568,1.568,0,0,1,1.352.588,3.119,3.119,0,0,1,.445,1.814Zm-.723-.988A2.648,2.648,0,0,0,14.3,3.248a.887.887,0,0,0-.816-.42.876.876,0,0,0-.809.418,2.585,2.585,0,0,0-.262,1.285V5.688a2.69,2.69,0,0,0,.268,1.361.886.886,0,0,0,.811.439.874.874,0,0,0,.795-.414,2.593,2.593,0,0,0,.271-1.3Z" transform="translate(10173.098 -7459.652) rotate(-90)" fill="#12263f"/>
    <path id="Path_199602" data-name="Path 199602" d="M6.461,8H2.734V7.48L4.7,5.293a4.677,4.677,0,0,0,.6-.807,1.346,1.346,0,0,0,.166-.643,1.02,1.02,0,0,0-.27-.73.942.942,0,0,0-.719-.285,1.116,1.116,0,0,0-.838.307,1.171,1.171,0,0,0-.3.854H2.625a1.677,1.677,0,0,1,.506-1.27,1.875,1.875,0,0,1,1.354-.484,1.8,1.8,0,0,1,1.254.416A1.419,1.419,0,0,1,6.2,3.758a3.253,3.253,0,0,1-1.07,2L3.605,7.41H6.461Zm4.332-2.426a3.305,3.305,0,0,1-.434,1.887A1.542,1.542,0,0,1,9,8.078a1.553,1.553,0,0,1-1.348-.6,3.137,3.137,0,0,1-.453-1.8V4.707a3.232,3.232,0,0,1,.434-1.863A1.554,1.554,0,0,1,9,2.234a1.568,1.568,0,0,1,1.352.588,3.119,3.119,0,0,1,.445,1.814Zm-.723-.988a2.648,2.648,0,0,0-.258-1.338A.887.887,0,0,0,9,2.828a.876.876,0,0,0-.809.418,2.585,2.585,0,0,0-.262,1.285V5.688a2.69,2.69,0,0,0,.268,1.361A.886.886,0,0,0,9,7.488.874.874,0,0,0,9.8,7.074a2.593,2.593,0,0,0,.271-1.3Zm5.215.988a3.305,3.305,0,0,1-.434,1.887,1.542,1.542,0,0,1-1.355.617,1.553,1.553,0,0,1-1.348-.6,3.137,3.137,0,0,1-.453-1.8V4.707a3.232,3.232,0,0,1,.434-1.863,1.554,1.554,0,0,1,1.359-.609,1.568,1.568,0,0,1,1.352.588,3.119,3.119,0,0,1,.445,1.814Zm-.723-.988A2.648,2.648,0,0,0,14.3,3.248a.887.887,0,0,0-.816-.42.876.876,0,0,0-.809.418,2.585,2.585,0,0,0-.262,1.285V5.688a2.69,2.69,0,0,0,.268,1.361.886.886,0,0,0,.811.439.874.874,0,0,0,.795-.414,2.593,2.593,0,0,0,.271-1.3Z" transform="translate(10221.098 -7459.652) rotate(-90)" fill="#12263f"/>
    <path id="Path_199603" data-name="Path 199603" d="M6.461,8H2.734V7.48L4.7,5.293a4.677,4.677,0,0,0,.6-.807,1.346,1.346,0,0,0,.166-.643,1.02,1.02,0,0,0-.27-.73.942.942,0,0,0-.719-.285,1.116,1.116,0,0,0-.838.307,1.171,1.171,0,0,0-.3.854H2.625a1.677,1.677,0,0,1,.506-1.27,1.875,1.875,0,0,1,1.354-.484,1.8,1.8,0,0,1,1.254.416A1.419,1.419,0,0,1,6.2,3.758a3.253,3.253,0,0,1-1.07,2L3.605,7.41H6.461ZM9.6,8H8.875V3.184l-1.457.535V3.063l2.07-.777H9.6Zm5.684-2.426a3.305,3.305,0,0,1-.434,1.887,1.542,1.542,0,0,1-1.355.617,1.553,1.553,0,0,1-1.348-.6,3.137,3.137,0,0,1-.453-1.8V4.707a3.232,3.232,0,0,1,.434-1.863,1.554,1.554,0,0,1,1.359-.609,1.568,1.568,0,0,1,1.352.588,3.119,3.119,0,0,1,.445,1.814Zm-.723-.988A2.648,2.648,0,0,0,14.3,3.248a.887.887,0,0,0-.816-.42.876.876,0,0,0-.809.418,2.585,2.585,0,0,0-.262,1.285V5.688a2.69,2.69,0,0,0,.268,1.361.886.886,0,0,0,.811.439.874.874,0,0,0,.795-.414,2.593,2.593,0,0,0,.271-1.3Z" transform="translate(10269.098 -7459.652) rotate(-90)" fill="#12263f"/>
  </g>
</svg>
