<svg xmlns="http://www.w3.org/2000/svg" width="150" height="150" viewBox="0 0 150 150">
  <g id="_24" data-name="24" transform="translate(-701 -7262.895)">
    <g id="Group_139932" data-name="Group 139932" transform="translate(-5440.5 17648.908)">
      <circle id="Ellipse_4809" data-name="Ellipse 4809" cx="75" cy="75" r="75" transform="translate(6141.5 -10386.014)" fill="#0f2771"/>
    </g>
    <g id="Group_139962" data-name="Group 139962" transform="translate(545.335 7107.896)">
      <g id="Group_139937" data-name="Group 139937" transform="translate(190.832 189.999)">
        <g id="Group_139936" data-name="Group 139936">
          <path id="Path_196680" data-name="Path 196680" d="M250.833,190H197.5a6.675,6.675,0,0,0-6.667,6.666v42.667a6.668,6.668,0,0,0,5,6.456l.666-2.582a4,4,0,0,1-3-3.874V196.665a4,4,0,0,1,4-4h53.333a4,4,0,0,1,4,4V198H257.5v-1.334A6.674,6.674,0,0,0,250.833,190Z" transform="translate(-190.832 -189.999)" fill="#fff"/>
        </g>
      </g>
      <g id="Group_139939" data-name="Group 139939" transform="translate(196.166 195.332)">
        <g id="Group_139938" data-name="Group 139938">
          <rect id="Rectangle_43844" data-name="Rectangle 43844" width="2.667" height="2.667" fill="#fff"/>
        </g>
      </g>
      <g id="Group_139941" data-name="Group 139941" transform="translate(201.499 195.332)">
        <g id="Group_139940" data-name="Group 139940">
          <rect id="Rectangle_43845" data-name="Rectangle 43845" width="2.667" height="2.667" fill="#fff"/>
        </g>
      </g>
      <g id="Group_139943" data-name="Group 139943" transform="translate(206.832 195.332)">
        <g id="Group_139942" data-name="Group 139942">
          <rect id="Rectangle_43846" data-name="Rectangle 43846" width="2.667" height="2.667" fill="#fff"/>
        </g>
      </g>
      <g id="Group_139945" data-name="Group 139945" transform="translate(204.166 211.333)">
        <g id="Group_139944" data-name="Group 139944">
          <path id="Path_196681" data-name="Path 196681" d="M272.442,269.056,259.795,256.41a18.391,18.391,0,0,0,1.584-3.744h2.12V250h-1.546a17.963,17.963,0,0,0-1.12-9.555V227.332h-2.666v8.491a18.73,18.73,0,0,0-2.667-2.768V222h-2.666v9.192a18.511,18.511,0,0,0-2.666-1.274V216.666H247.5v12.442a18.485,18.485,0,0,0-2.666-.374v-9.4h-2.666v9.4a18.512,18.512,0,0,0-2.667.374v-4.442h-2.666v5.252a18.472,18.472,0,0,0-2.666,1.274v-7.859H231.5v9.723a18.766,18.766,0,0,0-2.666,2.768V226h-2.666v14.445a17.963,17.963,0,0,0-1.12,9.555H207.5v2.666h18.12a18.627,18.627,0,0,0,28.592,9.93l12.346,12.346a1.333,1.333,0,0,0,1.886,0l4-4A1.335,1.335,0,0,0,272.442,269.056ZM243.5,263.332a16,16,0,1,1,16-16A16.017,16.017,0,0,1,243.5,263.332Zm24,8.782L256.283,260.9a18.881,18.881,0,0,0,2.007-2.222L269.614,270Z" transform="translate(-207.499 -216.666)" fill="#fff"/>
        </g>
      </g>
      <g id="Group_139947" data-name="Group 139947" transform="translate(226.833 228.666)">
        <g id="Group_139946" data-name="Group 139946">
          <path id="Path_196682" data-name="Path 196682" d="M249.166,238.333A13.333,13.333,0,1,0,262.5,251.666,13.333,13.333,0,0,0,249.166,238.333Zm0,24A10.668,10.668,0,0,1,239.942,257H258.39A10.666,10.666,0,0,1,249.166,262.333Zm-10.316-8a10.569,10.569,0,0,1,3.65-10.98v8.313h2.666v-9.881a10.61,10.61,0,0,1,2.667-.694v10.574H250.5V241.091a10.6,10.6,0,0,1,2.666.694v9.881h2.667v-8.313a10.569,10.569,0,0,1,3.649,10.98Z" transform="translate(-235.833 -238.333)" fill="#fff"/>
        </g>
      </g>
      <g id="Group_139949" data-name="Group 139949" transform="translate(198.832 200.666)">
        <g id="Group_139948" data-name="Group 139948">
          <path id="Path_196683" data-name="Path 196683" d="M260.833,203.333H207.5A6.675,6.675,0,0,0,200.832,210v42.666a6.676,6.676,0,0,0,6.667,6.667h17.334v-2.667H207.5a4,4,0,0,1-4-4V210a4,4,0,0,1,4-4h53.333a4,4,0,0,1,4,4v42.666a4,4,0,0,1-1,2.646l2,1.764a6.66,6.66,0,0,0,1.666-4.41V210A6.674,6.674,0,0,0,260.833,203.333Z" transform="translate(-200.832 -203.333)" fill="#fff"/>
        </g>
      </g>
      <g id="Group_139951" data-name="Group 139951" transform="translate(204.166 205.999)">
        <g id="Group_139950" data-name="Group 139950">
          <rect id="Rectangle_43847" data-name="Rectangle 43847" width="2.667" height="2.667" fill="#fff"/>
        </g>
      </g>
      <g id="Group_139953" data-name="Group 139953" transform="translate(209.499 205.999)">
        <g id="Group_139952" data-name="Group 139952">
          <rect id="Rectangle_43848" data-name="Rectangle 43848" width="2.667" height="2.667" fill="#fff"/>
        </g>
      </g>
      <g id="Group_139955" data-name="Group 139955" transform="translate(214.832 205.999)">
        <g id="Group_139954" data-name="Group 139954">
          <rect id="Rectangle_43849" data-name="Rectangle 43849" width="2.667" height="2.667" fill="#fff"/>
        </g>
      </g>
      <g id="Group_139957" data-name="Group 139957" transform="translate(206.832 233.999)">
        <g id="Group_139956" data-name="Group 139956">
          <rect id="Rectangle_43850" data-name="Rectangle 43850" width="2.667" height="8" fill="#fff"/>
        </g>
      </g>
      <g id="Group_139959" data-name="Group 139959" transform="translate(212.166 225.999)">
        <g id="Group_139958" data-name="Group 139958">
          <rect id="Rectangle_43851" data-name="Rectangle 43851" width="2.667" height="16" fill="#fff"/>
        </g>
      </g>
      <g id="Group_139961" data-name="Group 139961" transform="translate(217.499 229.999)">
        <g id="Group_139960" data-name="Group 139960">
          <rect id="Rectangle_43852" data-name="Rectangle 43852" width="2.667" height="12" fill="#fff"/>
        </g>
      </g>
    </g>
  </g>
</svg>
