<svg xmlns="http://www.w3.org/2000/svg" width="150" height="150" viewBox="0 0 150 150">
  <g id="_25" data-name="25" transform="translate(-944 -7262.895)">
    <g id="Group_139933" data-name="Group 139933" transform="translate(-5197.5 17648.908)">
      <circle id="Ellipse_4809" data-name="Ellipse 4809" cx="75" cy="75" r="75" transform="translate(6141.5 -10386.014)" fill="#0f2771"/>
    </g>
    <g id="Group_139963" data-name="Group 139963" transform="translate(763 7081.895)">
      <path id="Path_196684" data-name="Path 196684" d="M230.6,287.5H228.86a1.137,1.137,0,0,1-1.136-1.133V268.511h-5.09V286.37a1.13,1.13,0,0,1-1.128,1.133h-1.737l5.41,5.715Zm3.673-1.582a1.125,1.125,0,0,1-.221,1.227l-8.047,8.5a1.132,1.132,0,0,1-.823.354,1.144,1.144,0,0,1-.823-.354l-8.047-8.5a1.135,1.135,0,0,1,.823-1.912h3.238V267.377a1.135,1.135,0,0,1,1.136-1.133h7.353a1.135,1.135,0,0,1,1.136,1.133v17.859h3.231A1.128,1.128,0,0,1,234.27,285.921Zm57.96,1.582H290.5a1.132,1.132,0,0,1-1.136-1.133V268.511h-5.09V286.37a1.136,1.136,0,0,1-1.135,1.133h-1.73l5.41,5.715Zm3.459-.355-8.047,8.5a1.134,1.134,0,0,1-1.646,0l-8.047-8.5a1.131,1.131,0,0,1,.823-1.912H282V267.377a1.135,1.135,0,0,1,1.136-1.133H290.5a1.128,1.128,0,0,1,1.128,1.133v17.859h3.238a1.131,1.131,0,0,1,.823,1.912Zm-10.1-33.708-25.521,25.535a1.131,1.131,0,0,0-.335.8v13.958h-7.156V280.1a1.124,1.124,0,0,0-.327-.8L226.413,253.44ZM224.8,244.181v6.992h62.388v-6.992Zm13.473-2.267h35.45V218.267H246.043V224.9a1.136,1.136,0,0,1-1.135,1.134h-6.63Zm1.6-18.149,3.894-3.9v3.9Zm49.25,29.343-27.12,27.136v14.623A1.136,1.136,0,0,1,260.872,296h-9.418a1.136,1.136,0,0,1-1.136-1.133v-14.3L222.87,253.108a1.126,1.126,0,0,1-.328-.8v-9.258a1.123,1.123,0,0,1,.328-.8,1.137,1.137,0,0,1,.808-.333h12.329V224.9a1.141,1.141,0,0,1,.335-.8l7.765-7.765a1.144,1.144,0,0,1,.8-.332h29.948a1.136,1.136,0,0,1,1.135,1.134v24.78h12.337a1.129,1.129,0,0,1,1.128,1.134v9.258a1.122,1.122,0,0,1-.328.8ZM268.21,236.823a1.134,1.134,0,1,1,0,2.267H243.788a1.134,1.134,0,1,1,0-2.267Zm-10.752-9.966a1.134,1.134,0,0,1,0-2.267h10.753a1.134,1.134,0,1,1,0,2.267Zm11.888,4.983a1.136,1.136,0,0,1-1.135,1.133H243.788a1.134,1.134,0,1,1,0-2.267h24.423A1.136,1.136,0,0,1,269.346,231.84Z" fill="#fff" fill-rule="evenodd"/>
    </g>
  </g>
</svg>
