<svg xmlns="http://www.w3.org/2000/svg" width="150" height="150" viewBox="0 0 150 150">
  <g id="_26" data-name="26" transform="translate(-1187 -7262.895)">
    <g id="Group_139934" data-name="Group 139934" transform="translate(-4954.5 17648.908)">
      <circle id="Ellipse_4809" data-name="Ellipse 4809" cx="75" cy="75" r="75" transform="translate(6141.5 -10386.014)" fill="#0f2771"/>
    </g>
    <g id="Group_139964" data-name="Group 139964" transform="translate(1005.999 7081.896)">
      <path id="Path_196685" data-name="Path 196685" d="M260.446,271.276l.409-3.415a12.658,12.658,0,0,0,3.229-1.868l3.163,1.354a2.639,2.639,0,0,0,3.325-1.106l1.664-2.883a2.642,2.642,0,0,0-.7-3.432h0l-2.753-2.062a12.9,12.9,0,0,0,0-3.73l2.753-2.062a2.638,2.638,0,0,0,.7-3.432l-1.664-2.882a2.639,2.639,0,0,0-3.324-1.107l-3.164,1.355a12.657,12.657,0,0,0-3.229-1.868l-.409-3.414a2.639,2.639,0,0,0-2.62-2.326H254.5a2.642,2.642,0,0,0-2.62,2.326l-.408,3.414a12.617,12.617,0,0,0-3.23,1.868l-3.163-1.355a2.641,2.641,0,0,0-3.324,1.106l-1.665,2.883a2.638,2.638,0,0,0,.7,3.431l2.755,2.062a12.856,12.856,0,0,0,0,3.73l-2.756,2.063a2.64,2.64,0,0,0-.7,3.431l1.665,2.885a2.642,2.642,0,0,0,3.324,1.1l3.163-1.355a12.587,12.587,0,0,0,3.23,1.868l.408,3.417a2.641,2.641,0,0,0,2.62,2.322h3.33a2.638,2.638,0,0,0,2.62-2.323ZM254.2,271l-.493-4.131a1.173,1.173,0,0,0-.8-.975,10.323,10.323,0,0,1-3.689-2.133,1.172,1.172,0,0,0-.782-.3,1.16,1.16,0,0,0-.461.094l-3.827,1.639a.3.3,0,0,1-.372-.123l-1.665-2.885a.294.294,0,0,1,.078-.383l3.332-2.494a1.171,1.171,0,0,0,.445-1.178,10.511,10.511,0,0,1,0-4.264,1.173,1.173,0,0,0-.446-1.177l-3.333-2.494a.3.3,0,0,1-.077-.383l1.665-2.883a.3.3,0,0,1,.372-.123l3.827,1.639a1.175,1.175,0,0,0,1.243-.2,10.323,10.323,0,0,1,3.689-2.133,1.173,1.173,0,0,0,.8-.975L254.2,241a.3.3,0,0,1,.293-.262h3.33a.3.3,0,0,1,.293.261l.5,4.132a1.17,1.17,0,0,0,.8.973,10.336,10.336,0,0,1,3.688,2.134,1.175,1.175,0,0,0,1.243.2l3.829-1.639a.293.293,0,0,1,.371.123l1.664,2.882a.294.294,0,0,1-.078.384l-3.331,2.494a1.173,1.173,0,0,0-.445,1.177,10.486,10.486,0,0,1,0,4.264,1.173,1.173,0,0,0,.445,1.178l3.33,2.494a.294.294,0,0,1,.079.384l-1.664,2.883a.293.293,0,0,1-.371.124l-3.829-1.639a1.173,1.173,0,0,0-1.243.2,10.333,10.333,0,0,1-3.688,2.133,1.172,1.172,0,0,0-.8.974l-.5,4.132a.3.3,0,0,1-.293.259H254.5A.3.3,0,0,1,254.2,271Z" fill="#fff"/>
      <path id="Path_196686" data-name="Path 196686" d="M263.367,256a7.207,7.207,0,1,0-7.205,7.207A7.215,7.215,0,0,0,263.367,256Zm-7.205,4.863A4.864,4.864,0,1,1,261.024,256,4.869,4.869,0,0,1,256.162,260.863Z" fill="#fff"/>
      <path id="Path_196687" data-name="Path 196687" d="M249.238,280.245v-5.171a3.822,3.822,0,0,0-3.817-3.818H219.98a3.823,3.823,0,0,0-3.818,3.818v5.171a3.8,3.8,0,0,0,1.07,2.645,3.8,3.8,0,0,0-1.07,2.646v5.171a3.822,3.822,0,0,0,3.817,3.817h13.645a1.172,1.172,0,1,0,0-2.344H219.979a1.475,1.475,0,0,1-1.473-1.473v-5.171a1.475,1.475,0,0,1,1.473-1.473h25.442a1.475,1.475,0,0,1,1.474,1.473v5.171a1.475,1.475,0,0,1-1.474,1.473h-6.328a1.172,1.172,0,1,0,0,2.344h6.328a3.822,3.822,0,0,0,3.817-3.817v-5.171a3.807,3.807,0,0,0-1.069-2.646,3.8,3.8,0,0,0,1.069-2.645Zm-30.732-5.171a1.475,1.475,0,0,1,1.474-1.474h25.441a1.476,1.476,0,0,1,1.474,1.474v5.171a1.475,1.475,0,0,1-1.474,1.473H219.98a1.475,1.475,0,0,1-1.474-1.473Z" fill="#fff"/>
      <path id="Path_196688" data-name="Path 196688" d="M223.178,281.038a3.379,3.379,0,1,0-3.379-3.379A3.383,3.383,0,0,0,223.178,281.038Zm0-4.414a1.035,1.035,0,1,1-1.035,1.035A1.036,1.036,0,0,1,223.178,276.624Z" fill="#fff"/>
      <path id="Path_196689" data-name="Path 196689" d="M230.494,281.038a3.379,3.379,0,1,0-3.379-3.379A3.383,3.383,0,0,0,230.494,281.038Zm0-4.414a1.035,1.035,0,1,1-1.035,1.035A1.036,1.036,0,0,1,230.494,276.624Z" fill="#fff"/>
      <path id="Path_196690" data-name="Path 196690" d="M219.8,288.121a3.379,3.379,0,1,0,3.379-3.379A3.383,3.383,0,0,0,219.8,288.121Zm4.414,0a1.035,1.035,0,1,1-1.035-1.035A1.036,1.036,0,0,1,224.213,288.121Z" fill="#fff"/>
      <path id="Path_196691" data-name="Path 196691" d="M227.115,288.121a3.378,3.378,0,1,0,3.379-3.379A3.382,3.382,0,0,0,227.115,288.121Zm4.413,0a1.035,1.035,0,1,1-1.034-1.035A1.036,1.036,0,0,1,231.528,288.121Z" fill="#fff"/>
      <path id="Path_196692" data-name="Path 196692" d="M237.155,278.831h6.922a1.172,1.172,0,0,0,0-2.344h-6.922a1.172,1.172,0,0,0,0,2.344Z" fill="#fff"/>
      <path id="Path_196693" data-name="Path 196693" d="M245.249,288.121a1.172,1.172,0,0,0-1.172-1.172h-6.922a1.172,1.172,0,1,0,0,2.344h6.922A1.172,1.172,0,0,0,245.249,288.121Z" fill="#fff"/>
      <path id="Path_196694" data-name="Path 196694" d="M292.72,216h-6.857a7.272,7.272,0,0,0-5.175,2.144l-6.7,6.706a7.275,7.275,0,0,0-2.143,5.174v12.657a3.124,3.124,0,0,0,3.12,3.121h8.724a1.172,1.172,0,0,0,0-2.344H274.96a.777.777,0,0,1-.776-.777v-12.1a1.932,1.932,0,0,1,1.929-1.929h5.257a3.122,3.122,0,0,0,3.119-3.119v-5.258a1.932,1.932,0,0,1,1.919-1.929h6.312a.777.777,0,0,1,.776.775v23.563a.777.777,0,0,1-.776.776h-3.567a1.172,1.172,0,1,0,0,2.344h3.567a3.124,3.124,0,0,0,3.12-3.12V219.119A3.124,3.124,0,0,0,292.72,216Zm-10.574,9.531a.777.777,0,0,1-.776.776h-5.257c-.1,0-.189,0-.283.01l6.326-6.327c-.006.093-.01.188-.01.282Z" fill="#fff"/>
      <path id="Path_196695" data-name="Path 196695" d="M278.957,234.266h9.766a1.172,1.172,0,0,0,0-2.344h-9.766a1.172,1.172,0,0,0,0,2.344Z" fill="#fff"/>
      <path id="Path_196696" data-name="Path 196696" d="M278.957,239.149h9.766a1.172,1.172,0,0,0,0-2.344h-9.766a1.172,1.172,0,0,0,0,2.344Z" fill="#fff"/>
      <path id="Path_196697" data-name="Path 196697" d="M294,251.262a3.5,3.5,0,1,0-6.938.869A31.176,31.176,0,0,1,287.3,256a30.86,30.86,0,0,1-6.293,18.773,31.221,31.221,0,0,1-12.466,9.8l-.152-.907a2.394,2.394,0,0,0-3.887-1.447l-7.453,6.16a2.394,2.394,0,0,0,.689,4.089l9.061,3.376a2.419,2.419,0,0,0,.844.154,2.4,2.4,0,0,0,2.353-2.8l-.264-1.566a38.7,38.7,0,0,0,16.851-12.645A37.806,37.806,0,0,0,294.291,256a38.622,38.622,0,0,0-.294-4.736Zm-9.286,26.316a36.286,36.286,0,0,1-16.688,12.19,1.173,1.173,0,0,0-.766,1.3l.426,2.524a.051.051,0,0,1-.068.056l-9.061-3.376a.041.041,0,0,1-.032-.039.042.042,0,0,1,.018-.048l7.453-6.16a.041.041,0,0,1,.028-.013.075.075,0,0,1,.022.005.04.04,0,0,1,.032.039l.4,2.35a1.171,1.171,0,0,0,1.572.9,33.578,33.578,0,0,0,14.83-11.12A33.184,33.184,0,0,0,289.642,256a33.77,33.77,0,0,0-.257-4.16,1.152,1.152,0,1,1,2.286-.286,35.881,35.881,0,0,1,.276,4.446,35.476,35.476,0,0,1-7.236,21.579Z" fill="#fff"/>
      <path id="Path_196698" data-name="Path 196698" d="M221.792,263.8a3.548,3.548,0,0,0,.437-.028,3.5,3.5,0,0,0,3.035-3.9,31.025,31.025,0,0,1,10.427-27.317,1.172,1.172,0,0,0-1.539-1.769,33.5,33.5,0,0,0-11.214,29.378,1.154,1.154,0,0,1-1,1.288,1.2,1.2,0,0,1-.145.009,1.152,1.152,0,0,1-1.14-1.01,36,36,0,0,1-.275-4.446,35.479,35.479,0,0,1,7.234-21.579A36.291,36.291,0,0,1,244.3,222.229a1.171,1.171,0,0,0,.766-1.3l-.425-2.525a.04.04,0,0,1,.018-.047.042.042,0,0,1,.05-.009l9.061,3.377a.04.04,0,0,1,.032.038.042.042,0,0,1-.018.048l-7.452,6.161a.045.045,0,0,1-.051.008.041.041,0,0,1-.032-.039l-.4-2.35a1.172,1.172,0,0,0-1.573-.9,33.369,33.369,0,0,0-5.561,2.739,1.172,1.172,0,1,0,1.226,2,31.184,31.184,0,0,1,3.84-2l.153.907a2.4,2.4,0,0,0,3.887,1.448l7.454-6.162a2.395,2.395,0,0,0-.69-4.088l-9.061-3.377a2.395,2.395,0,0,0-3.2,2.641l.264,1.567a38.688,38.688,0,0,0-16.85,12.646,38.166,38.166,0,0,0-7.416,27.73,3.5,3.5,0,0,0,3.466,3.063Z" fill="#fff"/>
    </g>
  </g>
</svg>
