<svg xmlns="http://www.w3.org/2000/svg" width="150" height="150" viewBox="0 0 150 150">
  <g id="_27" data-name="27" transform="translate(-6699 4421)">
    <g id="Group_139930" data-name="Group 139930" transform="translate(557.5 5965.014)">
      <circle id="Ellipse_4809" data-name="Ellipse 4809" cx="75" cy="75" r="75" transform="translate(6141.5 -10386.014)" fill="#0f2771"/>
    </g>
    <g id="Group_139965" data-name="Group 139965" transform="translate(6517.921 -4601.999)">
      <path id="Path_196703" data-name="Path 196703" d="M224.425,223.827h28.751a1.172,1.172,0,1,0,0-2.344H224.425a1.172,1.172,0,0,0,0,2.344Z" fill="#fff"/>
      <path id="Path_196704" data-name="Path 196704" d="M224.425,228.9h28.751a1.172,1.172,0,1,0,0-2.344H224.425a1.172,1.172,0,0,0,0,2.344Z" fill="#fff"/>
      <path id="Path_196705" data-name="Path 196705" d="M224.425,245.117h28.751a1.172,1.172,0,1,0,0-2.344H224.425a1.172,1.172,0,0,0,0,2.344Z" fill="#fff"/>
      <path id="Path_196706" data-name="Path 196706" d="M224.425,250.189h28.751a1.172,1.172,0,1,0,0-2.344H224.425a1.172,1.172,0,0,0,0,2.344Z" fill="#fff"/>
      <path id="Path_196707" data-name="Path 196707" d="M253.176,264.064H224.425a1.172,1.172,0,0,0,0,2.344h28.751a1.172,1.172,0,1,0,0-2.344Z" fill="#fff"/>
      <path id="Path_196708" data-name="Path 196708" d="M253.176,269.135H224.425a1.172,1.172,0,0,0,0,2.344h28.751a1.172,1.172,0,1,0,0-2.344Z" fill="#fff"/>
      <path id="Path_196709" data-name="Path 196709" d="M275.557,225.19a4.769,4.769,0,1,0-4.769,4.769A4.774,4.774,0,0,0,275.557,225.19Zm-7.193,0a2.424,2.424,0,1,1,2.424,2.425A2.426,2.426,0,0,1,268.364,225.19Z" fill="#fff"/>
      <path id="Path_196710" data-name="Path 196710" d="M276.724,237.227v-2.845h.425a4.338,4.338,0,0,0,4.333-4.334v-9.716A4.338,4.338,0,0,0,277.149,216H222.413a4.338,4.338,0,0,0-4.334,4.333v2.118a1.172,1.172,0,0,0,2.344,0v-2.118a1.992,1.992,0,0,1,1.99-1.989h54.736a1.992,1.992,0,0,1,1.99,1.989v9.716a1.993,1.993,0,0,1-1.99,1.99H222.413a1.993,1.993,0,0,1-1.99-1.99V227.93a1.172,1.172,0,0,0-2.344,0v2.118a4.339,4.339,0,0,0,4.334,4.334h.84v2.838h-.84a4.339,4.339,0,0,0-4.334,4.334v9.715a4.339,4.339,0,0,0,4.334,4.334h.84v2.838h-.84a4.339,4.339,0,0,0-4.334,4.334v9.715a4.339,4.339,0,0,0,4.334,4.334h23.725v5.785a2.071,2.071,0,0,0-1.283,1.913v1.625H241.59a2.071,2.071,0,0,0-1.913,1.283H220.036a1.959,1.959,0,0,0-1.957,1.957v3.372a1.959,1.959,0,0,0,1.957,1.957h19.641A2.071,2.071,0,0,0,241.59,296h16.239a2.071,2.071,0,0,0,1.913-1.283h19.783a1.959,1.959,0,0,0,1.957-1.957v-3.372a1.959,1.959,0,0,0-1.957-1.957H259.743a2.073,2.073,0,0,0-1.914-1.283h-3.122v-1.625a2.071,2.071,0,0,0-1.283-1.913v-5.785h14.192v4.521a2.037,2.037,0,0,0,2.033,2.036c.763,0,.718-.19,6.585-2.735l5.757,2.558a2.034,2.034,0,0,0,2.861-1.859V270.367a17.78,17.78,0,0,0,4.1-3.161,1.171,1.171,0,1,0-1.684-1.629,15.293,15.293,0,1,1,2.933-4.294,1.172,1.172,0,1,0,2.131.974,17.7,17.7,0,0,0-15.6-25.03Zm-37.2,55.146h-19.1v-2.6h19.1v2.6Zm20.377-2.6h19.241v2.6H259.9ZM277.4,272.558a17.586,17.586,0,0,0,5.1-1.1v9.41l-5.1-2.267Zm-7.445-1.111a17.584,17.584,0,0,0,5.1,1.111V278.6l-5.1,2.267Zm-16.425,17.044h4.02v5.165h-15.69v-5.165h4.162a1.172,1.172,0,0,0,1.172-1.172V284.8h5.164v2.523A1.172,1.172,0,0,0,253.535,288.491Zm-5.053-6.038v-5.629h2.6v5.629Zm19.134-12.1v4.129h-45.2a1.992,1.992,0,0,1-1.99-1.989v-9.716a1.993,1.993,0,0,1,1.99-1.99h37.136a17.789,17.789,0,0,0,8.067,9.566ZM225.6,258.441V255.6H258.56a17.665,17.665,0,0,0,.339,2.838Zm33.025-5.182H222.413a1.992,1.992,0,0,1-1.99-1.99v-9.715a1.993,1.993,0,0,1,1.99-1.99h45.028a17.718,17.718,0,0,0-8.819,13.7Zm15.759-16.039H225.6v-2.838h48.784Z" fill="#fff"/>
      <path id="Path_196711" data-name="Path 196711" d="M286.164,252.579a2.226,2.226,0,0,0-2.108-1.556l-4.3-.066-1.391-4.069a2.253,2.253,0,0,0-4.263,0l-1.391,4.069-4.3.066a2.252,2.252,0,0,0-1.317,4.053l3.44,2.581-1.266,4.11a2.252,2.252,0,0,0,3.448,2.505l3.518-2.474,3.517,2.474a2.252,2.252,0,0,0,3.448-2.505l-1.266-4.11,3.44-2.58a2.226,2.226,0,0,0,.791-2.5Zm-5.689,3.242a2.258,2.258,0,0,0-.8,2.465l1.207,3.915-3.352-2.357a2.257,2.257,0,0,0-2.591,0l-3.351,2.357,1.206-3.915a2.258,2.258,0,0,0-.8-2.465l-3.277-2.459,4.1-.062a2.258,2.258,0,0,0,2.1-1.524l1.326-3.877,1.325,3.877a2.259,2.259,0,0,0,2.1,1.524l4.1.062Z" fill="#fff"/>
    </g>
  </g>
</svg>
