<svg xmlns="http://www.w3.org/2000/svg" width="150" height="150" viewBox="0 0 150 150">
  <g id="_28" data-name="28" transform="translate(-6942 4421)">
    <g id="Group_139931" data-name="Group 139931" transform="translate(800.5 5965.014)">
      <circle id="Ellipse_4809" data-name="Ellipse 4809" cx="75" cy="75" r="75" transform="translate(6141.5 -10386.014)" fill="#0f2771"/>
    </g>
    <g id="Cloud-Upload-Computer-Cloud_Computing-Arrow_up" data-name="Cloud-Upload-Computer-Cloud Computing-Arrow up" transform="translate(6761.131 -4602.037)">
      <path id="Path_196699" data-name="Path 196699" d="M273.227,254.7a12,12,0,0,0,2.668-23.71v-.294a9.345,9.345,0,0,0-9.335-9.334,8.957,8.957,0,0,0-2.974.493,14.669,14.669,0,0,0-26.364,8.841v.067a12,12,0,0,0,1.333,23.937h12v4h-9.334a4.013,4.013,0,0,0-4,4v18.67a4.012,4.012,0,0,0,4,4h9.334v2.668h-1.333a4.012,4.012,0,0,0-4,4V294.7a1.334,1.334,0,0,0,1.334,1.334h18.669a1.334,1.334,0,0,0,1.334-1.334v-2.667a4.012,4.012,0,0,0-4-4h-1.333v-2.668h9.334a4.012,4.012,0,0,0,4-4V262.7a4.013,4.013,0,0,0-4-4h-9.334v-4ZM262.559,290.7a1.333,1.333,0,0,1,1.334,1.333v1.334h-16v-1.334a1.333,1.333,0,0,1,1.334-1.333Zm-9.335-2.667v-2.668h5.335v2.668Zm18.67-6.668a1.333,1.333,0,0,1-1.334,1.333H241.223a1.333,1.333,0,0,1-1.334-1.333v-1.334h32.005Zm-1.334-20a1.333,1.333,0,0,1,1.334,1.333v14.669H239.889V262.7a1.333,1.333,0,0,1,1.334-1.333h9.334v10.668h2.667V245.362a1.334,1.334,0,0,0-1.16-1.32l3.827-4.6,3.828,4.6a1.334,1.334,0,0,0-1.16,1.32v26.671h2.667V261.365Zm-13.642-24.857a1.376,1.376,0,0,0-1.943-.111,1.279,1.279,0,0,0-.11.111l-6.668,8a1.334,1.334,0,0,0,1.027,2.187h1.333v5.334h-12a9.335,9.335,0,0,1,.067-18.669,1.348,1.348,0,0,0,1.338-1.356c0-.033,0-.066,0-.1a11.995,11.995,0,0,1,22.03-7.695,1.334,1.334,0,0,0,1.707.481,6.493,6.493,0,0,1,2.867-.667,6.667,6.667,0,0,1,6.667,6.667h0a7.819,7.819,0,0,1-.106,1.174,1.289,1.289,0,0,0,.24,1.027,1.335,1.335,0,0,0,.92.52,9.335,9.335,0,0,1-1.054,18.616h-12V246.7h1.333a1.333,1.333,0,0,0,1.027-2.187Z" fill="#fff"/>
      <path id="Path_196700" data-name="Path 196700" d="M279.895,242.7h-2.667a4,4,0,0,1-4,4v2.667A6.675,6.675,0,0,0,279.895,242.7Z" fill="#fff"/>
      <path id="Path_196701" data-name="Path 196701" d="M267.893,246.7h2.667v2.667h-2.667Z" fill="#fff"/>
      <path id="Path_196702" data-name="Path 196702" d="M251.891,221.359a9.346,9.346,0,0,0-9.335,9.334h2.667a6.676,6.676,0,0,1,6.668-6.667Z" fill="#fff"/>
    </g>
  </g>
</svg>
