<svg xmlns="http://www.w3.org/2000/svg" width="60" height="60" viewBox="0 0 60 60">
  <g id="_12" data-name="12" transform="translate(-243.5 -243.5)">
    <path id="Path_199488" data-name="Path 199488" d="M268.29,248.5h-2.748a6.89,6.89,0,0,0-13.25,0h-2.75a1.89,1.89,0,0,0-1.874,1.877v3.749a4.4,4.4,0,0,0,4.375,4.375h13.75a4.4,4.4,0,0,0,4.375-4.375v-3.749A1.89,1.89,0,0,0,268.29,248.5Z" transform="translate(5.834 0)" fill="#fff"/>
    <path id="Path_199489" data-name="Path 199489" d="M279.126,246.625H278.5v3.125a6.872,6.872,0,0,1-6.874,6.876h-13.75A6.872,6.872,0,0,1,251,249.75v-3.125h-.624A6.871,6.871,0,0,0,243.5,253.5v31.248a6.871,6.871,0,0,0,6.876,6.876H266.85a21.833,21.833,0,0,1-2.074-8.75h-11.9a1.874,1.874,0,0,1,0-3.749h12.1a22.942,22.942,0,0,1,1.1-4.375h-13.2a1.876,1.876,0,0,1,0-3.751h15a21.933,21.933,0,0,1,3.475-4.375H252.874a1.874,1.874,0,0,1,0-3.749h23.6A21.541,21.541,0,0,1,286,260.4v-6.9A6.87,6.87,0,0,0,279.126,246.625Z" transform="translate(0 4.375)" fill="#fff"/>
    <path id="Path_199490" data-name="Path 199490" d="M271.312,254.438a16.874,16.874,0,1,0,16.874,16.874A16.893,16.893,0,0,0,271.312,254.438Zm8.129,13.522-8.75,10a2.5,2.5,0,0,1-1.8.852h-.082a2.5,2.5,0,0,1-1.766-.732l-5-5a2.5,2.5,0,0,1,3.535-3.535l3.11,3.11,6.991-7.99a2.5,2.5,0,1,1,3.761,3.3Z" transform="translate(15.313 15.313)" fill="#fff"/>
  </g>
</svg>
