<svg xmlns="http://www.w3.org/2000/svg" width="190.333" height="115" viewBox="0 0 190.333 115">
  <g id="_1" data-name="1" transform="translate(-179.667 -400)">
    <rect id="Rectangle_41430" data-name="Rectangle 41430" width="85" height="28" rx="14" transform="translate(285 407.5)" fill="#feca2e" opacity="0.2"/>
    <rect id="Rectangle_41431" data-name="Rectangle 41431" width="85" height="28" rx="14" transform="translate(180 479)" fill="#4dd0e1" opacity="0.2"/>
    <g id="Group_136957" data-name="Group 136957" transform="translate(-192 -93)">
      <g id="Group_136958" data-name="Group 136958" transform="translate(210.667 294)">
        <path id="Path_193799" data-name="Path 193799" d="M257.613,254.387V223.742h14.516a4.845,4.845,0,0,1,4.839,4.839v14.027l-3.5-5.245-2.684,1.789,7.794,11.692,7.793-11.691-2.684-1.789-3.5,5.244V228.581a8.074,8.074,0,0,0-8.065-8.065H257.613v-6.452A8.074,8.074,0,0,0,249.548,206H214.065A8.074,8.074,0,0,0,206,214.064V256a8.073,8.073,0,0,0,8.065,8.064h27.419V294.71H226.968a4.845,4.845,0,0,1-4.839-4.839V275.844l3.5,5.245,2.684-1.789-7.794-11.692-7.793,11.69,2.683,1.789,3.5-5.243v14.027a8.073,8.073,0,0,0,8.065,8.064h14.516V306H306V254.387Zm45.161,12.9H244.71v-9.677h58.064Zm-54.839-38.709H215.677v-12.9h32.258Zm-32.258,3.225h32.258v12.9H215.677ZM209.226,256V214.064a4.845,4.845,0,0,1,4.839-4.838h35.483a4.845,4.845,0,0,1,4.839,4.838v40.323h-3.226v-38.71a3.228,3.228,0,0,0-3.226-3.225H215.677a3.228,3.228,0,0,0-3.225,3.225v44.865A4.832,4.832,0,0,1,209.226,256Zm6.451,4.839v-12.9h32.258v6.452h-6.451v6.452Zm29.033,41.935V270.516h58.064v32.258Z" fill="#0f2771"/>
        <path id="Path_193800" data-name="Path 193800" d="M218.9,218.9h3.226v6.452H218.9Z" fill="#0f2771"/>
        <path id="Path_193801" data-name="Path 193801" d="M225.355,218.9h3.226v6.452h-3.226Z" fill="#0f2771"/>
        <path id="Path_193802" data-name="Path 193802" d="M241.484,235.032h3.226v6.452h-3.226Z" fill="#0f2771"/>
        <path id="Path_193803" data-name="Path 193803" d="M235.032,235.032h3.226v6.452h-3.226Z" fill="#0f2771"/>
        <path id="Path_193804" data-name="Path 193804" d="M218.9,251.161h3.226v6.452H218.9Z" fill="#0f2771"/>
        <path id="Path_193805" data-name="Path 193805" d="M225.355,251.161h3.226v6.452h-3.226Z" fill="#0f2771"/>
        <path id="Path_193806" data-name="Path 193806" d="M247.935,260.839h3.226v3.225h-3.226Z" fill="#0f2771"/>
        <path id="Path_193807" data-name="Path 193807" d="M254.387,260.839h3.226v3.225h-3.226Z" fill="#0f2771"/>
        <path id="Path_193808" data-name="Path 193808" d="M260.839,260.839h3.226v3.225h-3.226Z" fill="#0f2771"/>
        <path id="Path_193809" data-name="Path 193809" d="M279.495,287.442a8.065,8.065,0,1,0-11.506,0,11.3,11.3,0,0,0-7.15,10.493v1.613h25.806v-1.613A11.3,11.3,0,0,0,279.495,287.442Zm-5.753-10.474a4.839,4.839,0,1,1-4.839,4.838A4.845,4.845,0,0,1,273.742,276.968Zm-9.515,19.355a8.079,8.079,0,0,1,7.9-6.452h3.226a8.076,8.076,0,0,1,7.9,6.452Z" fill="#0f2771"/>
        <path id="Path_193810" data-name="Path 193810" d="M247.935,273.742h3.226v3.226h-3.226Z" fill="#0f2771"/>
        <path id="Path_193811" data-name="Path 193811" d="M247.935,280.194h3.226v3.225h-3.226Z" fill="#0f2771"/>
        <path id="Path_193812" data-name="Path 193812" d="M247.935,286.645h3.226v3.226h-3.226Z" fill="#0f2771"/>
        <path id="Path_193813" data-name="Path 193813" d="M296.323,296.323h3.225v3.225h-3.225Z" fill="#0f2771"/>
        <path id="Path_193814" data-name="Path 193814" d="M296.323,289.871h3.225V293.1h-3.225Z" fill="#0f2771"/>
        <path id="Path_193815" data-name="Path 193815" d="M296.323,283.419h3.225v3.226h-3.225Z" fill="#0f2771"/>
      </g>
    </g>
    <rect id="Rectangle_43994" data-name="Rectangle 43994" width="190" height="115" transform="translate(179.667 400)" fill="none"/>
  </g>
</svg>
