<svg xmlns="http://www.w3.org/2000/svg" width="57.572" height="60" viewBox="0 0 57.572 60">
  <g id="_10" data-name="10" transform="translate(-10.359 0.002)">
    <g id="Group_141094" data-name="Group 141094" transform="translate(10.359 -0.002)">
      <g id="Group_141093" data-name="Group 141093">
        <path id="Path_199481" data-name="Path 199481" d="M65.155,30.775a1.758,1.758,0,0,1,0-1.554l2.238-4.578a5.209,5.209,0,0,0-2.247-6.917l-4.5-2.388a1.758,1.758,0,0,1-.914-1.257l-.88-5.019a5.209,5.209,0,0,0-5.884-4.275L47.922,5.5a1.758,1.758,0,0,1-1.478-.48L42.781,1.478a5.208,5.208,0,0,0-7.273,0L31.846,5.021a1.759,1.759,0,0,1-1.478.48l-5.045-.714a5.208,5.208,0,0,0-5.884,4.275l-.88,5.019a1.759,1.759,0,0,1-.913,1.257l-4.5,2.388A5.209,5.209,0,0,0,10.9,24.644l2.238,4.578a1.758,1.758,0,0,1,0,1.554L10.9,35.353a5.209,5.209,0,0,0,2.247,6.917l4.5,2.388a1.758,1.758,0,0,1,.914,1.257l.88,5.019a5.205,5.205,0,0,0,5.135,4.328,5.352,5.352,0,0,0,.749-.053l5.045-.714a1.758,1.758,0,0,1,1.478.48l3.662,3.543a5.208,5.208,0,0,0,7.273,0l3.662-3.543a1.76,1.76,0,0,1,1.478-.48l5.045.714a5.208,5.208,0,0,0,5.884-4.275l.88-5.019a1.759,1.759,0,0,1,.913-1.257l4.5-2.388a5.209,5.209,0,0,0,2.247-6.917ZM32.224,14.426a6.344,6.344,0,1,1-6.344,6.344A6.352,6.352,0,0,1,32.224,14.426ZM28.949,42.641A1.73,1.73,0,0,1,26.5,40.194L49.341,17.355A1.73,1.73,0,1,1,51.788,19.8Zm17.117,2.93a6.344,6.344,0,1,1,6.344-6.344A6.352,6.352,0,0,1,46.066,45.571Z" transform="translate(-10.359 0.002)" fill="#fff"/>
      </g>
    </g>
    <g id="Group_141096" data-name="Group 141096" transform="translate(43.182 36.343)">
      <g id="Group_141095" data-name="Group 141095">
        <path id="Path_199482" data-name="Path 199482" d="M293.336,310.141a2.884,2.884,0,1,0,2.884,2.884A2.887,2.887,0,0,0,293.336,310.141Z" transform="translate(-290.452 -310.141)" fill="#fff"/>
      </g>
    </g>
    <g id="Group_141098" data-name="Group 141098" transform="translate(29.34 17.886)">
      <g id="Group_141097" data-name="Group 141097">
        <path id="Path_199483" data-name="Path 199483" d="M175.217,152.646a2.884,2.884,0,1,0,2.884,2.884A2.887,2.887,0,0,0,175.217,152.646Z" transform="translate(-172.333 -152.646)" fill="#fff"/>
      </g>
    </g>
  </g>
</svg>
