<svg xmlns="http://www.w3.org/2000/svg" width="400" height="399.907" viewBox="0 0 400 399.907">
  <g id="_10" data-name="10" transform="translate(-180 -3004)">
    <path id="Path_193652" data-name="Path 193652" d="M535.783,722.91a57.3,57.3,0,0,1-14.229-95.471A200.238,200.238,0,0,0,376.477,760.233l-1.573,4.814a47.9,47.9,0,0,0-1.771,29.665,48.6,48.6,0,0,0,91.472,7.551A103.756,103.756,0,0,1,535.783,722.91Z" transform="translate(-186.611 2381.656)" fill="#1e2b6f"/>
    <path id="Path_193653" data-name="Path 193653" d="M512.276,918.5l.048-.065-5.929-4.361A103.475,103.475,0,0,1,462.538,830.5a58.373,58.373,0,0,1-27.207,15.348,59.279,59.279,0,0,1-14.464,1.8c-23.08,0-44.438-13.549-53.749-34.633a199.687,199.687,0,0,0,81.1,178.075l3.555,2.607a48.257,48.257,0,1,0,60.5-75.191Z" transform="translate(-186.402 2374.173)" fill="#d0efff"/>
    <path id="Path_193654" data-name="Path 193654" d="M707.808,925.5a48.254,48.254,0,0,0-66.638-14.718c-1.118.714-2.191,1.477-3.237,2.27l-6.216,4.454a103.165,103.165,0,0,1-94.8,13.436,57.41,57.41,0,0,1-44.545,86.218,197.941,197.941,0,0,0,78.8,16.206h.59a197.866,197.866,0,0,0,116.614-37.735l6.444-4.658c.283-.2.559-.4.838-.606l.125-.09,0,0A48.233,48.233,0,0,0,707.808,925.5Z" transform="translate(-191.482 2370.536)" fill="#1e2b6f"/>
    <path id="Path_193655" data-name="Path 193655" d="M768.553,764.7l-.928-2.876a48.34,48.34,0,0,0-46.854-36.812q-.777,0-1.558.026a48.223,48.223,0,0,0-45.06,60.728l-.194.062,1.955,6.078q1.479,4.265,2.591,8.69c.025.1.048.2.073.3.156.634.311,1.269.457,1.907A103.143,103.143,0,0,1,661,888.355a57.361,57.361,0,0,1,68.935,68.235A200.422,200.422,0,0,0,768.553,764.7Z" transform="translate(-198.282 2377.722)" fill="#d0efff"/>
    <path id="Path_193656" data-name="Path 193656" d="M690.116,660.409A198.773,198.773,0,0,0,572.454,622.13H563.3v.047a48.235,48.235,0,0,0-.6,96.374c3.128-.285,6.3-.438,9.5-.438a103.494,103.494,0,0,1,85.671,45.332,57.443,57.443,0,0,1,55.24-51.67h0a57.034,57.034,0,0,1,31.322,8.169A198.973,198.973,0,0,0,690.116,660.409Z" transform="translate(-192.471 2381.87)" fill="#50d9eb"/>
    <path id="Elipse_4792" data-name="Elipse 4792" d="M39.485,0A39.308,39.308,0,1,1,0,39.307,39.4,39.4,0,0,1,39.485,0Z" transform="translate(194.099 3124.964)" fill="#161d44"/>
    <path id="Elipse_4793" data-name="Elipse 4793" d="M39.136,0A39.136,39.136,0,1,1,0,39.136,39.136,39.136,0,0,1,39.136,0Z" transform="translate(256.826 3291.385)" fill="#9eccef"/>
    <path id="Elipse_4794" data-name="Elipse 4794" d="M39.138,0A39.138,39.138,0,1,1,0,39.138,39.138,39.138,0,0,1,39.138,0Z" transform="translate(436.51 3282.861)" fill="#161d44"/>
    <path id="Elipse_4795" data-name="Elipse 4795" d="M39.136,0A39.136,39.136,0,1,1,0,39.136,39.136,39.136,0,0,1,39.136,0Z" transform="translate(483.333 3111.852)" fill="#9eccef"/>
    <path id="Elipse_4796" data-name="Elipse 4796" d="M39.136,0A39.136,39.136,0,1,1,0,39.136,39.136,39.136,0,0,1,39.136,0Z" transform="translate(333.541 3013.117)" fill="#3da5b3"/>
    <path id="Path_199579" data-name="Path 199579" d="M12.746,8.775H8.973v2.379H13.43V13H6.573V3.047h6.87V4.9H8.973V7h3.773ZM16.417,5.6l.075.868a2.508,2.508,0,0,1,2.112-1,2.11,2.11,0,0,1,1.726.69,3.287,3.287,0,0,1,.591,2.078V13H18.611V8.331a1.248,1.248,0,0,0-.226-.824,1.044,1.044,0,0,0-.82-.263,1.1,1.1,0,0,0-1,.533V13h-2.3V5.6ZM24.88,3.765V5.6H26.1V7.2H24.88v3.384a.864.864,0,0,0,.15.581.807.807,0,0,0,.595.164,3.38,3.38,0,0,0,.574-.041v1.647a4.252,4.252,0,0,1-1.3.2,2.413,2.413,0,0,1-1.757-.561,2.3,2.3,0,0,1-.567-1.7V7.2h-.943V5.6h.943V3.765ZM29.433,13H27.122V5.6h2.311ZM26.985,3.7a1.028,1.028,0,0,1,.355-.807,1.511,1.511,0,0,1,1.846,0,1.028,1.028,0,0,1,.355.807,1.028,1.028,0,0,1-.355.807,1.511,1.511,0,0,1-1.846,0A1.028,1.028,0,0,1,26.985,3.7Zm3.575,5.551a4.518,4.518,0,0,1,.759-2.769,2.5,2.5,0,0,1,2.119-1.012,2.124,2.124,0,0,1,1.668.779V2.5h2.311V13H35.346l-.116-.793a2.181,2.181,0,0,1-1.8.93,2.493,2.493,0,0,1-2.092-1.012A4.661,4.661,0,0,1,30.561,9.247Zm2.3.144q0,1.969,1.148,1.969a1.134,1.134,0,0,0,1.094-.643V7.9a1.1,1.1,0,0,0-1.08-.656q-1.066,0-1.155,1.723ZM42.893,13a2.6,2.6,0,0,1-.219-.663,2.142,2.142,0,0,1-1.777.8,2.624,2.624,0,0,1-1.777-.632,2.013,2.013,0,0,1-.731-1.589A2.069,2.069,0,0,1,39.276,9.1a4.527,4.527,0,0,1,2.584-.615h.711V8.09q0-1.023-.882-1.023a.721.721,0,0,0-.82.811h-2.3a2.065,2.065,0,0,1,.913-1.741,3.835,3.835,0,0,1,2.328-.669,3.363,3.363,0,0,1,2.235.69,2.4,2.4,0,0,1,.841,1.894v3.274a3.353,3.353,0,0,0,.314,1.559V13ZM41.45,11.5a1.285,1.285,0,0,0,.714-.185,1.157,1.157,0,0,0,.407-.417V9.712H41.9q-1.2,0-1.2,1.08a.659.659,0,0,0,.212.509A.767.767,0,0,0,41.45,11.5Zm4.416-2.249a4.518,4.518,0,0,1,.759-2.769,2.5,2.5,0,0,1,2.119-1.012,2.124,2.124,0,0,1,1.668.779V2.5h2.311V13H50.651l-.116-.793a2.181,2.181,0,0,1-1.8.93,2.493,2.493,0,0,1-2.092-1.012A4.662,4.662,0,0,1,45.866,9.247Zm2.3.144q0,1.969,1.148,1.969a1.134,1.134,0,0,0,1.094-.643V7.9a1.1,1.1,0,0,0-1.08-.656q-1.066,0-1.155,1.723Zm9.44,3.746a3.8,3.8,0,0,1-2.755-1.015A3.506,3.506,0,0,1,53.8,9.479V9.288a4.542,4.542,0,0,1,.42-2A3.076,3.076,0,0,1,55.45,5.942a3.7,3.7,0,0,1,1.914-.475,3.2,3.2,0,0,1,2.461.967,3.8,3.8,0,0,1,.9,2.7v.9h-4.58a1.66,1.66,0,0,0,.54.978,1.607,1.607,0,0,0,1.08.355,2.07,2.07,0,0,0,1.709-.766l1.053,1.244a2.943,2.943,0,0,1-1.22.947A4.123,4.123,0,0,1,57.61,13.137Zm-.26-5.893q-1.012,0-1.2,1.34h2.324V8.406a1.141,1.141,0,0,0-.28-.858A1.115,1.115,0,0,0,57.351,7.244Zm8.176,3.678a.532.532,0,0,0-.308-.472,4.679,4.679,0,0,0-1.169-.369,5.33,5.33,0,0,1-1.422-.5,2.382,2.382,0,0,1-.854-.755A1.8,1.8,0,0,1,61.479,7.8a2.044,2.044,0,0,1,.841-1.678,3.464,3.464,0,0,1,2.2-.66,3.837,3.837,0,0,1,2.352.663,2.074,2.074,0,0,1,.889,1.743H65.451q0-.889-.937-.889a.928.928,0,0,0-.608.2.624.624,0,0,0-.246.5.573.573,0,0,0,.3.5,2.842,2.842,0,0,0,.96.314A8.3,8.3,0,0,1,66.08,8.8a2.105,2.105,0,0,1,1.668,2.058,1.937,1.937,0,0,1-.9,1.647,3.942,3.942,0,0,1-2.328.636,4.023,4.023,0,0,1-1.7-.342,2.835,2.835,0,0,1-1.162-.93,2.105,2.105,0,0,1-.417-1.237H63.4a.89.89,0,0,0,.342.749,1.406,1.406,0,0,0,.841.236,1.106,1.106,0,0,0,.708-.191A.612.612,0,0,0,65.526,10.922ZM17.9,25.356a4.46,4.46,0,0,1-.776,2.751,2.488,2.488,0,0,1-2.1,1.029,2.132,2.132,0,0,1-1.675-.745v3.452h-2.3V21.6H13.2l.068.684a2.132,2.132,0,0,1,1.743-.82,2.508,2.508,0,0,1,2.126,1.008,4.515,4.515,0,0,1,.759,2.772Zm-2.3-.144q0-1.969-1.148-1.969a1.084,1.084,0,0,0-1.094.588v2.912a1.119,1.119,0,0,0,1.107.615q1.1,0,1.135-1.9ZM23.318,28.2a2.375,2.375,0,0,1-1.976.937,2.329,2.329,0,0,1-1.842-.708,2.976,2.976,0,0,1-.625-2.034V21.6h2.3v4.806a.828.828,0,0,0,.923.95,1.2,1.2,0,0,0,1.128-.567V21.6h2.317V29h-2.16Zm-.82-9.7h2.434l-1.9,2.146-1.88,0Zm11.177,6.863a4.508,4.508,0,0,1-.752,2.8,2.519,2.519,0,0,1-2.119.978,2.186,2.186,0,0,1-1.818-.9l-.1.759H26.825V18.5h2.3v3.7a2.109,2.109,0,0,1,1.661-.731,2.519,2.519,0,0,1,2.133.991,4.531,4.531,0,0,1,.752,2.789Zm-2.311-.147A3.007,3.007,0,0,0,31.08,23.7a.956.956,0,0,0-.872-.454,1.1,1.1,0,0,0-1.08.594v2.935a1.109,1.109,0,0,0,1.094.587.978.978,0,0,0,1.032-.792A5.685,5.685,0,0,0,31.364,25.216ZM37.12,29H34.809V18.5H37.12Zm3.849,0H38.658V21.6h2.311Zm-2.447-9.3a1.028,1.028,0,0,1,.355-.807,1.511,1.511,0,0,1,1.846,0,1.093,1.093,0,0,1,0,1.613,1.511,1.511,0,0,1-1.846,0A1.028,1.028,0,0,1,38.521,19.7Zm6.993,7.663a1.025,1.025,0,0,0,.752-.263.965.965,0,0,0,.26-.735h2.16a2.557,2.557,0,0,1-.872,2,3.242,3.242,0,0,1-2.246.779,3.283,3.283,0,0,1-2.543-1.012,3.986,3.986,0,0,1-.93-2.8v-.1a4.505,4.505,0,0,1,.414-1.979A3.011,3.011,0,0,1,43.7,21.928a3.557,3.557,0,0,1,1.846-.461,3.2,3.2,0,0,1,2.29.8,2.837,2.837,0,0,1,.848,2.167h-2.16a1.265,1.265,0,0,0-.28-.882.967.967,0,0,0-.752-.308q-.9,0-1.046,1.142a8.055,8.055,0,0,0-.048,1,3.164,3.164,0,0,0,.267,1.545A.923.923,0,0,0,45.514,27.359ZM53.827,29a2.6,2.6,0,0,1-.219-.663,2.142,2.142,0,0,1-1.777.8,2.624,2.624,0,0,1-1.777-.632,2.013,2.013,0,0,1-.731-1.589A2.069,2.069,0,0,1,50.21,25.1a4.527,4.527,0,0,1,2.584-.615h.711V24.09q0-1.023-.882-1.023a.721.721,0,0,0-.82.811H49.5a2.065,2.065,0,0,1,.913-1.741,3.835,3.835,0,0,1,2.328-.669,3.363,3.363,0,0,1,2.235.69,2.4,2.4,0,0,1,.841,1.894v3.274a3.353,3.353,0,0,0,.314,1.559V29Zm-1.442-1.5a1.285,1.285,0,0,0,.714-.185,1.157,1.157,0,0,0,.407-.417V25.712h-.67q-1.2,0-1.2,1.08a.659.659,0,0,0,.212.509A.767.767,0,0,0,52.384,27.5Zm8.579-.574a.532.532,0,0,0-.308-.472,4.679,4.679,0,0,0-1.169-.369,5.33,5.33,0,0,1-1.422-.5,2.382,2.382,0,0,1-.854-.755,1.8,1.8,0,0,1-.294-1.019,2.044,2.044,0,0,1,.841-1.678,3.464,3.464,0,0,1,2.2-.66,3.837,3.837,0,0,1,2.352.663,2.074,2.074,0,0,1,.889,1.743H60.888q0-.889-.937-.889a.928.928,0,0,0-.608.2.624.624,0,0,0-.246.5.573.573,0,0,0,.3.5,2.842,2.842,0,0,0,.96.314,8.3,8.3,0,0,1,1.159.294,2.105,2.105,0,0,1,1.668,2.058,1.937,1.937,0,0,1-.9,1.647,3.942,3.942,0,0,1-2.328.636,4.023,4.023,0,0,1-1.7-.342,2.835,2.835,0,0,1-1.162-.93,2.105,2.105,0,0,1-.417-1.237h2.153a.89.89,0,0,0,.342.749,1.406,1.406,0,0,0,.841.236,1.106,1.106,0,0,0,.708-.191A.612.612,0,0,0,60.963,26.922Z" transform="translate(423 3055)" fill="#12263f"/>
    <path id="Path_199583" data-name="Path 199583" d="M13.611,10.354a.986.986,0,0,0-.373-.82,4.631,4.631,0,0,0-1.309-.608A12.559,12.559,0,0,1,10.4,8.317,2.9,2.9,0,0,1,8.463,5.706a2.342,2.342,0,0,1,.482-1.459,3.117,3.117,0,0,1,1.364-.984,5.307,5.307,0,0,1,1.982-.352,4.642,4.642,0,0,1,1.924.383,3.047,3.047,0,0,1,1.323,1.09A2.847,2.847,0,0,1,16.01,6H13.618a1.2,1.2,0,0,0-.373-.943,1.452,1.452,0,0,0-1.008-.335,1.638,1.638,0,0,0-1.015.284.835.835,0,0,0,.038,1.415,5.172,5.172,0,0,0,1.442.643,8.836,8.836,0,0,1,1.7.714,2.849,2.849,0,0,1,1.613,2.563,2.43,2.43,0,0,1-.984,2.051,4.378,4.378,0,0,1-2.7.745,5.357,5.357,0,0,1-2.191-.434,3.3,3.3,0,0,1-1.477-1.189,3.1,3.1,0,0,1-.5-1.74h2.406a1.526,1.526,0,0,0,.414,1.179,1.955,1.955,0,0,0,1.343.379,1.544,1.544,0,0,0,.94-.256A.846.846,0,0,0,13.611,10.354Zm3.233-1.121a4.366,4.366,0,0,1,.431-1.972,3.08,3.08,0,0,1,1.237-1.33,3.726,3.726,0,0,1,1.894-.465A3.4,3.4,0,0,1,23.024,6.5a3.948,3.948,0,0,1,.957,2.8v.082a3.83,3.83,0,0,1-.96,2.745,3.41,3.41,0,0,1-2.6,1.015,3.449,3.449,0,0,1-2.536-.947,3.7,3.7,0,0,1-1.032-2.567Zm2.3.144a2.752,2.752,0,0,0,.321,1.5,1.07,1.07,0,0,0,.95.479q1.23,0,1.258-1.894V9.233q0-1.989-1.271-1.989-1.155,0-1.251,1.716Zm8.976,1.982a1.025,1.025,0,0,0,.752-.263.965.965,0,0,0,.26-.735H31.3a2.557,2.557,0,0,1-.872,2,3.242,3.242,0,0,1-2.246.779,3.282,3.282,0,0,1-2.543-1.012,3.986,3.986,0,0,1-.93-2.8v-.1a4.505,4.505,0,0,1,.414-1.979,3.011,3.011,0,0,1,1.193-1.319,3.557,3.557,0,0,1,1.846-.461,3.2,3.2,0,0,1,2.29.8A2.837,2.837,0,0,1,31.3,8.434h-2.16a1.265,1.265,0,0,0-.28-.882.967.967,0,0,0-.752-.308q-.9,0-1.046,1.142a8.056,8.056,0,0,0-.048,1,3.164,3.164,0,0,0,.267,1.545A.923.923,0,0,0,28.124,11.359ZM34.7,13H32.389V5.6H34.7ZM32.252,3.7a1.028,1.028,0,0,1,.355-.807,1.511,1.511,0,0,1,1.846,0,1.028,1.028,0,0,1,.355.807,1.028,1.028,0,0,1-.355.807,1.511,1.511,0,0,1-1.846,0A1.028,1.028,0,0,1,32.252,3.7Zm7.444,9.44a3.8,3.8,0,0,1-2.755-1.015,3.506,3.506,0,0,1-1.053-2.642V9.288a4.542,4.542,0,0,1,.42-2,3.076,3.076,0,0,1,1.227-1.343,3.7,3.7,0,0,1,1.914-.475,3.2,3.2,0,0,1,2.461.967,3.8,3.8,0,0,1,.9,2.7v.9h-4.58a1.66,1.66,0,0,0,.54.978,1.607,1.607,0,0,0,1.08.355,2.07,2.07,0,0,0,1.709-.766l1.053,1.244a2.943,2.943,0,0,1-1.22.947A4.123,4.123,0,0,1,39.7,13.137Zm-.26-5.893q-1.012,0-1.2,1.34h2.324V8.406a1.141,1.141,0,0,0-.28-.858A1.115,1.115,0,0,0,39.437,7.244Zm4.013,2a4.518,4.518,0,0,1,.759-2.769,2.5,2.5,0,0,1,2.119-1.012A2.124,2.124,0,0,1,48,6.246V2.5h2.311V13H48.235l-.116-.793a2.181,2.181,0,0,1-1.8.93,2.493,2.493,0,0,1-2.092-1.012A4.662,4.662,0,0,1,43.45,9.247Zm2.3.144q0,1.969,1.148,1.969A1.134,1.134,0,0,0,48,10.717V7.9a1.1,1.1,0,0,0-1.08-.656q-1.066,0-1.155,1.723ZM55.782,13a2.6,2.6,0,0,1-.219-.663,2.142,2.142,0,0,1-1.777.8,2.624,2.624,0,0,1-1.777-.632,2.013,2.013,0,0,1-.731-1.589A2.069,2.069,0,0,1,52.166,9.1a4.527,4.527,0,0,1,2.584-.615h.711V8.09q0-1.023-.882-1.023a.721.721,0,0,0-.82.811h-2.3a2.065,2.065,0,0,1,.913-1.741,3.835,3.835,0,0,1,2.328-.669,3.363,3.363,0,0,1,2.235.69,2.4,2.4,0,0,1,.841,1.894v3.274a3.353,3.353,0,0,0,.314,1.559V13Zm-1.442-1.5a1.285,1.285,0,0,0,.714-.185,1.157,1.157,0,0,0,.407-.417V9.712h-.67q-1.2,0-1.2,1.08a.659.659,0,0,0,.212.509A.767.767,0,0,0,54.339,11.5Zm4.416-2.249a4.518,4.518,0,0,1,.759-2.769,2.5,2.5,0,0,1,2.119-1.012,2.124,2.124,0,0,1,1.668.779V2.5h2.311V13H63.541l-.116-.793a2.181,2.181,0,0,1-1.8.93,2.493,2.493,0,0,1-2.092-1.012A4.662,4.662,0,0,1,58.755,9.247Zm2.3.144q0,1.969,1.148,1.969a1.134,1.134,0,0,0,1.094-.643V7.9a1.1,1.1,0,0,0-1.08-.656q-1.066,0-1.155,1.723ZM27.748,27.359A1.025,1.025,0,0,0,28.5,27.1a.965.965,0,0,0,.26-.735h2.16a2.557,2.557,0,0,1-.872,2,3.242,3.242,0,0,1-2.246.779,3.282,3.282,0,0,1-2.543-1.012,3.986,3.986,0,0,1-.93-2.8v-.1a4.505,4.505,0,0,1,.414-1.979,3.011,3.011,0,0,1,1.193-1.319,3.557,3.557,0,0,1,1.846-.461,3.2,3.2,0,0,1,2.29.8,2.837,2.837,0,0,1,.848,2.167h-2.16a1.265,1.265,0,0,0-.28-.882.967.967,0,0,0-.752-.308q-.9,0-1.046,1.142a8.056,8.056,0,0,0-.048,1,3.164,3.164,0,0,0,.267,1.545A.923.923,0,0,0,27.748,27.359ZM34.324,29H32.013V21.6h2.311Zm-2.447-9.3a1.028,1.028,0,0,1,.355-.807,1.511,1.511,0,0,1,1.846,0,1.093,1.093,0,0,1,0,1.613,1.511,1.511,0,0,1-1.846,0A1.028,1.028,0,0,1,31.876,19.7Zm6.815,6.563L39.861,21.6h2.427L39.875,29H37.523L35.11,21.6h2.434ZM45.4,29H43.094V21.6H45.4Zm-2.447-9.3a1.028,1.028,0,0,1,.355-.807,1.511,1.511,0,0,1,1.846,0,1.093,1.093,0,0,1,0,1.613,1.511,1.511,0,0,1-1.846,0A1.028,1.028,0,0,1,42.958,19.7Zm6.3,9.3H46.943V18.5h2.311Z" transform="translate(207 3254)" fill="#12263f"/>
    <path id="Path_199580" data-name="Path 199580" d="M7.756,9.623V13h-2.4V3.047H9.328a4.626,4.626,0,0,1,2.02.42,3.168,3.168,0,0,1,1.36,1.2,3.267,3.267,0,0,1,.482,1.76,2.88,2.88,0,0,1-1.042,2.328,4.326,4.326,0,0,1-2.861.872Zm0-1.853H9.328a1.483,1.483,0,0,0,1.063-.349,1.3,1.3,0,0,0,.366-.984,1.6,1.6,0,0,0-.376-1.114A1.331,1.331,0,0,0,9.355,4.9h-1.6Zm10.1,5.366A3.8,3.8,0,0,1,15.1,12.122a3.506,3.506,0,0,1-1.053-2.642V9.288a4.542,4.542,0,0,1,.42-2,3.076,3.076,0,0,1,1.227-1.343,3.7,3.7,0,0,1,1.914-.475,3.2,3.2,0,0,1,2.461.967,3.8,3.8,0,0,1,.9,2.7v.9H16.39a1.66,1.66,0,0,0,.54.978,1.607,1.607,0,0,0,1.08.355,2.07,2.07,0,0,0,1.709-.766l1.053,1.244a2.943,2.943,0,0,1-1.22.947A4.124,4.124,0,0,1,17.853,13.137Zm-.26-5.893q-1.012,0-1.2,1.34h2.324V8.406a1.141,1.141,0,0,0-.28-.858A1.115,1.115,0,0,0,17.593,7.244Zm8.777.444-.759-.055a1.363,1.363,0,0,0-1.395.684V13h-2.3V5.6h2.16l.075.95a1.784,1.784,0,0,1,1.62-1.087,2.247,2.247,0,0,1,.643.082ZM29.631,13H27.32V5.6h2.311ZM27.184,3.7a1.028,1.028,0,0,1,.355-.807,1.511,1.511,0,0,1,1.846,0,1.028,1.028,0,0,1,.355.807,1.028,1.028,0,0,1-.355.807,1.511,1.511,0,0,1-1.846,0A1.028,1.028,0,0,1,27.184,3.7Zm3.575,5.537a4.366,4.366,0,0,1,.431-1.972,3.08,3.08,0,0,1,1.237-1.33,3.726,3.726,0,0,1,1.894-.465A3.4,3.4,0,0,1,36.938,6.5a3.948,3.948,0,0,1,.957,2.8v.082a3.83,3.83,0,0,1-.96,2.745,3.41,3.41,0,0,1-2.6,1.015A3.449,3.449,0,0,1,31.8,12.19a3.7,3.7,0,0,1-1.032-2.567Zm2.3.144a2.752,2.752,0,0,0,.321,1.5,1.07,1.07,0,0,0,.95.479q1.23,0,1.258-1.894V9.233q0-1.989-1.271-1.989-1.155,0-1.251,1.716Zm5.558-.13a4.518,4.518,0,0,1,.759-2.769A2.5,2.5,0,0,1,41.5,5.467a2.124,2.124,0,0,1,1.668.779V2.5h2.311V13H43.405l-.116-.793a2.181,2.181,0,0,1-1.8.93,2.493,2.493,0,0,1-2.092-1.012A4.662,4.662,0,0,1,38.62,9.247Zm2.3.144q0,1.969,1.148,1.969a1.134,1.134,0,0,0,1.094-.643V7.9a1.1,1.1,0,0,0-1.08-.656q-1.066,0-1.155,1.723ZM49.216,13H46.905V5.6h2.311ZM46.769,3.7a1.028,1.028,0,0,1,.355-.807,1.511,1.511,0,0,1,1.846,0,1.028,1.028,0,0,1,.355.807,1.028,1.028,0,0,1-.355.807,1.511,1.511,0,0,1-1.846,0A1.028,1.028,0,0,1,46.769,3.7Zm7.738,7.226a.532.532,0,0,0-.308-.472,4.679,4.679,0,0,0-1.169-.369,5.33,5.33,0,0,1-1.422-.5,2.382,2.382,0,0,1-.854-.755A1.8,1.8,0,0,1,50.46,7.8,2.044,2.044,0,0,1,51.3,6.126a3.464,3.464,0,0,1,2.2-.66,3.837,3.837,0,0,1,2.352.663,2.074,2.074,0,0,1,.889,1.743H54.432q0-.889-.937-.889a.928.928,0,0,0-.608.2.624.624,0,0,0-.246.5.573.573,0,0,0,.3.5,2.842,2.842,0,0,0,.96.314,8.3,8.3,0,0,1,1.159.294,2.105,2.105,0,0,1,1.668,2.058,1.937,1.937,0,0,1-.9,1.647,3.942,3.942,0,0,1-2.328.636,4.023,4.023,0,0,1-1.7-.342,2.835,2.835,0,0,1-1.162-.93,2.105,2.105,0,0,1-.417-1.237h2.153a.89.89,0,0,0,.342.749,1.406,1.406,0,0,0,.841.236,1.106,1.106,0,0,0,.708-.191A.612.612,0,0,0,54.507,10.922Zm5.981-7.157V5.6h1.217V7.2H60.488v3.384a.864.864,0,0,0,.15.581.807.807,0,0,0,.595.164,3.38,3.38,0,0,0,.574-.041v1.647a4.252,4.252,0,0,1-1.3.2,2.413,2.413,0,0,1-1.757-.561,2.3,2.3,0,0,1-.567-1.7V7.2h-.943V5.6h.943V3.765ZM66.777,13a2.6,2.6,0,0,1-.219-.663,2.142,2.142,0,0,1-1.777.8A2.624,2.624,0,0,1,63,12.5a2.013,2.013,0,0,1-.731-1.589A2.069,2.069,0,0,1,63.161,9.1a4.527,4.527,0,0,1,2.584-.615h.711V8.09q0-1.023-.882-1.023a.721.721,0,0,0-.82.811h-2.3a2.065,2.065,0,0,1,.913-1.741,3.835,3.835,0,0,1,2.328-.669,3.363,3.363,0,0,1,2.235.69,2.4,2.4,0,0,1,.841,1.894v3.274a3.353,3.353,0,0,0,.314,1.559V13Zm-1.442-1.5a1.285,1.285,0,0,0,.714-.185,1.157,1.157,0,0,0,.407-.417V9.712h-.67q-1.2,0-1.2,1.08a.659.659,0,0,0,.212.509A.767.767,0,0,0,65.335,11.5Z" transform="translate(232 3089)" fill="#fff"/>
    <path id="Path_199582" data-name="Path 199582" d="M11.868,11.141H8.58L8.005,13H5.442l3.65-9.953h2.256L15.026,13H12.449ZM9.154,9.288h2.14L10.22,5.836Zm9.618,2.071a1.025,1.025,0,0,0,.752-.263.965.965,0,0,0,.26-.735h2.16a2.557,2.557,0,0,1-.872,2,3.242,3.242,0,0,1-2.246.779,3.282,3.282,0,0,1-2.543-1.012,3.986,3.986,0,0,1-.93-2.8v-.1a4.505,4.505,0,0,1,.414-1.979A3.011,3.011,0,0,1,16.96,5.928a3.557,3.557,0,0,1,1.846-.461,3.2,3.2,0,0,1,2.29.8,2.837,2.837,0,0,1,.848,2.167h-2.16a1.265,1.265,0,0,0-.28-.882.967.967,0,0,0-.752-.308q-.9,0-1.046,1.142a8.056,8.056,0,0,0-.048,1,3.164,3.164,0,0,0,.267,1.545A.923.923,0,0,0,18.772,11.359ZM27.084,13a2.6,2.6,0,0,1-.219-.663,2.142,2.142,0,0,1-1.777.8,2.624,2.624,0,0,1-1.777-.632,2.013,2.013,0,0,1-.731-1.589A2.069,2.069,0,0,1,23.468,9.1a4.527,4.527,0,0,1,2.584-.615h.711V8.09q0-1.023-.882-1.023a.721.721,0,0,0-.82.811h-2.3a2.065,2.065,0,0,1,.913-1.741A3.835,3.835,0,0,1,26,5.467a3.363,3.363,0,0,1,2.235.69,2.4,2.4,0,0,1,.841,1.894v3.274a3.353,3.353,0,0,0,.314,1.559V13Zm-1.442-1.5a1.285,1.285,0,0,0,.714-.185,1.157,1.157,0,0,0,.407-.417V9.712h-.67q-1.2,0-1.2,1.08a.659.659,0,0,0,.212.509A.767.767,0,0,0,25.642,11.5Zm4.416-2.249a4.518,4.518,0,0,1,.759-2.769,2.5,2.5,0,0,1,2.119-1.012,2.124,2.124,0,0,1,1.668.779V2.5h2.311V13H34.843l-.116-.793a2.181,2.181,0,0,1-1.8.93,2.493,2.493,0,0,1-2.092-1.012A4.661,4.661,0,0,1,30.058,9.247Zm2.3.144q0,1.969,1.148,1.969a1.134,1.134,0,0,0,1.094-.643V7.9a1.1,1.1,0,0,0-1.08-.656q-1.066,0-1.155,1.723Zm9.44,3.746a3.8,3.8,0,0,1-2.755-1.015,3.506,3.506,0,0,1-1.053-2.642V9.288a4.542,4.542,0,0,1,.42-2,3.076,3.076,0,0,1,1.227-1.343,3.7,3.7,0,0,1,1.914-.475,3.2,3.2,0,0,1,2.461.967,3.8,3.8,0,0,1,.9,2.7v.9h-4.58a1.66,1.66,0,0,0,.54.978,1.607,1.607,0,0,0,1.08.355,2.07,2.07,0,0,0,1.709-.766l1.053,1.244a2.943,2.943,0,0,1-1.22.947A4.123,4.123,0,0,1,41.8,13.137Zm-.26-5.893q-1.012,0-1.2,1.34h2.324V8.406a1.141,1.141,0,0,0-.28-.858A1.115,1.115,0,0,0,41.542,7.244ZM48.023,5.6l.075.868a2.543,2.543,0,0,1,2.112-1A1.872,1.872,0,0,1,52.1,6.581a2.462,2.462,0,0,1,2.174-1.114q2.249,0,2.311,2.721V13H54.278V8.331a1.41,1.41,0,0,0-.191-.827.815.815,0,0,0-.7-.26,1.091,1.091,0,0,0-1.019.608l.007.1V13H50.067V8.345a1.482,1.482,0,0,0-.185-.841.812.812,0,0,0-.7-.26,1.1,1.1,0,0,0-1.012.608V13h-2.3V5.6ZM60.334,13H58.024V5.6h2.311ZM57.887,3.7a1.028,1.028,0,0,1,.355-.807,1.511,1.511,0,0,1,1.846,0,1.028,1.028,0,0,1,.355.807,1.028,1.028,0,0,1-.355.807,1.511,1.511,0,0,1-1.846,0A1.028,1.028,0,0,1,57.887,3.7ZM65.919,13a2.6,2.6,0,0,1-.219-.663,2.142,2.142,0,0,1-1.777.8,2.624,2.624,0,0,1-1.777-.632,2.013,2.013,0,0,1-.731-1.589A2.069,2.069,0,0,1,62.3,9.1a4.527,4.527,0,0,1,2.584-.615H65.6V8.09q0-1.023-.882-1.023a.721.721,0,0,0-.82.811h-2.3A2.065,2.065,0,0,1,62.5,6.136a3.835,3.835,0,0,1,2.328-.669,3.363,3.363,0,0,1,2.235.69,2.4,2.4,0,0,1,.841,1.894v3.274a3.353,3.353,0,0,0,.314,1.559V13Zm-1.442-1.5a1.285,1.285,0,0,0,.714-.185,1.157,1.157,0,0,0,.407-.417V9.712h-.67q-1.2,0-1.2,1.08a.659.659,0,0,0,.212.509A.767.767,0,0,0,64.477,11.5Z" transform="translate(496 3205)" fill="#12263f"/>
    <path id="Path_199584" data-name="Path 199584" d="M1.086,13V3.047H4.292a4.716,4.716,0,0,1,2.372.6A4.2,4.2,0,0,1,8.309,5.333a5.1,5.1,0,0,1,.6,2.444v.458a5.127,5.127,0,0,1-.578,2.451,4.223,4.223,0,0,1-1.627,1.7A4.612,4.612,0,0,1,4.361,13Zm2.4-8.1v6.255H4.32a1.867,1.867,0,0,0,1.586-.735,3.6,3.6,0,0,0,.554-2.184V7.8a3.572,3.572,0,0,0-.554-2.174A1.9,1.9,0,0,0,4.292,4.9ZM13.61,13.137a3.8,3.8,0,0,1-2.755-1.015A3.506,3.506,0,0,1,9.8,9.479V9.288a4.542,4.542,0,0,1,.42-2A3.076,3.076,0,0,1,11.45,5.942a3.7,3.7,0,0,1,1.914-.475,3.2,3.2,0,0,1,2.461.967,3.8,3.8,0,0,1,.9,2.7v.9h-4.58a1.66,1.66,0,0,0,.54.978,1.607,1.607,0,0,0,1.08.355,2.07,2.07,0,0,0,1.709-.766l1.053,1.244a2.943,2.943,0,0,1-1.22.947A4.123,4.123,0,0,1,13.61,13.137Zm-.26-5.893q-1.012,0-1.2,1.34h2.324V8.406a1.141,1.141,0,0,0-.28-.858A1.115,1.115,0,0,0,13.35,7.244Zm8.176,3.678a.532.532,0,0,0-.308-.472,4.679,4.679,0,0,0-1.169-.369,5.33,5.33,0,0,1-1.422-.5,2.382,2.382,0,0,1-.854-.755A1.8,1.8,0,0,1,17.479,7.8a2.044,2.044,0,0,1,.841-1.678,3.464,3.464,0,0,1,2.2-.66,3.837,3.837,0,0,1,2.352.663,2.074,2.074,0,0,1,.889,1.743H21.451q0-.889-.937-.889a.928.928,0,0,0-.608.2.624.624,0,0,0-.246.5.573.573,0,0,0,.3.5,2.842,2.842,0,0,0,.96.314A8.3,8.3,0,0,1,22.08,8.8a2.105,2.105,0,0,1,1.668,2.058,1.937,1.937,0,0,1-.9,1.647,3.942,3.942,0,0,1-2.328.636,4.023,4.023,0,0,1-1.7-.342,2.835,2.835,0,0,1-1.162-.93,2.105,2.105,0,0,1-.417-1.237H19.4a.89.89,0,0,0,.342.749,1.406,1.406,0,0,0,.841.236,1.106,1.106,0,0,0,.708-.191A.612.612,0,0,0,21.526,10.922ZM28.991,13a2.6,2.6,0,0,1-.219-.663,2.142,2.142,0,0,1-1.777.8,2.624,2.624,0,0,1-1.777-.632,2.013,2.013,0,0,1-.731-1.589A2.069,2.069,0,0,1,25.375,9.1a4.527,4.527,0,0,1,2.584-.615h.711V8.09q0-1.023-.882-1.023a.721.721,0,0,0-.82.811h-2.3a2.065,2.065,0,0,1,.913-1.741A3.835,3.835,0,0,1,27.9,5.467a3.363,3.363,0,0,1,2.235.69,2.4,2.4,0,0,1,.841,1.894v3.274a3.353,3.353,0,0,0,.314,1.559V13Zm-1.442-1.5a1.285,1.285,0,0,0,.714-.185,1.157,1.157,0,0,0,.407-.417V9.712H28q-1.2,0-1.2,1.08a.659.659,0,0,0,.212.509A.767.767,0,0,0,27.548,11.5Zm9.181-3.808-.759-.055a1.363,1.363,0,0,0-1.395.684V13h-2.3V5.6h2.16l.075.95a1.784,1.784,0,0,1,1.62-1.087,2.247,2.247,0,0,1,.643.082Zm5.3,0-.759-.055a1.363,1.363,0,0,0-1.395.684V13h-2.3V5.6h2.16l.075.95a1.784,1.784,0,0,1,1.62-1.087,2.247,2.247,0,0,1,.643.082Zm.294,1.545a4.366,4.366,0,0,1,.431-1.972A3.08,3.08,0,0,1,44,5.932a3.726,3.726,0,0,1,1.894-.465A3.4,3.4,0,0,1,48.507,6.5a3.948,3.948,0,0,1,.957,2.8v.082a3.83,3.83,0,0,1-.96,2.745,3.41,3.41,0,0,1-2.6,1.015,3.449,3.449,0,0,1-2.536-.947,3.7,3.7,0,0,1-1.032-2.567Zm2.3.144a2.752,2.752,0,0,0,.321,1.5,1.07,1.07,0,0,0,.95.479q1.23,0,1.258-1.894V9.233q0-1.989-1.271-1.989-1.155,0-1.251,1.716ZM52.91,13H50.6V2.5H52.91Zm3.849,0H54.448V2.5h2.311Zm5.585,0a2.6,2.6,0,0,1-.219-.663,2.142,2.142,0,0,1-1.777.8A2.624,2.624,0,0,1,58.57,12.5a2.013,2.013,0,0,1-.731-1.589A2.069,2.069,0,0,1,58.727,9.1a4.527,4.527,0,0,1,2.584-.615h.711V8.09q0-1.023-.882-1.023a.721.721,0,0,0-.82.811h-2.3a2.065,2.065,0,0,1,.913-1.741,3.835,3.835,0,0,1,2.328-.669,3.363,3.363,0,0,1,2.235.69,2.4,2.4,0,0,1,.841,1.894v3.274a3.353,3.353,0,0,0,.314,1.559V13ZM60.9,11.5a1.285,1.285,0,0,0,.714-.185,1.157,1.157,0,0,0,.407-.417V9.712h-.67q-1.2,0-1.2,1.08a.659.659,0,0,0,.212.509A.767.767,0,0,0,60.9,11.5Zm4.416-2.249a4.518,4.518,0,0,1,.759-2.769,2.5,2.5,0,0,1,2.119-1.012,2.124,2.124,0,0,1,1.668.779V2.5h2.311V13H70.1l-.116-.793a2.181,2.181,0,0,1-1.8.93,2.493,2.493,0,0,1-2.092-1.012A4.661,4.661,0,0,1,65.317,9.247Zm2.3.144q0,1.969,1.148,1.969a1.134,1.134,0,0,0,1.094-.643V7.9a1.1,1.1,0,0,0-1.08-.656q-1.066,0-1.155,1.723Zm5.571-.157a4.366,4.366,0,0,1,.431-1.972,3.08,3.08,0,0,1,1.237-1.33,3.726,3.726,0,0,1,1.894-.465A3.4,3.4,0,0,1,79.372,6.5a3.948,3.948,0,0,1,.957,2.8v.082a3.83,3.83,0,0,1-.96,2.745,3.41,3.41,0,0,1-2.6,1.015,3.449,3.449,0,0,1-2.536-.947A3.7,3.7,0,0,1,73.2,9.623Zm2.3.144a2.752,2.752,0,0,0,.321,1.5,1.07,1.07,0,0,0,.95.479q1.23,0,1.258-1.894V9.233q0-1.989-1.271-1.989Q75.6,7.244,75.5,8.96ZM85.818,7.688l-.759-.055a1.363,1.363,0,0,0-1.395.684V13h-2.3V5.6h2.16l.075.95a1.784,1.784,0,0,1,1.62-1.087,2.246,2.246,0,0,1,.643.082ZM90.1,13.137a3.8,3.8,0,0,1-2.755-1.015A3.506,3.506,0,0,1,86.29,9.479V9.288a4.542,4.542,0,0,1,.42-2,3.076,3.076,0,0,1,1.227-1.343,3.7,3.7,0,0,1,1.914-.475,3.2,3.2,0,0,1,2.461.967,3.8,3.8,0,0,1,.9,2.7v.9h-4.58a1.66,1.66,0,0,0,.54.978,1.607,1.607,0,0,0,1.08.355,2.07,2.07,0,0,0,1.709-.766l1.053,1.244a2.943,2.943,0,0,1-1.22.947A4.124,4.124,0,0,1,90.1,13.137Zm-.26-5.893q-1.012,0-1.2,1.34h2.324V8.406a1.141,1.141,0,0,0-.28-.858A1.115,1.115,0,0,0,89.837,7.244Zm8.176,3.678a.532.532,0,0,0-.308-.472,4.679,4.679,0,0,0-1.169-.369,5.33,5.33,0,0,1-1.422-.5,2.382,2.382,0,0,1-.854-.755A1.8,1.8,0,0,1,93.966,7.8a2.044,2.044,0,0,1,.841-1.678,3.464,3.464,0,0,1,2.2-.66,3.837,3.837,0,0,1,2.352.663,2.074,2.074,0,0,1,.889,1.743H97.938q0-.889-.937-.889a.928.928,0,0,0-.608.2.624.624,0,0,0-.246.5.573.573,0,0,0,.3.5,2.842,2.842,0,0,0,.96.314,8.3,8.3,0,0,1,1.159.294,2.105,2.105,0,0,1,1.668,2.058,1.937,1.937,0,0,1-.9,1.647,3.942,3.942,0,0,1-2.328.636,4.023,4.023,0,0,1-1.7-.342,2.835,2.835,0,0,1-1.162-.93,2.105,2.105,0,0,1-.417-1.237h2.153a.89.89,0,0,0,.342.749,1.406,1.406,0,0,0,.841.236,1.106,1.106,0,0,0,.708-.191A.612.612,0,0,0,98.013,10.922Z" transform="translate(353 3360)" fill="#fff"/>
    <path id="Path_199581" data-name="Path 199581" d="M32.217,8.775H28.443v2.379H32.9V13H26.044V3.047h6.87V4.9H28.443V7h3.773Zm4.553,2.584a1.025,1.025,0,0,0,.752-.263.965.965,0,0,0,.26-.735h2.16a2.557,2.557,0,0,1-.872,2,3.242,3.242,0,0,1-2.246.779,3.282,3.282,0,0,1-2.543-1.012,3.986,3.986,0,0,1-.93-2.8v-.1a4.505,4.505,0,0,1,.414-1.979,3.011,3.011,0,0,1,1.193-1.319A3.557,3.557,0,0,1,36.8,5.467a3.2,3.2,0,0,1,2.29.8,2.837,2.837,0,0,1,.848,2.167h-2.16a1.265,1.265,0,0,0-.28-.882.967.967,0,0,0-.752-.308q-.9,0-1.046,1.142a8.055,8.055,0,0,0-.048,1,3.164,3.164,0,0,0,.267,1.545A.923.923,0,0,0,36.77,11.359Zm3.855-2.126a4.366,4.366,0,0,1,.431-1.972,3.08,3.08,0,0,1,1.237-1.33,3.726,3.726,0,0,1,1.894-.465A3.4,3.4,0,0,1,46.8,6.5a3.948,3.948,0,0,1,.957,2.8v.082a3.83,3.83,0,0,1-.96,2.745,3.41,3.41,0,0,1-2.6,1.015,3.449,3.449,0,0,1-2.536-.947,3.7,3.7,0,0,1-1.032-2.567Zm2.3.144a2.752,2.752,0,0,0,.321,1.5,1.07,1.07,0,0,0,.95.479q1.23,0,1.258-1.894V9.233q0-1.989-1.271-1.989-1.155,0-1.251,1.716Zm9.721,1.545a.532.532,0,0,0-.308-.472,4.679,4.679,0,0,0-1.169-.369,5.33,5.33,0,0,1-1.422-.5,2.382,2.382,0,0,1-.854-.755A1.8,1.8,0,0,1,48.6,7.8a2.044,2.044,0,0,1,.841-1.678,3.464,3.464,0,0,1,2.2-.66A3.837,3.837,0,0,1,54,6.13a2.074,2.074,0,0,1,.889,1.743H52.574q0-.889-.937-.889a.928.928,0,0,0-.608.2.624.624,0,0,0-.246.5.573.573,0,0,0,.3.5,2.842,2.842,0,0,0,.96.314A8.3,8.3,0,0,1,53.2,8.8a2.105,2.105,0,0,1,1.668,2.058,1.937,1.937,0,0,1-.9,1.647,3.942,3.942,0,0,1-2.328.636,4.023,4.023,0,0,1-1.7-.342,2.835,2.835,0,0,1-1.162-.93,2.105,2.105,0,0,1-.417-1.237h2.153a.89.89,0,0,0,.342.749,1.406,1.406,0,0,0,.841.236,1.106,1.106,0,0,0,.708-.191A.612.612,0,0,0,52.649,10.922ZM58.378,13H56.067V5.6h2.311ZM55.931,3.7a1.028,1.028,0,0,1,.355-.807,1.511,1.511,0,0,1,1.846,0,1.028,1.028,0,0,1,.355.807,1.028,1.028,0,0,1-.355.807,1.511,1.511,0,0,1-1.846,0A1.028,1.028,0,0,1,55.931,3.7Zm7.738,7.226a.532.532,0,0,0-.308-.472,4.679,4.679,0,0,0-1.169-.369,5.33,5.33,0,0,1-1.422-.5,2.382,2.382,0,0,1-.854-.755A1.8,1.8,0,0,1,59.622,7.8a2.044,2.044,0,0,1,.841-1.678,3.464,3.464,0,0,1,2.2-.66,3.837,3.837,0,0,1,2.352.663A2.074,2.074,0,0,1,65.9,7.873H63.594q0-.889-.937-.889a.928.928,0,0,0-.608.2.624.624,0,0,0-.246.5.573.573,0,0,0,.3.5,2.842,2.842,0,0,0,.96.314,8.3,8.3,0,0,1,1.159.294,2.105,2.105,0,0,1,1.668,2.058,1.937,1.937,0,0,1-.9,1.647,3.942,3.942,0,0,1-2.328.636,4.023,4.023,0,0,1-1.7-.342,2.835,2.835,0,0,1-1.162-.93,2.105,2.105,0,0,1-.417-1.237h2.153a.89.89,0,0,0,.342.749,1.406,1.406,0,0,0,.841.236,1.106,1.106,0,0,0,.708-.191A.612.612,0,0,0,63.669,10.922ZM69.65,3.765V5.6h1.217V7.2H69.65v3.384a.864.864,0,0,0,.15.581.807.807,0,0,0,.595.164,3.379,3.379,0,0,0,.574-.041v1.647a4.252,4.252,0,0,1-1.3.2,2.413,2.413,0,0,1-1.757-.561,2.3,2.3,0,0,1-.567-1.7V7.2H66.4V5.6h.943V3.765Zm5.7,9.372A3.8,3.8,0,0,1,72.6,12.122a3.506,3.506,0,0,1-1.053-2.642V9.288a4.542,4.542,0,0,1,.42-2,3.076,3.076,0,0,1,1.227-1.343,3.7,3.7,0,0,1,1.914-.475,3.2,3.2,0,0,1,2.461.967,3.8,3.8,0,0,1,.9,2.7v.9h-4.58a1.66,1.66,0,0,0,.54.978,1.607,1.607,0,0,0,1.08.355,2.07,2.07,0,0,0,1.709-.766l1.053,1.244a2.943,2.943,0,0,1-1.22.947A4.124,4.124,0,0,1,75.352,13.137Zm-.26-5.893q-1.012,0-1.2,1.34h2.324V8.406a1.141,1.141,0,0,0-.28-.858A1.115,1.115,0,0,0,75.092,7.244ZM81.572,5.6l.075.868a2.543,2.543,0,0,1,2.112-1,1.872,1.872,0,0,1,1.894,1.114,2.462,2.462,0,0,1,2.174-1.114q2.249,0,2.311,2.721V13H87.827V8.331a1.41,1.41,0,0,0-.191-.827.815.815,0,0,0-.7-.26,1.091,1.091,0,0,0-1.019.608l.007.1V13H83.616V8.345a1.482,1.482,0,0,0-.185-.841.812.812,0,0,0-.7-.26,1.1,1.1,0,0,0-1.012.608V13h-2.3V5.6ZM95.62,13a2.6,2.6,0,0,1-.219-.663,2.142,2.142,0,0,1-1.777.8,2.624,2.624,0,0,1-1.777-.632,2.013,2.013,0,0,1-.731-1.589A2.069,2.069,0,0,1,92,9.1a4.527,4.527,0,0,1,2.584-.615H95.3V8.09q0-1.023-.882-1.023a.721.721,0,0,0-.82.811h-2.3a2.065,2.065,0,0,1,.913-1.741,3.835,3.835,0,0,1,2.328-.669,3.363,3.363,0,0,1,2.235.69,2.4,2.4,0,0,1,.841,1.894v3.274a3.353,3.353,0,0,0,.314,1.559V13Zm-1.442-1.5a1.285,1.285,0,0,0,.714-.185,1.157,1.157,0,0,0,.407-.417V9.712h-.67q-1.2,0-1.2,1.08a.659.659,0,0,0,.212.509A.767.767,0,0,0,94.178,11.5Zm11.389-2.249a4.518,4.518,0,0,1,.759-2.769,2.5,2.5,0,0,1,2.119-1.012,2.124,2.124,0,0,1,1.668.779V2.5h2.311V13h-2.071l-.116-.793a2.181,2.181,0,0,1-1.8.93,2.493,2.493,0,0,1-2.092-1.012A4.661,4.661,0,0,1,105.566,9.247Zm2.3.144q0,1.969,1.148,1.969a1.134,1.134,0,0,0,1.094-.643V7.9a1.1,1.1,0,0,0-1.08-.656q-1.066,0-1.155,1.723Zm9.44,3.746a3.8,3.8,0,0,1-2.755-1.015A3.506,3.506,0,0,1,113.5,9.479V9.288a4.542,4.542,0,0,1,.42-2,3.076,3.076,0,0,1,1.227-1.343,3.7,3.7,0,0,1,1.914-.475,3.2,3.2,0,0,1,2.461.967,3.8,3.8,0,0,1,.9,2.7v.9h-4.58a1.66,1.66,0,0,0,.54.978,1.607,1.607,0,0,0,1.08.355,2.07,2.07,0,0,0,1.709-.766l1.053,1.244a2.943,2.943,0,0,1-1.22.947A4.124,4.124,0,0,1,117.311,13.137Zm-.26-5.893q-1.012,0-1.2,1.34h2.324V8.406a1.141,1.141,0,0,0-.28-.858A1.115,1.115,0,0,0,117.051,7.244ZM25.542,29a2.6,2.6,0,0,1-.219-.663,2.142,2.142,0,0,1-1.777.8,2.624,2.624,0,0,1-1.777-.632,2.013,2.013,0,0,1-.731-1.589,2.069,2.069,0,0,1,.889-1.818,4.527,4.527,0,0,1,2.584-.615h.711V24.09q0-1.023-.882-1.023a.721.721,0,0,0-.82.811h-2.3a2.065,2.065,0,0,1,.913-1.741,3.835,3.835,0,0,1,2.328-.669,3.363,3.363,0,0,1,2.235.69,2.4,2.4,0,0,1,.841,1.894v3.274a3.353,3.353,0,0,0,.314,1.559V29ZM24.1,27.5a1.285,1.285,0,0,0,.714-.185,1.157,1.157,0,0,0,.407-.417V25.712h-.67q-1.2,0-1.2,1.08a.659.659,0,0,0,.212.509A.767.767,0,0,0,24.1,27.5Zm7.834-.137a1.025,1.025,0,0,0,.752-.263.965.965,0,0,0,.26-.735H35.1a2.557,2.557,0,0,1-.872,2,3.242,3.242,0,0,1-2.246.779,3.282,3.282,0,0,1-2.543-1.012,3.986,3.986,0,0,1-.93-2.8v-.1a4.505,4.505,0,0,1,.414-1.979,3.011,3.011,0,0,1,1.193-1.319,3.557,3.557,0,0,1,1.846-.461,3.2,3.2,0,0,1,2.29.8,2.837,2.837,0,0,1,.848,2.167h-2.16a1.265,1.265,0,0,0-.28-.882.967.967,0,0,0-.752-.308q-.9,0-1.046,1.142a8.056,8.056,0,0,0-.048,1,3.164,3.164,0,0,0,.267,1.545A.923.923,0,0,0,31.933,27.359Zm6.829-7.595V21.6h1.217v1.6H38.762v3.384a.864.864,0,0,0,.15.581.807.807,0,0,0,.595.164,3.38,3.38,0,0,0,.574-.041v1.647a4.252,4.252,0,0,1-1.3.2,2.413,2.413,0,0,1-1.757-.561,2.3,2.3,0,0,1-.567-1.7V23.2h-.943V21.6h.943V19.765Zm1.627,5.469a4.366,4.366,0,0,1,.431-1.972,3.08,3.08,0,0,1,1.237-1.33,3.726,3.726,0,0,1,1.894-.465A3.4,3.4,0,0,1,46.569,22.5a3.948,3.948,0,0,1,.957,2.8v.082a3.83,3.83,0,0,1-.96,2.745,3.41,3.41,0,0,1-2.6,1.015,3.449,3.449,0,0,1-2.536-.947A3.7,3.7,0,0,1,40.4,25.623Zm2.3.144a2.752,2.752,0,0,0,.321,1.5,1.07,1.07,0,0,0,.95.479q1.23,0,1.258-1.894v-.232q0-1.989-1.271-1.989-1.155,0-1.251,1.716Zm10.322-1.688-.759-.055a1.363,1.363,0,0,0-1.395.684V29h-2.3V21.6h2.16l.075.95a1.784,1.784,0,0,1,1.62-1.087,2.247,2.247,0,0,1,.643.082Zm4.279,5.448a3.8,3.8,0,0,1-2.755-1.015,3.506,3.506,0,0,1-1.053-2.642v-.191a4.542,4.542,0,0,1,.42-2,3.076,3.076,0,0,1,1.227-1.343,3.7,3.7,0,0,1,1.914-.475,3.2,3.2,0,0,1,2.461.967,3.8,3.8,0,0,1,.9,2.7v.9h-4.58a1.66,1.66,0,0,0,.54.978,1.607,1.607,0,0,0,1.08.355,2.07,2.07,0,0,0,1.709-.766l1.053,1.244a2.943,2.943,0,0,1-1.22.947A4.123,4.123,0,0,1,57.294,29.137Zm-.26-5.893q-1.012,0-1.2,1.34h2.324v-.178a1.141,1.141,0,0,0-.28-.858A1.115,1.115,0,0,0,57.035,23.244Zm8.176,3.678a.532.532,0,0,0-.308-.472,4.679,4.679,0,0,0-1.169-.369,5.33,5.33,0,0,1-1.422-.5,2.382,2.382,0,0,1-.854-.755,1.8,1.8,0,0,1-.294-1.019A2.044,2.044,0,0,1,62,22.126a3.464,3.464,0,0,1,2.2-.66,3.837,3.837,0,0,1,2.352.663,2.074,2.074,0,0,1,.889,1.743H65.135q0-.889-.937-.889a.928.928,0,0,0-.608.2.624.624,0,0,0-.246.5.573.573,0,0,0,.3.5,2.842,2.842,0,0,0,.96.314,8.3,8.3,0,0,1,1.159.294,2.105,2.105,0,0,1,1.668,2.058,1.937,1.937,0,0,1-.9,1.647,3.942,3.942,0,0,1-2.328.636,4.023,4.023,0,0,1-1.7-.342,2.835,2.835,0,0,1-1.162-.93,2.105,2.105,0,0,1-.417-1.237h2.153a.89.89,0,0,0,.342.749,1.406,1.406,0,0,0,.841.236,1.106,1.106,0,0,0,.708-.191A.612.612,0,0,0,65.21,26.922ZM71.7,25.247a4.518,4.518,0,0,1,.759-2.769,2.5,2.5,0,0,1,2.119-1.012,2.124,2.124,0,0,1,1.668.779V18.5h2.311V29H76.49l-.116-.793a2.181,2.181,0,0,1-1.8.93,2.493,2.493,0,0,1-2.092-1.012A4.661,4.661,0,0,1,71.7,25.247Zm2.3.144q0,1.969,1.148,1.969a1.134,1.134,0,0,0,1.094-.643V23.9a1.1,1.1,0,0,0-1.08-.656q-1.066,0-1.155,1.723Zm9.44,3.746a3.8,3.8,0,0,1-2.755-1.015,3.506,3.506,0,0,1-1.053-2.642v-.191a4.542,4.542,0,0,1,.42-2,3.076,3.076,0,0,1,1.227-1.343,3.7,3.7,0,0,1,1.914-.475,3.2,3.2,0,0,1,2.461.967,3.8,3.8,0,0,1,.9,2.7v.9h-4.58a1.66,1.66,0,0,0,.54.978,1.607,1.607,0,0,0,1.08.355,2.07,2.07,0,0,0,1.709-.766l1.053,1.244a2.943,2.943,0,0,1-1.22.947A4.123,4.123,0,0,1,83.449,29.137Zm-.26-5.893q-1.012,0-1.2,1.34H84.31v-.178a1.141,1.141,0,0,0-.28-.858A1.115,1.115,0,0,0,83.189,23.244Zm7.5,2a4.518,4.518,0,0,1,.759-2.769,2.5,2.5,0,0,1,2.119-1.012,2.124,2.124,0,0,1,1.668.779V18.5h2.311V29H95.473l-.116-.793a2.181,2.181,0,0,1-1.8.93,2.493,2.493,0,0,1-2.092-1.012A4.661,4.661,0,0,1,90.688,25.247Zm2.3.144q0,1.969,1.148,1.969a1.134,1.134,0,0,0,1.094-.643V23.9a1.1,1.1,0,0,0-1.08-.656q-1.066,0-1.155,1.723ZM103.02,29a2.6,2.6,0,0,1-.219-.663,2.142,2.142,0,0,1-1.777.8,2.624,2.624,0,0,1-1.777-.632,2.013,2.013,0,0,1-.731-1.589A2.069,2.069,0,0,1,99.4,25.1a4.527,4.527,0,0,1,2.584-.615h.711V24.09q0-1.023-.882-1.023a.721.721,0,0,0-.82.811h-2.3a2.065,2.065,0,0,1,.913-1.741,3.835,3.835,0,0,1,2.328-.669,3.363,3.363,0,0,1,2.235.69,2.4,2.4,0,0,1,.841,1.894v3.274a3.353,3.353,0,0,0,.314,1.559V29Zm-1.442-1.5a1.285,1.285,0,0,0,.714-.185,1.157,1.157,0,0,0,.407-.417V25.712h-.67q-1.2,0-1.2,1.08a.659.659,0,0,0,.212.509A.767.767,0,0,0,101.578,27.5Zm7.39-7.731V21.6h1.217v1.6h-1.217v3.384a.864.864,0,0,0,.15.581.807.807,0,0,0,.595.164,3.379,3.379,0,0,0,.574-.041v1.647a4.252,4.252,0,0,1-1.3.2,2.413,2.413,0,0,1-1.757-.561,2.3,2.3,0,0,1-.567-1.7V23.2h-.943V21.6h.943V19.765Zm1.627,5.469a4.366,4.366,0,0,1,.431-1.972,3.08,3.08,0,0,1,1.237-1.33,3.726,3.726,0,0,1,1.894-.465,3.4,3.4,0,0,1,2.618,1.029,3.948,3.948,0,0,1,.957,2.8v.082a3.83,3.83,0,0,1-.96,2.745,3.41,3.41,0,0,1-2.6,1.015,3.449,3.449,0,0,1-2.536-.947,3.7,3.7,0,0,1-1.032-2.567Zm2.3.144a2.752,2.752,0,0,0,.321,1.5,1.07,1.07,0,0,0,.95.479q1.23,0,1.258-1.894v-.232q0-1.989-1.271-1.989-1.155,0-1.251,1.716Zm9.721,1.545a.532.532,0,0,0-.308-.472,4.679,4.679,0,0,0-1.169-.369,5.33,5.33,0,0,1-1.422-.5,2.382,2.382,0,0,1-.854-.755,1.8,1.8,0,0,1-.294-1.019,2.044,2.044,0,0,1,.841-1.678,3.464,3.464,0,0,1,2.2-.66,3.837,3.837,0,0,1,2.352.663,2.074,2.074,0,0,1,.889,1.743h-2.311q0-.889-.937-.889a.928.928,0,0,0-.608.2.624.624,0,0,0-.246.5.573.573,0,0,0,.3.5,2.842,2.842,0,0,0,.96.314,8.3,8.3,0,0,1,1.159.294,2.105,2.105,0,0,1,1.668,2.058,1.937,1.937,0,0,1-.9,1.647,3.942,3.942,0,0,1-2.328.636,4.023,4.023,0,0,1-1.7-.342,2.835,2.835,0,0,1-1.162-.93,2.105,2.105,0,0,1-.417-1.237h2.153a.89.89,0,0,0,.342.749,1.406,1.406,0,0,0,.841.236,1.106,1.106,0,0,0,.708-.191A.612.612,0,0,0,122.619,26.922ZM51.781,45a2.6,2.6,0,0,1-.219-.663,2.142,2.142,0,0,1-1.777.8,2.624,2.624,0,0,1-1.777-.632,2.013,2.013,0,0,1-.731-1.589,2.069,2.069,0,0,1,.889-1.818,4.527,4.527,0,0,1,2.584-.615h.711V40.09q0-1.023-.882-1.023a.721.721,0,0,0-.82.811h-2.3a2.065,2.065,0,0,1,.913-1.741,3.835,3.835,0,0,1,2.328-.669,3.363,3.363,0,0,1,2.235.69,2.4,2.4,0,0,1,.841,1.894v3.274a3.353,3.353,0,0,0,.314,1.559V45Zm-1.442-1.5a1.285,1.285,0,0,0,.714-.185,1.157,1.157,0,0,0,.407-.417V41.712h-.67q-1.2,0-1.2,1.08a.659.659,0,0,0,.212.509A.767.767,0,0,0,50.339,43.5Zm11.573-2.133a4.508,4.508,0,0,1-.752,2.8,2.519,2.519,0,0,1-2.119.978,2.186,2.186,0,0,1-1.818-.9l-.1.759H55.063V34.5h2.3v3.7a2.109,2.109,0,0,1,1.661-.731,2.519,2.519,0,0,1,2.133.991,4.531,4.531,0,0,1,.752,2.789ZM59.6,41.216a3.007,3.007,0,0,0-.284-1.518.956.956,0,0,0-.872-.454,1.1,1.1,0,0,0-1.08.594v2.935a1.109,1.109,0,0,0,1.094.587.978.978,0,0,0,1.032-.792A5.685,5.685,0,0,0,59.6,41.216ZM65.357,45H63.047V37.6h2.311ZM62.91,35.7a1.028,1.028,0,0,1,.355-.807,1.511,1.511,0,0,1,1.846,0,1.093,1.093,0,0,1,0,1.613,1.511,1.511,0,0,1-1.846,0A1.028,1.028,0,0,1,62.91,35.7Zm7.444,9.44A3.8,3.8,0,0,1,67.6,44.122a3.506,3.506,0,0,1-1.053-2.642v-.191a4.542,4.542,0,0,1,.42-2,3.076,3.076,0,0,1,1.227-1.343,3.7,3.7,0,0,1,1.914-.475,3.2,3.2,0,0,1,2.461.967,3.8,3.8,0,0,1,.9,2.7v.9h-4.58a1.66,1.66,0,0,0,.54.978,1.607,1.607,0,0,0,1.08.355,2.07,2.07,0,0,0,1.709-.766l1.053,1.244a2.943,2.943,0,0,1-1.22.947A4.124,4.124,0,0,1,70.354,45.137Zm-.26-5.893q-1.012,0-1.2,1.34h2.324v-.178a1.141,1.141,0,0,0-.28-.858A1.115,1.115,0,0,0,70.095,39.244Zm8.777.444-.759-.055a1.363,1.363,0,0,0-1.395.684V45h-2.3V37.6h2.16l.075.95a1.784,1.784,0,0,1,1.62-1.087,2.246,2.246,0,0,1,.643.082Zm3.855-3.924V37.6h1.217v1.6H82.728v3.384a.864.864,0,0,0,.15.581.807.807,0,0,0,.595.164,3.379,3.379,0,0,0,.574-.041v1.647a4.252,4.252,0,0,1-1.3.2,2.413,2.413,0,0,1-1.757-.561,2.3,2.3,0,0,1-.567-1.7V39.2H79.48V37.6h.943V35.765Zm1.627,5.469a4.366,4.366,0,0,1,.431-1.972,3.08,3.08,0,0,1,1.237-1.33,3.726,3.726,0,0,1,1.894-.465A3.4,3.4,0,0,1,90.534,38.5a3.948,3.948,0,0,1,.957,2.8v.082a3.83,3.83,0,0,1-.96,2.745,3.41,3.41,0,0,1-2.6,1.015,3.449,3.449,0,0,1-2.536-.947,3.7,3.7,0,0,1-1.032-2.567Zm2.3.144a2.752,2.752,0,0,0,.321,1.5,1.07,1.07,0,0,0,.95.479q1.23,0,1.258-1.894v-.232q0-1.989-1.271-1.989-1.155,0-1.251,1.716Zm9.721,1.545a.532.532,0,0,0-.308-.472,4.679,4.679,0,0,0-1.169-.369,5.33,5.33,0,0,1-1.422-.5,2.382,2.382,0,0,1-.854-.755,1.8,1.8,0,0,1-.294-1.019,2.044,2.044,0,0,1,.841-1.678,3.464,3.464,0,0,1,2.2-.66,3.837,3.837,0,0,1,2.352.663,2.074,2.074,0,0,1,.889,1.743H96.3q0-.889-.937-.889a.928.928,0,0,0-.608.2.624.624,0,0,0-.246.5.573.573,0,0,0,.3.5,2.842,2.842,0,0,0,.96.314,8.3,8.3,0,0,1,1.159.294A2.105,2.105,0,0,1,98.6,42.854a1.937,1.937,0,0,1-.9,1.647,3.942,3.942,0,0,1-2.328.636,4.023,4.023,0,0,1-1.7-.342,2.835,2.835,0,0,1-1.162-.93,2.105,2.105,0,0,1-.417-1.237h2.153a.89.89,0,0,0,.342.749,1.406,1.406,0,0,0,.841.236,1.106,1.106,0,0,0,.708-.191A.612.612,0,0,0,96.379,42.922Z" transform="translate(307 3189)" fill="#12263f"/>
    <g id="Group_136857" data-name="Group 136857" transform="translate(671.496 3056.057)">
      <g id="Group_136856" data-name="Group 136856" transform="translate(-172.496 66.943)">
        <g id="Group_136855" data-name="Group 136855">
          <path id="Path_193658" data-name="Path 193658" d="M40.889,164.4a5.074,5.074,0,0,0-4.531,2.778.732.732,0,1,0,1.3.668,3.62,3.62,0,0,1,6.455,0,.732.732,0,1,0,1.3-.668A5.074,5.074,0,0,0,40.889,164.4Z" transform="translate(-15.889 -154.878)" fill="#12263f"/>
          <path id="Path_193659" data-name="Path 193659" d="M-9.052,534.708H-29.394a.732.732,0,0,0-.732.732.732.732,0,0,0,.732.732H-9.052a.732.732,0,0,0,.732-.732A.732.732,0,0,0-9.052,534.708Z" transform="translate(44.029 -489.028)" fill="#12263f"/>
          <path id="Path_193660" data-name="Path 193660" d="M197.554,316.415a2.157,2.157,0,0,0-2.154,2.154v4.288a.732.732,0,0,0,.732.732h2.844a.732.732,0,0,0,.732-.732v-4.288A2.157,2.157,0,0,0,197.554,316.415Zm.689,2.154v3.556h-1.379v-3.556a.69.69,0,0,1,1.379,0Z" transform="translate(-159.473 -292.053)" fill="#12263f"/>
          <path id="Path_193661" data-name="Path 193661" d="M10,343.422a.732.732,0,0,0,.732-.732v-11.9a.732.732,0,0,0-1.465,0v11.9A.732.732,0,0,0,10,343.422Z" transform="translate(8.482 -304.366)" fill="#12263f"/>
          <path id="Path_193662" data-name="Path 193662" d="M-123.918,112.643V88.373a1.685,1.685,0,0,0,1.422-1.664v-.952a1.684,1.684,0,0,0-1.68-1.684h-.31V82.426a1.684,1.684,0,0,0-1.68-1.684h-.948a1.684,1.684,0,0,0-1.68,1.684v1.647h-1.379V82.426a1.684,1.684,0,0,0-1.68-1.684h-.948a1.684,1.684,0,0,0-1.68,1.684v1.647h-.5a1.682,1.682,0,0,0-1.513-.952h-2.3V75.542a1.711,1.711,0,0,0,1.612-1.706V73.03a1.711,1.711,0,0,0-1.709-1.709h-1.6a.731.731,0,0,0-.144-.126l-5.961-3.965a1.7,1.7,0,0,0-.947-.286,1.7,1.7,0,0,0-.957.293l-5.979,4.039a.729.729,0,0,0-.06.045h-1.544a1.711,1.711,0,0,0-1.709,1.709v.807a1.711,1.711,0,0,0,1.612,1.706v7.579h-2.3a1.682,1.682,0,0,0-1.513.952h-.5V82.426a1.684,1.684,0,0,0-1.68-1.684h-.948a1.684,1.684,0,0,0-1.68,1.684v1.647H-166.2V82.426a1.684,1.684,0,0,0-1.68-1.684h-.948a1.684,1.684,0,0,0-1.68,1.684v1.647h-.31a1.684,1.684,0,0,0-1.68,1.684v.952a1.686,1.686,0,0,0,1.422,1.664v24.27a1.686,1.686,0,0,0-1.422,1.664v.952a1.684,1.684,0,0,0,1.68,1.684h46.639a1.684,1.684,0,0,0,1.68-1.684v-.952A1.686,1.686,0,0,0-123.918,112.643Zm-3.413-30.217a.218.218,0,0,1,.216-.219h.948a.218.218,0,0,1,.216.219v1.647h-1.379Zm-5.688,0a.218.218,0,0,1,.216-.219h.948a.218.218,0,0,1,.216.219v1.647h-1.379Zm-3.482,2.16a.218.218,0,0,1,.216.219v2.379a.218.218,0,0,1-.216.219h-5.3a7.019,7.019,0,0,0,.343-2.173v-.644Zm-9.558,25.182h-2.877a1.693,1.693,0,0,0,.014-.219,2.639,2.639,0,0,0-1.991-2.557V98.365a.733.733,0,0,0,.07-.129,3.623,3.623,0,0,1,3.345-2.23,3.63,3.63,0,0,1,3.324,2.182.737.737,0,0,0,.091.154v8.65a2.639,2.639,0,0,0-1.991,2.557A1.709,1.709,0,0,0-146.058,109.768ZM-141.79,81.9l-.528-.53a1.139,1.139,0,0,0-.812-.337h-2.708a.732.732,0,0,0-.732.732.732.732,0,0,0,.732.732h2.575l.342.344v2.394a5.5,5.5,0,0,1-2.04,4.289l-2.536,2.057-2.536-2.057a5.5,5.5,0,0,1-2.04-4.289V82.837l.342-.344h3.13a.732.732,0,0,0,.732-.732.732.732,0,0,0-.732-.732h-3.262a1.14,1.14,0,0,0-.812.338l-.527.529a1.142,1.142,0,0,0-.335.812v.415h-1.189V75.545h14.461v7.576h-1.189v-.415A1.141,1.141,0,0,0-141.79,81.9Zm-2.291,9.749V95.86a5.084,5.084,0,0,0-3.415-1.318,5.076,5.076,0,0,0-3.415,1.316V91.645a2.613,2.613,0,0,0,.768-.33l2.061,1.672a.733.733,0,0,0,.461.164h.249a.733.733,0,0,0,.461-.164l2.062-1.673A2.637,2.637,0,0,0-144.081,91.644Zm-8.439-2.775a6.962,6.962,0,0,0,1.107,1.382,1.152,1.152,0,0,1-.135.008h-4.929a1.169,1.169,0,0,1-1.163-1.171.218.218,0,0,1,.216-.219h4.905Zm.145,2.855v15.189h-3.275V91.724Zm.827,16.654a1.168,1.168,0,0,1,1.163,1.171.218.218,0,0,1-.216.219h-6.825a.218.218,0,0,1-.216-.219,1.169,1.169,0,0,1,1.163-1.171Zm8.1,0h4.93a1.169,1.169,0,0,1,1.163,1.171.218.218,0,0,1-.216.219h-6.825a.218.218,0,0,1-.216-.219A1.168,1.168,0,0,1-143.444,108.378Zm.827-1.465V91.724h3.275v15.189Zm4.007-16.654h-4.835a1.17,1.17,0,0,1-.135-.008,6.966,6.966,0,0,0,1.107-1.382h4.905a.218.218,0,0,1,.216.219,1.169,1.169,0,0,1-1.163,1.171Zm-9.082-21.809a.248.248,0,0,1,.273,0l4.317,2.871h-8.839Zm-8.647,5.386v-.807a.244.244,0,0,1,.244-.244h17.2a.244.244,0,0,1,.244.244v.807a.244.244,0,0,1-.244.244h-17.2A.244.244,0,0,1-156.338,73.836Zm-2.37,10.969a.218.218,0,0,1,.216-.219h4.955v.644a7.019,7.019,0,0,0,.343,2.173h-5.3a.218.218,0,0,1-.216-.219Zm-4.645-2.379a.218.218,0,0,1,.216-.219h.948a.218.218,0,0,1,.216.219v1.647h-1.379Zm-5.688,0a.218.218,0,0,1,.216-.219h.948a.218.218,0,0,1,.216.219v1.647h-1.379Zm-1.991,3.331a.218.218,0,0,1,.216-.219h10.643v1.39h-10.643a.218.218,0,0,1-.216-.219Zm3.32,29.721h-3.1a.218.218,0,0,1-.216-.219v-.952a.218.218,0,0,1,.216-.219h3.215l-.115.5A1.923,1.923,0,0,0-167.711,115.478Zm6.687-.168a.444.444,0,0,1-.351.168h-4.473a.444.444,0,0,1-.352-.171.453.453,0,0,1-.088-.39l2.3-9.993a.451.451,0,0,1,.44-.354.456.456,0,0,1,.442.359l2.176,9.993A.453.453,0,0,1-161.024,115.31Zm-.125-8.264h1.994a.732.732,0,0,0,.732-.732v-4.283a2.16,2.16,0,0,0-2.154-2.16,2.16,2.16,0,0,0-2.154,2.16.732.732,0,0,0,.732.732.732.732,0,0,0,.732-.732.693.693,0,0,1,.69-.7.693.693,0,0,1,.69.7v3.55h-1.58l-.21-.962a1.929,1.929,0,0,0-1.873-1.512,1.909,1.909,0,0,0-1.868,1.49l-.226.984h-1.31v-3.55a.693.693,0,0,1,.69-.7.693.693,0,0,1,.69.7.732.732,0,0,0,.732.732.732.732,0,0,0,.732-.732,2.16,2.16,0,0,0-2.154-2.16,2.16,2.16,0,0,0-2.154,2.16v4.283a.732.732,0,0,0,.732.732h1.706l-1.282,5.578h-2.346V88.393h9.947a1.682,1.682,0,0,0,.587.371,1.683,1.683,0,0,0-.031.324,2.639,2.639,0,0,0,1.991,2.557v15.346a2.639,2.639,0,0,0-1.991,2.557,1.693,1.693,0,0,0,.014.219h-1.464Zm25.669,8.433h-24.031a1.922,1.922,0,0,0,.01-.867l-.736-3.379h25.523l-.772,3.357A1.925,1.925,0,0,0-135.481,115.478Zm6.687-.168a.444.444,0,0,1-.351.168h-4.473a.444.444,0,0,1-.352-.171.453.453,0,0,1-.088-.39l2.3-9.993a.451.451,0,0,1,.44-.354.456.456,0,0,1,.442.359l2.176,9.993A.454.454,0,0,1-128.793,115.31Zm-.125-8.265h1.614a.732.732,0,0,0,.732-.732V102.03a2.16,2.16,0,0,0-2.154-2.16,2.16,2.16,0,0,0-2.154,2.16.732.732,0,0,0,.732.732.732.732,0,0,0,.732-.732.693.693,0,0,1,.69-.7.693.693,0,0,1,.69.7v3.55h-1.2l-.21-.962a1.929,1.929,0,0,0-1.873-1.512,1.909,1.909,0,0,0-1.868,1.49l-.226.984H-135.1v-3.55a.693.693,0,0,1,.69-.7.693.693,0,0,1,.69.7.732.732,0,0,0,.732.732.732.732,0,0,0,.732-.732,2.16,2.16,0,0,0-2.154-2.16,2.16,2.16,0,0,0-2.154,2.16v4.283a.732.732,0,0,0,.732.732h2.085l-.626,2.723H-135.9a1.69,1.69,0,0,0,.014-.219,2.639,2.639,0,0,0-1.991-2.557V91.645a2.639,2.639,0,0,0,1.991-2.557,1.684,1.684,0,0,0-.031-.324,1.682,1.682,0,0,0,.587-.371h9.948v24.23H-127.7Zm4.958,8.214a.218.218,0,0,1-.216.219h-3.1a1.923,1.923,0,0,0,.01-.867l-.114-.524h3.209a.218.218,0,0,1,.216.219v.952Zm0-28.55a.218.218,0,0,1-.216.219h-10.643v-1.39h10.643a.218.218,0,0,1,.216.219Z" transform="translate(172.496 -66.943)" fill="#12263f"/>
          <path id="Path_193663" data-name="Path 193663" d="M255.8,316.415a2.157,2.157,0,0,0-2.154,2.154v4.288a.732.732,0,0,0,.732.732h2.844a.732.732,0,0,0,.732-.732v-4.288A2.157,2.157,0,0,0,255.8,316.415Zm.689,2.154v3.556h-1.379v-3.556a.69.69,0,0,1,1.379,0Z" transform="translate(-212.027 -292.053)" fill="#12263f"/>
          <path id="Path_193664" data-name="Path 193664" d="M143.472,330.061a.732.732,0,0,0-.732.732v11.9a.732.732,0,0,0,1.465,0v-11.9A.732.732,0,0,0,143.472,330.061Z" transform="translate(-111.955 -304.366)" fill="#12263f"/>
          <path id="Path_193665" data-name="Path 193665" d="M-68.2,318.569a2.157,2.157,0,0,0-2.154-2.154,2.157,2.157,0,0,0-2.154,2.154v4.288a.732.732,0,0,0,.732.732h2.844a.732.732,0,0,0,.732-.732h0Zm-1.465,0v3.556h-1.379v-3.556a.69.69,0,0,1,.69-.69.69.69,0,0,1,.689.69Z" transform="translate(82.277 -292.053)" fill="#12263f"/>
          <path id="Path_193666" data-name="Path 193666" d="M-128.6,316.415a2.157,2.157,0,0,0-2.154,2.154v4.288a.732.732,0,0,0,.732.732h2.844a.732.732,0,0,0,.732-.732v-4.288A2.157,2.157,0,0,0-128.6,316.415Zm.689,2.154v3.556h-1.379v-3.556a.69.69,0,0,1,.69-.69.69.69,0,0,1,.689.69Z" transform="translate(134.831 -292.053)" fill="#12263f"/>
        </g>
      </g>
    </g>
    <path id="Path_193667" data-name="Path 193667" d="M279.387,254.387a23.387,23.387,0,1,0-45.163,8.54v2.75a2.423,2.423,0,0,0,2.42,2.42,2.376,2.376,0,0,0,.806-.149v7.407a2.42,2.42,0,0,0,4.839,0v-3.226a.806.806,0,0,1,1.613,0v4.839a2.419,2.419,0,0,0,4.838,0v-3.226a.806.806,0,1,1,1.613,0h0v4.839a2.42,2.42,0,0,0,4.839,0v-3.226a.806.806,0,1,1,1.612,0v3.226a2.419,2.419,0,0,0,4.839,0v-4.839a.807.807,0,1,1,1.613,0v3.226a2.419,2.419,0,0,0,4.839,0v-4.839a.807.807,0,0,1,1.613,0v3.226a2.419,2.419,0,0,0,4.838,0v-7.407a2.382,2.382,0,0,0,.807.149,2.422,2.422,0,0,0,2.419-2.42v-2.746a23.266,23.266,0,0,0,1.613-8.544Zm-1.958,3.861a4.843,4.843,0,0,0-4.494-3.054H272.5a4.823,4.823,0,0,0,1.17-2.42h4.04c.04.533.066,1.07.066,1.613A21.842,21.842,0,0,1,277.429,258.248Zm-37.558-6.28a3.226,3.226,0,0,1,6.044-1.571,4.782,4.782,0,0,0-1.076,4.277,3.215,3.215,0,0,1-4.968-2.706Zm6.452,1.613a3.225,3.225,0,0,1,6.042-1.571,4.817,4.817,0,0,0-1.2,3.184,4.881,4.881,0,0,0,.129,1.094,3.217,3.217,0,0,1-4.967-2.707Zm6.451,1.613A3.226,3.226,0,1,1,256,258.419a3.229,3.229,0,0,1-3.226-3.225Zm6.859-3.186a3.234,3.234,0,1,1,1.076,4.281,4.779,4.779,0,0,0-1.076-4.281Zm17.9-.847h-3.866a4.843,4.843,0,0,0-4.766-4.032,4.771,4.771,0,0,0-1.612.289v-1.1a.807.807,0,0,1,.807-.807,2.422,2.422,0,0,0,2.419-2.419v-.807a.806.806,0,0,1,.807-.806h2.2A21.661,21.661,0,0,1,277.534,251.161Zm-11.45-.764a3.235,3.235,0,1,1,1.076,4.278,4.867,4.867,0,0,0,.129-1.094A4.811,4.811,0,0,0,266.084,250.4Zm6.128-10.526h-.889a2.422,2.422,0,0,0-2.42,2.419v.807a.806.806,0,0,1-.806.806,2.423,2.423,0,0,0-2.42,2.42v2.051a4.886,4.886,0,0,0-.845,1,4.807,4.807,0,0,0-2.382-.631,4.856,4.856,0,0,0-4.069,2.244,4.828,4.828,0,0,0-1.575-.559V250a.525.525,0,0,1,.15-.362.283.283,0,0,1,.2-.088h.005a2.015,2.015,0,0,0,2.069-2.016.4.4,0,0,1,.4-.4h2.016a2.422,2.422,0,0,0,2.42-2.419V234.168a21.844,21.844,0,0,1,8.147,5.7Zm-9.76-6.282V244.71a.807.807,0,0,1-.807.806h-2.016a2.018,2.018,0,0,0-2.016,2.016.4.4,0,0,1-.4.4H257.2a1.978,1.978,0,0,0-1.368.547,2.133,2.133,0,0,0-.636,1.517v.429a4.789,4.789,0,0,0-1.576.56,4.853,4.853,0,0,0-4.07-2.246,4.8,4.8,0,0,0-2.382.632,4.85,4.85,0,0,0-1.367-1.41,1.366,1.366,0,0,1,.229-.029h5.94a2.419,2.419,0,0,0,.049-4.838.8.8,0,0,1-.856-.742v-2.5a.8.8,0,0,0-.32-.643,3.194,3.194,0,0,1-1.293-2.564v-3.056a21.814,21.814,0,0,1,12.9,0ZM239.1,240.677h3.594a1.21,1.21,0,0,1,0,2.42h-1.613a2.018,2.018,0,0,0-2.016,2.016.4.4,0,0,1-.4.4h-2.538A21.774,21.774,0,0,1,239.1,240.677Zm-3.626,6.452h3.187a2.018,2.018,0,0,0,2.016-2.016.4.4,0,0,1,.4-.4h1.613a2.823,2.823,0,0,0,0-5.645h-2.147a21.816,21.816,0,0,1,7.388-4.9v2.477a4.785,4.785,0,0,0,1.613,3.588v2.122a2.407,2.407,0,0,0,2.437,2.355.807.807,0,0,1-.017,1.613h-5.94a3.014,3.014,0,0,0-2.121.879,4.829,4.829,0,0,0-4.407,7.992h-.437a4.843,4.843,0,0,0-4.493,3.051,21.755,21.755,0,0,1,.9-11.116ZM243.1,269.71a2.422,2.422,0,0,0-2.419,2.419v3.226a.806.806,0,0,1-1.613,0V260.032H237.45v5.645a.806.806,0,1,1-1.613,0v-5.645a3.229,3.229,0,0,1,3.226-3.226H243.1a4.826,4.826,0,0,0,2.372-.633,4.81,4.81,0,0,0,.483.633h-.437a4.844,4.844,0,0,0-4.839,4.839v5.645a2.422,2.422,0,0,0,2.419,2.42,2.382,2.382,0,0,0,.807-.149v.3A2.382,2.382,0,0,0,243.1,269.71Zm6.452,1.613a2.422,2.422,0,0,0-2.42,2.419v3.226a.806.806,0,0,1-1.612,0V261.645H243.9v5.645a.806.806,0,1,1-1.613,0v-5.645a3.229,3.229,0,0,1,3.226-3.226h4.033a4.821,4.821,0,0,0,2.373-.634,4.9,4.9,0,0,0,.482.634h-.435a4.844,4.844,0,0,0-4.839,4.839V268.9a2.423,2.423,0,0,0,2.419,2.42,2.377,2.377,0,0,0,.807-.149v.3a2.388,2.388,0,0,0-.808-.149Zm10.485,7.258a.807.807,0,0,1-1.613,0v-3.226a2.419,2.419,0,1,0-4.838,0v3.226a.806.806,0,0,1-1.613,0V263.258h-1.613V268.9a.806.806,0,1,1-1.613,0v-5.645a3.229,3.229,0,0,1,3.226-3.226h8.064a3.229,3.229,0,0,1,3.226,3.226V268.9a.807.807,0,1,1-1.613,0v-5.645h-1.613v15.323Zm6.452-1.613a.807.807,0,0,1-1.613,0v-3.226a2.4,2.4,0,0,0-3.226-2.271v-.3a2.354,2.354,0,0,0,.807.15,2.423,2.423,0,0,0,2.419-2.42v-5.645a4.844,4.844,0,0,0-4.839-4.839H259.6a4.895,4.895,0,0,0,.482-.633,4.823,4.823,0,0,0,2.371.633h4.034a3.229,3.229,0,0,1,3.226,3.226v5.645a.807.807,0,1,1-1.613,0v-5.645h-1.613v15.323Zm9.677-11.291a.807.807,0,1,1-1.613,0v-5.645h-1.613v15.323a.806.806,0,0,1-1.612,0v-3.226a2.422,2.422,0,0,0-2.42-2.419,2.4,2.4,0,0,0-.806.148v-.3a2.348,2.348,0,0,0,.806.15,2.423,2.423,0,0,0,2.42-2.42v-5.645a4.845,4.845,0,0,0-4.839-4.839h-.437a4.8,4.8,0,0,0,.482-.633,4.83,4.83,0,0,0,2.373.633h4.033a3.229,3.229,0,0,1,3.226,3.226Z" transform="translate(40.455 3074.521)" fill="#12263f"/>
    <g id="Layer_8" data-name="Layer 8" transform="translate(-24 2906.138)">
      <g id="Group_136872" data-name="Group 136872">
        <g id="Group_136858" data-name="Group 136858">
          <path id="Path_193668" data-name="Path 193668" d="M246.689,271.087H235.914a2.317,2.317,0,0,1-2.314-2.314v-5.388a2.321,2.321,0,0,1,2.314-2.324h10.775a2.291,2.291,0,0,1,2.137,1.445,2.159,2.159,0,0,1,.178.879v5.387A2.318,2.318,0,0,1,246.689,271.087Zm-10.775-8.4a.7.7,0,0,0-.692.7v5.387a.692.692,0,0,0,.692.692h10.775a.692.692,0,0,0,.692-.692v-5.387a.589.589,0,0,0-.049-.249.7.7,0,0,0-.643-.454Z" fill="#fff"/>
        </g>
        <g id="Group_136859" data-name="Group 136859">
          <path id="Path_193669" data-name="Path 193669" d="M259.8,257.4a.823.823,0,0,1-.245-.038c-.044-.015-1.115-.355-2.474-.922-.089-.043-.135-.06-.18-.078-.064-.025-.128-.051-.191-.079l-.072-.033c-3.1-1.358-4.739-2.693-5.031-4.086-.15-.69-.287-1.779-.444-3.2-.105-.988-.187-2.082-.27-3.17l-.007-.087a.869.869,0,0,1,.042-.336l1.235-3.589a2.643,2.643,0,0,1,2.1-1.816,11.293,11.293,0,0,1,2.292-.154,2.506,2.506,0,0,0,1.7-.479l1.074-.79a.813.813,0,0,1,.958,0l1.087.792a2.512,2.512,0,0,0,1.7.48,11.376,11.376,0,0,1,2.292.154,2.646,2.646,0,0,1,2.1,1.82l1.233,3.585a.813.813,0,0,1,.044.264l-.009.159c-.083,1.088-.167,2.182-.27,3.166-.158,1.426-.295,2.516-.447,3.213-.283,1.338-1.825,2.626-4.712,3.932-.055.034-.169.085-.283.137l-.12.051c-.04.017-.078.032-.116.051-1.493.632-2.679,1-2.729,1.02a.81.81,0,0,1-.243.037Zm-7.285-11.659c.08,1.048.16,2.1.26,3.048.131,1.182.273,2.372.418,3.036.064.3.54,1.38,4.083,2.936l.084.037.141.058c.089.035.176.071.254.111.884.367,1.667.641,2.047.769.41-.137,1.293-.443,2.291-.864.021-.013.093-.044.167-.075l.085-.035c.073-.034.147-.065.219-.1,3.345-1.517,3.794-2.546,3.853-2.825.147-.671.289-1.86.421-3.047.1-.943.18-1.994.259-3.043l-1.181-3.432a1.054,1.054,0,0,0-.8-.739,10.1,10.1,0,0,0-1.951-.141,4.163,4.163,0,0,1-2.759-.787l-.607-.441-.6.439a4.137,4.137,0,0,1-2.761.789,10.1,10.1,0,0,0-1.951.141,1.05,1.05,0,0,0-.794.735Z" fill="#fff"/>
        </g>
        <g id="Group_136860" data-name="Group 136860">
          <path id="Path_193670" data-name="Path 193670" d="M267.919,246.453a.827.827,0,0,1-.267-.045.811.811,0,0,1-.521-.574l-1.217-3.527a1.054,1.054,0,0,0-.793-.739,10.2,10.2,0,0,0-1.95-.142,4.162,4.162,0,0,1-2.762-.783l-.607-.445-.608.446a4.167,4.167,0,0,1-2.762.782,10.243,10.243,0,0,0-1.951.142,1.062,1.062,0,0,0-.794.744l-1.229,3.564a.812.812,0,0,1-1.46.2,13.177,13.177,0,0,1-1.289-8.464,6.355,6.355,0,0,1,3.9-5.237,15.289,15.289,0,0,1,12.582.051,5.975,5.975,0,0,1,3.313,3.393.661.661,0,0,1,.035.123l.431,2.126c.746,5.282-1.324,7.968-1.413,8.08a.8.8,0,0,1-.633.307Zm-4.482-6.657a13.779,13.779,0,0,1,1.915.167,2.667,2.667,0,0,1,2.092,1.81l.6,1.731a11.588,11.588,0,0,0,.327-5.164l-.409-2.012a4.382,4.382,0,0,0-2.451-2.431,13.484,13.484,0,0,0-11.247-.041,4.759,4.759,0,0,0-2.946,3.979,13.4,13.4,0,0,0,.308,5.488l.533-1.545a2.675,2.675,0,0,1,2.092-1.816,11.84,11.84,0,0,1,2.286-.156,2.538,2.538,0,0,0,1.7-.471l1.087-.8a.812.812,0,0,1,.959,0l1.087.8a2.556,2.556,0,0,0,1.7.472c.115-.006.239-.01.369-.01Z" fill="#fff"/>
        </g>
        <g id="Group_136861" data-name="Group 136861">
          <path id="Path_193671" data-name="Path 193671" d="M268.74,249.683h-1.1a.81.81,0,0,1-.806-.894c.1-1,.194-2.107.277-3.208a.812.812,0,0,1,.809-.75h1.436a1.8,1.8,0,0,1,1.729,1.852v.45a2.457,2.457,0,0,1-2.345,2.55Zm-.207-1.622h.207a.857.857,0,0,0,.723-.928v-.45c0-.153-.087-.23-.108-.23h-.686c-.043.545-.089,1.087-.136,1.608Z" fill="#fff"/>
        </g>
        <g id="Group_136862" data-name="Group 136862">
          <path id="Path_193672" data-name="Path 193672" d="M252.017,249.683h-1.136a2.479,2.479,0,0,1-2.394-2.55v-.45a1.809,1.809,0,0,1,1.758-1.852h1.483a.811.811,0,0,1,.809.748c.085,1.1.181,2.212.286,3.208a.811.811,0,0,1-.806.9Zm-1.772-3.23c-.054,0-.137.092-.137.23v.45a.863.863,0,0,0,.773.928h.241c-.05-.522-.1-1.063-.141-1.608Z" fill="#fff"/>
        </g>
        <g id="Group_136863" data-name="Group 136863">
          <path id="Path_193673" data-name="Path 193673" d="M260,260.059a.807.807,0,0,1-.147-.014L256.9,259.5a.81.81,0,0,1-.664-.8v-3.156a.811.811,0,0,1,1.146-.739l.12.05c.089.035.176.071.254.111.884.367,1.667.641,2.047.769.41-.137,1.293-.443,2.291-.864.021-.013.093-.044.167-.075l.085-.035c.073-.034.147-.065.219-.1a.81.81,0,0,1,1.2.709v3.346a.811.811,0,0,1-.666.8l-2.956.538A.869.869,0,0,1,260,260.059Zm-2.144-2.033,2.145.4,2.143-.391V256.6c-1.186.475-2.061.75-2.1.763a.817.817,0,0,1-.487,0c-.036-.012-.729-.232-1.7-.609v1.274Z" fill="#fff"/>
        </g>
        <g id="Group_136864" data-name="Group 136864">
          <path id="Path_193674" data-name="Path 193674" d="M257.043,266.313a.811.811,0,0,1-.733-.464l-2.5-5.284a.81.81,0,0,1,.16-.92l1.668-1.668a.811.811,0,0,1,.72-.224l3.789.7a.81.81,0,0,1,.587,1.143l-2.955,6.254a.813.813,0,0,1-.734.466Zm-1.525-5.925,1.524,3.217,1.773-3.751-2.333-.429Z" fill="#fff"/>
        </g>
        <g id="Group_136865" data-name="Group 136865">
          <path id="Path_193675" data-name="Path 193675" d="M262.953,266.313a.81.81,0,0,1-.733-.465l-2.955-6.254a.81.81,0,0,1,.587-1.143l3.789-.7a.811.811,0,0,1,.72.224l1.668,1.668a.811.811,0,0,1,.159.92l-2.5,5.284a.813.813,0,0,1-.734.463Zm-1.772-6.458,1.773,3.751,1.524-3.217-.963-.963Z" fill="#fff"/>
        </g>
        <g id="Group_136866" data-name="Group 136866">
          <path id="Path_193676" data-name="Path 193676" d="M261.793,269.71H258.2a.809.809,0,0,1-.767-.549l-1.16-3.4a.811.811,0,0,1,.034-.608l2.955-6.255a.811.811,0,0,1,1.466,0l2.956,6.255a.811.811,0,0,1,.034.608l-1.16,3.4a.812.812,0,0,1-.768.549Zm-3.01-1.622h2.43l.867-2.537-2.082-4.4-2.081,4.4Z" fill="#fff"/>
        </g>
        <g id="Group_136867" data-name="Group 136867">
          <path id="Path_193677" data-name="Path 193677" d="M262.953,278.223h-5.911a.811.811,0,0,1-.8-.921l1.161-8.512a.811.811,0,0,1,.8-.7h3.59a.811.811,0,0,1,.8.7l1.161,8.512a.811.811,0,0,1-.8.921Zm-4.982-1.622h4.054l-.94-6.891h-2.174Z" fill="#fff"/>
        </g>
        <g id="Group_136868" data-name="Group 136868">
          <path id="Path_193678" data-name="Path 193678" d="M277.589,278.227H244.04a.811.811,0,0,1-.811-.811v-7.14a.812.812,0,0,1,.811-.811h2.649a.692.692,0,0,0,.692-.692v-5.388a.588.588,0,0,0-.049-.248.812.812,0,0,1,.44-1.083l6.318-2.527,1.546-1.545a.807.807,0,0,1,.718-.225l3.649.661,3.639-.661a.815.815,0,0,1,.719.225l1.545,1.545,8.44,3.384a6.429,6.429,0,0,1,4.054,6v8.5A.812.812,0,0,1,277.589,278.227Zm-32.738-1.622h31.927v-7.694a4.811,4.811,0,0,0-3.036-4.494l-8.594-3.446a.836.836,0,0,1-.272-.179l-1.363-1.363-3.365.611a.831.831,0,0,1-.29,0l-3.376-.612-1.363,1.364a.855.855,0,0,1-.272.18L249,263.309c0,.025,0,.051,0,.076v5.388a2.317,2.317,0,0,1-2.314,2.314h-1.838Z" fill="#fff"/>
        </g>
        <g id="Group_136869" data-name="Group 136869">
          <path id="Path_193679" data-name="Path 193679" d="M273.468,278.227h-6.389a.812.812,0,0,1-.811-.811v-3.177a2.08,2.08,0,0,1,2.078-2.078H272.2a2.079,2.079,0,0,1,2.078,2.078v3.177A.812.812,0,0,1,273.468,278.227Zm-5.578-1.622h4.767v-2.366a.458.458,0,0,0-.457-.457h-3.855a.457.457,0,0,0-.456.457v2.366Z" fill="#fff"/>
        </g>
        <g id="Group_136870" data-name="Group 136870">
          <path id="Path_193680" data-name="Path 193680" d="M241.371,281.044a3.486,3.486,0,0,1-3.49-3.479v-7.29a.812.812,0,0,1,.811-.811h5.348a.812.812,0,0,1,.811.811v7.29a3.482,3.482,0,0,1-3.48,3.479Zm-1.867-9.957v6.479a1.863,1.863,0,0,0,3.726,0v-6.479Z" fill="#fff"/>
        </g>
        <g id="Group_136871" data-name="Group 136871">
          <path id="Path_193681" data-name="Path 193681" d="M243.741,262.682H239a.811.811,0,0,1-.45-.137,5.1,5.1,0,1,1,5.643,0,.8.8,0,0,1-.453.139Zm-4.48-1.622h4.219a3.481,3.481,0,1,0-4.219,0Z" fill="#fff"/>
        </g>
      </g>
    </g>
    <g id="Layer_3" data-name="Layer 3" transform="translate(117.097 2793.003)">
      <g id="Group_136910" data-name="Group 136910">
        <g id="LINE">
          <g id="Group_136873" data-name="Group 136873">
            <path id="Path_193682" data-name="Path 193682" d="M249.222,265h-7a1,1,0,0,1,0-2h7a1,1,0,0,1,0,2Z" fill="#fff"/>
          </g>
        </g>
        <g id="LINE-2" data-name="LINE">
          <g id="Group_136874" data-name="Group 136874">
            <path id="Path_193683" data-name="Path 193683" d="M263.222,281a1,1,0,0,1-1-1V266a1,1,0,0,1,2,0v14A1,1,0,0,1,263.222,281Z" fill="#fff"/>
          </g>
        </g>
        <g id="LINE-3" data-name="LINE">
          <g id="Group_136875" data-name="Group 136875">
            <path id="Path_193684" data-name="Path 193684" d="M265.222,263h-16a1,1,0,0,1,0-2h16a1,1,0,0,1,0,2Z" fill="#fff"/>
          </g>
        </g>
        <g id="LINE-4" data-name="LINE">
          <g id="Group_136876" data-name="Group 136876">
            <path id="Path_193685" data-name="Path 193685" d="M249.222,267a1,1,0,0,1-1-1v-4a1,1,0,0,1,2,0v4A1,1,0,0,1,249.222,267Z" fill="#fff"/>
          </g>
        </g>
        <g id="LINE-5" data-name="LINE">
          <g id="Group_136877" data-name="Group 136877">
            <path id="Path_193686" data-name="Path 193686" d="M272.222,281h-9a1,1,0,0,1,0-2h9a1,1,0,0,1,0,2Z" fill="#fff"/>
          </g>
        </g>
        <g id="LINE-6" data-name="LINE">
          <g id="Group_136878" data-name="Group 136878">
            <path id="Path_193687" data-name="Path 193687" d="M263.222,281h-31.3a1,1,0,0,1,0-2h31.3a1,1,0,0,1,0,2Z" fill="#fff"/>
          </g>
        </g>
        <g id="LINE-7" data-name="LINE">
          <g id="Group_136879" data-name="Group 136879">
            <path id="Path_193688" data-name="Path 193688" d="M236.222,249h-2.3a1,1,0,0,1,0-2h2.3a1,1,0,0,1,0,2Z" fill="#fff"/>
          </g>
        </g>
        <g id="LINE-8" data-name="LINE">
          <g id="Group_136880" data-name="Group 136880">
            <path id="Path_193689" data-name="Path 193689" d="M270.222,241h-2a1,1,0,0,1,0-2h2a1,1,0,0,1,0,2Z" fill="#fff"/>
          </g>
        </g>
        <g id="LINE-9" data-name="LINE">
          <g id="Group_136881" data-name="Group 136881">
            <path id="Path_193690" data-name="Path 193690" d="M264.222,241h-20a1,1,0,0,1,0-2h20a1,1,0,0,1,0,2Z" fill="#fff"/>
          </g>
        </g>
        <g id="LINE-10" data-name="LINE">
          <g id="Group_136882" data-name="Group 136882">
            <path id="Path_193691" data-name="Path 193691" d="M272.222,255.6a1,1,0,0,1-1-1V242a1,1,0,0,1,2,0v12.6a1,1,0,0,1-1,1Z" fill="#fff"/>
          </g>
        </g>
        <g id="LINE-11" data-name="LINE">
          <g id="Group_136883" data-name="Group 136883">
            <path id="Path_193692" data-name="Path 193692" d="M273.388,281a1,1,0,0,1-1-1V268.283a1,1,0,0,1,2,0V280A1,1,0,0,1,273.388,281Z" fill="#fff"/>
          </g>
        </g>
        <g id="LINE-12" data-name="LINE">
          <g id="Group_136884" data-name="Group 136884">
            <path id="Path_193693" data-name="Path 193693" d="M275.916,281h-5.057a1,1,0,0,1,0-2h5.057a1,1,0,0,1,0,2Z" fill="#fff"/>
          </g>
        </g>
        <g id="ARC">
          <g id="Group_136885" data-name="Group 136885">
            <path id="Path_193694" data-name="Path 193694" d="M275.875,258.069c-.034,0-.069,0-.1-.005a1,1,0,0,1-.892-1.1,1.249,1.249,0,0,0-.552-1.3,1.888,1.888,0,0,0-1.882-.005,1.245,1.245,0,0,0-.551,1.289,1,1,0,1,1-1.991.2,3.222,3.222,0,0,1,1.486-3.187,3.9,3.9,0,0,1,4,.009,3.233,3.233,0,0,1,1.48,3.2,1,1,0,0,1-.992.9Z" fill="#fff"/>
          </g>
        </g>
        <g id="ARC-2" data-name="ARC">
          <g id="Group_136886" data-name="Group 136886">
            <path id="Path_193695" data-name="Path 193695" d="M268.72,262.524a1,1,0,0,1-.867-.5,4.027,4.027,0,0,1,2.909-5.963,1,1,0,1,1,.277,1.98,2.028,2.028,0,0,0-1.453,2.983,1,1,0,0,1-.866,1.5Z" fill="#fff"/>
          </g>
        </g>
        <g id="ARC-3" data-name="ARC">
          <g id="Group_136887" data-name="Group 136887">
            <path id="Path_193696" data-name="Path 193696" d="M277.939,262.524a.987.987,0,0,1-.5-.135,1,1,0,0,1-.364-1.366,2.028,2.028,0,0,0-1.378-2.97,1,1,0,1,1,.355-1.968,4.027,4.027,0,0,1,2.753,5.94A1,1,0,0,1,277.939,262.524Z" fill="#fff"/>
          </g>
        </g>
        <g id="ARC-4" data-name="ARC">
          <g id="Group_136888" data-name="Group 136888">
            <path id="Path_193697" data-name="Path 193697" d="M267.7,267.294a1,1,0,0,1-.74-.328,4.026,4.026,0,0,1,1.364-6.358,1,1,0,1,1,.8,1.834,2.029,2.029,0,0,0-.681,3.181,1,1,0,0,1-.739,1.671Z" fill="#fff"/>
          </g>
        </g>
        <g id="ARC-5" data-name="ARC">
          <g id="Group_136889" data-name="Group 136889">
            <path id="Path_193698" data-name="Path 193698" d="M268.576,272.265a.992.992,0,0,1-.386-.077,4.029,4.029,0,0,1-1.174-6.628,1,1,0,1,1,1.359,1.469,2.027,2.027,0,0,0,.586,3.313,1,1,0,0,1-.385,1.923Z" fill="#fff"/>
          </g>
        </g>
        <g id="ARC-6" data-name="ARC">
          <g id="Group_136890" data-name="Group 136890">
            <path id="Path_193699" data-name="Path 193699" d="M278.083,272.265a1,1,0,0,1-.386-1.923,2.027,2.027,0,0,0,.585-3.314,1,1,0,1,1,1.359-1.467,4.029,4.029,0,0,1-1.173,6.627,1,1,0,0,1-.385.077Z" fill="#fff"/>
          </g>
        </g>
        <g id="ARC-7" data-name="ARC">
          <g id="Group_136891" data-name="Group 136891">
            <path id="Path_193700" data-name="Path 193700" d="M278.962,267.294a1,1,0,0,1-.739-1.674,2.029,2.029,0,0,0-.681-3.179,1,1,0,0,1,.794-1.834,4.026,4.026,0,0,1,1.364,6.36.99.99,0,0,1-.738.327Z" fill="#fff"/>
          </g>
        </g>
        <g id="LINE-13" data-name="LINE">
          <g id="Group_136892" data-name="Group 136892">
            <path id="Path_193701" data-name="Path 193701" d="M238.222,273h-6.3a1,1,0,0,1,0-2h6.3a1,1,0,0,1,0,2Z" fill="#fff"/>
          </g>
        </g>
        <g id="LINE-14" data-name="LINE">
          <g id="Group_136893" data-name="Group 136893">
            <path id="Path_193702" data-name="Path 193702" d="M238.222,265h-6.3a1,1,0,0,1,0-2h6.3a1,1,0,0,1,0,2Z" fill="#fff"/>
          </g>
        </g>
        <g id="LINE-15" data-name="LINE">
          <g id="Group_136894" data-name="Group 136894">
            <path id="Path_193703" data-name="Path 193703" d="M238.222,257h-6.3a1,1,0,1,1,0-2h6.3a1,1,0,1,1,0,2Z" fill="#fff"/>
          </g>
        </g>
        <g id="LINE-16" data-name="LINE">
          <g id="Group_136895" data-name="Group 136895">
            <path id="Path_193704" data-name="Path 193704" d="M268.222,273h-5a1,1,0,0,1,0-2h5a1,1,0,0,1,0,2Z" fill="#fff"/>
          </g>
        </g>
        <g id="LINE-17" data-name="LINE">
          <g id="Group_136896" data-name="Group 136896">
            <path id="Path_193705" data-name="Path 193705" d="M268.222,257h-26a1,1,0,1,1,0-2h26a1,1,0,1,1,0,2Z" fill="#fff"/>
          </g>
        </g>
        <g id="LINE-18" data-name="LINE">
          <g id="Group_136897" data-name="Group 136897">
            <path id="Path_193706" data-name="Path 193706" d="M268.222,249h-26a1,1,0,0,1,0-2h26a1,1,0,1,1,0,2Z" fill="#fff"/>
          </g>
        </g>
        <g id="ARC-8" data-name="ARC">
          <g id="Group_136898" data-name="Group 136898">
            <path id="Path_193707" data-name="Path 193707" d="M272.222,243a1,1,0,0,1-1-1,1,1,0,0,0-1-1,1,1,0,0,1,0-2,3,3,0,0,1,3,3A1,1,0,0,1,272.222,243Z" fill="#fff"/>
          </g>
        </g>
        <g id="ARC-9" data-name="ARC">
          <g id="Group_136899" data-name="Group 136899">
            <path id="Path_193708" data-name="Path 193708" d="M231.925,251a1,1,0,0,1-1-1,3,3,0,0,1,3-3,1,1,0,0,1,0,2,1,1,0,0,0-1,1A1,1,0,0,1,231.925,251Z" fill="#fff"/>
          </g>
        </g>
        <g id="LINE-19" data-name="LINE">
          <g id="Group_136900" data-name="Group 136900">
            <path id="Path_193709" data-name="Path 193709" d="M231.925,281a1,1,0,0,1-1-1V250a1,1,0,0,1,2,0v30A1,1,0,0,1,231.925,281Z" fill="#fff"/>
          </g>
        </g>
        <g id="ARC-10" data-name="ARC">
          <g id="Group_136901" data-name="Group 136901">
            <path id="Path_193710" data-name="Path 193710" d="M242.222,243a1,1,0,0,1-1-1,3,3,0,0,1,3-3,1,1,0,0,1,0,2,1,1,0,0,0-1,1A1,1,0,0,1,242.222,243Z" fill="#fff"/>
          </g>
        </g>
        <g id="LINE-20" data-name="LINE">
          <g id="Group_136902" data-name="Group 136902">
            <path id="Path_193711" data-name="Path 193711" d="M242.222,281a1,1,0,0,1-1-1V242a1,1,0,0,1,2,0v38A1,1,0,0,1,242.222,281Z" fill="#fff"/>
          </g>
        </g>
        <g id="LINE-21" data-name="LINE">
          <g id="Group_136903" data-name="Group 136903">
            <path id="Path_193712" data-name="Path 193712" d="M251.222,273h-9a1,1,0,1,1,0-2h9a1,1,0,0,1,0,2Z" fill="#fff"/>
          </g>
        </g>
        <g id="LINE-22" data-name="LINE">
          <g id="Group_136904" data-name="Group 136904">
            <path id="Path_193713" data-name="Path 193713" d="M251.222,281a1,1,0,0,1-1-1V266a1,1,0,1,1,2,0v14A1,1,0,0,1,251.222,281Z" fill="#fff"/>
          </g>
        </g>
        <g id="LINE-23" data-name="LINE">
          <g id="Group_136905" data-name="Group 136905">
            <path id="Path_193714" data-name="Path 193714" d="M257.222,281a1,1,0,0,1-1-1V266a1,1,0,0,1,2,0v14A1,1,0,0,1,257.222,281Z" fill="#fff"/>
          </g>
        </g>
        <g id="LINE-24" data-name="LINE">
          <g id="Group_136906" data-name="Group 136906">
            <path id="Path_193715" data-name="Path 193715" d="M265.222,267h-16a1,1,0,1,1,0-2h16a1,1,0,0,1,0,2Z" fill="#fff"/>
          </g>
        </g>
        <g id="LINE-25" data-name="LINE">
          <g id="Group_136907" data-name="Group 136907">
            <path id="Path_193716" data-name="Path 193716" d="M246.222,241a1,1,0,0,1-1-1v-4a1,1,0,0,1,2,0v4A1,1,0,0,1,246.222,241Z" fill="#fff"/>
          </g>
        </g>
        <g id="LINE-26" data-name="LINE">
          <g id="Group_136908" data-name="Group 136908">
            <path id="Path_193717" data-name="Path 193717" d="M246.221,237a1,1,0,0,1-.177-1.983l22-4a1,1,0,0,1,.357,1.967l-22,4a1.012,1.012,0,0,1-.18.016Z" fill="#fff"/>
          </g>
        </g>
        <g id="LINE-27" data-name="LINE">
          <g id="Group_136909" data-name="Group 136909">
            <path id="Path_193718" data-name="Path 193718" d="M268.222,241a1,1,0,0,1-1-1v-8a1,1,0,0,1,2,0v8A1,1,0,0,1,268.222,241Z" fill="#fff"/>
          </g>
        </g>
      </g>
    </g>
    <g id="Group_136911" data-name="Group 136911" transform="translate(220.418 3069)">
      <path id="Path_193719" data-name="Path 193719" d="M236.067,240.02l1.3-.866-1.272-1.909,1.272-1.909-1.3-.866-1.561,2.341a.784.784,0,0,0,0,.866Z" fill="#fff"/>
      <path id="Path_193720" data-name="Path 193720" d="M243.61,240.02l1.562-2.342a.78.78,0,0,0,0-.866l-1.562-2.341-1.3.865,1.272,1.909-1.272,1.908Z" fill="#fff"/>
      <path id="Path_193721" data-name="Path 193721" d="M238.318,239.339l1.562-4.683,1.481.494-1.563,4.683Z" fill="#fff"/>
      <path id="Path_193722" data-name="Path 193722" d="M244.522,254.417a.778.778,0,0,0,.552-.229l3.122-3.122a.776.776,0,0,0,.229-.552V231.781a.781.781,0,0,0-.781-.781H232.033a.781.781,0,0,0-.78.781v21.855a.781.781,0,0,0,.78.781Zm0-1.885v-2.018h2.019Zm-11.708-19.97h14.05v16.391h-3.122a.781.781,0,0,0-.781.78v3.123H232.814Z" fill="#fff"/>
      <path id="Path_193723" data-name="Path 193723" d="M234.375,241.928h7.806v1.561h-7.806Z" fill="#fff"/>
      <path id="Path_193724" data-name="Path 193724" d="M243.742,241.928H245.3v1.561h-1.561Z" fill="#fff"/>
      <path id="Path_193725" data-name="Path 193725" d="M234.375,245.05h7.806v1.561h-7.806Z" fill="#fff"/>
      <path id="Path_193726" data-name="Path 193726" d="M243.742,245.05H245.3v1.561h-1.561Z" fill="#fff"/>
      <path id="Path_193727" data-name="Path 193727" d="M234.375,248.172h3.9v1.561h-3.9Z" fill="#fff"/>
      <path id="Path_193728" data-name="Path 193728" d="M239.839,248.172H241.4v1.561h-1.561Z" fill="#fff"/>
      <path id="Path_193729" data-name="Path 193729" d="M266.382,265.372l-4.918-2.155-1.733-2.312a3.889,3.889,0,0,0,1.963-3.366v-7.025a3.907,3.907,0,0,0-3.9-3.9h-3.122a3.908,3.908,0,0,0-3.9,3.9v7.025a3.89,3.89,0,0,0,1.964,3.366l-1.724,2.3-4.813,1.928a3.886,3.886,0,0,0-2.451,3.623v11.419a.781.781,0,0,0,.779.78l23.416.045h0a.778.778,0,0,0,.781-.78V268.947A3.9,3.9,0,0,0,266.382,265.372Zm-14.054-14.858a2.344,2.344,0,0,1,2.341-2.342h3.122a2.345,2.345,0,0,1,2.342,2.342v2.342h-2.342a2.344,2.344,0,0,1-2.341-2.342v-.781h-1.561v.781a3.907,3.907,0,0,0,3.9,3.9h2.342v3.122a2.344,2.344,0,0,1-2.342,2.341h-3.122a2.343,2.343,0,0,1-2.341-2.341Zm1.951,10.928h3.9l1.613,2.149-3.565,2.376-3.564-2.376Zm12.879,18-3.122-.007V273.15h-1.561v6.278l-12.489-.024V273.15h-1.561V279.4L245.3,279.4v-10.64a2.332,2.332,0,0,1,1.47-2.174l4.684-1.876L255.8,267.6a.776.776,0,0,0,.866,0l4.328-2.885,4.764,2.087a2.34,2.34,0,0,1,1.4,2.145Z" fill="#fff"/>
      <path id="Path_193730" data-name="Path 193730" d="M255.45,272.369h1.561v4.683H255.45Z" fill="#fff"/>
      <path id="Path_193731" data-name="Path 193731" d="M255.45,269.247h1.561v1.561H255.45Z" fill="#fff"/>
      <path id="Path_193732" data-name="Path 193732" d="M267.158,246.611h3.122v1.561h-3.122Z" fill="#fff"/>
      <path id="Path_193733" data-name="Path 193733" d="M280.427,231H264.816a.781.781,0,0,0-.78.781v21.855a.781.781,0,0,0,.78.781h15.611a.781.781,0,0,0,.781-.781V231.781A.781.781,0,0,0,280.427,231Zm-14.83,1.562h14.05v1.561H265.6Zm0,20.294V235.684h14.05v17.172Z" fill="#fff"/>
      <path id="Path_193734" data-name="Path 193734" d="M277.3,237.245h-9.367a.78.78,0,0,0-.78.78v6.245a.78.78,0,0,0,.78.78H277.3a.78.78,0,0,0,.78-.78v-6.245A.779.779,0,0,0,277.3,237.245Zm-.781,6.244h-7.8v-4.683h7.8Z" fill="#fff"/>
      <path id="Path_193735" data-name="Path 193735" d="M270.28,240.367h4.683v1.561H270.28Z" fill="#fff"/>
      <path id="Path_193736" data-name="Path 193736" d="M271.841,246.611h6.244v1.561h-6.244Z" fill="#fff"/>
      <path id="Path_193737" data-name="Path 193737" d="M267.158,249.733h7.805v1.562h-7.805Z" fill="#fff"/>
      <path id="Path_193738" data-name="Path 193738" d="M276.524,249.733h1.561v1.562h-1.561Z" fill="#fff"/>
      <path id="Path_193739" data-name="Path 193739" d="M274.183,263.783h-1.561v1.561h2.341a.78.78,0,0,0,.781-.78v-2.342h-1.561Z" fill="#fff"/>
      <path id="Path_193740" data-name="Path 193740" d="M269.5,263.783h1.562v1.561H269.5Z" fill="#fff"/>
      <path id="Path_193741" data-name="Path 193741" d="M274.183,259.1h1.561v1.561h-1.561Z" fill="#fff"/>
      <path id="Path_193742" data-name="Path 193742" d="M274.183,255.978h1.561v1.561h-1.561Z" fill="#fff"/>
      <path id="Path_193743" data-name="Path 193743" d="M239.058,262.222H237.5v2.342a.78.78,0,0,0,.781.78h2.341v-1.561h-1.561Z" fill="#fff"/>
      <path id="Path_193744" data-name="Path 193744" d="M242.181,263.783h1.561v1.561h-1.561Z" fill="#fff"/>
      <path id="Path_193745" data-name="Path 193745" d="M237.5,259.1h1.561v1.561H237.5Z" fill="#fff"/>
      <path id="Path_193746" data-name="Path 193746" d="M237.5,255.978h1.561v1.561H237.5Z" fill="#fff"/>
      <path id="Path_193747" data-name="Path 193747" d="M250.766,237.245h6.245v-1.561h-4.786l.752-1.128-1.3-.866-1.561,2.342a.78.78,0,0,0,.649,1.213Z" fill="#fff"/>
      <path id="Path_193748" data-name="Path 193748" d="M258.572,235.684h1.561v1.561h-1.561Z" fill="#fff"/>
      <path id="Path_193749" data-name="Path 193749" d="M255.45,241.928h4.785l-.751,1.128,1.3.866,1.561-2.342a.779.779,0,0,0-.649-1.213H255.45Z" fill="#fff"/>
      <path id="Path_193750" data-name="Path 193750" d="M252.328,240.367h1.561v1.561h-1.561Z" fill="#fff"/>
    </g>
  </g>
</svg>
