<svg xmlns="http://www.w3.org/2000/svg" width="51.547" height="60" viewBox="0 0 51.547 60">
  <g id="_11" data-name="11" transform="translate(-18.361 -16.601)">
    <path id="Path_199484" data-name="Path 199484" d="M46.823,33.855c-.9.026-1.8.043-2.688.043s-1.8-.014-2.693-.043a60.577,60.577,0,0,1-17.942-2.8,21.144,21.144,0,0,1-5.138-2.426v9.691c2.935,3.062,12.778,5.887,25.774,5.887s22.838-2.825,25.774-5.887V28.628a21.11,21.11,0,0,1-5.182,2.441A60.634,60.634,0,0,1,46.823,33.855Z" transform="translate(0 16.838)" fill="#fff"/>
    <path id="Path_199485" data-name="Path 199485" d="M18.361,23v9.691c2.719,2.839,11.376,5.474,22.975,5.842.12,0,.24.007.36.01.336.01.672.019,1.013.024q.706.011,1.426.012t1.426-.012c.341,0,.677-.014,1.013-.024l.36-.007c11.6-.37,20.256-3,22.975-5.844V23c-5.018,3.446-15.626,5.268-25.774,5.268S23.379,26.442,18.361,23Z" transform="translate(0 8.953)" fill="#fff"/>
    <path id="Path_199486" data-name="Path 199486" d="M69.769,25.407C68.612,20.971,59.718,16.6,44.135,16.6c-15.542,0-24.43,4.349-25.622,8.772a1.009,1.009,0,0,0-.151.5v2.378c2.926,3.053,12.7,5.87,25.774,5.87s22.848-2.818,25.774-5.87V25.877A.937.937,0,0,0,69.769,25.407Z" transform="translate(0)" fill="#fff"/>
    <path id="Path_199487" data-name="Path 199487" d="M18.361,34.212v8.455a.96.96,0,0,0,.122.463c1.217,5.047,12.108,8.815,25.651,8.815,13.512,0,24.386-3.754,25.644-8.782a1.021,1.021,0,0,0,.13-.5V34.214c-4.265,3-13.046,5.359-25.774,5.359S22.623,37.212,18.361,34.212Z" transform="translate(0 24.655)" fill="#fff"/>
  </g>
</svg>
