<svg xmlns="http://www.w3.org/2000/svg" width="60" height="60" viewBox="0 0 60 60">
  <g id="_13" data-name="13" transform="translate(-243.499 -243.499)">
    <path id="Path_199491" data-name="Path 199491" d="M274.673,254.407a4.89,4.89,0,0,0-6.751-.857l-7.459,5.594-.739-.924a4.877,4.877,0,0,0-7.617,6.091l4.032,5.04a4.482,4.482,0,0,0,6.223.761l11.465-8.767a4.89,4.89,0,0,0,.847-6.938Z" transform="translate(10.553 12.702)" fill="#fff"/>
    <path id="Path_199492" data-name="Path 199492" d="M268.084,245.711a7.738,7.738,0,0,1,10.833,0,3.989,3.989,0,0,0,3.785,1.015,7.742,7.742,0,0,1,9.384,5.417,3.994,3.994,0,0,0,2.77,2.772,7.737,7.737,0,0,1,5.417,9.381,4,4,0,0,0,1.015,3.787,7.738,7.738,0,0,1,0,10.833,4,4,0,0,0-1.015,3.785,7.74,7.74,0,0,1-5.417,9.384,3.986,3.986,0,0,0-2.77,2.77,7.74,7.74,0,0,1-9.384,5.417,4,4,0,0,0-3.785,1.015,7.738,7.738,0,0,1-10.833,0,4,4,0,0,0-3.787-1.015,7.737,7.737,0,0,1-9.381-5.417,3.994,3.994,0,0,0-2.772-2.77,7.742,7.742,0,0,1-5.417-9.384,3.989,3.989,0,0,0-1.015-3.785,7.738,7.738,0,0,1,0-10.833,3.993,3.993,0,0,0,1.015-3.787,7.738,7.738,0,0,1,5.417-9.381,4,4,0,0,0,2.772-2.772,7.738,7.738,0,0,1,9.381-5.417,3.993,3.993,0,0,0,3.787-1.015ZM252.875,273.5A20.624,20.624,0,1,1,273.5,294.123,20.623,20.623,0,0,1,252.875,273.5Z" transform="translate(0 0)" fill="#fff" fill-rule="evenodd"/>
  </g>
</svg>
