<svg xmlns="http://www.w3.org/2000/svg" width="60" height="48.796" viewBox="0 0 60 48.796">
  <g id="_14" data-name="14" transform="translate(-1309.667 -2610)">
    <g id="Group_141119" data-name="Group 141119" transform="translate(1309.667 2610)">
      <path id="Path_199493" data-name="Path 199493" d="M266.208,248.291a15.047,15.047,0,1,0,15.047,15.047,15.063,15.063,0,0,0-15.047-15.047Zm7.1,16.8h-8.854V252.757h3.515v8.822H273.3Z" transform="translate(-230.606 -238.94)" fill="#fff"/>
      <path id="Path_199494" data-name="Path 199494" d="M276.3,243.5a24.292,24.292,0,0,0-14.334,4.6h-13.3a3.8,3.8,0,0,0,0,7.6H255.1a24.182,24.182,0,0,0-2.686,6.906h-7.983a3.8,3.8,0,1,0,0,7.595h7.515a24.257,24.257,0,0,0,1.69,6.906H250.92a3.8,3.8,0,1,0,0,7.595h7.624A24.4,24.4,0,1,0,276.3,243.5Zm-.066,42.96A18.563,18.563,0,1,1,294.794,267.9a18.583,18.583,0,0,1-18.562,18.562Z" transform="translate(-240.63 -243.5)" fill="#fff"/>
    </g>
  </g>
</svg>
