<svg xmlns="http://www.w3.org/2000/svg" xmlns:xlink="http://www.w3.org/1999/xlink" width="295" height="322.67" viewBox="0 0 295 322.67">
  <defs>
    <clipPath id="clip-path">
      <path id="Path_198943" data-name="Path 198943" d="M179.617,230.87l-13.625,7.867-8.375,4.831a8.916,8.916,0,0,0-.789.457,11.1,11.1,0,0,0-5.322,9.551l-.007,39.154a11.08,11.08,0,0,1-4.492,8.985,11.342,11.342,0,0,1-6.776,2.277,11.156,11.156,0,0,1-5.6-1.523,33.741,33.741,0,0,1-16.868-29.216V232.639a33.734,33.734,0,0,0-16.868-29.216l61.854-35.713h0a33.767,33.767,0,0,1,16.875,29.23v17.692C179.624,219.691,179.617,230.87,179.617,230.87Z" transform="translate(-100.894 -167.71)" fill="none"/>
    </clipPath>
  </defs>
  <g id="_14" data-name="14" transform="translate(-752 -4145)">
    <path id="Path_194495" data-name="Path 194495" d="M147.5,0A147.5,147.5,0,1,1,0,147.5,147.5,147.5,0,0,1,147.5,0Z" transform="translate(752 4145)" fill="#bddcf6" opacity="0.74"/>
    <g id="Group_140818" data-name="Group 140818" transform="translate(783.636 4168.727)">
      <g id="Shadows" transform="translate(29.543 190.987)">
        <path id="Shadow" d="M115,340.127l128.2,74.018,58.757-33.924L173.732,306.188Z" transform="translate(-115.001 -306.188)" fill="#e0e0e0"/>
      </g>
      <g id="Device" transform="translate(0 0)">
        <g id="Device-2" data-name="Device">
          <g id="Device-3" data-name="Device">
            <g id="Group_140818-2" data-name="Group 140818" transform="translate(9.017 5.492)">
              <path id="Path_198850" data-name="Path 198850" d="M165.393,24.46l-78.75,45.46a6.353,6.353,0,0,0-2.861,4.963V252.477c0,1.825,1.284,2.568,2.861,1.652l78.75-45.46a6.352,6.352,0,0,0,2.861-4.963V26.111C168.254,24.287,166.97,23.544,165.393,24.46Zm-1.262,162.882c0,1.562-1.1,2.557-2.454,3.338l-71.6,41.338c-1.351.781-2.455.151-2.455-1.419V91.482a5.451,5.451,0,0,1,2.455-4.257l71.6-41.331c1.358-.788,2.454-.15,2.454,1.412Z" transform="translate(-83.783 -24.067)" fill="#37474f"/>
            </g>
            <g id="Group_140819" data-name="Group 140819" transform="translate(0 48.281)">
              <path id="Path_198851" data-name="Path 198851" d="M81.59,276.6a6.41,6.41,0,0,1-5.374-.178l-3.275-1.893a6.312,6.312,0,0,1-2.871-4.963V91.982a5.411,5.411,0,0,1,.5-2.141,6.885,6.885,0,0,1,.341-.688.007.007,0,0,0,.007-.007l9.011,5.2h.007a7.85,7.85,0,0,0-.5,1.049,5.212,5.212,0,0,0-.347,1.773v177.6C79.087,276.449,80.179,277.215,81.59,276.6Z" transform="translate(-70.069 -89.146)" fill="#263238"/>
            </g>
            <path id="Path_198852" data-name="Path 198852" d="M146.7,315.341c2.5-1.441,4.521-.273,4.521,2.61a9.995,9.995,0,0,1-4.521,7.831c-2.5,1.441-4.521.273-4.521-2.61A9.993,9.993,0,0,1,146.7,315.341Z" transform="translate(-94.767 -118.125)" fill="#27aade"/>
            <g id="Group_140820" data-name="Group 140820" transform="translate(42.24 32.182)">
              <path id="Path_198853" data-name="Path 198853" d="M147.02,64.922c1.06-.612,1.919-.116,1.919,1.109a4.244,4.244,0,0,1-1.919,3.325c-1.061.613-1.92.116-1.92-1.108A4.242,4.242,0,0,1,147.02,64.922Z" transform="translate(-138.007 -64.66)"/>
              <path id="Path_198854" data-name="Path 198854" d="M135.914,78.241l14.823-8.558c.884-.51,1.6-.148,1.6.81a3.434,3.434,0,0,1-1.6,2.66L135.913,81.71c-.884.51-1.6.147-1.6-.81A3.436,3.436,0,0,1,135.914,78.241Z" transform="translate(-134.312 -66.301)"/>
            </g>
            <path id="Path_198855" data-name="Path 198855" d="M166.13,198.313c0,1.562-1.1,2.557-2.454,3.337l-71.6,41.338c-1.351.78-2.455.15-2.455-1.419V102.454A5.451,5.451,0,0,1,92.073,98.2l71.6-41.331c1.358-.788,2.454-.15,2.454,1.412Z" transform="translate(-76.765 -29.693)" fill="#27aade" stroke="#fff" stroke-miterlimit="10" stroke-width="1"/>
            <g id="Group_140821" data-name="Group 140821" transform="translate(0.844)">
              <path id="Path_198856" data-name="Path 198856" d="M163.968,22.8c-.206-1.489-1.4-2.028-2.829-1.2L82.384,67.059A5.833,5.833,0,0,0,80.363,69.2L71.352,64a5.8,5.8,0,0,1,2.028-2.127L152.121,16.4a6.324,6.324,0,0,1,5.729,0l3.29,1.886A6.424,6.424,0,0,1,163.968,22.8Z" transform="translate(-71.352 -15.715)" fill="#455a64"/>
            </g>
          </g>
          <g id="Group_140822" data-name="Group 140822" transform="translate(28.991 70.957)">
            <path id="Path_198857" data-name="Path 198857" d="M119.368,154.6a4.822,4.822,0,0,1,2.247-.735,2.641,2.641,0,0,1,1.756.565,3.833,3.833,0,0,1,1.159,1.76,9.3,9.3,0,0,1,.471,2.815q.02.566.019,1.046v1.827c0,.311-.006.654-.019,1.026a15.813,15.813,0,0,1-.463,3.37,14.754,14.754,0,0,1-1.132,3.069,12.2,12.2,0,0,1-1.721,2.573,8.8,8.8,0,0,1-2.228,1.849l-4.815,2.781a.258.258,0,0,1-.338-.025.584.584,0,0,1-.143-.439V158.347a1.4,1.4,0,0,1,.143-.6.9.9,0,0,1,.338-.415Zm2.335,6.2q-.108-3.1-2.426-1.757l-1.818,1.05v10.431l1.908-1.1a4.937,4.937,0,0,0,2.335-4.5c.011-.392.018-.757.018-1.1v-1.963C121.721,161.531,121.714,161.178,121.7,160.8Z" transform="translate(-114.161 -133.987)" fill="#fff"/>
            <path id="Path_198858" data-name="Path 198858" d="M139.329,142.669q.357-.205.544-.012a1.047,1.047,0,0,1,.259.455l3.887,15.05a1.37,1.37,0,0,1,.072.371,1.145,1.145,0,0,1-.116.492.729.729,0,0,1-.276.338l-2.247,1.3q-.357.206-.509.06a.623.623,0,0,1-.187-.345l-.5-1.99-4.743,2.738-.5,2.566a2.037,2.037,0,0,1-.187.562,1.2,1.2,0,0,1-.509.527l-2.246,1.3a.211.211,0,0,1-.277-.018.48.48,0,0,1-.115-.359,2.379,2.379,0,0,1,.071-.452l3.887-19.539a3.562,3.562,0,0,1,.258-.753,1.319,1.319,0,0,1,.544-.616Zm-2.888,13.664,2.888-1.667-1.444-5.755Z" transform="translate(-120.161 -130.117)" fill="#fff"/>
            <path id="Path_198859" data-name="Path 198859" d="M159.554,130.3a.259.259,0,0,1,.339.024.588.588,0,0,1,.143.439v2.91a1.409,1.409,0,0,1-.143.6.908.908,0,0,1-.339.416l-3.138,1.812v14.082a1.409,1.409,0,0,1-.143.6.918.918,0,0,1-.339.416l-2.336,1.348a.257.257,0,0,1-.339-.024.584.584,0,0,1-.142-.439V138.406l-3.139,1.812a.259.259,0,0,1-.339-.024.582.582,0,0,1-.143-.439v-2.91a1.394,1.394,0,0,1,.143-.6.9.9,0,0,1,.339-.415Z" transform="translate(-126.264 -125.898)" fill="#fff"/>
            <path id="Path_198860" data-name="Path 198860" d="M172.116,123.739c.238-.137.419-.141.544-.012a1.056,1.056,0,0,1,.258.455l3.887,15.051a1.342,1.342,0,0,1,.072.371,1.136,1.136,0,0,1-.116.492.734.734,0,0,1-.276.339l-2.247,1.3q-.357.206-.508.06a.62.62,0,0,1-.187-.345l-.5-1.991-4.743,2.738-.5,2.567a2.04,2.04,0,0,1-.187.561,1.2,1.2,0,0,1-.508.527l-2.247,1.3a.211.211,0,0,1-.277-.019.48.48,0,0,1-.115-.358,2.375,2.375,0,0,1,.071-.453l3.887-19.539a3.559,3.559,0,0,1,.258-.753,1.324,1.324,0,0,1,.544-.617ZM169.227,137.4l2.888-1.667-1.444-5.755Z" transform="translate(-131.391 -123.633)" fill="#fff"/>
          </g>
        </g>
      </g>
      <g id="Character" transform="translate(179.306 42.167)">
        <g id="Character-2" data-name="Character">
          <g id="Group_140824" data-name="Group 140824" transform="translate(9.107 31.3)">
            <g id="Group_140823" data-name="Group 140823">
              <path id="Path_198861" data-name="Path 198861" d="M376.858,127.452c-4.176.2-5.608.992-7.794,3.567-2.134,2.514-12.435,21.6-12.435,21.6s1.933,5.418,6.162,4.957l7.908-12.752Z" transform="translate(-356.629 -127.452)" fill="#ffa8a7"/>
            </g>
          </g>
          <path id="Path_198862" data-name="Path 198862" d="M380.446,127.413a13.112,13.112,0,0,0-5.138.383c-2.14.774-3.209,2.322-4.682,4.572-1.141,1.74-5.134,8.968-5.134,8.968s1.946,5.41,7.477,5.41Z" transform="translate(-350.557 -96.105)" fill="#e0e0e0"/>
          <g id="Character-3" data-name="Character" transform="translate(11.847)">
            <g id="Group_140825" data-name="Group 140825" transform="translate(0 67.128)">
              <path id="Path_198863" data-name="Path 198863" d="M404.781,333.433v-.905c-.356,1.062-2.012,5.632-4.523,7.922-2,1.821-4.719,3.924-5.412,5.954-.72,2.111,3.789,2.82,5.655,2.49A11.5,11.5,0,0,0,407,345.4c1.073-1.318,1.756-2.881,2.522-3.917s2.532-2.193,2.946-3.393a7.655,7.655,0,0,0-.362-3.322c-.293-1.118-.611-2.349-.993-2.244,0,.137,0,.69,0,.69a5.007,5.007,0,0,1-3.164,1.069C407.02,334.323,404.773,334.139,404.781,333.433Z" transform="translate(-372.431 -233.516)" fill="#263238"/>
              <path id="Path_198864" data-name="Path 198864" d="M400.01,339.352c.619-.552,1.242-1.092,1.807-1.608a18.359,18.359,0,0,0,3.86-6.165,8.682,8.682,0,0,0,.664-3.33v-3.607h6.328v5.871h0v.156l-.032.016c-.3,1.315-3.209,4.813-4.859,7.094a9.183,9.183,0,0,1-5.718,3.81C399.68,341.907,398.463,341.157,400.01,339.352Z" transform="translate(-373.99 -230.817)" fill="#ffa8a7"/>
              <path id="Path_198865" data-name="Path 198865" d="M370.808,323.945v-.905c-.357,1.062-2.013,5.632-4.524,7.922-2,1.821-4.719,3.923-5.411,5.953-.721,2.111,3.789,2.82,5.654,2.49a11.505,11.505,0,0,0,6.5-3.488c1.072-1.318,1.756-2.881,2.522-3.917s2.532-2.194,2.946-3.394a7.651,7.651,0,0,0-.362-3.322c-.294-1.119-.612-2.349-.993-2.245,0,.137,0,.69,0,.69a5,5,0,0,1-3.164,1.07C373.046,324.835,370.8,324.651,370.808,323.945Z" transform="translate(-360.795 -230.266)" fill="#263238"/>
              <path id="Path_198866" data-name="Path 198866" d="M366.036,329.864c.619-.552,1.242-1.092,1.807-1.608a18.369,18.369,0,0,0,3.86-6.165,8.678,8.678,0,0,0,.663-3.33v-3.607h6.328v5.871h0v.156l-.032.016c-.305,1.315-3.209,4.813-4.859,7.094a9.183,9.183,0,0,1-5.719,3.81C365.706,332.419,364.49,331.669,366.036,329.864Z" transform="translate(-362.354 -227.568)" fill="#ffa8a7"/>
              <path id="Path_198867" data-name="Path 198867" d="M402.046,183.511c4.906,10.715-.177,48.462-.177,48.462.148,1.739,2.136,5.161,2.877,12.813.875,9.043-1.374,31.749-1.374,31.749a6.847,6.847,0,0,1-6.4.254s-6.031-34.2-7.165-43.187c-.99-7.847-2.89-25.1-2.89-25.1l-3.053,25.057a46.628,46.628,0,0,1,1.71,7.744c.512,5.288-4.612,29.911-4.612,29.911a14.056,14.056,0,0,1-6.328.191s-1.812-32.675-2.29-39.046c-.8-10.7-.307-44.083,1.656-50.416Z" transform="translate(-364.627 -181.943)" fill="#455a64"/>
              <path id="Path_198868" data-name="Path 198868" d="M388.772,214.929l-1.593-9.953s-6.738-1.4-9.794-4.269A17.43,17.43,0,0,0,385.353,206l1.789,7.663-1.219,24.651Z" transform="translate(-366.477 -188.37)" fill="#37474f"/>
            </g>
            <path id="Path_198869" data-name="Path 198869" d="M394.043,127.621h0c1.865.129,2.489.083,3.842.222,2.7.277,3.356,4.234,4.462,6.57a10.767,10.767,0,0,1,.3,8.107l-4.384,12.68s2.053,4.96,4.435,9.648c-11,6.139-24.734,2.912-28.041-1.568-.14-.95.71-8.379,1.233-13.232-1.938-4.86-2.449-7.94-1.631-11.153,1.517-5.962,6.953-11.449,8.509-11.443Z" transform="translate(-365.278 -96.152)" fill="#f0f0f0"/>
            <g id="Group_140833" data-name="Group 140833" transform="translate(8.453)">
              <path id="Path_198870" data-name="Path 198870" d="M403.366,87.248l-2.276-.2a1.757,1.757,0,0,0,.677-.681,1.945,1.945,0,0,0-.73-2.586l-1.468,2.666A13.264,13.264,0,0,0,387.4,79.866l-1.174.062a13.275,13.275,0,0,0-12.551,13.963c.4,7.564.848,16.025.848,16.025l13.66-.727A14.048,14.048,0,0,0,401.46,94.413l-.1-2a13.249,13.249,0,0,0-.723-3.648,1.773,1.773,0,0,0,.661.193A1.945,1.945,0,0,0,403.366,87.248Z" transform="translate(-373.652 -79.847)" fill="#455a64"/>
              <g id="Group_140826" data-name="Group 140826" transform="translate(2.424 8.772)">
                <path id="Path_198871" data-name="Path 198871" d="M377.385,99.349a26.779,26.779,0,0,0,.112,4.35c.521,6.806,2.819,8.372,3.954,8.8s3.259.017,5.319-.44v4.025s-2.477,3.556-2.2,5.422,4.273,2.1,6.866.122a12.053,12.053,0,0,0,3.643-5.335l0-9.407a2.615,2.615,0,0,0,3.719.153c2.215-1.647,2.1-5.426.694-6.71s-4.315-.74-4.752,1.162c0,0-4.8-.4-5.405-8.3C384.88,99,377.667,94.807,377.385,99.349Z" transform="translate(-377.338 -93.188)" fill="#ffa8a7"/>
              </g>
              <path id="Path_198872" data-name="Path 198872" d="M402.494,103.674l.179,3.372h0a2.3,2.3,0,0,1-2.417-2.173l-.2-3.764Z" transform="translate(-382.695 -87.129)" fill="#455a64"/>
              <g id="Group_140827" data-name="Group 140827" transform="translate(10.998 16.059)">
                <path id="Path_198873" data-name="Path 198873" d="M390.379,105.168a.859.859,0,1,0,.855-.9A.872.872,0,0,0,390.379,105.168Z" transform="translate(-390.379 -104.271)" fill="#263238"/>
              </g>
              <g id="Group_140828" data-name="Group 140828" transform="translate(8.646 22.995)">
                <path id="Path_198874" data-name="Path 198874" d="M389.1,114.82l-2.295.869a1.2,1.2,0,0,0,1.562.757A1.285,1.285,0,0,0,389.1,114.82Z" transform="translate(-386.802 -114.82)" fill="#f28f8f"/>
              </g>
              <g id="Group_140829" data-name="Group 140829" transform="translate(11.936 12.379)">
                <path id="Path_198875" data-name="Path 198875" d="M391.806,99.4l2.01.649a1.014,1.014,0,0,0-.64-1.326A1.109,1.109,0,0,0,391.806,99.4Z" transform="translate(-391.806 -98.674)" fill="#455a64"/>
              </g>
              <g id="Group_140830" data-name="Group 140830" transform="translate(3.632 16.43)">
                <path id="Path_198876" data-name="Path 198876" d="M379.176,105.732a.859.859,0,1,0,.855-.9A.871.871,0,0,0,379.176,105.732Z" transform="translate(-379.176 -104.836)" fill="#263238"/>
              </g>
              <g id="Group_140831" data-name="Group 140831" transform="translate(6.017 16.6)">
                <path id="Path_198877" data-name="Path 198877" d="M385.425,105.093l.138,5.166-2.76-.7Z" transform="translate(-382.803 -105.093)" fill="#f28f8f"/>
              </g>
              <g id="Group_140832" data-name="Group 140832" transform="translate(11.856 23.881)">
                <path id="Path_198878" data-name="Path 198878" d="M391.684,119.928c2.177-.4,6.616-1.94,7.224-3.76a4.62,4.62,0,0,1-1.46,2.359c-1.285,1.226-5.764,2.765-5.764,2.765Z" transform="translate(-391.684 -116.168)" fill="#f28f8f"/>
              </g>
            </g>
            <path id="Path_198879" data-name="Path 198879" d="M394,170.023c3.613-.855,4.3-2.216,3.345-5.8a2.707,2.707,0,0,0-.112-.346c-.707-1.7-3.53-.69-3.53-.69s1.155-1.44,2.452-3.275,1.877-4.87,2.05-7,.521-6.394.521-6.394a4.039,4.039,0,0,0,1.715-4.759l4.34-2.667.817.568a11.028,11.028,0,0,1-.181,6.85l-4.384,12.68a71.762,71.762,0,0,1,4.435,9.648,28.434,28.434,0,0,1-23.5,1.557A32.067,32.067,0,0,0,394,170.023Z" transform="translate(-368.045 -100.137)" fill="#e6e6e6"/>
            <path id="Path_198880" data-name="Path 198880" d="M394.89,103.086l-4.969.265a2.777,2.777,0,0,0-2.827-2.057l-.428.023a2.776,2.776,0,0,0-2.468,1.851,2.383,2.383,0,0,0-1.654-.617,2.038,2.038,0,0,0-1.406.5,2.764,2.764,0,0,0-2.49-1.309l-.427.022a2.774,2.774,0,0,0,.295,5.539l.428-.022a2.777,2.777,0,0,0,2.622-2.917,2.741,2.741,0,0,0-.2-.871,1.532,1.532,0,0,1,1.183-.477,1.831,1.831,0,0,1,1.5.667l.022-.015a2.808,2.808,0,0,0-.028.563,2.776,2.776,0,0,0,2.917,2.622l.428-.022a2.778,2.778,0,0,0,2.623-2.917c0-.035-.012-.066-.016-.1l4.443-.237A2.391,2.391,0,0,1,394.89,103.086Zm-15.971,3.73-.428.023a2.306,2.306,0,0,1-.245-4.605l.427-.023a2.306,2.306,0,1,1,.245,4.605Zm8.445-.45-.427.023a2.306,2.306,0,0,1-.245-4.605l.427-.023a2.306,2.306,0,1,1,.245,4.605Z" transform="translate(-365.865 -87.191)" fill="#263238"/>
          </g>
          <g id="Group_140841" data-name="Group 140841" transform="translate(0 52.101)">
            <g id="Group_140834" data-name="Group 140834" transform="translate(0 0.334)">
              <path id="Path_198881" data-name="Path 198881" d="M342.778,159.6l22.214,5.851,6.115,25.134-21.12-6.134Z" transform="translate(-342.778 -159.596)" fill="#4dd0e1"/>
              <path id="Path_198882" data-name="Path 198882" d="M342.778,159.6l22.214,5.851,6.115,25.134-21.12-6.134Z" transform="translate(-342.778 -159.596)" opacity="0.25"/>
              <path id="Path_198883" data-name="Path 198883" d="M365.542,191.168c.141,1.36,1.095,2.934,3.87,4.26s8.181.585,8.181.585l-.752-3.094Z" transform="translate(-350.574 -170.409)" opacity="0.2"/>
            </g>
            <g id="Group_140835" data-name="Group 140835" transform="translate(5.722 18.132)" opacity="0.2">
              <path id="Path_198884" data-name="Path 198884" d="M355.8,186.666a4.508,4.508,0,0,1-4.09,2.7l-.225-.775Z" transform="translate(-351.48 -186.666)"/>
            </g>
            <g id="Group_140836" data-name="Group 140836" transform="translate(6.503 3.114)" opacity="0.1">
              <path id="Path_198885" data-name="Path 198885" d="M352.857,165.037l-.183-.848c-.1-.468,1.2-.488,2.912-.045l3.273.849c1.709.443,3.176,1.182,3.278,1.65l.183.847Z" transform="translate(-352.668 -163.825)"/>
            </g>
            <g id="Group_140837" data-name="Group 140837" transform="translate(4.98)">
              <path id="Path_198886" data-name="Path 198886" d="M350.357,160.23c-.064-.293.464-.369,1.18-.172l1.3.358s-.387-1.832,2.489-1.192a4.506,4.506,0,0,1,3.5,2.721l1.383.393c.765.217,1.457.629,1.548.921l.164.527-11.443-3.013S350.422,160.522,350.357,160.23Z" transform="translate(-350.352 -159.088)" fill="#37474f"/>
            </g>
            <g id="Group_140838" data-name="Group 140838" transform="translate(6.228 1.694)">
              <path id="Path_198887" data-name="Path 198887" d="M352.583,162.016c1.049.252,1.484.392,1.64,1.113.179.824.252,1.429.252,1.429l5.065,1.338s-.245-1.043-.323-1.45.094-.652.9-.438l.068-.323-7.936-2.021Z" transform="translate(-352.25 -161.665)" fill="#37474f"/>
            </g>
            <g id="Group_140839" data-name="Group 140839" transform="translate(6.198 3.194)">
              <path id="Path_198888" data-name="Path 198888" d="M352.394,165.158l-.183-.848c-.1-.467,1.2-.488,2.912-.045l3.273.849c1.709.443,3.176,1.182,3.278,1.65l.183.847Z" transform="translate(-352.205 -163.946)" fill="#37474f"/>
            </g>
            <g id="Group_140840" data-name="Group 140840" transform="translate(0.692 7.907)">
              <path id="Path_198889" data-name="Path 198889" d="M345.478,171.61s.831,2.842,1.021,3.519,2.679,1.895,4.312,2.343,3.419.98,2.646,3.264c-.712,2.1-3.4,2.585-4.767,2.526a5.057,5.057,0,0,1-3.979-3.475c-.941-2.689-.434-5.56-.807-7.13S344.66,170.674,345.478,171.61Z" transform="translate(-343.83 -171.114)" fill="#ffa8a7"/>
            </g>
          </g>
          <g id="Group_140842" data-name="Group 140842" transform="translate(14.483 31.548)">
            <path id="Path_198890" data-name="Path 198890" d="M394.272,127.976c2.88.183,5.858,1.743,6.31,5.2s3.253,21.671,2.154,23.721c-2.543,4.741-19.31,13.757-20.976,14.528a18.786,18.786,0,0,1-7.736,2.074c-2.614.03-6.094-.057-7.853-2.42-1.561-2.1-2.443-5.969,1.084-5.3a38.207,38.207,0,0,0,8.082.355l-.41-1.688a8.038,8.038,0,0,1,2.691.439c1.759.523,3.359-.989,6.465-2.908a107.656,107.656,0,0,0,10.1-7.709L391.7,139.061S391.619,132.488,394.272,127.976Z" transform="translate(-364.805 -127.879)" fill="#ffa8a7"/>
            <path id="Path_198891" data-name="Path 198891" d="M407.292,127.925a6.128,6.128,0,0,1,3.235.291c1.693.645,3.2,1.5,3.9,4.912S416.519,149,416.519,149s-3.689,2.667-9.7,1.4l-2.159-11.31S402.983,131.175,407.292,127.925Z" transform="translate(-378.346 -127.828)" fill="#e0e0e0"/>
          </g>
        </g>
      </g>
      <g id="Analysis" transform="translate(14.643 91.82)">
        <g id="Analysis-2" data-name="Analysis">
          <g id="Group_140845" data-name="Group 140845">
            <g id="Group_140843" data-name="Group 140843">
              <path id="Path_198892" data-name="Path 198892" d="M96.616,198.416l70.29-40.581v9.739L96.616,208.157Z" transform="translate(-93.805 -156.211)" fill="#455a64"/>
              <path id="Path_198893" data-name="Path 198893" d="M100.894,202.577v3.245l64.667-37.335v-3.247Z" transform="translate(-95.27 -158.748)" fill="#263238"/>
              <path id="Path_198894" data-name="Path 198894" d="M95.152,197.57l-2.812-1.623,70.291-40.582,2.811,1.624Z" transform="translate(-92.34 -155.365)" fill="#37474f"/>
              <path id="Path_198895" data-name="Path 198895" d="M92.34,217.087l2.812,1.623v9.74l-2.811-1.624Z" transform="translate(-92.34 -176.505)" fill="#263238"/>
            </g>
            <g id="Group_140844" data-name="Group 140844" transform="translate(5.624 8.117)">
              <path id="Path_198896" data-name="Path 198896" d="M372.283,411.332l-61.862,35.692v-1.585l61.855-35.692Z" transform="translate(-172.657 -250.607)" fill="#37474f"/>
              <path id="Path_198897" data-name="Path 198897" d="M179.617,230.87l-13.625,7.867-8.375,4.831a8.916,8.916,0,0,0-.789.457,11.1,11.1,0,0,0-5.322,9.551l-.007,39.154a11.08,11.08,0,0,1-4.492,8.985,11.342,11.342,0,0,1-6.776,2.277,11.156,11.156,0,0,1-5.6-1.523,33.741,33.741,0,0,1-16.868-29.216V232.639a33.734,33.734,0,0,0-16.868-29.216l61.854-35.713h0a33.767,33.767,0,0,1,16.875,29.23v17.692C179.624,219.691,179.617,230.87,179.617,230.87Z" transform="translate(-100.894 -167.71)" fill="#f5f5f5"/>
              <path id="Path_198898" data-name="Path 198898" d="M202.112,360.039a33.722,33.722,0,0,1-16.868-29.21l0-39.179a33.639,33.639,0,0,0-2.651-13.1,34.627,34.627,0,0,0-1.869-3.765,33.742,33.742,0,0,0-12.348-12.341h0a11.244,11.244,0,0,0-16.862,9.746l0,3.99-.009-4-.007,39.154,0-8.146v8.132a11.254,11.254,0,0,1-16.87,9.753,33.74,33.74,0,0,1-16.868-29.216V251.242a33.738,33.738,0,0,0-16.868-29.216v1.619a32.431,32.431,0,0,1,15.484,27.6v40.615a35.218,35.218,0,0,0,17.561,30.413,12.5,12.5,0,0,0,12.632,0c.242-.138.477-.283.713-.443l.021-.014a12.491,12.491,0,0,0,5.579-10.48l.007-39.154a9.86,9.86,0,0,1,14.792-8.542,32.417,32.417,0,0,1,16.176,28.012v9.091l0,30.088a35.226,35.226,0,0,0,17.561,30.413l37.238,21.488v-1.585Z" transform="translate(-100.894 -186.313)" fill="#455a64"/>
              <path id="Path_198899" data-name="Path 198899" d="M330.061,347.116l-61.855,35.692L231.66,361.7a33.722,33.722,0,0,1-16.868-29.21l0-39.179a33.651,33.651,0,0,0-2.651-13.1,34.638,34.638,0,0,0-1.869-3.766A33.742,33.742,0,0,0,197.921,264.1a11.115,11.115,0,0,0-10.757-.27L195.539,259l16.85-9.729,36.069-20.82.089-.055a11.128,11.128,0,0,1,11.227.007,33.736,33.736,0,0,1,16.868,29.217l0,39.171a33.741,33.741,0,0,0,16.868,29.216Z" transform="translate(-130.441 -187.977)" fill="#fafafa"/>
              <path id="Path_198900" data-name="Path 198900" d="M207.65,312.63a32.417,32.417,0,0,0-16.176-28.012,9.86,9.86,0,0,0-14.792,8.542l-.007,39.154a12.491,12.491,0,0,1-5.579,10.48l-.021.014c-.235.159-.471.3-.713.443l37.288-21.529Z" transform="translate(-124.687 -207.292)" fill="#e0e0e0"/>
              <path id="Path_198901" data-name="Path 198901" d="M207.65,312.63a32.417,32.417,0,0,0-16.176-28.012,9.86,9.86,0,0,0-14.792,8.542l-.007,39.154a12.491,12.491,0,0,1-5.579,10.48l-.021.014c-.235.159-.471.3-.713.443l37.288-21.529Z" transform="translate(-124.687 -207.292)" opacity="0.15"/>
            </g>
          </g>
          <g id="Group_140885" data-name="Group 140885" transform="translate(5.624 8.117)">
            <g id="Group_140884" data-name="Group 140884" clip-path="url(#clip-path)">
              <g id="Group_140883" data-name="Group 140883" transform="translate(10.134 6.091)">
                <path id="Path_198902" data-name="Path 198902" d="M117.159,206.79a4.815,4.815,0,0,0,5.252.4L166.549,181.7c1.655-.956,2.046-2.744.751-3.86a5.113,5.113,0,0,0-5.432-.18l-44.16,25.5C116.053,204.115,115.857,205.678,117.159,206.79Z" transform="translate(-116.307 -176.974)" fill="#4dd0e1"/>
                <g id="Group_140846" data-name="Group 140846" transform="translate(35.947 7.281)">
                  <path id="Path_198903" data-name="Path 198903" d="M171.471,200.944a.491.491,0,0,1-.247-.915l20.638-11.915a.49.49,0,1,1,.491.849l-20.637,11.916A.493.493,0,0,1,171.471,200.944Z" transform="translate(-170.979 -188.048)" opacity="0.4"/>
                </g>
                <g id="Group_140847" data-name="Group 140847" transform="translate(37.54 9.939)">
                  <path id="Path_198904" data-name="Path 198904" d="M173.893,204.985a.491.491,0,0,1-.246-.915l20.637-11.915a.49.49,0,1,1,.49.849l-20.637,11.915A.487.487,0,0,1,173.893,204.985Z" transform="translate(-173.402 -192.09)" opacity="0.4"/>
                </g>
                <g id="Group_140848" data-name="Group 140848" transform="translate(38.878 12.706)">
                  <path id="Path_198905" data-name="Path 198905" d="M175.928,209.194a.491.491,0,0,1-.246-.915l20.638-11.915a.49.49,0,0,1,.49.849l-20.637,11.916A.489.489,0,0,1,175.928,209.194Z" transform="translate(-175.437 -196.298)" opacity="0.4"/>
                </g>
                <g id="Group_140849" data-name="Group 140849" transform="translate(39.953 15.584)">
                  <path id="Path_198906" data-name="Path 198906" d="M177.563,213.572a.49.49,0,0,1-.246-.915l20.636-11.915a.49.49,0,0,1,.491.85l-20.636,11.915A.487.487,0,0,1,177.563,213.572Z" transform="translate(-177.072 -200.676)" opacity="0.4"/>
                </g>
                <g id="Group_140850" data-name="Group 140850" transform="translate(40.738 18.405)">
                  <path id="Path_198907" data-name="Path 198907" d="M178.758,217.861a.491.491,0,0,1-.247-.915l20.637-11.915a.49.49,0,0,1,.491.849L179,217.795A.487.487,0,0,1,178.758,217.861Z" transform="translate(-178.266 -204.965)" opacity="0.4"/>
                </g>
                <g id="Group_140851" data-name="Group 140851" transform="translate(41.269 21.436)">
                  <path id="Path_198908" data-name="Path 198908" d="M179.565,222.472a.491.491,0,0,1-.247-.915l20.637-11.916a.49.49,0,0,1,.49.849L179.81,222.406A.489.489,0,0,1,179.565,222.472Z" transform="translate(-179.073 -209.576)" opacity="0.4"/>
                </g>
                <g id="Group_140852" data-name="Group 140852" transform="translate(41.558 24.671)">
                  <path id="Path_198909" data-name="Path 198909" d="M180,227.392a.491.491,0,0,1-.247-.915L200.4,214.562a.49.49,0,1,1,.49.85l-20.637,11.915A.488.488,0,0,1,180,227.392Z" transform="translate(-179.512 -214.496)" opacity="0.4"/>
                </g>
                <g id="Group_140853" data-name="Group 140853" transform="translate(12.279 31.033)">
                  <path id="Path_198910" data-name="Path 198910" d="M135.329,253.775a.346.346,0,0,1-.174-.646l50.074-28.91a.346.346,0,1,1,.346.6L135.5,253.728A.345.345,0,0,1,135.329,253.775Z" transform="translate(-134.982 -224.172)" opacity="0.4"/>
                  <path id="Path_198911" data-name="Path 198911" d="M135.329,258.475a.346.346,0,0,1-.174-.645l50.074-28.912a.346.346,0,1,1,.346.6L135.5,258.428A.338.338,0,0,1,135.329,258.475Z" transform="translate(-134.982 -225.781)" opacity="0.4"/>
                  <path id="Path_198912" data-name="Path 198912" d="M135.329,263.176a.346.346,0,0,1-.174-.646l50.074-28.911a.346.346,0,1,1,.346.6L135.5,263.13A.345.345,0,0,1,135.329,263.176Z" transform="translate(-134.982 -227.392)" opacity="0.4"/>
                  <path id="Path_198913" data-name="Path 198913" d="M135.329,267.877a.346.346,0,0,1-.174-.646l50.074-28.91a.346.346,0,1,1,.346.6L135.5,267.831A.345.345,0,0,1,135.329,267.877Z" transform="translate(-134.982 -229.002)" opacity="0.4"/>
                </g>
                <g id="Group_140858" data-name="Group 140858" transform="translate(4.981 28.808)">
                  <g id="Group_140855" data-name="Group 140855" transform="translate(7.298 11.335)">
                    <g id="Group_140854" data-name="Group 140854">
                      <path id="Path_198914" data-name="Path 198914" d="M135.329,254.027a.346.346,0,0,1-.174-.646l26.51-15.307a.346.346,0,0,1,.347.6L135.5,253.98A.345.345,0,0,1,135.329,254.027Z" transform="translate(-134.982 -238.028)" opacity="0.4"/>
                    </g>
                  </g>
                  <g id="Group_140856" data-name="Group 140856" transform="translate(6.8 7.431)">
                    <path id="Path_198915" data-name="Path 198915" d="M134.322,234.246a32.626,32.626,0,0,1,2.455,6.265,32.3,32.3,0,0,1,1.147,6.857.5.5,0,0,0,.813.43l1.474-.851a1.508,1.508,0,0,0,.692-1.3,35.168,35.168,0,0,0-1.241-7.057,38.015,38.015,0,0,0-2.372-6.062.836.836,0,0,0-1.164-.326l-1.45.837A.923.923,0,0,0,134.322,234.246Z" transform="translate(-134.226 -232.09)" fill="#4dd0e1"/>
                  </g>
                  <g id="Group_140857" data-name="Group 140857" transform="translate(11.132 1.399)">
                    <path id="Path_198916" data-name="Path 198916" d="M140.951,224.984a34.841,34.841,0,0,1,3.547,7.563,32.673,32.673,0,0,1,1.583,8.276.494.494,0,0,0,.8.431l1.473-.851a1.522,1.522,0,0,0,.7-1.3,35.4,35.4,0,0,0-1.612-8.261,33.95,33.95,0,0,0-3.524-7.512.937.937,0,0,0-1.229-.3l-1.467.815A.788.788,0,0,0,140.951,224.984Z" transform="translate(-140.814 -222.915)" fill="#4dd0e1"/>
                  </g>
                  <path id="Path_198917" data-name="Path 198917" d="M155.377,232.391" transform="translate(-134.67 -224.762)" fill="#4dd0e1"/>
                  <path id="Path_198918" data-name="Path 198918" d="M157.692,230.405l-1.448.836a1.123,1.123,0,0,0-.482,1.255,33.757,33.757,0,0,1,1.316,7.454.494.494,0,0,0,.8.431l1.473-.851a1.522,1.522,0,0,0,.7-1.3A35.2,35.2,0,0,0,158.7,230.8.657.657,0,0,0,157.692,230.405Z" transform="translate(-134.786 -224.045)" fill="#4dd0e1"/>
                  <path id="Path_198919" data-name="Path 198919" d="M166.1,221.267a.741.741,0,0,0-1.082-.371l-1.46.83a1.012,1.012,0,0,0-.422,1.228q.4.992.763,2.062a32.674,32.674,0,0,1,1.583,8.276.494.494,0,0,0,.8.431l1.473-.851a1.523,1.523,0,0,0,.7-1.3,35.365,35.365,0,0,0-1.612-8.261Q166.5,222.264,166.1,221.267Z" transform="translate(-137.306 -220.788)" fill="#4dd0e1"/>
                  <path id="Path_198920" data-name="Path 198920" d="M132.544,244.9a.243.243,0,0,0-.335-.089l-.617.356c-.135-.851-.294-1.693-.487-2.522l.834-.481a.245.245,0,0,0-.245-.425l-.715.412c-.208-.834-.439-1.66-.707-2.469l.794-.458a.245.245,0,0,0-.245-.425l-.714.412c-.274-.788-.567-1.567-.9-2.33l-.028-.063.787-.454a.245.245,0,1,0-.245-.424l-.743.429q-.514-1.157-1.137-2.3l.785-.454a.245.245,0,1,0-.245-.424l-.778.449c-.416-.734-.867-1.463-1.349-2.185l.883-.51a.245.245,0,1,0-.245-.424l-.913.527c-.52-.756-1.072-1.505-1.662-2.243a.245.245,0,1,0-.383.306q.862,1.078,1.619,2.182l-.842.486a.245.245,0,0,0,.122.458.249.249,0,0,0,.122-.033l.872-.5q.725,1.082,1.35,2.184l-.978.565a.245.245,0,1,0,.245.424l.97-.56q.623,1.142,1.135,2.3l-1.012.585a.245.245,0,1,0,.245.424l.967-.558,0,.009c.338.781.639,1.579.917,2.387l-1.035.6a.245.245,0,1,0,.245.425l.956-.552c.265.811.493,1.638.7,2.474l-1.026.592a.245.245,0,0,0,.122.458.241.241,0,0,0,.122-.033l.906-.523c.19.831.344,1.675.475,2.529l-1.111.641a.245.245,0,1,0,.245.424l.948-.548q.215,1.552.3,3.147a.245.245,0,0,0,.245.233h.012a.245.245,0,0,0,.232-.258c-.06-1.144-.174-2.272-.333-3.384l.778-.449A.245.245,0,0,0,132.544,244.9Z" transform="translate(-123.883 -223.502)" opacity="0.4"/>
                </g>
                <g id="Group_140877" data-name="Group 140877" transform="translate(11.364 55.401)">
                  <g id="Group_140861" data-name="Group 140861" transform="translate(4.202 4.948)" opacity="0.15">
                    <g id="Group_140859" data-name="Group 140859" transform="translate(0.347 0.347)">
                      <path id="Path_198921" data-name="Path 198921" d="M140.749,306.849a39.872,39.872,0,0,1-.223-5.574c.2-.713,3.188-10.963,8.682-14.158a3.755,3.755,0,0,1,1.083-.452,2.025,2.025,0,0,1,.45-.053c1.456,0,2.109,2.026,2.741,3.986a19.835,19.835,0,0,0,.867,2.357,2.641,2.641,0,0,0,2.224,1.835,3.073,3.073,0,0,0,1.506-.465c2.641-1.505,3.4-5.58,4.205-9.9a48.8,48.8,0,0,1,1.3-5.715c.8-2.519,1.84-4.078,3.27-4.907a2.536,2.536,0,0,1,1.222-.4c1.531,0,2.11,2.727,2.671,5.364a21.96,21.96,0,0,0,1.112,4.04c.558,1.271,1.292,1.889,2.242,1.889a3.193,3.193,0,0,0,1.584-.5c3.241-1.871,4.222-5.044,5.171-8.111.806-2.6,1.566-5.064,3.7-6.308a3.2,3.2,0,0,1,1.59-.5,2,2,0,0,1,.7.124,13.672,13.672,0,0,1,.1,1.468l.036,6.21c.058,1.188.137,2.121.247,2.924Z" transform="translate(-140.508 -269.286)" fill="#4dd0e1"/>
                    </g>
                    <g id="Group_140860" data-name="Group 140860">
                      <path id="Path_198922" data-name="Path 198922" d="M187.428,280.013c-.139-.928-.222-1.98-.277-3.108l-.035-6.209a14.207,14.207,0,0,0-.132-1.71,2.357,2.357,0,0,0-1.018-.228h0a3.518,3.518,0,0,0-1.765.546c-4.769,2.776-2.949,11-8.874,14.418a2.868,2.868,0,0,1-1.41.452c-.884,0-1.479-.668-1.926-1.683-1.395-3.146-1.356-9.611-4.1-9.611a2.847,2.847,0,0,0-1.4.446c-1.7.982-2.713,2.858-3.426,5.1-1.765,5.537-1.661,13.317-5.344,15.414a2.746,2.746,0,0,1-1.335.42c-.876,0-1.454-.675-1.911-1.639-1.139-2.389-1.54-6.54-3.921-6.54a2.384,2.384,0,0,0-.523.062,4.079,4.079,0,0,0-1.184.491c-5.856,3.406-8.853,14.4-8.853,14.4a40.066,40.066,0,0,0,.285,6.19l.678-.391c-.035-.191-.068-.36-.107-.738a39.461,39.461,0,0,1-.167-4.954c.277-.97,3.213-10.83,8.514-13.913a3.409,3.409,0,0,1,.985-.413,1.692,1.692,0,0,1,.371-.045c1.2,0,1.818,1.9,2.412,3.746a20.107,20.107,0,0,0,.884,2.4c.239.5.966,2.033,2.537,2.033a3.4,3.4,0,0,0,1.678-.51c2.781-1.584,3.554-5.736,4.373-10.132a48.684,48.684,0,0,1,1.287-5.674c.773-2.431,1.762-3.929,3.112-4.711a2.214,2.214,0,0,1,1.05-.354c1.251,0,1.825,2.7,2.332,5.09a22.239,22.239,0,0,0,1.134,4.107c.611,1.391,1.473,2.1,2.56,2.1a3.518,3.518,0,0,0,1.756-.544c3.36-1.939,4.406-5.323,5.329-8.308.785-2.538,1.526-4.935,3.548-6.111a2.871,2.871,0,0,1,1.416-.452h0a1.658,1.658,0,0,1,.381.043c.074.7.076,1.2.076,1.207l.036,6.239c.053,1.07.123,1.945.22,2.707a4.827,4.827,0,0,0,.133.721l.615-.354" transform="translate(-139.981 -268.759)"/>
                    </g>
                  </g>
                  <g id="Group_140862" data-name="Group 140862" transform="translate(4.205 0.266)" opacity="0.4">
                    <path id="Path_198923" data-name="Path 198923" d="M140.005,295.469V298.6a39.584,39.584,0,0,0,.283,6.189l47.139-27.216c-.136-.926-.222-1.98-.277-3.112l-.034-6.2s0-9.273-5.891-5.871c-6.192,3.575-4.441,14.927-8.836,17.465-4.435,2.561-2.946-7.572-8.837-4.171s-2.946,10.973-8.836,14.374S151.77,276.3,145.879,279.7,139.987,291.552,140.005,295.469Z" transform="translate(-139.986 -261.638)" fill="#4dd0e1"/>
                  </g>
                  <g id="Group_140863" data-name="Group 140863" transform="translate(1.821 19.004)">
                    <path id="Path_198924" data-name="Path 198924" d="M136.605,319.336a.245.245,0,0,1-.122-.458l50.14-28.709a.245.245,0,0,1,.243.425l-50.14,28.71A.246.246,0,0,1,136.605,319.336Z" transform="translate(-136.36 -290.136)" opacity="0.4"/>
                  </g>
                  <g id="Group_140867" data-name="Group 140867" transform="translate(9.847 19.003)">
                    <g id="Group_140864" data-name="Group 140864" transform="translate(0.005)">
                      <path id="Path_198925" data-name="Path 198925" d="M148.819,291.117a.246.246,0,0,1-.245-.245v-.491a.246.246,0,1,1,.491,0v.491A.245.245,0,0,1,148.819,291.117Z" transform="translate(-148.574 -290.135)" fill="#fff"/>
                    </g>
                    <g id="Group_140865" data-name="Group 140865" transform="translate(0 1.437)">
                      <path id="Path_198926" data-name="Path 198926" d="M148.958,310.724a.246.246,0,0,1-.244-.224c-.029-.313-.053-.629-.073-.946a.245.245,0,0,1,.229-.26.227.227,0,0,1,.26.23q.03.469.072.933a.244.244,0,0,1-.222.266Zm-.115-1.881a.246.246,0,0,1-.245-.242c0-.272-.007-.588-.01-.945a.246.246,0,0,1,.243-.247.225.225,0,0,1,.247.243c0,.356.006.671.01.942a.245.245,0,0,1-.241.249Zm-.016-1.886a.245.245,0,0,1-.245-.244l-.005-.944a.245.245,0,0,1,.245-.246h0a.246.246,0,0,1,.245.245l0,.943a.246.246,0,0,1-.244.247Zm-.009-1.886a.245.245,0,0,1-.245-.245l0-.943a.246.246,0,0,1,.245-.246h0a.245.245,0,0,1,.245.245l0,.943a.246.246,0,0,1-.245.246Zm0-1.886a.246.246,0,0,1-.245-.245v-.944a.245.245,0,0,1,.491,0v.944A.246.246,0,0,1,148.814,303.183Zm0-1.887a.246.246,0,0,1-.245-.245v-.943a.245.245,0,0,1,.491,0v.943A.245.245,0,0,1,148.812,301.3Zm0-1.886a.246.246,0,0,1-.245-.245v-.943a.245.245,0,0,1,.491,0v.943A.245.245,0,0,1,148.812,299.411Zm0-1.886h0a.246.246,0,0,1-.245-.246v-.942a.245.245,0,1,1,.49,0v.944A.246.246,0,0,1,148.812,297.524Zm0-1.886h0a.246.246,0,0,1-.245-.246v-.944a.245.245,0,1,1,.49,0v.945A.246.246,0,0,1,148.814,295.638Zm0-1.886a.246.246,0,0,1-.245-.245v-.94a.248.248,0,0,1,.245-.247h0a.244.244,0,0,1,.245.244v.943A.245.245,0,0,1,148.815,293.752Z" transform="translate(-148.567 -292.32)" fill="#fff"/>
                    </g>
                    <g id="Group_140866" data-name="Group 140866" transform="translate(0.244 20.285)">
                      <path id="Path_198927" data-name="Path 198927" d="M149.245,321.962a.246.246,0,0,1-.243-.213c-.022-.163-.043-.327-.062-.491a.245.245,0,1,1,.487-.057c.019.161.04.322.062.482a.245.245,0,0,1-.211.276A.176.176,0,0,1,149.245,321.962Z" transform="translate(-148.938 -320.986)" fill="#fff"/>
                    </g>
                  </g>
                  <g id="Group_140871" data-name="Group 140871" transform="translate(45.199 0.77)">
                    <g id="Group_140868" data-name="Group 140868" transform="translate(0.005)">
                      <path id="Path_198928" data-name="Path 198928" d="M202.587,263.387a.246.246,0,0,1-.245-.246v-.492a.245.245,0,0,1,.245-.244h0a.245.245,0,0,1,.245.246v.49A.246.246,0,0,1,202.587,263.387Z" transform="translate(-202.342 -262.405)" fill="#fff"/>
                    </g>
                    <g id="Group_140869" data-name="Group 140869" transform="translate(0 1.434)">
                      <path id="Path_198929" data-name="Path 198929" d="M202.726,282.991a.245.245,0,0,1-.244-.223c-.029-.313-.053-.629-.073-.946a.245.245,0,0,1,.229-.26.236.236,0,0,1,.26.229q.03.469.072.933a.243.243,0,0,1-.222.266Zm-.115-1.88a.245.245,0,0,1-.245-.242c0-.272-.007-.588-.01-.945a.245.245,0,0,1,.243-.247h0a.246.246,0,0,1,.245.243c0,.355.006.67.01.942a.245.245,0,0,1-.242.249Zm-.016-1.887a.247.247,0,0,1-.246-.244l0-.945a.246.246,0,0,1,.245-.246h0a.246.246,0,0,1,.246.245l0,.943a.246.246,0,0,1-.244.247Zm-.009-1.886a.246.246,0,0,1-.245-.245l0-.943a.246.246,0,0,1,.245-.246h0a.246.246,0,0,1,.245.245l0,.943a.246.246,0,0,1-.245.247Zm0-1.886a.246.246,0,0,1-.245-.245v-.943a.245.245,0,0,1,.49,0v.943A.245.245,0,0,1,202.582,275.451Zm0-1.886a.246.246,0,0,1-.245-.245v-.943a.245.245,0,1,1,.49,0v.943A.246.246,0,0,1,202.58,273.565Zm0-1.885a.246.246,0,0,1-.245-.245v-.943a.245.245,0,1,1,.49,0v.943A.246.246,0,0,1,202.58,271.68Zm0-1.888h0a.245.245,0,0,1-.245-.246V268.6a.245.245,0,0,1,.49,0v.943A.245.245,0,0,1,202.58,269.792Zm0-1.886h0a.245.245,0,0,1-.245-.246v-.943a.245.245,0,1,1,.49,0v.944A.245.245,0,0,1,202.581,267.906Zm0-1.886h0a.246.246,0,0,1-.245-.246v-.943a.245.245,0,1,1,.49,0v.944A.246.246,0,0,1,202.583,266.021Z" transform="translate(-202.335 -264.586)" fill="#fff"/>
                    </g>
                    <g id="Group_140870" data-name="Group 140870" transform="translate(0.243 20.283)">
                      <path id="Path_198930" data-name="Path 198930" d="M203.013,294.231a.246.246,0,0,1-.243-.213c-.022-.162-.043-.325-.062-.488a.245.245,0,0,1,.214-.273.238.238,0,0,1,.273.214q.03.242.062.483a.247.247,0,0,1-.211.276Z" transform="translate(-202.705 -293.254)" fill="#fff"/>
                    </g>
                  </g>
                  <g id="Group_140875" data-name="Group 140875" transform="translate(27.522 14.915)">
                    <g id="Group_140872" data-name="Group 140872" transform="translate(0.003)">
                      <path id="Path_198931" data-name="Path 198931" d="M175.7,284.9a.246.246,0,0,1-.246-.245v-.49a.246.246,0,0,1,.491,0v.49A.246.246,0,0,1,175.7,284.9Z" transform="translate(-175.454 -283.918)" fill="#fff"/>
                    </g>
                    <g id="Group_140873" data-name="Group 140873" transform="translate(0 1.41)">
                      <path id="Path_198932" data-name="Path 198932" d="M175.84,298.508a.245.245,0,0,1-.244-.222c-.029-.307-.053-.615-.072-.925a.246.246,0,0,1,.229-.26.232.232,0,0,1,.26.229q.03.458.071.91a.245.245,0,0,1-.222.267Zm-.116-1.837a.246.246,0,0,1-.245-.243l-.011-.92a.245.245,0,0,1,.243-.248h0a.245.245,0,0,1,.245.243l.011.92a.247.247,0,0,1-.243.249Zm-.018-1.838a.245.245,0,0,1-.245-.244l0-.921a.245.245,0,0,1,.244-.247h0a.245.245,0,0,1,.245.244l0,.921a.245.245,0,0,1-.244.247Zm-.007-1.84a.247.247,0,0,1-.246-.245l0-.92a.246.246,0,0,1,.245-.247h0a.246.246,0,0,1,.245.245l0,.921a.246.246,0,0,1-.245.246Zm0-1.839a.246.246,0,0,1-.246-.246v-.921a.246.246,0,0,1,.491,0v.921A.246.246,0,0,1,175.7,291.153Zm0-1.84h0a.246.246,0,0,1-.245-.246v-.919a.246.246,0,0,1,.491,0v.921A.246.246,0,0,1,175.7,289.313Zm0-1.84h0a.246.246,0,0,1-.245-.246v-.92a.246.246,0,0,1,.491,0v.921A.246.246,0,0,1,175.7,287.473Z" transform="translate(-175.45 -286.062)" fill="#fff"/>
                    </g>
                    <g id="Group_140874" data-name="Group 140874" transform="translate(0.241 14.278)">
                      <path id="Path_198933" data-name="Path 198933" d="M176.124,306.611a.247.247,0,0,1-.243-.213c-.022-.162-.043-.326-.062-.49a.245.245,0,1,1,.487-.059c.019.162.04.323.062.483a.246.246,0,0,1-.211.276Z" transform="translate(-175.816 -305.633)" fill="#fff"/>
                    </g>
                  </g>
                  <g id="Group_140876" data-name="Group 140876" transform="translate(9.245 17.236)">
                    <path id="Path_198934" data-name="Path 198934" d="M148.5,287.574c.468-.27.848-.091.848.4a1.793,1.793,0,0,1-.848,1.379c-.468.27-.848.091-.848-.4A1.791,1.791,0,0,1,148.5,287.574Z" transform="translate(-147.651 -287.448)" opacity="0.4"/>
                  </g>
                  <path id="Path_198935" data-name="Path 198935" d="M175.386,281.353c.468-.27.848-.091.848.4a1.793,1.793,0,0,1-.848,1.379c-.468.27-.848.091-.848-.4A1.794,1.794,0,0,1,175.386,281.353Z" transform="translate(-147.615 -268.081)" opacity="0.4"/>
                  <path id="Path_198936" data-name="Path 198936" d="M202.265,261.359c.468-.27.848-.091.848.4a1.793,1.793,0,0,1-.848,1.379c-.468.27-.848.091-.848-.4A1.792,1.792,0,0,1,202.265,261.359Z" transform="translate(-156.821 -261.233)" opacity="0.4"/>
                  <path id="Path_198937" data-name="Path 198937" d="M135.983,293.163a.245.245,0,1,0-.245-.424l-.64.37v-2.531l.886-.512a.245.245,0,0,0-.245-.425l-.641.37v-2.666a.246.246,0,0,0-.491,0v2.949l-.888.513a.245.245,0,1,0,.245.425l.643-.371v2.531l-.888.513a.245.245,0,0,0,.122.458.251.251,0,0,0,.122-.033l.644-.372v2.531l-.889.514a.245.245,0,1,0,.245.425l.644-.372v2.531l-.89.514a.245.245,0,1,0,.245.425l.645-.373v2.531l-.891.514a.245.245,0,1,0,.245.424l.646-.373v2.531l-.892.515a.245.245,0,1,0,.245.425l.646-.373v2.531l-.892.515a.245.245,0,1,0,.245.424l.642-.371c-.014.841-.007,1.68.03,2.514l-.918.529a.245.245,0,0,0,.122.458.24.24,0,0,0,.122-.033l.7-.406c.053.921.132,1.836.247,2.738a.245.245,0,0,0,.243.214l.031,0a.245.245,0,0,0,.212-.274c-.124-.971-.208-1.955-.259-2.949l.844-.487a.245.245,0,1,0-.245-.424l-.62.358c-.031-.836-.039-1.677-.018-2.521l.884-.51a.245.245,0,1,0-.245-.425l-.637.368v-2.531l.882-.51a.245.245,0,1,0-.245-.424l-.638.368v-2.531l.884-.51a.245.245,0,0,0-.245-.425l-.638.369v-2.531l.884-.511a.245.245,0,0,0-.245-.424l-.639.369v-2.531l.884-.511a.245.245,0,0,0-.245-.425l-.64.37v-2.531Z" transform="translate(-133.591 -270.093)" opacity="0.4"/>
                </g>
                <path id="Path_198938" data-name="Path 198938" d="M203.061,316.829l-47.094,27.19c-1.656.955-4.055.842-5.241-.378s-.7-3.08.955-4.036l47.08-27.183a4.3,4.3,0,0,1,5.046.571C205,314.211,204.715,315.873,203.061,316.829Z" transform="translate(-127.871 -223.172)" fill="#4dd0e1"/>
                <g id="Group_140882" data-name="Group 140882" transform="translate(13.955 75.564)">
                  <g id="Group_140878" data-name="Group 140878">
                    <path id="Path_198939" data-name="Path 198939" d="M137.878,323.219a.346.346,0,0,1-.173-.646l53.045-30.626a.346.346,0,1,1,.346.6l-53.045,30.626A.338.338,0,0,1,137.878,323.219Z" transform="translate(-137.532 -291.899)" opacity="0.4"/>
                  </g>
                  <g id="Group_140879" data-name="Group 140879" transform="translate(1.084 2.863)">
                    <path id="Path_198940" data-name="Path 198940" d="M139.527,327.578a.346.346,0,0,1-.173-.646L192.407,296.3a.346.346,0,1,1,.346.6L139.7,327.531A.337.337,0,0,1,139.527,327.578Z" transform="translate(-139.181 -296.253)" opacity="0.4"/>
                  </g>
                  <g id="Group_140880" data-name="Group 140880" transform="translate(2.422 5.609)">
                    <path id="Path_198941" data-name="Path 198941" d="M141.563,331.758a.346.346,0,0,1-.173-.646l53.06-30.635a.346.346,0,1,1,.346.6l-53.06,30.635A.339.339,0,0,1,141.563,331.758Z" transform="translate(-141.216 -300.43)" opacity="0.4"/>
                  </g>
                  <g id="Group_140881" data-name="Group 140881" transform="translate(4.003 8.222)">
                    <path id="Path_198942" data-name="Path 198942" d="M143.966,335.737a.346.346,0,0,1-.173-.646l53.068-30.64a.346.346,0,1,1,.346.6l-53.068,30.64A.344.344,0,0,1,143.966,335.737Z" transform="translate(-143.62 -304.404)" opacity="0.4"/>
                  </g>
                </g>
              </g>
            </g>
          </g>
          <g id="Group_140932" data-name="Group 140932" transform="translate(78.985 52.225)">
            <path id="Path_198944" data-name="Path 198944" d="M213.858,261.163l43.65-25.2c1.656-.956,4.292-1.523,5.776-.924s1.2,2.151-.456,3.106L218.67,263.638a6.076,6.076,0,0,1-5.329.344C212.023,263.27,212.2,262.118,213.858,261.163Z" transform="translate(-212.469 -234.795)" fill="#4dd0e1"/>
            <path id="Path_198945" data-name="Path 198945" d="M222.1,269.946a.346.346,0,0,1-.173-.646l50.313-29.042a.346.346,0,0,1,.346.6L222.273,269.9A.339.339,0,0,1,222.1,269.946Z" transform="translate(-215.649 -236.65)" opacity="0.4"/>
            <path id="Path_198946" data-name="Path 198946" d="M225.269,273.344a.346.346,0,0,1-.173-.645l50.39-29.087a.346.346,0,1,1,.346.6L225.442,273.3A.347.347,0,0,1,225.269,273.344Z" transform="translate(-216.734 -237.799)" opacity="0.4"/>
            <g id="Group_140886" data-name="Group 140886" transform="translate(10.199 37.338)">
              <path id="Path_198947" data-name="Path 198947" d="M234.66,315.513h0a.246.246,0,0,1-.245-.246l.01-2.669c.008-2.01.008-2.01-.05-3.369l-.01-.225a32.59,32.59,0,0,0-1.792-9.1,25.384,25.384,0,0,0-4.535-7.924.245.245,0,1,1,.381-.308,25.823,25.823,0,0,1,4.617,8.073,33.06,33.06,0,0,1,1.82,9.233l.01.229c.059,1.37.059,1.37.05,3.392l-.009,2.669A.246.246,0,0,1,234.66,315.513Z" transform="translate(-227.981 -291.583)" opacity="0.4"/>
            </g>
            <path id="Path_198948" data-name="Path 198948" d="M236.916,289c-.224-.393-.466-.779-.723-1.16a.779.779,0,0,1,.249-1.139l19.225-11.1a.916.916,0,0,1,1.225.289c.231.379.45.777.665,1.193a.929.929,0,0,1-.366,1.208L238.074,289.33A.839.839,0,0,1,236.916,289Z" transform="translate(-220.544 -248.73)" fill="#4dd0e1"/>
            <path id="Path_198949" data-name="Path 198949" d="M240.191,288.351q.216.663.4,1.311a.627.627,0,0,0,.967.405l45.613-26.329a1.19,1.19,0,0,0,.53-1.27q-.188-.685-.389-1.316a.677.677,0,0,0-1.024-.387L240.663,287.1A1.1,1.1,0,0,0,240.191,288.351Z" transform="translate(-221.947 -243.653)" fill="#4dd0e1"/>
            <path id="Path_198950" data-name="Path 198950" d="M240.191,288.351q.216.663.4,1.311a.627.627,0,0,0,.967.405l45.613-26.329a1.19,1.19,0,0,0,.53-1.27q-.188-.685-.389-1.316a.677.677,0,0,0-1.024-.387L240.663,287.1A1.1,1.1,0,0,0,240.191,288.351Z" transform="translate(-221.947 -243.653)" fill="#fff" opacity="0.7"/>
            <path id="Path_198951" data-name="Path 198951" d="M242.232,302c.059.485.108.959.146,1.417a.5.5,0,0,0,.8.431l30.9-17.836a1.5,1.5,0,0,0,.691-1.3q-.058-.71-.146-1.412a.539.539,0,0,0-.867-.425l-30.891,17.831A1.408,1.408,0,0,0,242.232,302Z" transform="translate(-222.66 -251.227)" fill="#4dd0e1"/>
            <path id="Path_198952" data-name="Path 198952" d="M242.232,302c.059.485.108.959.146,1.417a.5.5,0,0,0,.8.431l30.9-17.836a1.5,1.5,0,0,0,.691-1.3q-.058-.71-.146-1.412a.539.539,0,0,0-.867-.425l-30.891,17.831A1.408,1.408,0,0,0,242.232,302Z" transform="translate(-222.66 -251.227)" opacity="0.15"/>
            <path id="Path_198953" data-name="Path 198953" d="M242.618,316.885v1.39c0,.477.336.671.75.433L256.6,311.07a1.656,1.656,0,0,0,.749-1.3v-1.389c0-.478-.335-.672-.749-.433l-13.229,7.637A1.656,1.656,0,0,0,242.618,316.885Z" transform="translate(-222.795 -259.815)" fill="#4dd0e1"/>
            <path id="Path_198954" data-name="Path 198954" d="M242.618,316.885v1.39c0,.477.336.671.75.433L256.6,311.07a1.656,1.656,0,0,0,.749-1.3v-1.389c0-.478-.335-.672-.749-.433l-13.229,7.637A1.656,1.656,0,0,0,242.618,316.885Z" transform="translate(-222.795 -259.815)" fill="#fff" opacity="0.5"/>
            <path id="Path_198955" data-name="Path 198955" d="M289.494,288.184a.246.246,0,0,0-.245.245v1.19l-3.526,2.035v-.89a.245.245,0,1,0-.491,0v1.174l-3.526,2.035V293.1a.245.245,0,1,0-.49,0v1.158l-3.526,2.035v-.859a.246.246,0,0,0-.491,0v1.141l-3.526,2.036v-.842a.245.245,0,1,0-.491,0v1.126l-3.526,2.035V300.1a.245.245,0,1,0-.49,0v1.11l-3.526,2.035v-.811a.246.246,0,1,0-.491,0v1.094l-3.526,2.035v-.8a.245.245,0,0,0-.491,0v1.079l-3.526,2.035V307.1a.245.245,0,1,0-.491,0v1.063l-3.526,2.035v-.763a.246.246,0,0,0-.491,0v1.047l-3.526,2.035v-.748a.245.245,0,0,0-.49,0v1.03l-3.527,2.036v-.731a.245.245,0,1,0-.49,0v1.015l-3.06,1.766a.245.245,0,0,0,.122.458.241.241,0,0,0,.122-.033l2.815-1.625v1a.245.245,0,1,0,.49,0V315.4l3.527-2.036v.98a.245.245,0,1,0,.49,0v-1.264l3.526-2.035v.965a.246.246,0,0,0,.491,0v-1.248l3.526-2.035v.949a.245.245,0,0,0,.491,0v-1.232l3.526-2.035v.932a.245.245,0,1,0,.491,0V306.13l3.526-2.035v.917a.246.246,0,1,0,.491,0v-1.2l3.526-2.035v.9a.245.245,0,1,0,.49,0v-1.185l3.526-2.035v.885a.245.245,0,1,0,.491,0v-1.168l3.526-2.036v.869a.246.246,0,0,0,.491,0v-1.153l3.526-2.035v.853a.245.245,0,1,0,.49,0v-1.137l3.526-2.035v.838a.245.245,0,0,0,.491,0V292.22l3.526-2.035v.821a.246.246,0,1,0,.491,0v-2.577A.246.246,0,0,0,289.494,288.184Z" transform="translate(-222.544 -253.081)" opacity="0.4"/>
            <g id="Group_140890" data-name="Group 140890" transform="translate(16.889 67.316)">
              <g id="Group_140887" data-name="Group 140887">
                <path id="Path_198956" data-name="Path 198956" d="M249.556,337.375a8.658,8.658,0,0,0-2.568,1.038c-4.88,2.865-8.832,10.036-8.832,16.017,0,.159,0,.312.007.464l8.818-4.035Z" transform="translate(-238.156 -337.245)" fill="#4dd0e1"/>
                <path id="Path_198957" data-name="Path 198957" d="M254.154,337.307l-2.575,13.483,8.742-5.074a14.576,14.576,0,0,0,.1-1.633C260.418,339.162,257.781,336.546,254.154,337.307Z" transform="translate(-242.753 -337.177)" fill="#4dd0e1"/>
                <path id="Path_198958" data-name="Path 198958" d="M259.213,354.713a18.812,18.812,0,0,0,1.108-4.548l-8.742,5.074Z" transform="translate(-242.753 -341.625)" fill="#4dd0e1"/>
                <path id="Path_198959" data-name="Path 198959" d="M238.167,361.643c.2,5.655,4.077,8.016,8.825,5.274,3.261-1.882,6.1-5.7,7.628-9.836l-7.634.526Z" transform="translate(-238.16 -343.994)" fill="#4dd0e1"/>
              </g>
              <g id="Group_140888" data-name="Group 140888" transform="translate(0.007)">
                <path id="Path_198960" data-name="Path 198960" d="M254.154,337.307l-2.575,13.483,8.742-5.074a14.576,14.576,0,0,0,.1-1.633C260.418,339.162,257.781,336.546,254.154,337.307Z" transform="translate(-242.761 -337.177)" fill="#fff" opacity="0.7"/>
                <path id="Path_198961" data-name="Path 198961" d="M259.213,354.713a18.812,18.812,0,0,0,1.108-4.548l-8.742,5.074Z" transform="translate(-242.761 -341.625)" opacity="0.15"/>
                <path id="Path_198962" data-name="Path 198962" d="M238.167,361.643c.2,5.655,4.077,8.016,8.825,5.274,3.261-1.882,6.1-5.7,7.628-9.836l-7.634.526Z" transform="translate(-238.167 -343.994)" fill="#fff" opacity="0.5"/>
              </g>
              <g id="Group_140889" data-name="Group 140889">
                <path id="Path_198963" data-name="Path 198963" d="M249.556,337.375a8.658,8.658,0,0,0-2.568,1.038c-4.88,2.865-8.832,10.036-8.832,16.017,0,.159,0,.312.007.464l8.818-4.035Z" transform="translate(-238.156 -337.245)" fill="none" stroke="#fff" stroke-linecap="round" stroke-linejoin="round" stroke-width="1.053"/>
                <path id="Path_198964" data-name="Path 198964" d="M254.154,337.307l-2.575,13.483,8.742-5.074a14.576,14.576,0,0,0,.1-1.633C260.418,339.162,257.781,336.546,254.154,337.307Z" transform="translate(-242.753 -337.177)" fill="none" stroke="#fff" stroke-linecap="round" stroke-linejoin="round" stroke-width="1.053"/>
                <path id="Path_198965" data-name="Path 198965" d="M259.213,354.713a18.812,18.812,0,0,0,1.108-4.548l-8.742,5.074Z" transform="translate(-242.753 -341.625)" fill="none" stroke="#fff" stroke-linecap="round" stroke-linejoin="round" stroke-width="1.053"/>
                <path id="Path_198966" data-name="Path 198966" d="M238.167,361.643c.2,5.655,4.077,8.016,8.825,5.274,3.261-1.882,6.1-5.7,7.628-9.836l-7.634.526Z" transform="translate(-238.16 -343.994)" fill="none" stroke="#fff" stroke-linecap="round" stroke-linejoin="round" stroke-width="1.053"/>
              </g>
            </g>
            <g id="Group_140891" data-name="Group 140891" transform="translate(49.283 48.545)">
              <path id="Path_198967" data-name="Path 198967" d="M292.262,315.678a20.878,20.878,0,0,0-4.838,12.543,9.006,9.006,0,0,0,1.114,4.679l7.717-9.787Z" transform="translate(-287.424 -311.042)" fill="#4dd0e1"/>
              <path id="Path_198968" data-name="Path 198968" d="M302.763,308.633a7.368,7.368,0,0,0-3.987,1.135,15.065,15.065,0,0,0-3.994,3.5l3.994,7.434Z" transform="translate(-289.944 -308.628)" fill="#4dd0e1"/>
              <path id="Path_198969" data-name="Path 198969" d="M308.872,311.46a4.614,4.614,0,0,0-4.028-2.824L300.856,320.7Z" transform="translate(-292.025 -308.63)" fill="#4dd0e1"/>
              <path id="Path_198970" data-name="Path 198970" d="M304.852,312.931l-8.016,9.241-7.717,9.787c1.516,2.464,4.4,3.059,7.717,1.142,4.88-2.817,8.839-9.995,8.839-16.037A9.541,9.541,0,0,0,304.852,312.931Z" transform="translate(-288.005 -310.101)" fill="#4dd0e1"/>
            </g>
            <g id="Group_140892" data-name="Group 140892" transform="translate(50.397 48.545)">
              <path id="Path_198971" data-name="Path 198971" d="M302.763,308.633a7.368,7.368,0,0,0-3.987,1.135,15.065,15.065,0,0,0-3.994,3.5l3.994,7.434Z" transform="translate(-291.059 -308.628)" fill="#fff" opacity="0.7"/>
              <path id="Path_198972" data-name="Path 198972" d="M308.872,311.46a4.614,4.614,0,0,0-4.028-2.824L300.856,320.7Z" transform="translate(-293.139 -308.63)" opacity="0.15"/>
              <path id="Path_198973" data-name="Path 198973" d="M304.852,312.931l-8.016,9.241-7.717,9.787c1.516,2.464,4.4,3.059,7.717,1.142,4.88-2.817,8.839-9.995,8.839-16.037A9.541,9.541,0,0,0,304.852,312.931Z" transform="translate(-289.119 -310.101)" fill="#fff" opacity="0.5"/>
            </g>
            <g id="Group_140893" data-name="Group 140893" transform="translate(49.283 48.545)">
              <path id="Path_198974" data-name="Path 198974" d="M292.262,315.678a20.878,20.878,0,0,0-4.838,12.543,9.006,9.006,0,0,0,1.114,4.679l7.717-9.787Z" transform="translate(-287.424 -311.042)" fill="none" stroke="#fff" stroke-linecap="round" stroke-linejoin="round" stroke-width="1.053"/>
              <path id="Path_198975" data-name="Path 198975" d="M302.763,308.633a7.368,7.368,0,0,0-3.987,1.135,15.065,15.065,0,0,0-3.994,3.5l3.994,7.434Z" transform="translate(-289.944 -308.628)" fill="none" stroke="#fff" stroke-linecap="round" stroke-linejoin="round" stroke-width="1.053"/>
              <path id="Path_198976" data-name="Path 198976" d="M308.872,311.46a4.614,4.614,0,0,0-4.028-2.824L300.856,320.7Z" transform="translate(-292.025 -308.63)" fill="none" stroke="#fff" stroke-linecap="round" stroke-linejoin="round" stroke-width="1.053"/>
              <path id="Path_198977" data-name="Path 198977" d="M304.852,312.931l-8.016,9.241-7.717,9.787c1.516,2.464,4.4,3.059,7.717,1.142,4.88-2.817,8.839-9.995,8.839-16.037A9.541,9.541,0,0,0,304.852,312.931Z" transform="translate(-288.005 -310.101)" fill="none" stroke="#fff" stroke-linecap="round" stroke-linejoin="round" stroke-width="1.053"/>
            </g>
            <g id="Group_140898" data-name="Group 140898" transform="translate(37.499 60.243)">
              <g id="Group_140894" data-name="Group 140894">
                <path id="Path_198978" data-name="Path 198978" d="M270.251,327.356l1.447-.835c.414-.239.75-.045.75.433v1.39a1.655,1.655,0,0,1-.749,1.3l-1.447.836c-.414.239-.749.045-.749-.433v-1.389A1.658,1.658,0,0,1,270.251,327.356Z" transform="translate(-269.501 -326.419)" fill="#4dd0e1"/>
              </g>
              <g id="Group_140895" data-name="Group 140895" transform="translate(0 6.235)">
                <path id="Path_198979" data-name="Path 198979" d="M270.251,336.84,271.7,336c.414-.239.75-.045.75.433v1.389a1.656,1.656,0,0,1-.749,1.3l-1.447.835c-.414.239-.749.045-.749-.433v-1.39A1.656,1.656,0,0,1,270.251,336.84Z" transform="translate(-269.501 -335.902)" fill="#4dd0e1"/>
                <path id="Path_198980" data-name="Path 198980" d="M270.251,336.84,271.7,336c.414-.239.75-.045.75.433v1.389a1.656,1.656,0,0,1-.749,1.3l-1.447.835c-.414.239-.749.045-.749-.433v-1.39A1.656,1.656,0,0,1,270.251,336.84Z" transform="translate(-269.501 -335.902)" fill="#fff" opacity="0.7"/>
              </g>
              <g id="Group_140896" data-name="Group 140896" transform="translate(0 12.47)">
                <path id="Path_198981" data-name="Path 198981" d="M270.251,346.323l1.447-.835c.414-.239.75-.045.75.433v1.389a1.656,1.656,0,0,1-.749,1.3l-1.447.835c-.414.239-.749.045-.749-.433v-1.39A1.656,1.656,0,0,1,270.251,346.323Z" transform="translate(-269.501 -345.385)" fill="#4dd0e1"/>
                <path id="Path_198982" data-name="Path 198982" d="M270.251,346.323l1.447-.835c.414-.239.75-.045.75.433v1.389a1.656,1.656,0,0,1-.749,1.3l-1.447.835c-.414.239-.749.045-.749-.433v-1.39A1.656,1.656,0,0,1,270.251,346.323Z" transform="translate(-269.501 -345.385)" opacity="0.15"/>
              </g>
              <g id="Group_140897" data-name="Group 140897" transform="translate(0 18.706)">
                <path id="Path_198983" data-name="Path 198983" d="M270.251,355.806l1.447-.835c.414-.239.75-.045.75.433v1.39a1.656,1.656,0,0,1-.749,1.3l-1.447.835c-.414.239-.749.045-.749-.433V357.1A1.657,1.657,0,0,1,270.251,355.806Z" transform="translate(-269.501 -354.869)" fill="#4dd0e1"/>
                <path id="Path_198984" data-name="Path 198984" d="M270.251,355.806l1.447-.835c.414-.239.75-.045.75.433v1.39a1.656,1.656,0,0,1-.749,1.3l-1.447.835c-.414.239-.749.045-.749-.433V357.1A1.657,1.657,0,0,1,270.251,355.806Z" transform="translate(-269.501 -354.869)" fill="#fff" opacity="0.5"/>
              </g>
            </g>
            <g id="Group_140899" data-name="Group 140899" transform="translate(41.44 57.514)">
              <path id="Path_198985" data-name="Path 198985" d="M275.986,325.791a.491.491,0,0,1-.246-.915l4.4-2.541a.49.49,0,1,1,.49.849l-4.4,2.541A.486.486,0,0,1,275.986,325.791Z" transform="translate(-275.495 -322.269)" opacity="0.4"/>
            </g>
            <g id="Group_140900" data-name="Group 140900" transform="translate(41.372 63.812)">
              <path id="Path_198986" data-name="Path 198986" d="M275.883,335.37a.491.491,0,0,1-.246-.915l4.4-2.542a.49.49,0,1,1,.491.849l-4.4,2.542A.49.49,0,0,1,275.883,335.37Z" transform="translate(-275.392 -331.847)" opacity="0.4"/>
            </g>
            <g id="Group_140901" data-name="Group 140901" transform="translate(41.304 70.11)">
              <path id="Path_198987" data-name="Path 198987" d="M275.781,344.948a.491.491,0,0,1-.246-.915l4.4-2.542a.49.49,0,0,1,.491.849l-4.4,2.541A.489.489,0,0,1,275.781,344.948Z" transform="translate(-275.289 -341.426)" opacity="0.4"/>
            </g>
            <g id="Group_140902" data-name="Group 140902" transform="translate(41.236 76.408)">
              <path id="Path_198988" data-name="Path 198988" d="M275.677,354.526a.491.491,0,0,1-.247-.916l4.4-2.541a.491.491,0,1,1,.491.85l-4.4,2.541A.5.5,0,0,1,275.677,354.526Z" transform="translate(-275.185 -351.004)" opacity="0.4"/>
            </g>
            <g id="Group_140906" data-name="Group 140906" transform="translate(16.948 89.205)">
              <g id="Group_140903" data-name="Group 140903">
                <path id="Path_198989" data-name="Path 198989" d="M238.736,383.348a.491.491,0,0,1-.246-.916l20.618-11.9a.491.491,0,1,1,.491.85l-20.619,11.9A.5.5,0,0,1,238.736,383.348Z" transform="translate(-238.245 -370.467)" opacity="0.4"/>
              </g>
              <g id="Group_140904" data-name="Group 140904" transform="translate(0.664 3.052)">
                <path id="Path_198990" data-name="Path 198990" d="M239.747,387.99a.491.491,0,0,1-.247-.916l20.619-11.9a.491.491,0,0,1,.491.85l-20.618,11.9A.5.5,0,0,1,239.747,387.99Z" transform="translate(-239.255 -375.11)" opacity="0.4"/>
              </g>
              <g id="Group_140905" data-name="Group 140905" transform="translate(1.614 6.005)">
                <path id="Path_198991" data-name="Path 198991" d="M241.191,392.481a.491.491,0,0,1-.246-.916l20.618-11.9a.491.491,0,1,1,.491.849l-20.619,11.9A.5.5,0,0,1,241.191,392.481Z" transform="translate(-240.7 -379.6)" opacity="0.4"/>
              </g>
            </g>
            <g id="Group_140910" data-name="Group 140910" transform="translate(49.311 70.528)">
              <g id="Group_140907" data-name="Group 140907">
                <path id="Path_198992" data-name="Path 198992" d="M287.958,354.942a.491.491,0,0,1-.246-.916l20.618-11.9a.491.491,0,0,1,.49.85l-20.618,11.9A.489.489,0,0,1,287.958,354.942Z" transform="translate(-287.467 -342.061)" opacity="0.4"/>
              </g>
              <g id="Group_140908" data-name="Group 140908" transform="translate(0.664 3.052)">
                <path id="Path_198993" data-name="Path 198993" d="M288.967,359.583a.491.491,0,0,1-.246-.916l20.619-11.9a.491.491,0,0,1,.49.85l-20.619,11.9A.5.5,0,0,1,288.967,359.583Z" transform="translate(-288.476 -346.702)" opacity="0.4"/>
              </g>
              <g id="Group_140909" data-name="Group 140909" transform="translate(1.614 6.004)">
                <path id="Path_198994" data-name="Path 198994" d="M290.413,364.074a.491.491,0,0,1-.246-.916l20.618-11.9a.49.49,0,1,1,.491.85l-20.618,11.9A.494.494,0,0,1,290.413,364.074Z" transform="translate(-289.922 -351.193)" opacity="0.4"/>
              </g>
            </g>
            <path id="Path_198995" data-name="Path 198995" d="M249.127,389.88l47.006-27.128a3.615,3.615,0,0,1,4.709.844,2.763,2.763,0,0,1-1.059,4.136l-47.022,27.136c-1.656.955-3.933.7-4.938-.675A3.03,3.03,0,0,1,249.127,389.88Z" transform="translate(-224.414 -278.443)" fill="#4dd0e1"/>
            <g id="Group_140914" data-name="Group 140914" transform="translate(29.398 110.033)">
              <g id="Group_140911" data-name="Group 140911" transform="translate(2.579 1.819)">
                <path id="Path_198996" data-name="Path 198996" d="M261.595,417.79a.491.491,0,0,1-.247-.916l20.617-11.9a.491.491,0,1,1,.49.85l-20.616,11.9A.5.5,0,0,1,261.595,417.79Z" transform="translate(-261.103 -404.911)" opacity="0.4"/>
              </g>
              <g id="Group_140912" data-name="Group 140912">
                <path id="Path_198997" data-name="Path 198997" d="M257.671,415.023a.491.491,0,0,1-.246-.916l20.617-11.9a.491.491,0,1,1,.49.85l-20.616,11.9A.5.5,0,0,1,257.671,415.023Z" transform="translate(-257.18 -402.145)" opacity="0.4"/>
              </g>
              <g id="Group_140913" data-name="Group 140913" transform="translate(5.291 3.423)">
                <path id="Path_198998" data-name="Path 198998" d="M265.718,420.23a.491.491,0,0,1-.246-.916l20.617-11.9a.491.491,0,0,1,.491.85l-20.617,11.9A.493.493,0,0,1,265.718,420.23Z" transform="translate(-265.227 -407.351)" opacity="0.4"/>
              </g>
            </g>
            <g id="Group_140918" data-name="Group 140918" transform="translate(58.834 93.046)">
              <g id="Group_140915" data-name="Group 140915" transform="translate(2.579 1.819)">
                <path id="Path_198999" data-name="Path 198999" d="M306.364,391.954a.491.491,0,0,1-.246-.916l20.617-11.9a.491.491,0,1,1,.491.85l-20.617,11.9A.5.5,0,0,1,306.364,391.954Z" transform="translate(-305.873 -379.075)" opacity="0.4"/>
              </g>
              <g id="Group_140916" data-name="Group 140916">
                <path id="Path_199000" data-name="Path 199000" d="M302.441,389.187a.491.491,0,0,1-.246-.916l20.616-11.9a.491.491,0,0,1,.491.85l-20.617,11.9A.5.5,0,0,1,302.441,389.187Z" transform="translate(-301.95 -376.309)" opacity="0.4"/>
              </g>
              <g id="Group_140917" data-name="Group 140917" transform="translate(5.291 3.423)">
                <path id="Path_199001" data-name="Path 199001" d="M310.488,394.394a.491.491,0,0,1-.247-.916l20.617-11.9a.491.491,0,1,1,.49.851l-20.617,11.9A.5.5,0,0,1,310.488,394.394Z" transform="translate(-309.996 -381.515)" opacity="0.4"/>
              </g>
            </g>
            <g id="Group_140922" data-name="Group 140922" transform="translate(44.099 113.911)">
              <g id="Group_140919" data-name="Group 140919" transform="translate(0 8.447)">
                <path id="Path_199002" data-name="Path 199002" d="M300.366,422.714c-4.476-2.585-12.061-2.4-16.941.418s-5.207,7.2-.731,9.78,12.061,2.4,16.942-.418S304.842,425.3,300.366,422.714Zm-3.047,8.443c-3.485,2.011-8.9,2.145-12.1.3s-2.964-4.975.522-6.986,8.9-2.145,12.1-.3S300.805,429.145,297.319,431.156Z" transform="translate(-279.539 -420.891)" fill="#4dd0e1"/>
                <path id="Path_199003" data-name="Path 199003" d="M291.626,427.867a8.043,8.043,0,0,1,7.261-.179c1.918,1.108,1.778,2.984-.314,4.192a8.042,8.042,0,0,1-7.26.179C289.394,430.951,289.534,429.074,291.626,427.867Z" transform="translate(-283.109 -422.951)" fill="#4dd0e1"/>
              </g>
              <path id="Path_199004" data-name="Path 199004" d="M291.626,427.867a8.043,8.043,0,0,1,7.261-.179c1.918,1.108,1.778,2.984-.314,4.192a8.042,8.042,0,0,1-7.26.179C289.394,430.951,289.534,429.074,291.626,427.867Z" transform="translate(-283.109 -414.504)" opacity="0.5"/>
              <path id="Path_199005" data-name="Path 199005" d="M300.366,422.714c-4.476-2.585-12.061-2.4-16.941.418s-5.207,7.2-.731,9.78,12.061,2.4,16.942-.418S304.842,425.3,300.366,422.714Zm-3.047,8.443c-3.485,2.011-8.9,2.145-12.1.3s-2.964-4.975.522-6.986,8.9-2.145,12.1-.3S300.805,429.145,297.319,431.156Z" transform="translate(-279.539 -412.444)" opacity="0.15"/>
              <g id="Group_140920" data-name="Group 140920" transform="translate(8.402 8.453)">
                <path id="Path_199006" data-name="Path 199006" d="M292.318,421.419l1.023,1.829a14.553,14.553,0,0,1,6-.112l1.38-1.871A20.379,20.379,0,0,0,292.318,421.419Z" transform="translate(-292.318 -420.899)" fill="#4dd0e1"/>
                <path id="Path_199007" data-name="Path 199007" d="M292.318,421.419l1.023,1.829a14.553,14.553,0,0,1,6-.112l1.38-1.871A20.379,20.379,0,0,0,292.318,421.419Z" transform="translate(-292.318 -420.899)" fill="#fff" opacity="0.7"/>
              </g>
              <g id="Group_140921" data-name="Group 140921" transform="translate(12.113)">
                <path id="Path_199008" data-name="Path 199008" d="M298.453,416.111h-.03a.49.49,0,0,1-.46-.518l.133-2.252,9.064-5.232a.491.491,0,0,1,.491.85l-8.607,4.967-.1,1.725A.489.489,0,0,1,298.453,416.111Z" transform="translate(-297.963 -408.043)" opacity="0.4"/>
              </g>
            </g>
            <g id="Group_140927" data-name="Group 140927" transform="translate(70.6 98.575)">
              <g id="Group_140926" data-name="Group 140926">
                <g id="Group_140923" data-name="Group 140923" transform="translate(0 8.496)">
                  <path id="Path_199009" data-name="Path 199009" d="M340.672,399.463c-4.477-2.585-12.062-2.4-16.942.417s-5.207,7.2-.73,9.78,12.061,2.4,16.941-.418S345.148,402.049,340.672,399.463Zm-3.047,8.442c-3.485,2.011-8.9,2.145-12.1.3s-2.964-4.974.521-6.985,8.9-2.145,12.1-.3S341.111,405.894,337.625,407.906Z" transform="translate(-319.845 -397.64)" fill="#4dd0e1"/>
                  <path id="Path_199010" data-name="Path 199010" d="M331.932,404.617a8.04,8.04,0,0,1,7.26-.18c1.919,1.108,1.779,2.984-.313,4.192a8.041,8.041,0,0,1-7.261.18C329.7,407.7,329.84,405.823,331.932,404.617Z" transform="translate(-323.415 -399.701)" fill="#4dd0e1"/>
                </g>
                <path id="Path_199011" data-name="Path 199011" d="M331.932,404.617a8.04,8.04,0,0,1,7.26-.18c1.919,1.108,1.779,2.984-.313,4.192a8.041,8.041,0,0,1-7.261.18C329.7,407.7,329.84,405.823,331.932,404.617Z" transform="translate(-323.415 -391.205)" opacity="0.5"/>
                <path id="Path_199012" data-name="Path 199012" d="M340.672,399.463c-4.477-2.585-12.062-2.4-16.942.417s-5.207,7.2-.73,9.78,12.061,2.4,16.941-.418S345.148,402.049,340.672,399.463Zm-3.047,8.442c-3.485,2.011-8.9,2.145-12.1.3s-2.964-4.974.521-6.985,8.9-2.145,12.1-.3S341.111,405.894,337.625,407.906Z" transform="translate(-319.845 -389.144)" opacity="0.15"/>
                <g id="Group_140924" data-name="Group 140924" transform="translate(6.334 8.5)">
                  <path id="Path_199013" data-name="Path 199013" d="M343.971,399.466c-3.783-2.185-9.779-2.382-14.493-.694l1.617,1.655c3.367-1.205,7.649-1.064,10.351.5a5.681,5.681,0,0,1,1.228.942l3.017-1.078A7.93,7.93,0,0,0,343.971,399.466Z" transform="translate(-329.478 -397.647)" fill="#4dd0e1"/>
                  <path id="Path_199014" data-name="Path 199014" d="M343.971,399.466c-3.783-2.185-9.779-2.382-14.493-.694l1.617,1.655c3.367-1.205,7.649-1.064,10.351.5a5.681,5.681,0,0,1,1.228.942l3.017-1.078A7.93,7.93,0,0,0,343.971,399.466Z" transform="translate(-329.478 -397.647)" fill="#fff" opacity="0.7"/>
                </g>
                <g id="Group_140925" data-name="Group 140925" transform="translate(12.188)">
                  <path id="Path_199015" data-name="Path 199015" d="M338.873,392.786h-.03a.49.49,0,0,1-.46-.519l.133-2.252,9.064-5.231a.491.491,0,1,1,.491.85l-8.607,4.966-.1,1.725A.49.49,0,0,1,338.873,392.786Z" transform="translate(-338.383 -384.719)" opacity="0.4"/>
                </g>
              </g>
            </g>
            <g id="Group_140931" data-name="Group 140931" transform="translate(59.004 110.502)">
              <g id="Group_140928" data-name="Group 140928">
                <path id="Path_199016" data-name="Path 199016" d="M302.7,432.733a.491.491,0,0,1-.246-.916l50.071-28.893a.491.491,0,1,1,.491.85l-50.072,28.894A.5.5,0,0,1,302.7,432.733Z" transform="translate(-302.209 -402.859)" opacity="0.4"/>
              </g>
              <g id="Group_140929" data-name="Group 140929" transform="translate(2.708 1.557)">
                <path id="Path_199017" data-name="Path 199017" d="M306.818,435.1a.491.491,0,0,1-.246-.916l50.072-28.894a.491.491,0,1,1,.491.85l-50.071,28.894A.5.5,0,0,1,306.818,435.1Z" transform="translate(-306.327 -405.227)" opacity="0.4"/>
              </g>
              <g id="Group_140930" data-name="Group 140930" transform="translate(5.41 3.117)">
                <path id="Path_199018" data-name="Path 199018" d="M310.928,437.474a.491.491,0,0,1-.246-.916l50.072-28.894a.491.491,0,1,1,.491.85l-50.071,28.894A.5.5,0,0,1,310.928,437.474Z" transform="translate(-310.437 -407.599)" opacity="0.4"/>
              </g>
            </g>
          </g>
        </g>
      </g>
    </g>
  </g>
</svg>
