<svg xmlns="http://www.w3.org/2000/svg" width="60.002" height="60" viewBox="0 0 60.002 60">
  <g id="_15" data-name="15" transform="translate(-206.764 -206.764)">
    <g id="Group_141122" data-name="Group 141122" transform="translate(206.764 206.764)">
      <path id="Path_199495" data-name="Path 199495" d="M265.615,210.006a2.449,2.449,0,0,0-3.516,0l-5.078,5.04a30.2,30.2,0,0,0-9.571-6.115,29.478,29.478,0,0,0-11.093-2.167,28.839,28.839,0,0,0-18.751,6.5,30.464,30.464,0,0,0-10.548,16.973v.274a1.271,1.271,0,0,0,1.25,1.25h7.774a1.171,1.171,0,0,0,1.171-.9,47.1,47.1,0,0,1,2.071-4.57,19.919,19.919,0,0,1,17.03-9.533,19.414,19.414,0,0,1,13.634,5.352l-5.39,5.39a2.5,2.5,0,0,0,1.757,4.26h17.5a2.537,2.537,0,0,0,2.5-2.5v-17.5A2.4,2.4,0,0,0,265.615,210.006Z" transform="translate(-206.354 -206.764)" fill="#fff"/>
      <path id="Path_199496" data-name="Path 199496" d="M264.539,221.349h-7.5a1.167,1.167,0,0,0-1.171.9,47.448,47.448,0,0,1-2.071,4.57,19.909,19.909,0,0,1-17.03,9.53,19.514,19.514,0,0,1-7.306-1.4,20.19,20.19,0,0,1-6.29-3.986l5.352-5.352a2.5,2.5,0,0,0-1.757-4.258h-17.5a2.537,2.537,0,0,0-2.5,2.5v17.5a2.486,2.486,0,0,0,4.26,1.757l5.038-5.038a29.839,29.839,0,0,0,9.514,6.132,29.254,29.254,0,0,0,11.035,2.148,28.635,28.635,0,0,0,18.672-6.5,30.365,30.365,0,0,0,10.469-16.973.673.673,0,0,0,.038-.274,1.266,1.266,0,0,0-1.25-1.248Z" transform="translate(-206.764 -186.348)" fill="#fff"/>
    </g>
  </g>
</svg>
