<svg xmlns="http://www.w3.org/2000/svg" width="47.107" height="60" viewBox="0 0 47.107 60">
  <g id="_16" data-name="16" transform="translate(-246.186 -243.5)">
    <path id="Path_199497" data-name="Path 199497" d="M290.869,255.284l-9.953-9.566a7.717,7.717,0,0,0-5.465-2.218H254.075a7.89,7.89,0,0,0-7.889,7.891v44.22a7.89,7.89,0,0,0,7.889,7.889H285.4a7.89,7.89,0,0,0,7.889-7.889v-34.63A7.889,7.889,0,0,0,290.869,255.284Zm-9.823,37.8H258.433a2.579,2.579,0,0,1,0-5.158h22.613a2.579,2.579,0,0,1,0,5.158Zm0-12.144H258.433a2.579,2.579,0,0,1,0-5.158h22.613a2.579,2.579,0,0,1,0,5.158Zm0-12.12H258.433a2.579,2.579,0,0,1,0-5.158h22.613a2.579,2.579,0,0,1,0,5.158Z" transform="translate(0 0)" fill="#fff"/>
  </g>
</svg>
