<svg xmlns="http://www.w3.org/2000/svg" width="190" height="115" viewBox="0 0 190 115">
  <g id="_17" data-name="17" transform="translate(-180 -4576)">
    <rect id="Rectangle_41430" data-name="Rectangle 41430" width="85" height="28" rx="14" transform="translate(285 4583.5)" fill="#feca2e" opacity="0.2"/>
    <rect id="Rectangle_41431" data-name="Rectangle 41431" width="85" height="28" rx="14" transform="translate(180 4644.5)" fill="#4dd0e1" opacity="0.2"/>
    <g id="surface1" transform="translate(-195.02 4164.5)">
      <path id="Path_194473" data-name="Path 194473" d="M511.687,418.5H435.02a6.667,6.667,0,0,0-6.666,6.667v40h3.333v-40a3.333,3.333,0,0,1,3.333-3.334h76.667a3.333,3.333,0,0,1,3.333,3.334v66.666a3.333,3.333,0,0,1-3.333,3.334h-35V498.5h35a6.667,6.667,0,0,0,6.667-6.667V425.167A6.667,6.667,0,0,0,511.687,418.5Z" fill="#0f2771"/>
      <path id="Path_194474" data-name="Path 194474" d="M435.02,425.167h3.334V428.5H435.02Z" fill="#0f2771"/>
      <path id="Path_194475" data-name="Path 194475" d="M441.687,425.167h3.333V428.5h-3.333Z" fill="#0f2771"/>
      <path id="Path_194476" data-name="Path 194476" d="M448.354,425.167h3.333V428.5h-3.333Z" fill="#0f2771"/>
      <path id="Path_194477" data-name="Path 194477" d="M435.02,431.833h76.667v3.334H435.02Z" fill="#0f2771"/>
      <path id="Path_194478" data-name="Path 194478" d="M435.02,458.5a1.667,1.667,0,0,0,1.667,1.667h20a1.667,1.667,0,0,0,1.667-1.667V445.167a1.667,1.667,0,0,0-1.667-1.667h-7.643l-2.845-2.845a1.665,1.665,0,0,0-1.179-.488h-8.333a1.666,1.666,0,0,0-1.667,1.666Zm3.334-15h5.976l2.845,2.845a1.671,1.671,0,0,0,1.179.488h6.666v10H438.354Z" fill="#0f2771"/>
      <path id="Path_194479" data-name="Path 194479" d="M485.02,445.167a1.666,1.666,0,0,0-1.666-1.667H475.71l-2.845-2.845a1.663,1.663,0,0,0-1.178-.488h-8.333a1.666,1.666,0,0,0-1.667,1.666V458.5a1.667,1.667,0,0,0,1.667,1.667h20a1.666,1.666,0,0,0,1.666-1.667Zm-3.333,11.666H465.02V443.5H471l2.845,2.845a1.668,1.668,0,0,0,1.178.488h6.667Z" fill="#0f2771"/>
      <path id="Path_194480" data-name="Path 194480" d="M511.687,445.167a1.667,1.667,0,0,0-1.667-1.667h-7.643l-2.845-2.845a1.663,1.663,0,0,0-1.178-.488H490.02a1.665,1.665,0,0,0-1.666,1.666V458.5a1.666,1.666,0,0,0,1.666,1.667h20a1.667,1.667,0,0,0,1.667-1.667Zm-3.333,11.666H491.687V443.5h5.977l2.845,2.845a1.667,1.667,0,0,0,1.178.488h6.667Z" fill="#0f2771"/>
      <path id="Path_194481" data-name="Path 194481" d="M476.687,483.5v3.333h6.667a1.665,1.665,0,0,0,1.666-1.666V471.833a1.665,1.665,0,0,0-1.666-1.666H475.71l-2.845-2.845a1.663,1.663,0,0,0-1.178-.489h-5v3.334H471l2.845,2.845a1.668,1.668,0,0,0,1.178.488h6.667v10Z" fill="#0f2771"/>
      <path id="Path_194482" data-name="Path 194482" d="M510.02,470.167h-7.643l-2.845-2.845a1.664,1.664,0,0,0-1.178-.489H490.02a1.666,1.666,0,0,0-1.666,1.667v16.667a1.666,1.666,0,0,0,1.666,1.666h20a1.666,1.666,0,0,0,1.667-1.666V471.833A1.666,1.666,0,0,0,510.02,470.167ZM508.354,483.5H491.687V470.167h5.977l2.845,2.845a1.667,1.667,0,0,0,1.178.488h6.667Z" fill="#0f2771"/>
      <path id="Path_194483" data-name="Path 194483" d="M426.092,485.167h-4.4a1.666,1.666,0,0,0-1.667,1.666v10a1.667,1.667,0,0,0,1.667,1.667h4.4a21.443,21.443,0,0,0,1.317,3.183L424.3,504.8a1.668,1.668,0,0,0,0,2.357l7.072,7.072a1.668,1.668,0,0,0,2.357,0l3.113-3.113a21.584,21.584,0,0,0,3.183,1.316v4.405a1.667,1.667,0,0,0,1.667,1.667h10a1.667,1.667,0,0,0,1.667-1.667v-4.405a21.538,21.538,0,0,0,3.183-1.316l3.113,3.113a1.668,1.668,0,0,0,2.357,0l7.072-7.072a1.668,1.668,0,0,0,0-2.357l-3.114-3.113a21.444,21.444,0,0,0,1.317-3.183h4.4a1.667,1.667,0,0,0,1.667-1.667v-10a1.666,1.666,0,0,0-1.667-1.666h-4.4a21.453,21.453,0,0,0-1.317-3.184l3.114-3.113a1.668,1.668,0,0,0,0-2.357l-7.072-7.071a1.668,1.668,0,0,0-2.357,0l-3.113,3.113a21.659,21.659,0,0,0-3.183-1.317v-4.4a1.666,1.666,0,0,0-1.667-1.666h-10a1.666,1.666,0,0,0-1.667,1.666v4.4a21.7,21.7,0,0,0-3.183,1.317l-3.113-3.113a1.668,1.668,0,0,0-2.357,0l-7.072,7.071a1.668,1.668,0,0,0,0,2.357l3.114,3.113c-.139.27-.272.546-.4.822A21.6,21.6,0,0,0,426.092,485.167Zm2.865,2.083a18.2,18.2,0,0,1,1.95-4.713,1.667,1.667,0,0,0-.257-2.025l-2.82-2.82,4.716-4.715,2.819,2.82a1.667,1.667,0,0,0,2.025.256,18.237,18.237,0,0,1,4.714-1.95,1.667,1.667,0,0,0,1.25-1.613V468.5h6.666v3.99a1.667,1.667,0,0,0,1.25,1.613,18.223,18.223,0,0,1,4.714,1.95,1.667,1.667,0,0,0,2.025-.256l2.819-2.82,4.716,4.715-2.82,2.82a1.667,1.667,0,0,0-.257,2.025,18.217,18.217,0,0,1,1.95,4.713,1.667,1.667,0,0,0,1.613,1.25h3.99v6.667h-3.99a1.666,1.666,0,0,0-1.613,1.25,18.231,18.231,0,0,1-1.95,4.713,1.667,1.667,0,0,0,.257,2.025l2.82,2.82-4.716,4.715-2.819-2.82a1.667,1.667,0,0,0-2.025-.257,18.224,18.224,0,0,1-4.714,1.95,1.668,1.668,0,0,0-1.25,1.614v3.99h-6.666v-3.99a1.668,1.668,0,0,0-1.25-1.614,18.238,18.238,0,0,1-4.714-1.95,1.667,1.667,0,0,0-2.025.257l-2.819,2.82-4.716-4.715,2.82-2.82a1.667,1.667,0,0,0,.257-2.025,18.23,18.23,0,0,1-1.95-4.713,1.666,1.666,0,0,0-1.613-1.25h-3.99V488.5h3.99A1.667,1.667,0,0,0,428.957,487.25Z" fill="#0f2771"/>
      <path id="Path_194484" data-name="Path 194484" d="M446.687,503.5a11.667,11.667,0,1,0-11.667-11.667A11.666,11.666,0,0,0,446.687,503.5Zm0-20a8.333,8.333,0,1,1-8.333,8.333A8.333,8.333,0,0,1,446.687,483.5Z" fill="#0f2771"/>
    </g>
    <rect id="Rectangle_43995" data-name="Rectangle 43995" width="190" height="115" transform="translate(180 4576)" fill="none"/>
  </g>
</svg>
