<svg xmlns="http://www.w3.org/2000/svg" width="70.91" height="60" viewBox="0 0 70.91 60">
  <g id="_17" data-name="17" transform="translate(-222.768 -225.04)">
    <path id="Path_199498" data-name="Path 199498" d="M291.674,227.044a6.567,6.567,0,0,0-4.814-2H229.586a6.842,6.842,0,0,0-6.818,6.821v46.363a6.838,6.838,0,0,0,6.818,6.816H286.86a6.838,6.838,0,0,0,6.818-6.816V231.861A6.56,6.56,0,0,0,291.674,227.044Zm-47.088,51.178a1.311,1.311,0,0,1-1.363,1.363H229.586a1.311,1.311,0,0,1-1.363-1.363V270.04a1.314,1.314,0,0,1,1.363-1.363h13.637a1.311,1.311,0,0,1,1.363,1.363v8.182Zm0-16.363a1.311,1.311,0,0,1-1.363,1.363H229.586a1.311,1.311,0,0,1-1.363-1.363v-8.182a1.314,1.314,0,0,1,1.363-1.363h13.637a1.311,1.311,0,0,1,1.363,1.363v8.182Zm0-16.363a1.311,1.311,0,0,1-1.363,1.363H229.586a1.311,1.311,0,0,1-1.363-1.363v-8.182a1.314,1.314,0,0,1,1.363-1.363h13.637a1.311,1.311,0,0,1,1.363,1.363V245.5ZM266.4,278.222a1.307,1.307,0,0,1-1.363,1.363H251.4a1.311,1.311,0,0,1-1.363-1.363V270.04a1.314,1.314,0,0,1,1.363-1.363h13.637a1.311,1.311,0,0,1,1.363,1.363v8.182Zm0-16.363a1.307,1.307,0,0,1-1.363,1.363H251.4a1.311,1.311,0,0,1-1.363-1.363v-8.182a1.314,1.314,0,0,1,1.363-1.363h13.637a1.311,1.311,0,0,1,1.363,1.363v8.182Zm0-16.363a1.307,1.307,0,0,1-1.363,1.363H251.4a1.311,1.311,0,0,1-1.363-1.363v-8.182a1.314,1.314,0,0,1,1.363-1.363h13.637a1.311,1.311,0,0,1,1.363,1.363V245.5Zm21.818,32.726a1.307,1.307,0,0,1-1.363,1.363H273.226a1.307,1.307,0,0,1-1.363-1.363V270.04a1.311,1.311,0,0,1,1.363-1.363H286.86a1.311,1.311,0,0,1,1.363,1.363Zm0-16.363a1.307,1.307,0,0,1-1.363,1.363H273.226a1.307,1.307,0,0,1-1.363-1.363v-8.182a1.311,1.311,0,0,1,1.363-1.363H286.86a1.311,1.311,0,0,1,1.363,1.363Zm0-16.363a1.307,1.307,0,0,1-1.363,1.363H273.226a1.307,1.307,0,0,1-1.363-1.363v-8.182a1.311,1.311,0,0,1,1.363-1.363H286.86a1.311,1.311,0,0,1,1.363,1.363Z" transform="translate(0 0)" fill="#fff"/>
  </g>
</svg>
