<svg xmlns="http://www.w3.org/2000/svg" width="60" height="51.177" viewBox="0 0 60 51.177">
  <g id="_18" data-name="18" transform="translate(-241.345 -243.5)">
    <g id="Page-1" transform="translate(241.345 243.5)">
      <g id="craziness_filled" data-name="craziness filled">
        <path id="goal_-target_-bullseye_-aim_-achievement_-precision" data-name="goal,-target,-bullseye,-aim,-achievement,-precision" d="M285.464,294.677c-9.019,0-15.883-11.584-15.883-25.589s6.864-25.589,15.883-25.589,15.881,11.584,15.881,25.589S294.481,294.677,285.464,294.677Zm0-7.058c5.72,0,9.705-8.416,9.705-18.53s-3.986-18.53-9.705-18.53-9.707,8.416-9.707,18.53S279.742,287.619,285.464,287.619Zm0-3.529c-3.052,0-6.178-6.6-6.178-15s3.126-15,6.178-15,6.176,6.6,6.176,15S288.514,284.09,285.464,284.09Zm0-11.472c.974,0,1.765-1.58,1.765-3.529s-.79-3.529-1.765-3.529-1.767,1.58-1.767,3.529S284.487,272.618,285.464,272.618Zm-25.439-5.294-2.28-2.283a1.765,1.765,0,0,1,2.5-2.5l5.294,5.294a1.766,1.766,0,0,1,0,2.5l-5.294,5.294a1.765,1.765,0,0,1-2.5-2.5l2.28-2.282H243.11a1.765,1.765,0,0,1,0-3.529Z" transform="translate(-241.345 -243.5)" fill="#fff"/>
      </g>
    </g>
  </g>
</svg>
