<svg xmlns="http://www.w3.org/2000/svg" width="190" height="115" viewBox="0 0 190 115">
  <g id="_19" data-name="19" transform="translate(-179.667 -3058)">
    <rect id="Rectangle_41430" data-name="Rectangle 41430" width="85" height="28" rx="14" transform="translate(284.667 3065.5)" fill="#feca2e" opacity="0.2"/>
    <rect id="Rectangle_41431" data-name="Rectangle 41431" width="85" height="28" rx="14" transform="translate(179.667 3126.5)" fill="#4dd0e1" opacity="0.2"/>
    <g id="Group_137053" data-name="Group 137053" transform="translate(26.667 2867)">
      <path id="Path_193957" data-name="Path 193957" d="M298,281.509V269.328l-4.666-1.193c-.033-.078-.065-.157-.1-.235l2.457-4.14-8.615-8.615-4.14,2.457-.235-.1-1.193-4.664H269.328l-1.193,4.666-.235.1-4.14-2.456-8.615,8.614,2.457,4.14c-.034.08-.066.159-.1.236l-4.664,1.192v12.182l4.666,1.192c.032.079.065.158.1.236l-2.456,4.14,8.614,8.614,4.14-2.456.236.1L269.329,298h12.182l1.192-4.666c.079-.033.158-.065.236-.1l4.14,2.457,8.614-8.615-2.456-4.14c.034-.079.066-.158.1-.235Zm-6.359,5.06-5.072,5.072-3.447-2.046-.775.371a16.2,16.2,0,0,1-1.538.637l-.812.289-.99,3.882h-7.173l-.99-3.882-.813-.289a15.011,15.011,0,0,1-1.537-.637l-.776-.371-3.447,2.046-5.071-5.072,2.045-3.447-.371-.775a16.2,16.2,0,0,1-.637-1.538l-.288-.812-3.884-.99v-7.173l3.882-.99.288-.813a15.255,15.255,0,0,1,.638-1.537l.37-.776-2.045-3.447,5.071-5.071,3.447,2.045.776-.371a16.18,16.18,0,0,1,1.537-.637l.813-.288.99-3.884h7.173l.99,3.882.813.288a15.254,15.254,0,0,1,1.537.638l.776.37,3.447-2.045,5.071,5.071-2.045,3.447.371.776a16.18,16.18,0,0,1,.637,1.537l.288.813,3.884.99v7.173l-3.882.99-.289.813a15.011,15.011,0,0,1-.637,1.537l-.371.776Z" fill="#0f2771"/>
      <path id="Path_193958" data-name="Path 193958" d="M275.419,262.516a12.9,12.9,0,1,0,12.9,12.9A12.919,12.919,0,0,0,275.419,262.516Zm0,22.581a9.677,9.677,0,1,1,9.678-9.678A9.687,9.687,0,0,1,275.419,285.1Z" fill="#0f2771"/>
      <path id="Path_193959" data-name="Path 193959" d="M275.419,268.968a6.452,6.452,0,1,0,6.452,6.451A6.457,6.457,0,0,0,275.419,268.968Zm0,9.677a3.225,3.225,0,1,1,3.226-3.226A3.229,3.229,0,0,1,275.419,278.645Z" fill="#0f2771"/>
      <path id="Path_193960" data-name="Path 193960" d="M238.847,225.31a9.7,9.7,0,0,0,2.7,4.077v1.368l-7.669,2.875a8.1,8.1,0,0,0-5.234,7.551v8.432h38.71v-8.432a8.1,8.1,0,0,0-5.233-7.552l-7.67-2.876v-1.366a9.676,9.676,0,0,0,2.7-4.077,6.449,6.449,0,0,0,5.363-6.342v-6.452a14.516,14.516,0,1,0-29.032,0v6.452A6.449,6.449,0,0,0,238.847,225.31Zm12.379,6.114L248,236.8l-3.226-5.376v-.118a9.492,9.492,0,0,0,6.452,0Zm-8.757,2.429,3.252,5.418-3.231,1.614-2.087-6.258Zm21.66,7.328v5.206H231.871v-5.206a4.861,4.861,0,0,1,3.14-4.531l2.371-.889,3.224,9.675,7.394-3.7,7.394,3.7,3.224-9.675,2.373.89A4.86,4.86,0,0,1,264.129,241.181Zm-8.532-6.554-2.087,6.26-3.231-1.615,3.252-5.419Zm-7.6-5.982a6.458,6.458,0,0,1-6.452-6.451v-6.562A12.479,12.479,0,0,0,248,213.058a12.471,12.471,0,0,0,6.452,2.574v6.562A6.458,6.458,0,0,1,248,228.645Zm9.677-6.9v-5.553a3.2,3.2,0,0,1,0,5.553ZM248,201.226a11.3,11.3,0,0,1,11.29,11.29v.9a6.382,6.382,0,0,0-3.225-.9h-.278a9.335,9.335,0,0,1-6.647-2.753L248,208.621l-1.14,1.142a9.337,9.337,0,0,1-6.647,2.753h-.278a6.382,6.382,0,0,0-3.225.9v-.9A11.3,11.3,0,0,1,248,201.226Zm-9.677,14.964v5.554a3.2,3.2,0,0,1,0-5.554Z" fill="#0f2771"/>
      <path id="Path_193961" data-name="Path 193961" d="M198,298h32.258V256.065H198Zm3.226-38.71h25.806v35.484H201.226Z" fill="#0f2771"/>
      <path id="Path_193962" data-name="Path 193962" d="M204.452,262.516h19.354v3.226H204.452Z" fill="#0f2771"/>
      <path id="Path_193963" data-name="Path 193963" d="M204.452,268.968h3.225v3.226h-3.225Z" fill="#0f2771"/>
      <path id="Path_193964" data-name="Path 193964" d="M210.9,268.968h12.9v3.226H210.9Z" fill="#0f2771"/>
      <path id="Path_193965" data-name="Path 193965" d="M204.452,275.419h19.354v3.226H204.452Z" fill="#0f2771"/>
      <path id="Path_193966" data-name="Path 193966" d="M204.452,281.871h19.354V285.1H204.452Z" fill="#0f2771"/>
      <path id="Path_193967" data-name="Path 193967" d="M220.581,288.323h3.225v3.225h-3.225Z" fill="#0f2771"/>
      <path id="Path_193968" data-name="Path 193968" d="M204.452,288.323h12.9v3.225h-12.9Z" fill="#0f2771"/>
      <path id="Path_193969" data-name="Path 193969" d="M241.076,270.108l-2.281-2.281-7.592,7.592,7.592,7.592,2.281-2.28-3.7-3.7h12.235v-3.226H237.378Z" fill="#0f2771"/>
      <path id="Path_193970" data-name="Path 193970" d="M215.742,223.806a1.614,1.614,0,0,1,1.613-1.612h7.4l-3.7,3.7,2.281,2.281,7.592-7.592-7.592-7.592-2.281,2.28,3.7,3.7h-7.4a4.845,4.845,0,0,0-4.839,4.838v29.033h3.226Z" fill="#0f2771"/>
      <path id="Path_193971" data-name="Path 193971" d="M275.419,223.806v20.3l-3.7-3.7-2.281,2.281,7.592,7.592,7.592-7.592-2.281-2.281-3.7,3.7v-20.3a4.845,4.845,0,0,0-4.839-4.838h-8.064v3.226h8.064A1.614,1.614,0,0,1,275.419,223.806Z" fill="#0f2771"/>
    </g>
    <rect id="Rectangle_43995" data-name="Rectangle 43995" width="190" height="115" transform="translate(179.667 3058)" fill="none"/>
  </g>
</svg>
