<svg xmlns="http://www.w3.org/2000/svg" width="190" height="115" viewBox="0 0 190 115">
  <g id="_2" data-name="2" transform="translate(-180 -1101)">
    <rect id="Rectangle_41430" data-name="Rectangle 41430" width="85" height="28" rx="14" transform="translate(285 1113.5)" fill="#feca2e" opacity="0.2"/>
    <rect id="Rectangle_41431" data-name="Rectangle 41431" width="85" height="28" rx="14" transform="translate(180 1174.5)" fill="#4dd0e1" opacity="0.2"/>
    <g id="Group_137206" data-name="Group 137206" transform="translate(25.091 907)">
      <path id="Path_194485" data-name="Path 194485" d="M267.921,244.45a11.343,11.343,0,0,0,.611-1.773h32.3a2.038,2.038,0,0,0,2.038-2.038v-32.6A2.038,2.038,0,0,0,300.829,206H253.963a2.038,2.038,0,0,0-2.037,2.038v16.3a15.59,15.59,0,0,0-4.076.509V208.038A2.038,2.038,0,0,0,245.813,206H198.947a2.038,2.038,0,0,0-2.038,2.038v32.6a2.038,2.038,0,0,0,2.038,2.038h32.419a17.929,17.929,0,0,0,.489,2.527c0,.224,0,0,.469.836a6.694,6.694,0,0,0-.978.714h-32.4a2.038,2.038,0,0,0-2.038,2.037v32.6a2.038,2.038,0,0,0,2.038,2.038h30.666v8.151H209.135a2.037,2.037,0,0,0,0,4.075h81.507a2.037,2.037,0,0,0,0-4.075H270.264v-8.151h30.565a2.038,2.038,0,0,0,2.038-2.038v-32.6a2.038,2.038,0,0,0-2.038-2.037H268.634a5.61,5.61,0,0,0-1.508-.978S267.269,245.591,267.921,244.45Zm30.87-34.375V238.6h-29.77a11.39,11.39,0,0,0-2.832-7.417v-6.846a2.038,2.038,0,1,0-4.076,0v5.216a5.278,5.278,0,0,0-1.121.244A9.409,9.409,0,0,0,256,225.154V210.075Zm-45.378,18.5a5.7,5.7,0,0,1,4.625,4.789,2.037,2.037,0,0,0,3.464.978c.958-1.019,1.385-.714,1.63-.55,1.569,1.06,2.771,5.318,1.222,8.863l-.916,1.487a3.259,3.259,0,0,1-1.386-2.037,2.037,2.037,0,0,0-2.038-1.732,18.1,18.1,0,0,1-14.712-6.846,2.037,2.037,0,0,0-2.812-.632h0A11.371,11.371,0,0,1,253.413,228.577Zm11.492,23.8h-.876a2.181,2.181,0,0,0-2.038,1.732,12.225,12.225,0,0,1-8.62,9.842,11.938,11.938,0,0,1-11.981-3.076,11.781,11.781,0,0,1-3.4-6.745,2.159,2.159,0,0,0-2.037-1.753h-.9a1.507,1.507,0,0,1-1.468-1.547h0a1.468,1.468,0,0,1,1.426-1.508h.082a2.463,2.463,0,0,0,2.139-.469,23.731,23.731,0,0,0,7.193-10.086,20.742,20.742,0,0,0,14.039,5.665,7.64,7.64,0,0,0,3.913,3.749,2.037,2.037,0,0,0,1.814,1.141h.713a1.406,1.406,0,0,1,1.508,1.3,1.391,1.391,0,0,1,0,.212,1.508,1.508,0,0,1-1.467,1.548Zm-28.73-8.048-.51-.611c-.672-2.812-.672-7.4,1.121-9.393.306-.346,1.244-1.386,3.831-.917a2.031,2.031,0,0,0,1.467-.306,2.047,2.047,0,0,0-.591,1.08,20.011,20.011,0,0,1-5.318,10.147Zm-35.19-34.253h42.79v16.3a15.248,15.248,0,0,0-3.668,2.771,7.479,7.479,0,0,0-6.358,2.364,11.527,11.527,0,0,0-2.527,7.091H200.985Zm32.7,81.507v-10.7c0-4.2,7.641-7.621,8.273-7.641l6.317,9.883a2.038,2.038,0,0,0,3.423,0l6.337-9.883c1.223,0,8.293,2.934,8.293,7.6v10.739Zm65.2-12.226H270.264c-.978-5.032-6.113-8.986-10.453-9.944a4.422,4.422,0,0,0-5.135,1.63h0l-4.625,7.193-4.606-7.193a4.422,4.422,0,0,0-5.135-1.63,14.264,14.264,0,0,0-10.555,9.944H200.985V250.828h28.527a5.562,5.562,0,0,0,4.85,5.5,16.054,16.054,0,0,0,4.075,7.4,16.786,16.786,0,0,0,6.724,4.076,17.059,17.059,0,0,0,9.292,0A16.3,16.3,0,0,0,265.6,256.31a5.563,5.563,0,0,0,4.89-5.482h28.3Z" fill="#0f2771"/>
      <path id="Path_194486" data-name="Path 194486" d="M208.038,219.166h18.338a2.037,2.037,0,1,0,0-4.075H208.038a2.037,2.037,0,1,0,0,4.075Z" transform="translate(-0.94 -0.94)" fill="#0f2771"/>
      <path id="Path_194487" data-name="Path 194487" d="M208.038,228.257h24.451a2.037,2.037,0,1,0,0-4.075H208.038a2.037,2.037,0,1,0,0,4.075Z" transform="translate(-0.94 -1.881)" fill="#0f2771"/>
      <path id="Path_194488" data-name="Path 194488" d="M218.226,233.273H208.038a2.037,2.037,0,1,0,0,4.075h10.188a2.037,2.037,0,1,0,0-4.075Z" transform="translate(-0.94 -2.821)" fill="#0f2771"/>
      <path id="Path_194489" data-name="Path 194489" d="M280.765,235.232a2.038,2.038,0,0,0,2.038-2.038V214.856a2.038,2.038,0,1,0-4.076,0v18.338A2.038,2.038,0,0,0,280.765,235.232Z" transform="translate(-8.463 -0.705)" fill="#0f2771"/>
      <path id="Path_194490" data-name="Path 194490" d="M289.856,235.937a2.038,2.038,0,0,0,2.038-2.038V221.674a2.038,2.038,0,0,0-4.076,0V233.9A2.038,2.038,0,0,0,289.856,235.937Z" transform="translate(-9.403 -1.41)" fill="#0f2771"/>
      <path id="Path_194491" data-name="Path 194491" d="M298.947,235.467a2.038,2.038,0,0,0,2.038-2.038v-16.3a2.038,2.038,0,1,0-4.076,0v16.3A2.038,2.038,0,0,0,298.947,235.467Z" transform="translate(-10.344 -0.94)" fill="#0f2771"/>
      <path id="Path_194492" data-name="Path 194492" d="M224.339,268.7a2.038,2.038,0,0,0-2.038,2.038,6.113,6.113,0,1,1-6.113-6.113,2.038,2.038,0,0,0,0-4.076,10.189,10.189,0,1,0,10.188,10.189A2.038,2.038,0,0,0,224.339,268.7Z" transform="translate(-0.94 -5.642)" fill="#0f2771"/>
      <path id="Path_194493" data-name="Path 194493" d="M230.06,262.818h-6.113a2.038,2.038,0,1,0,0,4.076h6.113a2.038,2.038,0,0,0,0-4.076Z" transform="translate(-2.586 -5.877)" fill="#0f2771"/>
      <path id="Path_194494" data-name="Path 194494" d="M283.037,279.356a2.04,2.04,0,0,0,1.446-.591l7.112-7.112,2.751,1.365a2.039,2.039,0,0,0,2.038-.123l6.113-4.075a2.029,2.029,0,1,0-2.241-3.383l-5.135,3.423-3.016-1.507a2.037,2.037,0,0,0-2.363.367l-8.151,8.151a2.038,2.038,0,0,0-.012,2.882l.012.012A2.042,2.042,0,0,0,283.037,279.356Z" transform="translate(-8.697 -6.114)" fill="#0f2771"/>
    </g>
    <rect id="Rectangle_43996" data-name="Rectangle 43996" width="190" height="115" transform="translate(180 1101)" fill="none"/>
  </g>
</svg>
