<svg xmlns="http://www.w3.org/2000/svg" width="400" height="212.43" viewBox="0 0 400 212.43">
  <g id="_22" data-name="22" transform="translate(-180 -6682)">
    <rect id="Rectangle_43843" data-name="Rectangle 43843" width="400" height="17" transform="translate(180 6771)" fill="none"/>
    <path id="Path_196622" data-name="Path 196622" d="M106.215,0A106.215,106.215,0,1,1,0,106.215,106.215,106.215,0,0,1,106.215,0Z" transform="translate(274 6682)" fill="#bddcf6" opacity="0.74"/>
    <g id="Group_139889" data-name="Group 139889" transform="translate(-872.515 5365.329)">
      <g id="Group_139925" data-name="Group 139925" transform="translate(1090.515 1316.671)">
        <g id="Group_139924" data-name="Group 139924">
          <g id="Group_139923" data-name="Group 139923">
            <g id="Group_139894" data-name="Group 139894" transform="translate(55.496 41.592)">
              <g id="Group_139889-2" data-name="Group 139889" transform="translate(110.874 26.061)">
                <path id="Path_196622-2" data-name="Path 196622" d="M1536.151,1536.486l-.009-4.292,1.046,0,.009,4.293Zm-.018-8.585-.008-4.293,1.046,0,.008,4.293Zm-.017-8.585-.009-4.292,1.046,0,.009,4.293Zm-.019-8.585-.009-4.293,1.046,0,.009,4.293Zm-.018-8.585-.009-4.293,1.046,0,.009,4.293Z" transform="translate(-1536.069 -1497.851)" fill="#a0a3cb"/>
              </g>
              <g id="Group_139893" data-name="Group 139893">
                <g id="Group_139890" data-name="Group 139890" transform="translate(0 128.085)">
                  <rect id="Rectangle_43790" data-name="Rectangle 43790" width="1.046" height="2.146" fill="#a0a3cb"/>
                </g>
                <g id="Group_139891" data-name="Group 139891" transform="translate(0)">
                  <path id="Path_196623" data-name="Path 196623" d="M1240.185,1551.816h-1.046v-4.328h1.046Zm214.5-.024h-1.046v-4.328h1.046Zm-214.5-8.631h-1.046v-4.327h1.046Zm214.5-.024h-1.046v-4.328h1.046Zm-214.5-8.631h-1.046v-4.328h1.046Zm214.5-.024h-1.046v-4.328h1.046Zm-214.5-8.631h-1.046v-4.328h1.046Zm214.5-.024h-1.046V1521.5h1.046Zm-214.5-8.631h-1.046v-4.328h1.046Zm214.5-.024h-1.046v-4.328h1.046Zm-214.5-8.631h-1.046v-4.328h1.046Zm214.5-.024h-1.046v-4.328h1.046Zm-214.5-8.631h-1.046v-4.328h1.046Zm214.5-.024h-1.046v-4.328h1.046Zm-214.5-8.631h-1.046V1486.9h1.046Zm214.5-.024h-1.046v-4.328h1.046Zm-214.5-8.631h-1.046v-4.328h1.046Zm214.5-.024h-1.046v-4.328h1.046Zm-214.5-8.631h-1.046v-4.328h1.046Zm214.5-.024h-1.046v-4.327h1.046Zm-214.5-8.631h-1.046v-4.328h1.046Zm214.5-.024h-1.046v-4.328h1.046Zm-214.5-8.631h-1.046v-4.328h1.046Zm214.5-.024h-1.046v-4.328h1.046Zm-214.5-8.631h-1.046v-4.328h1.046Zm214.5-.024h-1.046V1443.6h1.046Zm-214.5-8.631h-1.046v-4.327h1.046Zm214.5-.024h-1.046v-4.328h1.046Zm-214.083-8.3-.927-.5a4.261,4.261,0,0,1,3.762-2.414h.121v1.073h-.121A3.221,3.221,0,0,0,1240.6,1430.969Zm212.613-.018a3.226,3.226,0,0,0-2.827-1.82h-.143v-1.073h.143a4.262,4.262,0,0,1,3.75,2.39Zm-7.189-1.82h-4.218v-1.073h4.218Zm-8.436,0h-4.218v-1.073h4.218Zm-8.436,0h-4.218v-1.073h4.218Zm-8.436,0H1416.5v-1.073h4.217Zm-8.436,0h-4.218v-1.073h4.218Zm-8.436,0h-4.218v-1.073h4.218Zm-8.436,0h-4.217v-1.073h4.217Zm-8.436,0h-4.218v-1.073h4.218Zm-8.436,0h-4.218v-1.073h4.218Zm-8.436,0h-4.218v-1.073h4.218Zm-16.873,0h-4.217v-1.073h4.217Zm-16.872,0h-4.219v-1.073h4.219Zm-8.436,0H1323.7v-1.073h4.218Zm-8.436,0h-4.218v-1.073h4.218Zm-8.436,0h-4.218v-1.073h4.218Zm-8.436,0h-4.219v-1.073h4.219Zm-8.436,0h-4.219v-1.073h4.219Zm-8.436,0h-4.219v-1.073h4.219Zm-8.436,0h-4.219v-1.073h4.219Zm-8.436,0h-4.219v-1.073h4.219Zm-8.436,0h-4.219v-1.073h4.219Zm-8.436,0h-4.219v-1.073h4.219Z" transform="translate(-1239.139 -1428.058)" fill="#a0a3cb"/>
                </g>
                <g id="Group_139892" data-name="Group 139892" transform="translate(214.5 128.085)">
                  <rect id="Rectangle_43791" data-name="Rectangle 43791" width="1.046" height="2.146" fill="#a0a3cb"/>
                </g>
              </g>
            </g>
            <g id="Group_139899" data-name="Group 139899" transform="translate(113.365)">
              <path id="Path_196624" data-name="Path 196624" d="M1479.87,1339.2c-1.174-12.6-14.011-22.533-29.685-22.533-15.6,0-28.392,9.836-29.668,22.356h-6.265c-11.12,0-20.135,8.088-20.135,18.064s9.015,18.064,20.135,18.064h23.973v-5.725h-4.483a2.285,2.285,0,0,1-2.09-1.285,2.057,2.057,0,0,1,.312-2.218l13.4-15.738a2.38,2.38,0,0,1,3.556,0l13.4,15.738a2.058,2.058,0,0,1,.311,2.218,2.285,2.285,0,0,1-2.09,1.285h-4.483v5.725H1477.2c11.12,0,20.135-8.088,20.135-18.064C1497.338,1347.928,1489.726,1340.378,1479.87,1339.2Z" transform="translate(-1394.117 -1316.671)" fill="#5a90ce"/>
              <path id="Path_196625" data-name="Path 196625" d="M1475.948,1338.679c-1.12-12.31-13.37-22.008-28.327-22.008-14.887,0-27.094,9.607-28.312,21.835h-5.978c-10.612,0-19.214,7.9-19.214,17.643s8.6,17.643,19.214,17.643h24.894v-4.362h-4.483a2.285,2.285,0,0,1-2.09-1.285,2.057,2.057,0,0,1,.312-2.218l13.4-15.738a2.38,2.38,0,0,1,3.556,0l13.4,15.738a2.058,2.058,0,0,1,.311,2.218,2.285,2.285,0,0,1-2.09,1.285h-4.483v4.362H1473.4c10.612,0,19.214-7.9,19.214-17.643C1492.617,1347.2,1485.354,1339.825,1475.948,1338.679Z" transform="translate(-1394.117 -1316.671)" fill="#fff"/>
              <g id="Group_139898" data-name="Group 139898" transform="translate(7.434 5.972)">
                <g id="Group_139897" data-name="Group 139897">
                  <g id="Group_139895" data-name="Group 139895">
                    <path id="Path_196626" data-name="Path 196626" d="M1415.618,1368.827c0-8.336,7.359-15.093,16.437-15.093h5.114c1.043-10.46,11.484-18.679,24.219-18.679,8.539,0,16.041,3.7,20.376,9.285-3.9-6.9-12.264-11.675-21.969-11.675-12.736,0-23.177,8.219-24.219,18.679h-5.114c-9.078,0-16.437,6.757-16.437,15.093a14.24,14.24,0,0,0,3.273,9.04A14.032,14.032,0,0,1,1415.618,1368.827Z" transform="translate(-1414.025 -1332.665)" fill="#9ec2e5"/>
                  </g>
                  <g id="Group_139896" data-name="Group 139896" transform="translate(71.249 19.027)">
                    <path id="Path_196627" data-name="Path 196627" d="M1605.183,1385.811a16.77,16.77,0,0,1,11,5.935,16.311,16.311,0,0,0-11.346-8.124A17.353,17.353,0,0,1,1605.183,1385.811Z" transform="translate(-1604.836 -1383.622)" fill="#9ec2e5"/>
                  </g>
                </g>
              </g>
              <path id="Path_196628" data-name="Path 196628" d="M1528.107,1426.571l-11.348-13.324a.487.487,0,0,0-.677,0l-11.348,13.324c-.163.192.027.438.339.438h5.328v14.28h12.038v-14.28h5.328C1528.08,1427.009,1528.271,1426.763,1528.107,1426.571Z" transform="translate(-1463.393 -1377.1)" fill="#5a90ce"/>
            </g>
            <g id="Group_139907" data-name="Group 139907" transform="translate(218.645 128.226)">
              <g id="Group_139900" data-name="Group 139900">
                <path id="Path_196629" data-name="Path 196629" d="M1784.678,1826.152s1.655,4.7-2.6,16.652h27.664s-4.965-4.7-3.783-16.652Z" transform="translate(-1742.493 -1764.138)" fill="#d4e6f4"/>
                <path id="Path_196630" data-name="Path 196630" d="M1810.163,1830.833a35.031,35.031,0,0,1,.159-4.68h-21.28a12.774,12.774,0,0,1,.242,4.68Z" transform="translate(-1746.857 -1764.138)" fill="#b5b3ce"/>
                <path id="Rectangle_43792" data-name="Rectangle 43792" d="M5.889,0H99.052a5.889,5.889,0,0,1,5.889,5.889V57.1A6.742,6.742,0,0,1,98.2,63.838H6.742A6.742,6.742,0,0,1,0,57.1V5.889A5.889,5.889,0,0,1,5.889,0Z" fill="#d4e6f4"/>
                <path id="Path_196631" data-name="Path 196631" d="M1676.98,1722.331v-59.266a2.2,2.2,0,0,1,2.269-2.131h100.4a2.359,2.359,0,0,1,1.073.264,2.283,2.283,0,0,0-1.987-1.123h-100.4a2.2,2.2,0,0,0-2.269,2.131v59.266a2.413,2.413,0,0,0,1.277,2.1A2.317,2.317,0,0,1,1676.98,1722.331Z" transform="translate(-1676.066 -1660.074)" fill="#abb3cd"/>
                <rect id="Rectangle_43793" data-name="Rectangle 43793" width="95.959" height="51.922" rx="0.315" transform="translate(4.491 3.727)" fill="#1d3b77"/>
                <rect id="Rectangle_43794" data-name="Rectangle 43794" width="95.959" height="48.25" rx="0.303" transform="translate(4.491 7.4)" fill="#29478c"/>
                <path id="Path_196632" data-name="Path 196632" d="M1740.632,1867.951l-2.246,5.152H1795.6l-2.246-5.152Z" transform="translate(-1715.115 -1790.329)" fill="#c0d5e2"/>
                <path id="Path_196633" data-name="Path 196633" d="M1817.762,1816.3a2,2,0,1,1-2-2.03A2.016,2.016,0,0,1,1817.762,1816.3Z" transform="translate(-1762.343 -1756.694)" fill="#b5b3ce"/>
              </g>
              <g id="Group_139901" data-name="Group 139901" transform="translate(31.251 48.033)">
                <path id="Path_196634" data-name="Path 196634" d="M1800.873,1788.711h-39.787a1.326,1.326,0,0,0-1.326,1.326h0a1.326,1.326,0,0,0,1.326,1.326h39.787a1.326,1.326,0,0,0,0-2.652Z" transform="translate(-1759.76 -1788.711)" fill="#e8eaf9"/>
                <path id="Path_196635" data-name="Path 196635" d="M1784.344,1788.711h-23.258a1.326,1.326,0,0,0,0,2.652h23.258Z" transform="translate(-1759.76 -1788.711)" fill="#feca2e"/>
              </g>
              <g id="Group_139906" data-name="Group 139906" transform="translate(29.268 11.451)">
                <g id="Group_139903" data-name="Group 139903" transform="translate(19.301)">
                  <g id="Group_139902" data-name="Group 139902">
                    <path id="Path_196636" data-name="Path 196636" d="M1832.2,1703.875a9.791,9.791,0,0,0-.54-3.43l2.508-2.223-1.643-2.65-3.09,1.254a9.78,9.78,0,0,0-2.844-2.042l.2-3.332-3.035-.711-1.306,3.09a9.765,9.765,0,0,0-3.42.582l-2.241-2.529-2.649,1.644,1.285,3.168a9.8,9.8,0,0,0-1.955,2.775l-3.448-.208-.711,3.036,3.219,1.361a9.777,9.777,0,0,0,.557,3.273l-2.633,2.335,1.643,2.649,3.275-1.329a9.776,9.776,0,0,0,2.672,1.919l-.213,3.53,3.035.711,1.369-3.24a9.778,9.778,0,0,0,3.281-.517l2.316,2.614,2.648-1.644-1.3-3.2a9.775,9.775,0,0,0,2-2.742l3.411.206.711-3.036Zm-7.238,3.98a4.925,4.925,0,1,1,1.588-6.781A4.922,4.922,0,0,1,1824.96,1707.855Z" transform="translate(-1808.126 -1690.741)" fill="#a9ceea"/>
                    <path id="Path_196637" data-name="Path 196637" d="M1829.028,1705.52a9.778,9.778,0,0,0-.54-3.43l2.508-2.224-1.643-2.649-3.091,1.254a9.774,9.774,0,0,0-2.844-2.043l.2-3.331-3.035-.711-1.306,3.09a9.763,9.763,0,0,0-3.42.582l-2.241-2.529-2.649,1.644,1.286,3.168a9.785,9.785,0,0,0-1.955,2.776l-3.448-.208-.711,3.036,3.219,1.362a9.783,9.783,0,0,0,.557,3.273l-2.632,2.335,1.643,2.649,3.275-1.329a9.776,9.776,0,0,0,2.672,1.919l-.213,3.53,3.035.711,1.369-3.24a9.762,9.762,0,0,0,3.281-.516l2.316,2.614,2.648-1.644-1.3-3.2a9.78,9.78,0,0,0,2-2.743l3.411.206.711-3.035Zm-7.237,3.98a4.925,4.925,0,1,1,1.587-6.781A4.923,4.923,0,0,1,1821.791,1709.5Z" transform="translate(-1806.14 -1691.771)" fill="#c9e2f4"/>
                    <path id="Path_196638" data-name="Path 196638" d="M1808.043,1714.179l1.025.062.158-.676Z" transform="translate(-1807.333 -1705.042)" fill="#a9ceea"/>
                    <path id="Path_196639" data-name="Path 196639" d="M1844.82,1691.355l1.184-.615-.343.811Z" transform="translate(-1830.377 -1690.741)" fill="#a9ceea"/>
                    <path id="Path_196640" data-name="Path 196640" d="M1826.163,1694.416l1.184-.615-1.115.692Z" transform="translate(-1818.686 -1692.658)" fill="#a9ceea"/>
                  </g>
                  <path id="Path_196641" data-name="Path 196641" d="M1837.087,1760.675l1.183-.615-.84-.2Z" transform="translate(-1825.532 -1734.053)" fill="#a9ceea"/>
                  <path id="Path_196642" data-name="Path 196642" d="M1873.864,1738.077l1.184-.614-1.025-.062Z" transform="translate(-1848.576 -1719.978)" fill="#a9ceea"/>
                  <path id="Path_196643" data-name="Path 196643" d="M1855.745,1757.814l1.183-.615-.068-.077Z" transform="translate(-1837.222 -1732.335)" fill="#a9ceea"/>
                </g>
                <g id="Group_139905" data-name="Group 139905" transform="translate(0 11.815)">
                  <g id="Group_139904" data-name="Group 139904">
                    <path id="Path_196644" data-name="Path 196644" d="M1773.584,1732.028a7.194,7.194,0,0,0-.4-2.519l1.842-1.633-1.207-1.945-2.27.921a7.186,7.186,0,0,0-2.089-1.5l.147-2.447-2.229-.522-.959,2.269a7.179,7.179,0,0,0-2.511.427l-1.646-1.857-1.945,1.207.944,2.327a7.177,7.177,0,0,0-1.435,2.038l-2.532-.153-.522,2.229,2.364,1a7.175,7.175,0,0,0,.409,2.4l-1.933,1.714,1.207,1.946,2.4-.976a7.179,7.179,0,0,0,1.962,1.409l-.156,2.592,2.229.522,1.006-2.38a7.167,7.167,0,0,0,2.409-.379l1.7,1.919,1.945-1.207-.953-2.349a7.18,7.18,0,0,0,1.472-2.014l2.5.151.522-2.229Zm-5.315,2.923a3.617,3.617,0,1,1,1.166-4.98A3.615,3.615,0,0,1,1768.27,1734.951Z" transform="translate(-1755.908 -1722.383)" fill="#a9ceea"/>
                    <path id="Path_196645" data-name="Path 196645" d="M1771.257,1733.237a7.186,7.186,0,0,0-.4-2.519l1.842-1.633-1.207-1.945-2.269.921a7.184,7.184,0,0,0-2.089-1.5l.148-2.447-2.228-.522-.959,2.269a7.167,7.167,0,0,0-2.512.427l-1.646-1.857-1.945,1.207.943,2.327A7.187,7.187,0,0,0,1757.5,1730l-2.532-.152-.522,2.229,2.365,1a7.179,7.179,0,0,0,.408,2.4l-1.933,1.714,1.206,1.946,2.405-.976a7.17,7.17,0,0,0,1.962,1.409l-.156,2.592,2.228.522,1.006-2.379a7.168,7.168,0,0,0,2.41-.379l1.7,1.92,1.945-1.207-.953-2.349a7.178,7.178,0,0,0,1.471-2.014l2.505.151.522-2.229Zm-5.315,2.923a3.617,3.617,0,1,1,1.166-4.98A3.615,3.615,0,0,1,1765.942,1736.159Z" transform="translate(-1754.449 -1723.141)" fill="#c9e2f4"/>
                    <path id="Path_196646" data-name="Path 196646" d="M1755.847,1739.6l.753.045.116-.5Z" transform="translate(-1755.325 -1732.885)" fill="#a9ceea"/>
                    <path id="Path_196647" data-name="Path 196647" d="M1782.854,1722.835l.869-.451-.252.6Z" transform="translate(-1772.247 -1722.383)" fill="#a9ceea"/>
                    <path id="Path_196648" data-name="Path 196648" d="M1769.153,1725.082l.869-.451-.819.508Z" transform="translate(-1763.662 -1723.792)" fill="#a9ceea"/>
                  </g>
                  <path id="Path_196649" data-name="Path 196649" d="M1777.175,1773.739l.869-.451-.617-.145Z" transform="translate(-1768.689 -1754.189)" fill="#a9ceea"/>
                  <path id="Path_196650" data-name="Path 196650" d="M1804.182,1757.145l.869-.451-.753-.045Z" transform="translate(-1785.612 -1743.854)" fill="#a9ceea"/>
                  <path id="Path_196651" data-name="Path 196651" d="M1790.876,1771.638l.869-.451-.05-.057Z" transform="translate(-1777.274 -1752.928)" fill="#a9ceea"/>
                </g>
              </g>
            </g>
            <g id="Group_139912" data-name="Group 139912" transform="translate(123.827 95.464)">
              <rect id="Rectangle_43795" data-name="Rectangle 43795" width="82.296" height="115.536" rx="6.493" fill="#0f2771"/>
              <rect id="Rectangle_43796" data-name="Rectangle 43796" width="46.637" height="2.302" transform="translate(17.83 107.745)" fill="#3a6db0"/>
              <g id="Group_139908" data-name="Group 139908" transform="translate(2.648 3.8)">
                <rect id="Rectangle_43797" data-name="Rectangle 43797" width="77.001" height="22.685" rx="4.514" fill="#bddcf6"/>
                <rect id="Rectangle_43798" data-name="Rectangle 43798" width="72.471" height="19.099" rx="4.162" transform="translate(2.265 1.793)" fill="#3a6db0"/>
                <path id="Path_196652" data-name="Path 196652" d="M1600.645,1604.012a5.218,5.218,0,1,1-5.218-5.287A5.252,5.252,0,0,1,1600.645,1604.012Z" transform="translate(-1530.098 -1592.67)" fill="#d1dfff"/>
                <rect id="Rectangle_43799" data-name="Rectangle 43799" width="2.768" height="10.488" transform="translate(10.82 6.099)" fill="#d1dfff"/>
                <rect id="Rectangle_43800" data-name="Rectangle 43800" width="2.768" height="10.488" transform="translate(16.105 6.099)" fill="#d1dfff"/>
                <rect id="Rectangle_43801" data-name="Rectangle 43801" width="2.768" height="10.488" transform="translate(21.389 6.099)" fill="#d1dfff"/>
                <rect id="Rectangle_43802" data-name="Rectangle 43802" width="2.768" height="10.488" transform="translate(26.674 6.099)" fill="#d1dfff"/>
                <rect id="Rectangle_43803" data-name="Rectangle 43803" width="2.768" height="10.488" transform="translate(31.958 6.099)" fill="#d1dfff"/>
                <rect id="Rectangle_43804" data-name="Rectangle 43804" width="3.062" height="3.112" transform="translate(38.878 9.786)" fill="#d1dfff"/>
                <rect id="Rectangle_43805" data-name="Rectangle 43805" width="3.062" height="3.112" transform="translate(44.141 9.786)" fill="#d1dfff"/>
                <rect id="Rectangle_43806" data-name="Rectangle 43806" width="3.061" height="3.112" transform="translate(49.405 9.786)" fill="#d1dfff"/>
              </g>
              <g id="Group_139909" data-name="Group 139909" transform="translate(2.648 80.417)">
                <rect id="Rectangle_43807" data-name="Rectangle 43807" width="77.001" height="22.685" rx="4.514" fill="#bddcf6"/>
                <rect id="Rectangle_43808" data-name="Rectangle 43808" width="72.471" height="19.099" rx="4.162" transform="translate(2.265 1.793)" fill="#3a6db0"/>
                <path id="Path_196653" data-name="Path 196653" d="M1600.645,1809.2a5.218,5.218,0,1,1-5.218-5.287A5.252,5.252,0,0,1,1600.645,1809.2Z" transform="translate(-1530.098 -1797.86)" fill="#d1dfff"/>
                <rect id="Rectangle_43809" data-name="Rectangle 43809" width="2.768" height="10.488" transform="translate(10.82 6.099)" fill="#d1dfff"/>
                <rect id="Rectangle_43810" data-name="Rectangle 43810" width="2.768" height="10.488" transform="translate(16.105 6.099)" fill="#d1dfff"/>
                <rect id="Rectangle_43811" data-name="Rectangle 43811" width="2.768" height="10.488" transform="translate(21.389 6.099)" fill="#d1dfff"/>
                <rect id="Rectangle_43812" data-name="Rectangle 43812" width="2.768" height="10.488" transform="translate(26.674 6.099)" fill="#d1dfff"/>
                <rect id="Rectangle_43813" data-name="Rectangle 43813" width="2.768" height="10.488" transform="translate(31.958 6.099)" fill="#d1dfff"/>
                <rect id="Rectangle_43814" data-name="Rectangle 43814" width="3.062" height="3.112" transform="translate(38.878 9.786)" fill="#d1dfff"/>
                <rect id="Rectangle_43815" data-name="Rectangle 43815" width="3.062" height="3.112" transform="translate(44.141 9.786)" fill="#d1dfff"/>
                <rect id="Rectangle_43816" data-name="Rectangle 43816" width="3.061" height="3.112" transform="translate(49.405 9.786)" fill="#d1dfff"/>
              </g>
              <g id="Group_139910" data-name="Group 139910" transform="translate(2.648 54.945)">
                <rect id="Rectangle_43817" data-name="Rectangle 43817" width="77.001" height="22.685" rx="4.514" fill="#bddcf6"/>
                <rect id="Rectangle_43818" data-name="Rectangle 43818" width="72.471" height="19.099" rx="4.162" transform="translate(2.265 1.793)" fill="#3a6db0"/>
                <path id="Path_196654" data-name="Path 196654" d="M1600.645,1740.984a5.218,5.218,0,1,1-5.218-5.287A5.252,5.252,0,0,1,1600.645,1740.984Z" transform="translate(-1530.098 -1729.641)" fill="#d1dfff"/>
                <rect id="Rectangle_43819" data-name="Rectangle 43819" width="2.768" height="10.488" transform="translate(10.82 6.099)" fill="#d1dfff"/>
                <rect id="Rectangle_43820" data-name="Rectangle 43820" width="2.768" height="10.488" transform="translate(16.105 6.099)" fill="#d1dfff"/>
                <rect id="Rectangle_43821" data-name="Rectangle 43821" width="2.768" height="10.488" transform="translate(21.389 6.099)" fill="#d1dfff"/>
                <rect id="Rectangle_43822" data-name="Rectangle 43822" width="2.768" height="10.488" transform="translate(26.674 6.099)" fill="#d1dfff"/>
                <rect id="Rectangle_43823" data-name="Rectangle 43823" width="2.768" height="10.488" transform="translate(31.958 6.099)" fill="#d1dfff"/>
                <rect id="Rectangle_43824" data-name="Rectangle 43824" width="3.062" height="3.112" transform="translate(38.878 9.786)" fill="#d1dfff"/>
                <rect id="Rectangle_43825" data-name="Rectangle 43825" width="3.062" height="3.112" transform="translate(44.141 9.786)" fill="#d1dfff"/>
                <rect id="Rectangle_43826" data-name="Rectangle 43826" width="3.061" height="3.112" transform="translate(49.405 9.786)" fill="#d1dfff"/>
              </g>
              <g id="Group_139911" data-name="Group 139911" transform="translate(2.648 29.472)">
                <rect id="Rectangle_43827" data-name="Rectangle 43827" width="77.001" height="22.685" rx="4.514" fill="#bddcf6"/>
                <rect id="Rectangle_43828" data-name="Rectangle 43828" width="72.471" height="19.099" rx="4.162" transform="translate(2.265 1.793)" fill="#3a6db0"/>
                <path id="Path_196655" data-name="Path 196655" d="M1600.645,1672.765a5.218,5.218,0,1,1-5.218-5.287A5.252,5.252,0,0,1,1600.645,1672.765Z" transform="translate(-1530.098 -1661.422)" fill="#d1dfff"/>
                <rect id="Rectangle_43829" data-name="Rectangle 43829" width="2.768" height="10.488" transform="translate(10.82 6.099)" fill="#d1dfff"/>
                <rect id="Rectangle_43830" data-name="Rectangle 43830" width="2.768" height="10.488" transform="translate(16.105 6.099)" fill="#d1dfff"/>
                <rect id="Rectangle_43831" data-name="Rectangle 43831" width="2.768" height="10.488" transform="translate(21.389 6.099)" fill="#d1dfff"/>
                <rect id="Rectangle_43832" data-name="Rectangle 43832" width="2.768" height="10.488" transform="translate(26.674 6.099)" fill="#d1dfff"/>
                <rect id="Rectangle_43833" data-name="Rectangle 43833" width="2.768" height="10.488" transform="translate(31.958 6.099)" fill="#d1dfff"/>
                <rect id="Rectangle_43834" data-name="Rectangle 43834" width="3.062" height="3.112" transform="translate(38.878 9.786)" fill="#d1dfff"/>
                <rect id="Rectangle_43835" data-name="Rectangle 43835" width="3.062" height="3.112" transform="translate(44.141 9.786)" fill="#d1dfff"/>
                <rect id="Rectangle_43836" data-name="Rectangle 43836" width="3.061" height="3.112" transform="translate(49.405 9.786)" fill="#d1dfff"/>
              </g>
            </g>
            <g id="Group_139922" data-name="Group 139922" transform="translate(0 145.615)">
              <g id="Group_139913" data-name="Group 139913">
                <path id="Path_196656" data-name="Path 196656" d="M1205.284,1706.642h-92.523a5.041,5.041,0,0,0-5.041,5.041v53.9a.3.3,0,0,0,.3.3H1208.83a.3.3,0,0,0,.3-.3v-55.089A3.846,3.846,0,0,0,1205.284,1706.642Z" transform="translate(-1101.296 -1706.642)" fill="#92bff7"/>
                <rect id="Rectangle_43837" data-name="Rectangle 43837" width="89.189" height="52.756" transform="translate(12.535 4.646)" fill="#29478c"/>
                <path id="Path_196657" data-name="Path 196657" d="M1108.321,1711.69a4.549,4.549,0,0,1,4.627-4.467h92.672a4.7,4.7,0,0,1,2.956,1.031,4.682,4.682,0,0,0-3.557-1.613h-92.672a4.549,4.549,0,0,0-4.626,4.467v54.771h.6Z" transform="translate(-1101.296 -1706.642)" fill="#426388"/>
                <path id="Path_196658" data-name="Path 196658" d="M1090.515,1865.33v1.475a4.629,4.629,0,0,0,4.629,4.628H1200.1a4.674,4.674,0,0,0,4.674-4.673V1865.3a.01.01,0,0,0-.01-.009H1090.558A.043.043,0,0,0,1090.515,1865.33Z" transform="translate(-1090.515 -1806.049)" fill="#8caed9"/>
                <path id="Path_196659" data-name="Path 196659" d="M1233.015,1866.763h-30.969c0,.625.966,1.131,2.158,1.131h26.654c1.192,0,2.158-.506,2.158-1.131Z" transform="translate(-1160.4 -1806.974)" fill="#305c8f"/>
                <path id="Path_196660" data-name="Path 196660" d="M1090.926,1873.517a4.61,4.61,0,0,0,4.042,3.038c.065.006.129.014.195.018s.1,0,.156.007c.116.006.232.011.35.011h104.467c.118,0,.234-.005.35-.011.052,0,.1,0,.156-.007s.13-.012.195-.018a4.611,4.611,0,0,0,4.043-3.038Z" transform="translate(-1090.773 -1811.206)" fill="#5e8ccf"/>
              </g>
              <path id="Path_196661" data-name="Path 196661" d="M1229.972,1749.338a.771.771,0,0,0-.773-.768l-.511,0-.012-2.957-18,.069-2.341-1.628-5.045.019.007,1.638.013,2.956-1.037,0h-.035a.72.72,0,0,0-.732.707l.059,13.954h0l.007,1.628a.77.77,0,0,0,.773.768l26.923-.1a.77.77,0,0,0,.766-.774Z" transform="translate(-1160.064 -1730.086)" opacity="0.2"/>
              <g id="Group_139914" data-name="Group 139914" transform="translate(44.285 13.97)">
                <path id="Path_196662" data-name="Path 196662" d="M1236.351,1763.63l-22.847.092-.073-18.109-.006-1.539,4.542-.018,2.108,1.53,16.2-.065Z" transform="translate(-1211.815 -1744.056)" fill="#f3b344"/>
                <rect id="Rectangle_43838" data-name="Rectangle 43838" width="21.305" height="1.077" transform="translate(2.419 3.255) rotate(-0.23)" fill="#f1f2f2"/>
                <path id="Path_196663" data-name="Path 196663" d="M1234.117,1771.442l-24.241.1a.709.709,0,0,1-.7-.722l-.059-14.578a.709.709,0,0,1,.69-.727l24.24-.1a.709.709,0,0,1,.7.721l.059,14.578A.709.709,0,0,1,1234.117,1771.442Z" transform="translate(-1209.119 -1751.173)" fill="#f9a300"/>
                <path id="Rectangle_43839" data-name="Rectangle 43839" d="M1.772,0H23.046a1.771,1.771,0,0,1,1.771,1.771v10.89a1.772,1.772,0,0,1-1.772,1.772H1.772A1.772,1.772,0,0,1,0,12.662V1.772A1.772,1.772,0,0,1,1.772,0Z" transform="matrix(1, -0.004, 0.004, 1, 0, 4.342)" fill="#ffc300"/>
                <path id="Path_196664" data-name="Path 196664" d="M1218.815,1760.091c1.5-1.324,2.118-3.081,3.057-4.545l-12.093.049a.661.661,0,0,0-.659.664l.038,9.456C1211.132,1764.792,1215.386,1763.115,1218.815,1760.091Z" transform="translate(-1209.118 -1751.256)" fill="#fddb81"/>
              </g>
              <g id="Group_139921" data-name="Group 139921" transform="translate(19.06 39.954)">
                <g id="Group_139916" data-name="Group 139916" transform="translate(0.055 0)" opacity="0.3">
                  <rect id="Rectangle_43840" data-name="Rectangle 43840" width="5.03" height="5.03" rx="2.515" transform="matrix(0.006, -1, 1, 0.006, 0, 5.029)" fill="#fff"/>
                  <g id="Group_139915" data-name="Group 139915" transform="translate(7.721 0.7)">
                    <path id="Path_196665" data-name="Path 196665" d="M1179.271,1815.61l-16.525-.092a.331.331,0,0,0-.357.3l0,.6a.331.331,0,0,0,.354.3l16.525.092a.331.331,0,0,0,.357-.3l0-.6A.331.331,0,0,0,1179.271,1815.61Z" transform="translate(-1162.385 -1815.518)" fill="#fff"/>
                    <path id="Path_196666" data-name="Path 196666" d="M1188.351,1822.4l-25.311-.14a.3.3,0,0,0-.31.3l0,.6a.3.3,0,0,0,.307.3l25.311.14a.3.3,0,0,0,.31-.3l0-.6A.3.3,0,0,0,1188.351,1822.4Z" transform="translate(-1162.599 -1819.744)" fill="#fff"/>
                  </g>
                </g>
                <g id="Group_139918" data-name="Group 139918" transform="translate(44.297 0)" opacity="0.3">
                  <path id="Rectangle_43841" data-name="Rectangle 43841" d="M2.515,0h0A2.515,2.515,0,0,1,5.03,2.515v0A2.515,2.515,0,0,1,2.515,5.03h0A2.515,2.515,0,0,1,0,2.515v0A2.515,2.515,0,0,1,2.515,0Z" transform="translate(0 5.029) rotate(-89.683)" fill="#fff"/>
                  <g id="Group_139917" data-name="Group 139917" transform="translate(7.721 0.7)">
                    <path id="Path_196667" data-name="Path 196667" d="M1294.411,1815.591l-13.253-.073a.292.292,0,0,0-.287.3l0,.6a.291.291,0,0,0,.284.3l13.253.073a.292.292,0,0,0,.287-.3l0-.6A.292.292,0,0,0,1294.411,1815.591Z" transform="translate(-1280.868 -1815.517)" fill="#fff"/>
                    <path id="Path_196668" data-name="Path 196668" d="M1304.869,1822.393l-23.441-.13a.292.292,0,0,0-.287.3l0,.6a.292.292,0,0,0,.284.3l23.441.13a.292.292,0,0,0,.287-.3l0-.6A.292.292,0,0,0,1304.869,1822.393Z" transform="translate(-1281.037 -1819.744)" fill="#fff"/>
                  </g>
                </g>
                <g id="Group_139920" data-name="Group 139920" transform="translate(0 7.661)" opacity="0.3">
                  <rect id="Rectangle_43842" data-name="Rectangle 43842" width="5.03" height="5.03" rx="2.515" transform="translate(0 5.03) rotate(-89.683)" fill="#fff"/>
                  <g id="Group_139919" data-name="Group 139919" transform="translate(7.721 0.701)">
                    <path id="Path_196669" data-name="Path 196669" d="M1177.761,1836.12l-15.192-.084a.313.313,0,0,0-.329.3l0,.6a.314.314,0,0,0,.326.3l15.192.084a.314.314,0,0,0,.329-.3l0-.6A.314.314,0,0,0,1177.761,1836.12Z" transform="translate(-1162.237 -1836.036)" fill="#fff"/>
                    <path id="Path_196670" data-name="Path 196670" d="M1184.048,1842.9l-21.2-.117a.28.28,0,0,0-.259.3l0,.6a.28.28,0,0,0,.256.3l21.2.117a.28.28,0,0,0,.26-.3l0-.6A.281.281,0,0,0,1184.048,1842.9Z" transform="translate(-1162.455 -1840.261)" fill="#fff"/>
                  </g>
                </g>
              </g>
            </g>
          </g>
        </g>
      </g>
    </g>
  </g>
</svg>
