<svg xmlns="http://www.w3.org/2000/svg" width="190" height="115" viewBox="0 0 190 115">
  <g id="_4" data-name="4" transform="translate(-180 -2333)">
    <rect id="Rectangle_43992" data-name="Rectangle 43992" width="190" height="115" transform="translate(180 2333)" fill="none"/>
    <rect id="Rectangle_41430" data-name="Rectangle 41430" width="85" height="28" rx="14" transform="translate(285 2341)" fill="#feca2e" opacity="0.2"/>
    <rect id="Rectangle_41431" data-name="Rectangle 41431" width="85" height="28" rx="14" transform="translate(180 2402)" fill="#4dd0e1" opacity="0.2"/>
    <g id="Group_136562" data-name="Group 136562" transform="translate(-89.667 2026.643)">
      <path id="Path_191526" data-name="Path 191526" d="M342.078,386.438c0-2.6,0-5.049,0-7.5,0-1.658.513-2.177,2.154-2.177,6.215,0,12.429,0,18.727,0v-4.981a8.283,8.283,0,0,1-6.231-6.273H330.655a8.189,8.189,0,0,1-4.362,5.572,7.9,7.9,0,0,1-5.49.609,8.07,8.07,0,1,1,9.859-9.485h25.719a23.558,23.558,0,0,1,2.624-3.987A23.271,23.271,0,0,1,363,355.57v-9.455H346.035c-1.871,0-2.344-.462-2.344-2.293q0-13.86,0-27.721c0-1.766.488-2.242,2.292-2.242h37.293c1.9,0,2.345.454,2.345,2.394q0,13.709,0,27.418c0,2.035-.419,2.445-2.5,2.445H366.337v9.821a8.289,8.289,0,0,1,6.251,6.277h26.02c1.865-4.812,5.233-7.072,9.344-6.29a8.055,8.055,0,0,1-.188,15.908c-4.021.694-7.414-1.643-9.146-6.327H372.943a23.906,23.906,0,0,1-2.664,4.02,22.881,22.881,0,0,1-3.975,2.609v4.628h1.087q8.819,0,17.638,0c1.7,0,2.2.506,2.2,2.232,0,2.445,0,4.89,0,7.445h1.16q5.645,0,11.289,0c1.514,0,2.063.55,2.064,2.066q.006,11.643,0,23.285c0,1.512-.554,2.062-2.069,2.063q-12.448.006-24.9,0c-1.511,0-2.059-.552-2.06-2.07q-.006-11.643,0-23.285c0-1.514.548-2.057,2.069-2.059,3.022-.006,6.043,0,9.141,0V380.05H345.355v6.388h1.057c2.722,0,5.443-.006,8.164,0,1.446,0,2.013.567,2.014,2.015q.008,11.693,0,23.385c0,1.445-.57,2.013-2.016,2.014q-12.5.007-25,0c-1.444,0-2.01-.569-2.011-2.018q-.007-11.693,0-23.386c0-1.447.565-2.008,2.016-2.01q5.644-.01,11.288,0Zm40.273-69.282H347v25.679h35.354Zm-51.517,93.4h22.452V389.717H330.834Zm45.155,0h22.452V389.717H375.989ZM322.7,359.025a4.833,4.833,0,1,0,4.863,4.854A4.853,4.853,0,0,0,322.7,359.025Zm41.991,9.666a4.833,4.833,0,1,0-4.864-4.854A4.858,4.858,0,0,0,364.688,368.691Zm41.9-9.666a4.833,4.833,0,1,0,4.83,4.886A4.851,4.851,0,0,0,406.589,359.025Z" transform="translate(0 0)" fill="#0f2771"/>
      <path id="Path_191527" data-name="Path 191527" d="M365.358,367.922a11.119,11.119,0,0,1-1.437,1.61,39.294,39.294,0,0,0-11.185,12.518c-1.216,2.188-2.131,4.543-3.175,6.826-.139.3-.206.639-.344.943a1.579,1.579,0,0,1-2.058.93,1.515,1.515,0,0,1-.918-2.051,97.506,97.506,0,0,1,4.114-8.927,40.923,40.923,0,0,1,11.868-12.98c.608-.441,1.268-.76,1.94-.284A8.037,8.037,0,0,1,365.358,367.922Z" transform="translate(-22.975 -38.302)" fill="#0f2771"/>
      <path id="Path_191528" data-name="Path 191528" d="M585.591,365.553a15.437,15.437,0,0,1,1.484.834,43.625,43.625,0,0,1,15.738,21.388c.432,1.246.094,2.171-.89,2.494-.925.3-1.724-.208-2.145-1.424a40.665,40.665,0,0,0-13.572-19.092c-.5-.393-1.041-.741-1.52-1.16a1.361,1.361,0,0,1-.42-1.8A6.908,6.908,0,0,1,585.591,365.553Z" transform="translate(-196.871 -37.777)" fill="#0f2771"/>
      <path id="Path_191529" data-name="Path 191529" d="M557.073,478.818c-2.284,0-4.569.007-6.853,0-1.208-.005-1.92-.6-1.943-1.575-.023-1.01.719-1.644,1.971-1.645q6.9-.009,13.807,0c1.2,0,1.921.6,1.945,1.573.024,1-.725,1.643-1.973,1.647C561.709,478.824,559.391,478.818,557.073,478.818Z" transform="translate(-170.712 -118.187)" fill="#0f2771"/>
      <path id="Path_191530" data-name="Path 191530" d="M482.871,651.971c-1.513-.094-3.055-.169-4.593-.293-1.229-.1-1.952-.834-1.852-1.8s.839-1.429,2.059-1.419q4.372.038,8.745,0c1.222-.01,1.96.457,2.054,1.425s-.628,1.7-1.86,1.8C485.921,651.8,484.413,651.874,482.871,651.971Z" transform="translate(-118.2 -244.509)" fill="#0f2771"/>
      <path id="Path_191531" data-name="Path 191531" d="M639,538.382c-.16.522-.326,1.246-.6,1.925-.828,2.049-1.669,4.095-2.567,6.114a1.578,1.578,0,0,1-2.193.987c-.913-.418-1.138-1.3-.692-2.394q1.456-3.582,2.854-7.187a1.625,1.625,0,0,1,3.2.554Z" transform="translate(-232.421 -162.742)" fill="#0f2771"/>
      <path id="Path_191532" data-name="Path 191532" d="M352.034,549.425a1.523,1.523,0,0,1-1.156,1.616,1.466,1.466,0,0,1-1.85-.827c-.809-1.722-1.552-3.477-2.3-5.228a8.371,8.371,0,0,1-.542-1.614,1.5,1.5,0,0,1,1.033-1.831,1.4,1.4,0,0,1,1.887.7c1.009,2.255,1.926,4.551,2.874,6.833A1.315,1.315,0,0,1,352.034,549.425Z" transform="translate(-23.004 -166.293)" fill="#0f2771"/>
      <path id="Path_191533" data-name="Path 191533" d="M582.259,457.612c.772,0,1.546-.022,2.317.006a1.608,1.608,0,1,1-.019,3.209q-2.317.041-4.635,0a1.607,1.607,0,1,1,.019-3.209C580.713,457.592,581.487,457.612,582.259,457.612Z" transform="translate(-192.598 -105.043)" fill="#0f2771"/>
      <path id="Path_191534" data-name="Path 191534" d="M460.931,343.116q-6.2,0-12.4,0c-1.581,0-2.114-.536-2.117-2.115q-.008-3.578,0-7.157c.005-1.45.564-2.014,2.012-2.014q12.5-.007,24.995,0c1.448,0,2.012.566,2.017,2.011q.013,3.629,0,7.258c-.005,1.446-.569,2.014-2.014,2.016Q467.18,343.124,460.931,343.116Zm11.243-7.993h-22.45v4.714h22.45Z" transform="translate(-96.274 -13.13)" fill="#0f2771"/>
      <path id="Path_191535" data-name="Path 191535" d="M461.092,382.86c-4.1,0-8.2.011-12.3-.014a1.681,1.681,0,0,1-1.991-1.974,2.132,2.132,0,0,1,1.4-1.175,14.6,14.6,0,0,1,2.912-.062h22.072c.269,0,.538-.009.806,0a1.621,1.621,0,0,1,1.708,1.607,1.6,1.6,0,0,1-1.706,1.6c-2.049.027-4.1.009-6.148.01Z" transform="translate(-96.537 -48.035)" fill="#0f2771"/>
      <path id="Path_191536" data-name="Path 191536" d="M456.158,397.718c2.553,0,5.106-.006,7.659,0,1.25,0,2,.64,1.972,1.646-.023.969-.748,1.572-1.946,1.574q-7.709.01-15.419,0c-1.252,0-1.995-.638-1.97-1.648.023-.977.736-1.568,1.944-1.572C450.985,397.712,453.572,397.718,456.158,397.718Z" transform="translate(-96.304 -61.28)" fill="#0f2771"/>
      <path id="Path_191537" data-name="Path 191537" d="M526.822,397.731a5.232,5.232,0,0,1,.9.008,1.523,1.523,0,0,1,1.4,1.578,1.492,1.492,0,0,1-1.384,1.588,9.045,9.045,0,0,1-1.81.025,1.6,1.6,0,1,1-.019-3.207c.3-.023.6,0,.906,0Z" transform="translate(-153.206 -61.277)" fill="#0f2771"/>
      <path id="Path_191538" data-name="Path 191538" d="M390.19,601.386c2.553,0,5.106-.006,7.659,0,1.445,0,2,.568,2.012,2.017.009,1.411.018,2.822,0,4.233a1.621,1.621,0,0,1-1.814,1.806q-7.861.02-15.722,0a1.619,1.619,0,0,1-1.805-1.813q-.031-2.217,0-4.435a1.618,1.618,0,0,1,1.812-1.8C384.949,601.374,387.57,601.387,390.19,601.386Zm6.4,3.279H383.8v1.488h12.789Z" transform="translate(-48.109 -210.11)" fill="#0f2771"/>
      <path id="Path_191539" data-name="Path 191539" d="M390.316,637.333c2.52,0,5.039,0,7.559,0,1.281,0,2.016.587,2.029,1.59s-.732,1.63-1.989,1.632q-7.659.008-15.318,0c-1.281,0-2.014-.589-2.028-1.592s.726-1.626,1.988-1.63C385.143,637.328,387.729,637.333,390.316,637.333Z" transform="translate(-48.158 -236.38)" fill="#0f2771"/>
      <path id="Path_191540" data-name="Path 191540" d="M386.111,658.516c-1.243,0-2.486.015-3.728,0a1.618,1.618,0,1,1-.016-3.215q3.829-.026,7.658,0a1.618,1.618,0,1,1,.016,3.215C388.732,658.532,387.421,658.516,386.111,658.516Z" transform="translate(-48.159 -249.499)" fill="#0f2771"/>
      <path id="Path_191541" data-name="Path 191541" d="M430.966,655.309c.268,0,.539-.02.805.005a1.6,1.6,0,0,1-.04,3.2,11.987,11.987,0,0,1-1.711,0,1.6,1.6,0,0,1,.039-3.2C430.36,655.287,430.664,655.308,430.966,655.309Z" transform="translate(-83.174 -249.51)" fill="#0f2771"/>
      <path id="Path_191542" data-name="Path 191542" d="M557.835,609.453c-2.52,0-5.039.005-7.559,0-1.462,0-2.027-.559-2.038-1.991q-.015-2.016,0-4.032c.008-1.464.556-2.035,1.99-2.037q7.709-.01,15.419,0c1.331,0,1.922.583,1.937,1.887.016,1.411.014,2.822,0,4.233-.013,1.362-.6,1.933-1.991,1.938C563.008,609.46,560.422,609.453,557.835,609.453Zm-6.329-3.293H564.32v-1.493H551.506Z" transform="translate(-170.679 -210.113)" fill="#0f2771"/>
      <path id="Path_191543" data-name="Path 191543" d="M558.048,637.334c2.519,0,5.039,0,7.558,0,1.271,0,2.009.606,2.008,1.611s-.741,1.609-2.011,1.61q-7.659.007-15.318,0c-1.27,0-2.007-.607-2.006-1.613s.736-1.6,2.009-1.608C552.875,637.329,555.462,637.334,558.048,637.334Z" transform="translate(-170.713 -236.38)" fill="#0f2771"/>
      <path id="Path_191544" data-name="Path 191544" d="M553.936,655.3c1.243,0,2.486-.011,3.729,0,1.175.013,1.9.652,1.886,1.63a1.628,1.628,0,0,1-1.829,1.587q-3.829.023-7.658,0a1.615,1.615,0,0,1-1.784-1.629,1.631,1.631,0,0,1,1.827-1.586C551.383,655.284,552.66,655.3,553.936,655.3Z" transform="translate(-170.714 -249.505)" fill="#0f2771"/>
      <path id="Path_191545" data-name="Path 191545" d="M598.569,658.511c-.2,0-.4.007-.6,0a1.616,1.616,0,1,1-.03-3.219c.436-.017.873-.016,1.31,0a1.616,1.616,0,1,1,.03,3.22C599.04,658.52,598.8,658.511,598.569,658.511Z" transform="translate(-205.728 -249.495)" fill="#0f2771"/>
    </g>
  </g>
</svg>
