<svg xmlns="http://www.w3.org/2000/svg" xmlns:xlink="http://www.w3.org/1999/xlink" width="1030" height="461.483" viewBox="0 0 1030 461.483">
  <defs>
    <radialGradient id="radial-gradient" cx="0.5" cy="0.5" r="0.5" gradientTransform="translate(0)" gradientUnits="objectBoundingBox">
      <stop offset="0.582"/>
      <stop offset="0.609" stop-color="#252525"/>
      <stop offset="0.649" stop-color="#585858"/>
      <stop offset="0.692" stop-color="#848484"/>
      <stop offset="0.735" stop-color="#aaa"/>
      <stop offset="0.78" stop-color="#c9c9c9"/>
      <stop offset="0.827" stop-color="#e0e0e0"/>
      <stop offset="0.877" stop-color="#f1f1f1"/>
      <stop offset="0.932" stop-color="#fbfbfb"/>
      <stop offset="1" stop-color="#fff"/>
    </radialGradient>
    <radialGradient id="radial-gradient-2" cx="0.5" gradientTransform="matrix(0.707, 0.707, -0.707, 0.707, 0.5, -0.207)" xlink:href="#radial-gradient"/>
    <radialGradient id="radial-gradient-3" cx="0.5" xlink:href="#radial-gradient"/>
    <radialGradient id="radial-gradient-4" cx="0.5" gradientTransform="matrix(1, 0, 0, 1, 0, 0)" xlink:href="#radial-gradient"/>
    <radialGradient id="radial-gradient-6" cx="0.5" gradientTransform="matrix(-1, 0, 0, 1, 1, 0)" xlink:href="#radial-gradient"/>
    <radialGradient id="radial-gradient-7" cx="0.5" gradientTransform="matrix(0.707, -0.707, -0.707, -0.707, 0.5, 1.207)" xlink:href="#radial-gradient"/>
    <radialGradient id="radial-gradient-8" cx="0.5" gradientTransform="matrix(-1, 0, 0, 1, 1, 0)" xlink:href="#radial-gradient"/>
    <radialGradient id="radial-gradient-9" cx="0.5" gradientTransform="matrix(-1, 0, 0, 1, 1, 0)" xlink:href="#radial-gradient"/>
    <radialGradient id="radial-gradient-11" cx="0.5" cy="0.5" r="0.5" gradientUnits="objectBoundingBox">
      <stop offset="0.642"/>
      <stop offset="0.644" stop-color="#090909"/>
      <stop offset="0.659" stop-color="#373737"/>
      <stop offset="0.675" stop-color="#626262"/>
      <stop offset="0.693" stop-color="#878787"/>
      <stop offset="0.712" stop-color="#a8a8a8"/>
      <stop offset="0.733" stop-color="#c3c3c3"/>
      <stop offset="0.756" stop-color="#d9d9d9"/>
      <stop offset="0.784" stop-color="#eaeaea"/>
      <stop offset="0.818" stop-color="#f6f6f6"/>
      <stop offset="0.867" stop-color="#fdfdfd"/>
      <stop offset="1" stop-color="#fff"/>
    </radialGradient>
    <radialGradient id="radial-gradient-12" cx="0.461" cy="0.421" r="0.529" gradientTransform="translate(0)" gradientUnits="objectBoundingBox">
      <stop offset="0.4" stop-color="#fff"/>
      <stop offset="0.698" stop-color="#fdfdfd"/>
      <stop offset="0.805" stop-color="#f7f6f6"/>
      <stop offset="0.882" stop-color="#ecebea"/>
      <stop offset="0.943" stop-color="#dedbd9"/>
      <stop offset="0.996" stop-color="#cac6c4"/>
      <stop offset="1" stop-color="#c9c4c2"/>
    </radialGradient>
  </defs>
  <g id="_8" data-name="8" transform="translate(-285 -2279)">
    <circle id="Ellipse_5033" data-name="Ellipse 5033" cx="196.49" cy="196.49" r="196.49" transform="translate(603.854 2301.545)" fill="#f2f2f2"/>
    <g id="Group_141058" data-name="Group 141058" transform="translate(915.06 2340.4)">
      <path id="Path_199409" data-name="Path 199409" d="M2417.782,728.738h208.063V663.926H2400.557A252.661,252.661,0,0,1,2417.782,728.738Z" transform="translate(-2278.735 -599.154)" fill="#4dbfe1"/>
      <path id="Path_199410" data-name="Path 199410" d="M2252.886,420.348h225.33V355.536h-264.44A254.338,254.338,0,0,1,2252.886,420.348Z" transform="translate(-2131.106 -355.407)" fill="#54d0e0"/>
      <path id="Path_199411" data-name="Path 199411" d="M2484.842,1004.724a256.865,256.865,0,0,1-2.045,32.406h208.049V972.318H2482.8A256.868,256.868,0,0,1,2484.842,1004.724Z" transform="translate(-2343.736 -842.902)" fill="#67b7fa"/>
      <path id="Path_199412" data-name="Path 199412" d="M2400.555,1345.526h225.288v-64.812H2417.781A252.664,252.664,0,0,1,2400.555,1345.526Z" transform="translate(-2278.733 -1086.652)" fill="#1c3da3"/>
      <path id="Path_199413" data-name="Path 199413" d="M2213.771,1653.919h264.441v-64.812H2252.881A254.326,254.326,0,0,1,2213.771,1653.919Z" transform="translate(-2131.102 -1330.402)" fill="#0f2771"/>
      <path id="Path_199414" data-name="Path 199414" d="M2156.34,734.465l58.689-6.215a252.838,252.838,0,0,0-17.281-65.02L2143.793,684.1A195.24,195.24,0,0,1,2156.34,734.465Z" transform="translate(-2075.793 -598.604)" fill="#26a1c6"/>
      <path id="Path_199415" data-name="Path 199415" d="M2259.534,972.127l-58.689,6.215a198.81,198.81,0,0,1-.744,49.954l59.42,8.82a257.952,257.952,0,0,0,.013-64.988Z" transform="translate(-2120.298 -842.751)" fill="#439de8"/>
      <path id="Path_199416" data-name="Path 199416" d="M2032.228,440.691l53.955-20.873a254.517,254.517,0,0,0-39.159-64.9l-44.384,35.04A196.316,196.316,0,0,1,2032.228,440.691Z" transform="translate(-1964.228 -354.921)" fill="#32c0d3"/>
      <path id="Path_199417" data-name="Path 199417" d="M2133.994,1288.263l56.042,24.2a252.856,252.856,0,0,0,17.235-64.846l-59.421-8.82A195.083,195.083,0,0,1,2133.994,1288.263Z" transform="translate(-2068.048 -1053.521)" fill="#102a7c"/>
      <path id="Path_199418" data-name="Path 199418" d="M1988.912,1522.745l47.262,39.926a254.5,254.5,0,0,0,39.192-64.975l-56.042-24.2A196.51,196.51,0,0,1,1988.912,1522.745Z" transform="translate(-1953.377 -1239.027)" fill="#0c1f5a"/>
      <path id="Path_199419" data-name="Path 199419" d="M1931.742,780a148.1,148.1,0,0,1,10.781,38.06l46.215-4.894a195.229,195.229,0,0,0-12.547-50.362Z" transform="translate(-1908.191 -677.308)" fill="#4dbfe1"/>
      <path id="Path_199420" data-name="Path 199420" d="M1984.693,1028.007a150.716,150.716,0,0,1-.965,17.054l44.919,6.668a198.8,198.8,0,0,0,.744-49.954l-46.215,4.894A150.427,150.427,0,0,1,1984.693,1028.007Z" transform="translate(-1948.844 -866.184)" fill="#67b7fa"/>
      <path id="Path_199421" data-name="Path 199421" d="M1857.8,522.082l-38.412,30.326a149.2,149.2,0,0,1,23.551,37.6l44.449-17.2A196.311,196.311,0,0,0,1857.8,522.082Z" transform="translate(-1819.389 -487.042)" fill="#54d0e0"/>
      <path id="Path_199422" data-name="Path 199422" d="M1939.363,1245.508l40.8,17.615a195.1,195.1,0,0,0,13.857-49.468l-44.919-6.667A148.182,148.182,0,0,1,1939.363,1245.508Z" transform="translate(-1914.214 -1028.381)" fill="#1c3da3"/>
      <path id="Path_199423" data-name="Path 199423" d="M1830.1,1428.2l33.289,28.122a196.509,196.509,0,0,0,30.411-49.246l-40.8-17.615A149.048,149.048,0,0,1,1830.1,1428.2Z" transform="translate(-1827.856 -1172.606)" fill="#0f2771"/>
    </g>
    <circle id="Ellipse_4997" data-name="Ellipse 4997" cx="41.389" cy="41.389" r="41.389" transform="translate(1215.079 2333.334)" fill="url(#radial-gradient)" style="mix-blend-mode: multiply;isolation: isolate"/>
    <circle id="Ellipse_4998" data-name="Ellipse 4998" cx="41.389" cy="41.389" r="41.389" transform="translate(1197.936 2439.65) rotate(-45)" fill="url(#radial-gradient-2)" style="mix-blend-mode: multiply;isolation: isolate"/>
    <circle id="Ellipse_4999" data-name="Ellipse 4999" cx="41.389" cy="41.389" r="41.389" transform="translate(1215.079 2463.191)" fill="url(#radial-gradient-3)" style="mix-blend-mode: multiply;isolation: isolate"/>
    <circle id="Ellipse_5000" data-name="Ellipse 5000" cx="41.389" cy="41.389" r="41.389" transform="translate(1215.079 2528.119)" fill="url(#radial-gradient-4)" style="mix-blend-mode: multiply;isolation: isolate"/>
    <circle id="Ellipse_5001" data-name="Ellipse 5001" cx="41.389" cy="41.389" r="41.389" transform="translate(1215.079 2593.048)" fill="url(#radial-gradient-4)" style="mix-blend-mode: multiply;isolation: isolate"/>
    <g id="Group_141059" data-name="Group 141059" transform="translate(1228.199 2339.895)">
      <circle id="Ellipse_5002" data-name="Ellipse 5002" cx="32.443" cy="32.443" r="32.443" fill="#54d0e0"/>
      <circle id="Ellipse_5003" data-name="Ellipse 5003" cx="26.241" cy="26.241" r="26.241" transform="translate(6.202 6.202)" fill="#f9fafa"/>
    </g>
    <g id="Group_141060" data-name="Group 141060" transform="translate(1214.761 2391.385)">
      <circle id="Ellipse_5004" data-name="Ellipse 5004" cx="32.443" cy="32.443" r="32.443" transform="translate(0 45.881) rotate(-45)" fill="#4dbfe1"/>
      <circle id="Ellipse_5005" data-name="Ellipse 5005" cx="26.241" cy="26.241" r="26.241" transform="translate(8.771 45.881) rotate(-45)" fill="#f9fafa"/>
    </g>
    <g id="Group_141061" data-name="Group 141061" transform="translate(1228.199 2469.751)">
      <circle id="Ellipse_5006" data-name="Ellipse 5006" cx="32.443" cy="32.443" r="32.443" fill="#67b7fa"/>
      <circle id="Ellipse_5007" data-name="Ellipse 5007" cx="26.241" cy="26.241" r="26.241" transform="translate(6.202 6.202)" fill="#f9fafa"/>
    </g>
    <g id="Group_141062" data-name="Group 141062" transform="translate(1214.761 2521.241)">
      <circle id="Ellipse_5008" data-name="Ellipse 5008" cx="32.443" cy="32.443" r="32.443" transform="translate(0 45.881) rotate(-45)" fill="#1c3da3"/>
      <circle id="Ellipse_5009" data-name="Ellipse 5009" cx="26.241" cy="26.241" r="26.241" transform="translate(8.771 45.881) rotate(-45)" fill="#f9fafa"/>
    </g>
    <g id="Group_141063" data-name="Group 141063" transform="translate(1228.199 2599.607)">
      <path id="Path_199457" data-name="Path 199457" d="M32.443,0A32.443,32.443,0,1,1,0,32.443,32.443,32.443,0,0,1,32.443,0Z" fill="#0f2771"/>
      <circle id="Ellipse_5011" data-name="Ellipse 5011" cx="26.241" cy="26.241" r="26.241" transform="translate(6.202 6.202)" fill="#f9fafa"/>
    </g>
    <g id="Group_141074" data-name="Group 141074" transform="translate(337.83 2340.4)">
      <path id="Path_199442" data-name="Path 199442" d="M-726.3,728.738H-934.367V663.926h225.288A252.66,252.66,0,0,0-726.3,728.738Z" transform="translate(934.367 -599.154)" fill="#4dbfe1"/>
      <path id="Path_199443" data-name="Path 199443" d="M-709.037,420.348h-225.33V355.536h264.44A254.324,254.324,0,0,0-709.037,420.348Z" transform="translate(934.367 -355.407)" fill="#54d0e0"/>
      <path id="Path_199444" data-name="Path 199444" d="M-728.362,1004.724a256.838,256.838,0,0,0,2.045,32.406H-934.367V972.318h208.049A256.87,256.87,0,0,0-728.362,1004.724Z" transform="translate(934.367 -842.902)" fill="#67b7fa"/>
      <path id="Path_199445" data-name="Path 199445" d="M-709.079,1345.527H-934.367v-64.812H-726.3A252.669,252.669,0,0,0-709.079,1345.527Z" transform="translate(934.367 -1086.653)" fill="#1c3da3"/>
      <path id="Path_199446" data-name="Path 199446" d="M-669.926,1653.919H-934.367v-64.812h225.331A254.327,254.327,0,0,0-669.926,1653.919Z" transform="translate(934.367 -1330.402)" fill="#0f2771"/>
      <path id="Path_199447" data-name="Path 199447" d="M116.01,734.465,57.321,728.25A252.848,252.848,0,0,1,74.6,663.23L128.557,684.1A195.242,195.242,0,0,0,116.01,734.465Z" transform="translate(150.553 -598.604)" fill="#26a1c6"/>
      <path id="Path_199448" data-name="Path 199448" d="M49.6,972.127l58.689,6.215a198.8,198.8,0,0,0,.744,49.954l-59.42,8.82a257.959,257.959,0,0,1-.013-64.988Z" transform="translate(158.276 -842.751)" fill="#439de8"/>
      <path id="Path_199449" data-name="Path 199449" d="M193.717,440.691l-53.955-20.873a254.511,254.511,0,0,1,39.16-64.9l44.384,35.04A196.312,196.312,0,0,0,193.717,440.691Z" transform="translate(85.392 -354.921)" fill="#32c0d3"/>
      <path id="Path_199450" data-name="Path 199450" d="M130.66,1288.263l-56.042,24.2a252.852,252.852,0,0,1-17.235-64.846l59.42-8.82A195.089,195.089,0,0,0,130.66,1288.263Z" transform="translate(150.504 -1053.521)" fill="#102a7c"/>
      <path id="Path_199451" data-name="Path 199451" d="M226.059,1522.745,178.8,1562.671A254.509,254.509,0,0,1,139.6,1497.7l56.042-24.2A196.509,196.509,0,0,0,226.059,1522.745Z" transform="translate(85.517 -1239.027)" fill="#0c1f5a"/>
      <path id="Path_199452" data-name="Path 199452" d="M394.3,780a148.1,148.1,0,0,0-10.781,38.06L337.3,813.169a195.24,195.24,0,0,1,12.547-50.362Z" transform="translate(-70.742 -677.308)" fill="#4dbfe1"/>
      <path id="Path_199453" data-name="Path 199453" d="M377.383,1028.007a150.759,150.759,0,0,0,.965,17.054l-44.919,6.668a198.8,198.8,0,0,1-.744-49.954l46.215,4.894A150.427,150.427,0,0,0,377.383,1028.007Z" transform="translate(-66.122 -866.184)" fill="#67b7fa"/>
      <path id="Path_199454" data-name="Path 199454" d="M426.751,522.082l38.412,30.326a149.2,149.2,0,0,0-23.551,37.6l-44.449-17.2A196.311,196.311,0,0,1,426.751,522.082Z" transform="translate(-118.053 -487.042)" fill="#54d0e0"/>
      <path id="Path_199455" data-name="Path 199455" d="M395.51,1245.508l-40.8,17.615a195.1,195.1,0,0,1-13.857-49.468l44.919-6.667A148.187,148.187,0,0,0,395.51,1245.508Z" transform="translate(-73.548 -1028.381)" fill="#1c3da3"/>
      <path id="Path_199456" data-name="Path 199456" d="M470.663,1428.2l-33.289,28.122a196.508,196.508,0,0,1-30.411-49.246l40.8-17.615A149.048,149.048,0,0,0,470.663,1428.2Z" transform="translate(-125.798 -1172.606)" fill="#0f2771"/>
    </g>
    <ellipse id="Ellipse_5028" data-name="Ellipse 5028" cx="41.389" cy="41.389" rx="41.389" ry="41.389" transform="translate(302.144 2333.334)" fill="url(#radial-gradient-6)" style="mix-blend-mode: multiply;isolation: isolate"/>
    <circle id="Ellipse_5029" data-name="Ellipse 5029" cx="41.389" cy="41.389" r="41.389" transform="translate(343.532 2498.183) rotate(-135)" fill="url(#radial-gradient-7)" style="mix-blend-mode: multiply;isolation: isolate"/>
    <ellipse id="Ellipse_5030" data-name="Ellipse 5030" cx="41.389" cy="41.389" rx="41.389" ry="41.389" transform="translate(302.144 2463.191)" fill="url(#radial-gradient-8)" style="mix-blend-mode: multiply;isolation: isolate"/>
    <ellipse id="Ellipse_5031" data-name="Ellipse 5031" cx="41.389" cy="41.389" rx="41.389" ry="41.389" transform="translate(302.144 2528.119)" fill="url(#radial-gradient-9)" style="mix-blend-mode: multiply;isolation: isolate"/>
    <ellipse id="Ellipse_5032" data-name="Ellipse 5032" cx="41.389" cy="41.389" rx="41.389" ry="41.389" transform="translate(302.144 2593.048)" fill="url(#radial-gradient-9)" style="mix-blend-mode: multiply;isolation: isolate"/>
    <g id="Group_141075" data-name="Group 141075" transform="translate(306.915 2339.895)">
      <ellipse id="Ellipse_5002-2" data-name="Ellipse 5002" cx="32.443" cy="32.443" rx="32.443" ry="32.443" transform="translate(0)" fill="#4dd0e1"/>
      <ellipse id="Ellipse_5003-2" data-name="Ellipse 5003" cx="26.241" cy="26.241" rx="26.241" ry="26.241" transform="translate(6.202 6.202)" fill="#f9fafa"/>
    </g>
    <g id="Group_141076" data-name="Group 141076" transform="translate(293.476 2391.385)">
      <circle id="Ellipse_5004-2" data-name="Ellipse 5004" cx="32.443" cy="32.443" r="32.443" transform="translate(45.881 91.762) rotate(-135)" fill="#40b4eb"/>
      <circle id="Ellipse_5005-2" data-name="Ellipse 5005" cx="26.241" cy="26.241" r="26.241" transform="translate(45.881 82.991) rotate(-135)" fill="#f9fafa"/>
    </g>
    <g id="Group_141077" data-name="Group 141077" transform="translate(306.915 2469.751)">
      <ellipse id="Ellipse_5006-2" data-name="Ellipse 5006" cx="32.443" cy="32.443" rx="32.443" ry="32.443" transform="translate(0)" fill="#4582d1"/>
      <ellipse id="Ellipse_5007-2" data-name="Ellipse 5007" cx="26.241" cy="26.241" rx="26.241" ry="26.241" transform="translate(6.202 6.202)" fill="#f9fafa"/>
    </g>
    <g id="Group_141078" data-name="Group 141078" transform="translate(293.476 2521.241)">
      <circle id="Ellipse_5008-2" data-name="Ellipse 5008" cx="32.443" cy="32.443" r="32.443" transform="translate(45.881 91.762) rotate(-135)" fill="#4b62a3"/>
      <circle id="Ellipse_5009-2" data-name="Ellipse 5009" cx="26.241" cy="26.241" r="26.241" transform="translate(45.881 82.991) rotate(-135)" fill="#f9fafa"/>
    </g>
    <g id="Group_141079" data-name="Group 141079" transform="translate(306.915 2599.607)">
      <ellipse id="Ellipse_5010" data-name="Ellipse 5010" cx="32.443" cy="32.443" rx="32.443" ry="32.443" transform="translate(0)" fill="#0f2771"/>
      <ellipse id="Ellipse_5011-2" data-name="Ellipse 5011" cx="26.241" cy="26.241" rx="26.241" ry="26.241" transform="translate(6.202 6.202)" fill="#f9fafa"/>
    </g>
    <g id="_41" data-name="41" transform="translate(298.224 2331.556)">
      <path id="Path_199479" data-name="Path 199479" d="M52.4,39.9h-.951a10.576,10.576,0,0,0-9.466-9.468v-.948a1.042,1.042,0,1,0-2.083,0v.948h0A10.576,10.576,0,0,0,30.431,39.9h-.945a1.042,1.042,0,1,0,0,2.083h.945A10.576,10.576,0,0,0,39.9,51.454h0V52.4a1.042,1.042,0,1,0,2.083,0v-.948a10.576,10.576,0,0,0,9.466-9.468H52.4a1.042,1.042,0,1,0,0-2.083ZM40.941,47.34a6.4,6.4,0,1,1,6.4-6.4A6.4,6.4,0,0,1,40.941,47.34Z" fill="#383c3d"/>
      <path id="Path_199480" data-name="Path 199480" d="M203.661,212.074l-2.042,2.042-.646-.646a1.039,1.039,0,0,0-1.469,1.469l1.385,1.385a1.044,1.044,0,0,0,1.469,0l2.781-2.781a1.037,1.037,0,0,0,0-1.469A1.05,1.05,0,0,0,203.661,212.074Z" transform="translate(-161.376 -173.255)" fill="#383c3d"/>
    </g>
    <g id="Group_141093" data-name="Group 141093" transform="translate(316.814 2424.768)">
      <g id="Group_141094" data-name="Group 141094" transform="translate(10.359 -0.002)">
        <g id="Group_141093-2" data-name="Group 141093">
          <path id="Path_199481" data-name="Path 199481" d="M33.191,12.822a.733.733,0,0,1,0-.648l.932-1.907a2.17,2.17,0,0,0-.936-2.882l-1.875-1a.733.733,0,0,1-.381-.524l-.367-2.091a2.17,2.17,0,0,0-2.452-1.781l-2.1.3a.733.733,0,0,1-.616-.2L23.868.615a2.17,2.17,0,0,0-3.03,0L19.312,2.091a.733.733,0,0,1-.616.2l-2.1-.3a2.17,2.17,0,0,0-2.452,1.781l-.367,2.091a.733.733,0,0,1-.381.524l-1.875,1a2.17,2.17,0,0,0-.936,2.882l.932,1.907a.733.733,0,0,1,0,.648l-.932,1.907a2.17,2.17,0,0,0,.936,2.882l1.875,1a.733.733,0,0,1,.381.524l.367,2.091a2.169,2.169,0,0,0,2.139,1.8A2.23,2.23,0,0,0,16.594,23l2.1-.3a.732.732,0,0,1,.616.2l1.526,1.476a2.17,2.17,0,0,0,3.03,0l1.526-1.476a.733.733,0,0,1,.616-.2l2.1.3a2.17,2.17,0,0,0,2.452-1.781l.367-2.091a.733.733,0,0,1,.381-.524l1.875-1a2.17,2.17,0,0,0,.936-2.882ZM19.469,6.01a2.643,2.643,0,1,1-2.643,2.643A2.646,2.646,0,0,1,19.469,6.01ZM18.1,17.766a.721.721,0,0,1-1.02-1.02L26.6,7.23a.721.721,0,1,1,1.02,1.02Zm7.132,1.221a2.643,2.643,0,1,1,2.643-2.643A2.646,2.646,0,0,1,25.237,18.987Z" transform="translate(-10.359 0.002)" fill="#383c3d"/>
        </g>
      </g>
      <g id="Group_141096" data-name="Group 141096" transform="translate(24.035 15.142)">
        <g id="Group_141095" data-name="Group 141095">
          <path id="Path_199482" data-name="Path 199482" d="M291.654,310.141a1.2,1.2,0,1,0,1.2,1.2A1.2,1.2,0,0,0,291.654,310.141Z" transform="translate(-290.452 -310.141)" fill="#383c3d"/>
        </g>
      </g>
      <g id="Group_141098" data-name="Group 141098" transform="translate(18.268 7.452)">
        <g id="Group_141097" data-name="Group 141097">
          <path id="Path_199483" data-name="Path 199483" d="M173.535,152.646a1.2,1.2,0,1,0,1.2,1.2A1.2,1.2,0,0,0,173.535,152.646Z" transform="translate(-172.333 -152.646)" fill="#383c3d"/>
        </g>
      </g>
    </g>
    <g id="Group_141099" data-name="Group 141099" transform="translate(310.068 2473.094)">
      <path id="Path_199484" data-name="Path 199484" d="M30.22,30.806c-.374.011-.748.018-1.12.018s-.748-.006-1.122-.018A25.24,25.24,0,0,1,20.5,29.639a8.81,8.81,0,0,1-2.141-1.011v4.038c1.223,1.276,5.324,2.453,10.739,2.453s9.516-1.177,10.739-2.453V28.628a8.8,8.8,0,0,1-2.159,1.017A25.264,25.264,0,0,1,30.22,30.806Z" fill="#383c3d"/>
      <path id="Path_199485" data-name="Path 199485" d="M18.361,23v4.038c1.133,1.183,4.74,2.281,9.573,2.434l.15,0c.14,0,.28.008.422.01.2,0,.394,0,.594,0s.4,0,.594,0c.142,0,.282-.006.422-.01l.15,0c4.833-.154,8.44-1.252,9.573-2.435V23c-2.091,1.436-6.511,2.195-10.739,2.195S20.452,24.432,18.361,23Z" fill="#383c3d"/>
      <path id="Path_199486" data-name="Path 199486" d="M39.781,20.27C39.3,18.422,35.593,16.6,29.1,16.6c-6.476,0-10.179,1.812-10.676,3.655a.42.42,0,0,0-.063.21v.991C19.58,22.729,23.652,23.9,29.1,23.9s9.52-1.174,10.739-2.446v-.991A.391.391,0,0,0,39.781,20.27Z" fill="#383c3d"/>
      <path id="Path_199487" data-name="Path 199487" d="M18.361,34.212v3.523a.4.4,0,0,0,.051.193c.507,2.1,5.045,3.673,10.688,3.673s10.161-1.564,10.685-3.659a.425.425,0,0,0,.054-.207V34.213c-1.777,1.25-5.436,2.233-10.739,2.233S20.137,35.462,18.361,34.212Z" fill="#383c3d"/>
    </g>
    <g id="Group_141100" data-name="Group 141100" transform="translate(85.167 2311.5)">
      <path id="Path_199488" data-name="Path 199488" d="M256.26,245.583h-1.145a2.871,2.871,0,0,0-5.521,0h-1.146a.787.787,0,0,0-.781.782v1.562a1.832,1.832,0,0,0,1.823,1.823h5.729a1.832,1.832,0,0,0,1.823-1.823v-1.562A.788.788,0,0,0,256.26,245.583Z" fill="#383c3d"/>
      <path id="Path_199489" data-name="Path 199489" d="M258.344,246.625h-.261v1.3a2.863,2.863,0,0,1-2.864,2.865H249.49a2.863,2.863,0,0,1-2.865-2.865v-1.3h-.26a2.863,2.863,0,0,0-2.865,2.865v13.02a2.863,2.863,0,0,0,2.865,2.865h6.864a9.1,9.1,0,0,1-.864-3.646h-4.959a.781.781,0,0,1,0-1.562h5.042a9.561,9.561,0,0,1,.458-1.823h-5.5a.781.781,0,0,1,0-1.563h6.25a9.139,9.139,0,0,1,1.448-1.823h-7.7a.781.781,0,1,1,0-1.562h9.834a8.975,8.975,0,0,1,3.968-1.031V249.49A2.863,2.863,0,0,0,258.344,246.625Z" fill="#383c3d"/>
      <path id="Path_199490" data-name="Path 199490" d="M261.469,254.438a7.031,7.031,0,1,0,7.031,7.031A7.039,7.039,0,0,0,261.469,254.438Zm3.387,5.634-3.646,4.167a1.043,1.043,0,0,1-.749.355h-.034a1.041,1.041,0,0,1-.736-.3l-2.084-2.084a1.042,1.042,0,0,1,1.473-1.473l1.3,1.3,2.913-3.329a1.042,1.042,0,1,1,1.567,1.373Z" fill="#383c3d"/>
    </g>
    <g id="Group_141101" data-name="Group 141101" transform="translate(83.168 2376.501)">
      <path id="Path_199491" data-name="Path 199491" d="M260.886,253.337a2.038,2.038,0,0,0-2.813-.357l-3.108,2.331-.308-.385a2.032,2.032,0,0,0-3.174,2.538l1.68,2.1a1.868,1.868,0,0,0,2.593.317l4.777-3.653a2.038,2.038,0,0,0,.353-2.891Z" fill="#383c3d"/>
      <path id="Path_199492" data-name="Path 199492" d="M253.743,244.421a3.224,3.224,0,0,1,4.514,0,1.662,1.662,0,0,0,1.577.423,3.226,3.226,0,0,1,3.91,2.257,1.664,1.664,0,0,0,1.154,1.155,3.224,3.224,0,0,1,2.257,3.909,1.666,1.666,0,0,0,.423,1.578,3.224,3.224,0,0,1,0,4.514,1.664,1.664,0,0,0-.423,1.577,3.225,3.225,0,0,1-2.257,3.91,1.661,1.661,0,0,0-1.154,1.154,3.225,3.225,0,0,1-3.91,2.257,1.664,1.664,0,0,0-1.577.423,3.224,3.224,0,0,1-4.514,0,1.666,1.666,0,0,0-1.578-.423,3.224,3.224,0,0,1-3.909-2.257,1.664,1.664,0,0,0-1.155-1.154,3.226,3.226,0,0,1-2.257-3.91,1.662,1.662,0,0,0-.423-1.577,3.224,3.224,0,0,1,0-4.514,1.664,1.664,0,0,0,.423-1.578,3.224,3.224,0,0,1,2.257-3.909,1.667,1.667,0,0,0,1.155-1.155,3.224,3.224,0,0,1,3.909-2.257,1.664,1.664,0,0,0,1.578-.423ZM247.406,256A8.593,8.593,0,1,1,256,264.593,8.593,8.593,0,0,1,247.406,256Z" fill="#383c3d" fill-rule="evenodd"/>
    </g>
    <g id="Group_141119" data-name="Group 141119" transform="translate(-64.225 -250.185)">
      <g id="Group_141119-2" data-name="Group 141119" transform="translate(1069.037 2366.5)">
        <path id="Path_199493" data-name="Path 199493" d="M258.87,248.291A7.709,7.709,0,1,0,266.579,256a7.717,7.717,0,0,0-7.709-7.709Zm3.635,8.609h-4.536v-6.321h1.8v4.52h2.735Z" fill="#383c3d"/>
        <path id="Path_199494" data-name="Path 199494" d="M258.9,243.5a12.446,12.446,0,0,0-7.344,2.359h-6.816a1.946,1.946,0,0,0,0,3.892h3.3a12.389,12.389,0,0,0-1.376,3.538h-4.09a1.945,1.945,0,1,0,0,3.891h3.85a12.428,12.428,0,0,0,.866,3.538H245.9a1.946,1.946,0,1,0,0,3.891h3.906a12.5,12.5,0,1,0,9.1-21.109Zm-.034,22.01a9.511,9.511,0,1,1,9.51-9.51,9.521,9.521,0,0,1-9.51,9.51Z" fill="#383c3d"/>
      </g>
    </g>
    <g id="Group_141122" data-name="Group 141122" transform="translate(1041.903 2219.236)">
      <g id="Group_141122-2" data-name="Group 141122">
        <path id="Path_199495" data-name="Path 199495" d="M231.456,208.115a1.02,1.02,0,0,0-1.465,0l-2.116,2.1a12.584,12.584,0,0,0-3.988-2.548,12.282,12.282,0,0,0-4.622-.9,12.016,12.016,0,0,0-7.813,2.71,12.693,12.693,0,0,0-4.395,7.072v.114a.529.529,0,0,0,.521.521h3.239a.488.488,0,0,0,.488-.375,19.625,19.625,0,0,1,.863-1.9,8.3,8.3,0,0,1,7.1-3.972,8.089,8.089,0,0,1,5.681,2.23l-2.246,2.246a1.043,1.043,0,0,0,.732,1.775h7.292a1.057,1.057,0,0,0,1.042-1.042v-7.292A1,1,0,0,0,231.456,208.115Z" fill="#383c3d"/>
        <path id="Path_199496" data-name="Path 199496" d="M230.837,221.348h-3.125a.486.486,0,0,0-.488.374,19.76,19.76,0,0,1-.863,1.9,8.3,8.3,0,0,1-7.1,3.971,8.131,8.131,0,0,1-3.044-.585,8.413,8.413,0,0,1-2.621-1.661l2.23-2.23a1.042,1.042,0,0,0-.732-1.774h-7.292a1.057,1.057,0,0,0-1.042,1.042v7.292a1.036,1.036,0,0,0,1.775.732l2.1-2.1a12.433,12.433,0,0,0,3.964,2.555,12.189,12.189,0,0,0,4.6.9,11.931,11.931,0,0,0,7.78-2.71,12.652,12.652,0,0,0,4.362-7.072.28.28,0,0,0,.016-.114.528.528,0,0,0-.521-.52Z" fill="#383c3d"/>
      </g>
    </g>
    <g id="_125" data-name="125" transform="translate(1004.541 2247.58)">
      <path id="Path_199497" data-name="Path 199497" d="M264.8,248.41l-4.147-3.986a3.215,3.215,0,0,0-2.277-.924h-8.907a3.288,3.288,0,0,0-3.287,3.288v18.425a3.287,3.287,0,0,0,3.287,3.287h13.054a3.287,3.287,0,0,0,3.287-3.287V250.784A3.287,3.287,0,0,0,264.8,248.41Zm-4.093,15.75h-9.422a1.075,1.075,0,0,1,0-2.149h9.422a1.075,1.075,0,0,1,0,2.149Zm0-5.06h-9.422a1.075,1.075,0,0,1,0-2.149h9.422a1.075,1.075,0,0,1,0,2.149Zm0-5.05h-9.422a1.075,1.075,0,0,1,0-2.149h9.422a1.075,1.075,0,0,1,0,2.149Z" fill="#383c3d"/>
    </g>
    <g id="Group_141130" data-name="Group 141130" transform="translate(1025.627 2331.101)">
      <path id="Path_199498" data-name="Path 199498" d="M247.061,225.747a2.315,2.315,0,0,0-1.7-.707H225.172a2.412,2.412,0,0,0-2.4,2.4V243.79a2.411,2.411,0,0,0,2.4,2.4h20.192a2.411,2.411,0,0,0,2.4-2.4V227.445A2.313,2.313,0,0,0,247.061,225.747Zm-16.6,18.043a.462.462,0,0,1-.481.481h-4.808a.462.462,0,0,1-.481-.481v-2.885a.463.463,0,0,1,.481-.481h4.808a.462.462,0,0,1,.481.481v2.885Zm0-5.769a.462.462,0,0,1-.481.481h-4.808a.462.462,0,0,1-.481-.481v-2.884a.463.463,0,0,1,.481-.481h4.808a.462.462,0,0,1,.481.481v2.884Zm0-5.769a.462.462,0,0,1-.481.481h-4.808a.462.462,0,0,1-.481-.481v-2.884a.463.463,0,0,1,.481-.481h4.808a.462.462,0,0,1,.481.481v2.884Zm7.692,11.538a.461.461,0,0,1-.481.481h-4.808a.462.462,0,0,1-.481-.481v-2.885a.463.463,0,0,1,.481-.481h4.808a.462.462,0,0,1,.481.481v2.885Zm0-5.769a.461.461,0,0,1-.481.481h-4.808a.462.462,0,0,1-.481-.481v-2.884a.463.463,0,0,1,.481-.481h4.808a.462.462,0,0,1,.481.481v2.884Zm0-5.769a.461.461,0,0,1-.481.481h-4.808a.462.462,0,0,1-.481-.481v-2.884a.463.463,0,0,1,.481-.481h4.808a.462.462,0,0,1,.481.481v2.884Zm7.692,11.538a.461.461,0,0,1-.481.481h-4.807a.461.461,0,0,1-.481-.481v-2.885a.462.462,0,0,1,.481-.481h4.807a.462.462,0,0,1,.481.481Zm0-5.769a.461.461,0,0,1-.481.481h-4.807a.461.461,0,0,1-.481-.481v-2.884a.462.462,0,0,1,.481-.481h4.807a.462.462,0,0,1,.481.481Zm0-5.769a.461.461,0,0,1-.481.481h-4.807a.461.461,0,0,1-.481-.481v-2.884a.462.462,0,0,1,.481-.481h4.807a.462.462,0,0,1,.481.481Z" transform="translate(0)" fill="#383c3d"/>
    </g>
    <g id="Group_141133" data-name="Group 141133" transform="translate(1004.642 2376.051)">
      <g id="Page-1">
        <g id="craziness_filled" data-name="craziness filled">
          <path id="goal_-target_-bullseye_-aim_-achievement_-precision" data-name="goal,-target,-bullseye,-aim,-achievement,-precision" d="M262.9,268.5c-4.406,0-7.759-5.659-7.759-12.5s3.353-12.5,7.759-12.5,7.758,5.659,7.758,12.5S267.3,268.5,262.9,268.5Zm0-3.448c2.794,0,4.741-4.111,4.741-9.052s-1.947-9.052-4.741-9.052-4.742,4.111-4.742,9.052S260.1,265.052,262.9,265.052Zm0-1.724c-1.491,0-3.018-3.223-3.018-7.328s1.527-7.328,3.018-7.328,3.017,3.223,3.017,7.328S264.387,263.328,262.9,263.328Zm0-5.6c.476,0,.862-.772.862-1.724s-.386-1.724-.862-1.724-.863.772-.863,1.724S262.42,257.724,262.9,257.724Zm-12.427-2.586-1.114-1.115a.862.862,0,0,1,1.219-1.219l2.586,2.586a.862.862,0,0,1,0,1.22l-2.586,2.586a.862.862,0,0,1-1.219-1.219l1.114-1.115h-8.263a.862.862,0,1,1,0-1.724Z" fill="#383c3d"/>
        </g>
      </g>
    </g>
    <path id="Path_199593" data-name="Path 199593" d="M30.3,17.223a6.231,6.231,0,0,1-.961,3.146,5.8,5.8,0,0,1-2.467,2.115,8.4,8.4,0,0,1-3.627.75,6.7,6.7,0,0,1-5.3-2.191,9.048,9.048,0,0,1-1.934-6.187v-.844a10.328,10.328,0,0,1,.873-4.389A6.615,6.615,0,0,1,19.4,6.717a7.013,7.013,0,0,1,3.8-1.025,7.354,7.354,0,0,1,4.992,1.635,6.459,6.459,0,0,1,2.145,4.506h-4.1a3.056,3.056,0,0,0-.785-2.238,3.229,3.229,0,0,0-2.25-.68,2.457,2.457,0,0,0-2.25,1.148,7.381,7.381,0,0,0-.75,3.668v1.207a8.167,8.167,0,0,0,.686,3.9,2.509,2.509,0,0,0,2.361,1.172,3.159,3.159,0,0,0,2.168-.668,2.835,2.835,0,0,0,.8-2.121Zm1.266-.68a7.484,7.484,0,0,1,.738-3.381,5.28,5.28,0,0,1,2.121-2.279,6.388,6.388,0,0,1,3.246-.8,5.83,5.83,0,0,1,4.488,1.764,6.768,6.768,0,0,1,1.641,4.8v.141a6.566,6.566,0,0,1-1.646,4.705,5.846,5.846,0,0,1-4.459,1.74,5.912,5.912,0,0,1-4.348-1.623,6.348,6.348,0,0,1-1.77-4.4Zm3.949.246a4.718,4.718,0,0,0,.551,2.578,1.835,1.835,0,0,0,1.629.82q2.109,0,2.156-3.246v-.4q0-3.41-2.18-3.41-1.98,0-2.145,2.941ZM49.166,10.32l.129,1.488a4.3,4.3,0,0,1,3.621-1.723,3.618,3.618,0,0,1,2.959,1.184,5.635,5.635,0,0,1,1.014,3.563V23H52.928V15a2.14,2.14,0,0,0-.387-1.412,1.789,1.789,0,0,0-1.406-.451,1.883,1.883,0,0,0-1.723.914V23H45.463V10.32Zm16.547,9.117a.912.912,0,0,0-.527-.809,8.021,8.021,0,0,0-2-.633,9.138,9.138,0,0,1-2.437-.861,4.083,4.083,0,0,1-1.465-1.295,3.092,3.092,0,0,1-.5-1.746,3.5,3.5,0,0,1,1.441-2.877,5.938,5.938,0,0,1,3.773-1.131,6.579,6.579,0,0,1,4.031,1.137,3.555,3.555,0,0,1,1.523,2.988H65.584q0-1.523-1.605-1.523a1.591,1.591,0,0,0-1.043.346,1.07,1.07,0,0,0-.422.861.982.982,0,0,0,.516.855,4.872,4.872,0,0,0,1.646.539,14.228,14.228,0,0,1,1.986.5q2.859.984,2.859,3.527a3.321,3.321,0,0,1-1.541,2.824,6.758,6.758,0,0,1-3.99,1.09,6.9,6.9,0,0,1-2.906-.586,4.86,4.86,0,0,1-1.992-1.594,3.609,3.609,0,0,1-.715-2.121h3.691a1.526,1.526,0,0,0,.586,1.283,2.41,2.41,0,0,0,1.441.4,1.9,1.9,0,0,0,1.213-.328A1.05,1.05,0,0,0,65.713,19.438ZM75.533,23H71.572V10.32h3.961Zm-4.2-15.949a1.763,1.763,0,0,1,.609-1.383,2.591,2.591,0,0,1,3.164,0,1.763,1.763,0,0,1,.609,1.383,1.763,1.763,0,0,1-.609,1.383,2.591,2.591,0,0,1-3.164,0A1.763,1.763,0,0,1,71.338,7.051ZM84.6,19.438a.912.912,0,0,0-.527-.809,8.021,8.021,0,0,0-2-.633,9.138,9.138,0,0,1-2.437-.861A4.083,4.083,0,0,1,78.17,15.84a3.092,3.092,0,0,1-.5-1.746,3.5,3.5,0,0,1,1.441-2.877,5.938,5.938,0,0,1,3.773-1.131,6.579,6.579,0,0,1,4.031,1.137,3.555,3.555,0,0,1,1.523,2.988H84.475q0-1.523-1.605-1.523a1.591,1.591,0,0,0-1.043.346,1.07,1.07,0,0,0-.422.861.982.982,0,0,0,.516.855,4.872,4.872,0,0,0,1.646.539,14.228,14.228,0,0,1,1.986.5q2.859.984,2.859,3.527a3.321,3.321,0,0,1-1.541,2.824,6.758,6.758,0,0,1-3.99,1.09,6.9,6.9,0,0,1-2.906-.586,4.86,4.86,0,0,1-1.992-1.594,3.609,3.609,0,0,1-.715-2.121h3.691a1.526,1.526,0,0,0,.586,1.283,2.41,2.41,0,0,0,1.441.4,1.9,1.9,0,0,0,1.213-.328A1.05,1.05,0,0,0,84.6,19.438ZM94.857,7.168V10.32h2.086v2.742H94.857v5.8a1.481,1.481,0,0,0,.258,1,1.383,1.383,0,0,0,1.02.281,5.793,5.793,0,0,0,.984-.07v2.824a7.288,7.288,0,0,1-2.227.34,4.137,4.137,0,0,1-3.012-.961,3.939,3.939,0,0,1-.973-2.918V13.063H89.291V10.32h1.617V7.168Zm9.773,16.066a6.518,6.518,0,0,1-4.723-1.74,6.009,6.009,0,0,1-1.8-4.529v-.328a7.787,7.787,0,0,1,.721-3.434,5.274,5.274,0,0,1,2.1-2.3,6.35,6.35,0,0,1,3.281-.814,5.489,5.489,0,0,1,4.219,1.658,6.516,6.516,0,0,1,1.547,4.623V17.9h-7.852a2.846,2.846,0,0,0,.926,1.676,2.755,2.755,0,0,0,1.852.609,3.549,3.549,0,0,0,2.93-1.312l1.8,2.133a5.045,5.045,0,0,1-2.092,1.623A7.069,7.069,0,0,1,104.631,23.234Zm-.445-10.1q-1.734,0-2.062,2.3h3.984v-.3a1.956,1.956,0,0,0-.48-1.471A1.912,1.912,0,0,0,104.186,13.133Zm11-2.812.129,1.488a4.3,4.3,0,0,1,3.621-1.723A3.618,3.618,0,0,1,121.9,11.27a5.635,5.635,0,0,1,1.014,3.563V23h-3.961V15a2.14,2.14,0,0,0-.387-1.412,1.789,1.789,0,0,0-1.406-.451,1.883,1.883,0,0,0-1.723.914V23h-3.949V10.32Zm15.27,9.867a1.756,1.756,0,0,0,1.289-.451,1.654,1.654,0,0,0,.445-1.26h3.7A4.384,4.384,0,0,1,134.4,21.9a5.558,5.558,0,0,1-3.85,1.336,5.627,5.627,0,0,1-4.359-1.734,6.834,6.834,0,0,1-1.594-4.8v-.164a7.723,7.723,0,0,1,.709-3.393,5.162,5.162,0,0,1,2.045-2.262,6.1,6.1,0,0,1,3.164-.791,5.488,5.488,0,0,1,3.926,1.371,4.863,4.863,0,0,1,1.453,3.715h-3.7a2.168,2.168,0,0,0-.48-1.512,1.658,1.658,0,0,0-1.289-.527q-1.535,0-1.793,1.957a13.809,13.809,0,0,0-.082,1.711,5.424,5.424,0,0,0,.457,2.648A1.582,1.582,0,0,0,130.459,20.188ZM141.732,23h-3.961V10.32h3.961Zm-4.2-15.949a1.763,1.763,0,0,1,.609-1.383,2.591,2.591,0,0,1,3.164,0,1.763,1.763,0,0,1,.609,1.383,1.763,1.763,0,0,1-.609,1.383,2.591,2.591,0,0,1-3.164,0A1.763,1.763,0,0,1,137.537,7.051ZM151.307,23a4.459,4.459,0,0,1-.375-1.137,3.672,3.672,0,0,1-3.047,1.371,4.5,4.5,0,0,1-3.047-1.084,3.45,3.45,0,0,1-1.254-2.725,3.546,3.546,0,0,1,1.523-3.117,7.761,7.761,0,0,1,4.43-1.055h1.219v-.671q0-1.755-1.512-1.755a1.236,1.236,0,0,0-1.406,1.39h-3.949a3.54,3.54,0,0,1,1.564-2.985,6.575,6.575,0,0,1,3.99-1.147,5.764,5.764,0,0,1,3.832,1.184,4.115,4.115,0,0,1,1.441,3.246v5.613a5.748,5.748,0,0,0,.539,2.672V23Zm-2.473-2.578a2.2,2.2,0,0,0,1.225-.316,1.983,1.983,0,0,0,.7-.715V17.363h-1.148q-2.062,0-2.062,1.852a1.131,1.131,0,0,0,.363.873A1.315,1.315,0,0,0,148.834,20.422Z" transform="translate(371.801 2490.58)" fill="#fff"/>
    <path id="Path_199592" data-name="Path 199592" d="M39.639,17.211V23H35.525V5.938h6.809a7.93,7.93,0,0,1,3.463.721,5.431,5.431,0,0,1,2.332,2.051,5.6,5.6,0,0,1,.826,3.018,4.937,4.937,0,0,1-1.787,3.99,7.415,7.415,0,0,1-4.9,1.494Zm0-3.176h2.7a2.542,2.542,0,0,0,1.822-.6,2.221,2.221,0,0,0,.627-1.687,2.745,2.745,0,0,0-.645-1.91,2.282,2.282,0,0,0-1.758-.727H39.639Zm19-.141-1.3-.094a2.336,2.336,0,0,0-2.391,1.172V23H50.994V10.32h3.7l.129,1.629A3.058,3.058,0,0,1,57.6,10.086a3.851,3.851,0,0,1,1.1.141Zm7.336,9.34a6.518,6.518,0,0,1-4.723-1.74,6.009,6.009,0,0,1-1.8-4.529v-.328a7.787,7.787,0,0,1,.721-3.434,5.274,5.274,0,0,1,2.1-2.3,6.35,6.35,0,0,1,3.281-.814,5.489,5.489,0,0,1,4.219,1.658,6.516,6.516,0,0,1,1.547,4.623V17.9H63.463a2.846,2.846,0,0,0,.926,1.676,2.755,2.755,0,0,0,1.852.609,3.549,3.549,0,0,0,2.93-1.312l1.8,2.133a5.045,5.045,0,0,1-2.092,1.623A7.069,7.069,0,0,1,65.971,23.234Zm-.445-10.1q-1.734,0-2.062,2.3h3.984v-.3a1.956,1.956,0,0,0-.48-1.471A1.912,1.912,0,0,0,65.525,13.133Zm12.738,7.055a1.756,1.756,0,0,0,1.289-.451A1.654,1.654,0,0,0,80,18.477h3.7A4.384,4.384,0,0,1,82.207,21.9a5.558,5.558,0,0,1-3.85,1.336A5.627,5.627,0,0,1,74,21.5,6.834,6.834,0,0,1,72.4,16.7v-.164a7.723,7.723,0,0,1,.709-3.393,5.162,5.162,0,0,1,2.045-2.262,6.1,6.1,0,0,1,3.164-.791,5.488,5.488,0,0,1,3.926,1.371A4.863,4.863,0,0,1,83.7,15.172H80a2.168,2.168,0,0,0-.48-1.512,1.658,1.658,0,0,0-1.289-.527q-1.535,0-1.793,1.957a13.809,13.809,0,0,0-.082,1.711,5.424,5.424,0,0,0,.457,2.648A1.582,1.582,0,0,0,78.264,20.188ZM89.537,23H85.576V10.32h3.961Zm-4.2-15.949a1.763,1.763,0,0,1,.609-1.383,2.591,2.591,0,0,1,3.164,0,1.763,1.763,0,0,1,.609,1.383,1.763,1.763,0,0,1-.609,1.383,2.591,2.591,0,0,1-3.164,0A1.763,1.763,0,0,1,85.342,7.051ZM98.607,19.438a.912.912,0,0,0-.527-.809,8.021,8.021,0,0,0-2-.633,9.138,9.138,0,0,1-2.437-.861,4.083,4.083,0,0,1-1.465-1.295,3.092,3.092,0,0,1-.5-1.746,3.5,3.5,0,0,1,1.441-2.877,5.938,5.938,0,0,1,3.773-1.131,6.579,6.579,0,0,1,4.031,1.137,3.555,3.555,0,0,1,1.523,2.988H98.479q0-1.523-1.605-1.523a1.591,1.591,0,0,0-1.043.346,1.07,1.07,0,0,0-.422.861.982.982,0,0,0,.516.855,4.872,4.872,0,0,0,1.646.539,14.228,14.228,0,0,1,1.986.5q2.859.984,2.859,3.527a3.321,3.321,0,0,1-1.541,2.824,6.758,6.758,0,0,1-3.99,1.09,6.9,6.9,0,0,1-2.906-.586,4.86,4.86,0,0,1-1.992-1.594,3.609,3.609,0,0,1-.715-2.121h3.691a1.526,1.526,0,0,0,.586,1.283,2.41,2.41,0,0,0,1.441.4,1.9,1.9,0,0,0,1.213-.328A1.05,1.05,0,0,0,98.607,19.438ZM108.428,23h-3.961V10.32h3.961Zm-4.2-15.949a1.763,1.763,0,0,1,.609-1.383,2.591,2.591,0,0,1,3.164,0,1.763,1.763,0,0,1,.609,1.383,1.763,1.763,0,0,1-.609,1.383,2.591,2.591,0,0,1-3.164,0A1.763,1.763,0,0,1,104.232,7.051Zm6.129,9.492a7.484,7.484,0,0,1,.738-3.381,5.28,5.28,0,0,1,2.121-2.279,6.388,6.388,0,0,1,3.246-.8,5.83,5.83,0,0,1,4.488,1.764,6.768,6.768,0,0,1,1.641,4.8v.141a6.566,6.566,0,0,1-1.646,4.705,5.846,5.846,0,0,1-4.459,1.74,5.912,5.912,0,0,1-4.348-1.623,6.348,6.348,0,0,1-1.77-4.4Zm3.949.246a4.718,4.718,0,0,0,.551,2.578,1.835,1.835,0,0,0,1.629.82q2.109,0,2.156-3.246v-.4q0-3.41-2.18-3.41-1.98,0-2.145,2.941ZM117.006,5h4.172L117.92,8.68,114.7,8.674Zm10.957,5.32.129,1.488a4.3,4.3,0,0,1,3.621-1.723,3.618,3.618,0,0,1,2.959,1.184,5.635,5.635,0,0,1,1.014,3.563V23h-3.961V15a2.14,2.14,0,0,0-.387-1.412,1.789,1.789,0,0,0-1.406-.451,1.883,1.883,0,0,0-1.723.914V23H124.26V10.32Z" transform="translate(371.801 2360.724)" fill="#fff"/>
    <path id="Path_199591" data-name="Path 199591" d="M34,17.223a6.231,6.231,0,0,1-.961,3.146,5.8,5.8,0,0,1-2.467,2.115,8.4,8.4,0,0,1-3.627.75,6.7,6.7,0,0,1-5.3-2.191,9.048,9.048,0,0,1-1.934-6.187v-.844a10.328,10.328,0,0,1,.873-4.389A6.615,6.615,0,0,1,23.1,6.717a7.013,7.013,0,0,1,3.8-1.025,7.354,7.354,0,0,1,4.992,1.635,6.459,6.459,0,0,1,2.145,4.506h-4.1a3.056,3.056,0,0,0-.785-2.238,3.229,3.229,0,0,0-2.25-.68,2.457,2.457,0,0,0-2.25,1.148,7.381,7.381,0,0,0-.75,3.668v1.207a8.167,8.167,0,0,0,.686,3.9,2.509,2.509,0,0,0,2.361,1.172,3.159,3.159,0,0,0,2.168-.668,2.835,2.835,0,0,0,.8-2.121Zm1.266-.68a7.484,7.484,0,0,1,.738-3.381,5.28,5.28,0,0,1,2.121-2.279,6.388,6.388,0,0,1,3.246-.8,5.83,5.83,0,0,1,4.488,1.764,6.768,6.768,0,0,1,1.641,4.8v.141a6.566,6.566,0,0,1-1.646,4.705,5.846,5.846,0,0,1-4.459,1.74,5.912,5.912,0,0,1-4.348-1.623,6.348,6.348,0,0,1-1.77-4.4Zm3.949.246a4.718,4.718,0,0,0,.551,2.578,1.835,1.835,0,0,0,1.629.82q2.109,0,2.156-3.246v-.4q0-3.41-2.18-3.41-1.98,0-2.145,2.941ZM52.975,10.32l.129,1.488a4.36,4.36,0,0,1,3.621-1.723A3.21,3.21,0,0,1,59.971,12a4.22,4.22,0,0,1,3.727-1.91q3.855,0,3.961,4.664V23H63.7V15a2.417,2.417,0,0,0-.328-1.418,1.4,1.4,0,0,0-1.2-.445,1.871,1.871,0,0,0-1.746,1.043l.012.164V23H56.479V15.02a2.541,2.541,0,0,0-.316-1.441,1.393,1.393,0,0,0-1.207-.445,1.894,1.894,0,0,0-1.734,1.043V23H49.271V10.32Zm28.711,6.434a7.646,7.646,0,0,1-1.33,4.717,4.264,4.264,0,0,1-3.592,1.764,3.655,3.655,0,0,1-2.871-1.277v5.918H69.943V10.32h3.691l.117,1.172a3.656,3.656,0,0,1,2.988-1.406,4.3,4.3,0,0,1,3.645,1.729,7.741,7.741,0,0,1,1.3,4.752Zm-3.949-.246q0-3.375-1.969-3.375a1.859,1.859,0,0,0-1.875,1.008v4.992a1.919,1.919,0,0,0,1.9,1.055q1.887,0,1.945-3.258ZM87.592,23H83.631V5h3.961Zm8.566.234a6.518,6.518,0,0,1-4.723-1.74,6.009,6.009,0,0,1-1.8-4.529v-.328a7.787,7.787,0,0,1,.721-3.434,5.274,5.274,0,0,1,2.1-2.3,6.35,6.35,0,0,1,3.281-.814,5.489,5.489,0,0,1,4.219,1.658,6.516,6.516,0,0,1,1.547,4.623V17.9H93.65a2.846,2.846,0,0,0,.926,1.676,2.755,2.755,0,0,0,1.852.609,3.549,3.549,0,0,0,2.93-1.312l1.8,2.133a5.045,5.045,0,0,1-2.092,1.623A7.069,7.069,0,0,1,96.158,23.234Zm-.445-10.1q-1.734,0-2.062,2.3h3.984v-.3a1.956,1.956,0,0,0-.48-1.471A1.912,1.912,0,0,0,95.713,13.133Zm11.977-5.965V10.32h2.086v2.742h-2.086v5.8a1.481,1.481,0,0,0,.258,1,1.383,1.383,0,0,0,1.02.281,5.793,5.793,0,0,0,.984-.07v2.824a7.288,7.288,0,0,1-2.227.34,4.137,4.137,0,0,1-3.012-.961,3.939,3.939,0,0,1-.973-2.918V13.063h-1.617V10.32h1.617V7.168ZM115.494,23h-3.961V10.32h3.961ZM111.3,7.051a1.763,1.763,0,0,1,.609-1.383,2.591,2.591,0,0,1,3.164,0,1.763,1.763,0,0,1,.609,1.383,1.763,1.763,0,0,1-.609,1.383,2.591,2.591,0,0,1-3.164,0A1.763,1.763,0,0,1,111.3,7.051Zm11.227.117V10.32h2.086v2.742h-2.086v5.8a1.481,1.481,0,0,0,.258,1,1.383,1.383,0,0,0,1.02.281,5.793,5.793,0,0,0,.984-.07v2.824a7.288,7.288,0,0,1-2.227.34,4.137,4.137,0,0,1-3.012-.961,3.939,3.939,0,0,1-.973-2.918V13.063h-1.617V10.32h1.617V7.168Zm11.191,14.461a4.072,4.072,0,0,1-3.387,1.605,3.993,3.993,0,0,1-3.158-1.213,5.1,5.1,0,0,1-1.072-3.486V10.32h3.949v8.238a1.419,1.419,0,0,0,1.582,1.629,2.064,2.064,0,0,0,1.934-.973V10.32h3.973V23h-3.7Zm5.484-5.062a7.746,7.746,0,0,1,1.3-4.746,4.282,4.282,0,0,1,3.633-1.734,3.641,3.641,0,0,1,2.859,1.336V5h3.961V23H147.4l-.2-1.359a3.739,3.739,0,0,1-3.094,1.594,4.274,4.274,0,0,1-3.586-1.734A7.991,7.991,0,0,1,139.2,16.566Zm3.949.246q0,3.375,1.969,3.375a1.944,1.944,0,0,0,1.875-1.1V14.258a1.892,1.892,0,0,0-1.852-1.125q-1.828,0-1.98,2.953Z" transform="translate(371.801 2425.65)" fill="#fff"/>
    <path id="Path_199594" data-name="Path 199594" d="M52.729,5.938V17.105a6.419,6.419,0,0,1-.809,3.287,5.238,5.238,0,0,1-2.32,2.115,8.174,8.174,0,0,1-3.574.727,7.062,7.062,0,0,1-4.91-1.617,5.768,5.768,0,0,1-1.828-4.43V5.938h4.137V17.27q.07,2.8,2.6,2.8a2.518,2.518,0,0,0,1.934-.7,3.286,3.286,0,0,0,.656-2.285V5.938ZM58.74,10.32l.129,1.488a4.3,4.3,0,0,1,3.621-1.723,3.618,3.618,0,0,1,2.959,1.184,5.635,5.635,0,0,1,1.014,3.563V23H62.5V15a2.14,2.14,0,0,0-.387-1.412,1.789,1.789,0,0,0-1.406-.451,1.883,1.883,0,0,0-1.723.914V23H55.037V10.32ZM72.814,23H68.854V10.32h3.961Zm-4.2-15.949a1.763,1.763,0,0,1,.609-1.383,2.591,2.591,0,0,1,3.164,0A1.763,1.763,0,0,1,73,7.051a1.763,1.763,0,0,1-.609,1.383,2.591,2.591,0,0,1-3.164,0A1.763,1.763,0,0,1,68.619,7.051ZM80.607,20.188a1.756,1.756,0,0,0,1.289-.451,1.654,1.654,0,0,0,.445-1.26h3.7A4.384,4.384,0,0,1,84.551,21.9a5.558,5.558,0,0,1-3.85,1.336A5.627,5.627,0,0,1,76.342,21.5a6.834,6.834,0,0,1-1.594-4.8v-.164a7.723,7.723,0,0,1,.709-3.393A5.162,5.162,0,0,1,77.5,10.877a6.1,6.1,0,0,1,3.164-.791,5.488,5.488,0,0,1,3.926,1.371,4.863,4.863,0,0,1,1.453,3.715h-3.7a2.168,2.168,0,0,0-.48-1.512,1.658,1.658,0,0,0-1.289-.527q-1.535,0-1.793,1.957A13.809,13.809,0,0,0,78.7,16.8a5.424,5.424,0,0,0,.457,2.648A1.582,1.582,0,0,0,80.607,20.188ZM91.881,23H87.92V10.32h3.961Zm-4.2-15.949a1.763,1.763,0,0,1,.609-1.383,2.591,2.591,0,0,1,3.164,0,1.763,1.763,0,0,1,.609,1.383,1.763,1.763,0,0,1-.609,1.383,2.591,2.591,0,0,1-3.164,0A1.763,1.763,0,0,1,87.686,7.051Zm6.129,9.516a7.746,7.746,0,0,1,1.3-4.746,4.282,4.282,0,0,1,3.633-1.734,3.641,3.641,0,0,1,2.859,1.336V5h3.961V23h-3.551l-.2-1.359a3.739,3.739,0,0,1-3.094,1.594A4.274,4.274,0,0,1,95.139,21.5,7.991,7.991,0,0,1,93.814,16.566Zm3.949.246q0,3.375,1.969,3.375a1.944,1.944,0,0,0,1.875-1.1V14.258a1.892,1.892,0,0,0-1.852-1.125q-1.828,0-1.98,2.953ZM114.955,23a4.459,4.459,0,0,1-.375-1.137,3.672,3.672,0,0,1-3.047,1.371,4.5,4.5,0,0,1-3.047-1.084,3.45,3.45,0,0,1-1.254-2.725,3.546,3.546,0,0,1,1.523-3.117,7.761,7.761,0,0,1,4.43-1.055H114.4v-.671q0-1.755-1.512-1.755a1.236,1.236,0,0,0-1.406,1.39h-3.949a3.54,3.54,0,0,1,1.564-2.985,6.575,6.575,0,0,1,3.99-1.147,5.764,5.764,0,0,1,3.832,1.184,4.115,4.115,0,0,1,1.441,3.246v5.613A5.748,5.748,0,0,0,118.9,22.8V23Zm-2.473-2.578a2.2,2.2,0,0,0,1.225-.316,1.983,1.983,0,0,0,.7-.715V17.363h-1.148q-2.062,0-2.062,1.852a1.131,1.131,0,0,0,.363.873A1.315,1.315,0,0,0,112.482,20.422Zm7.57-3.855a7.746,7.746,0,0,1,1.3-4.746,4.282,4.282,0,0,1,3.633-1.734,3.641,3.641,0,0,1,2.859,1.336V5h3.961V23h-3.551l-.2-1.359a3.739,3.739,0,0,1-3.094,1.594,4.274,4.274,0,0,1-3.586-1.734A7.991,7.991,0,0,1,120.053,16.566Zm3.949.246q0,3.375,1.969,3.375a1.944,1.944,0,0,0,1.875-1.1V14.258a1.892,1.892,0,0,0-1.852-1.125q-1.828,0-1.98,2.953Z" transform="translate(371.801 2555.508)" fill="#fff"/>
    <path id="Path_199595" data-name="Path 199595" d="M53.326,18.359l3.4-12.422h4.594L55.576,23h-4.5l-5.7-17.062h4.559ZM68.982,23a4.459,4.459,0,0,1-.375-1.137,3.672,3.672,0,0,1-3.047,1.371,4.5,4.5,0,0,1-3.047-1.084,3.45,3.45,0,0,1-1.254-2.725,3.546,3.546,0,0,1,1.523-3.117,7.761,7.761,0,0,1,4.43-1.055h1.219v-.671q0-1.755-1.512-1.755a1.236,1.236,0,0,0-1.406,1.39H61.564a3.54,3.54,0,0,1,1.564-2.985,6.575,6.575,0,0,1,3.99-1.147,5.764,5.764,0,0,1,3.832,1.184,4.115,4.115,0,0,1,1.441,3.246v5.613a5.748,5.748,0,0,0,.539,2.672V23ZM66.51,20.422a2.2,2.2,0,0,0,1.225-.316,1.983,1.983,0,0,0,.7-.715V17.363H67.283q-2.062,0-2.062,1.852a1.131,1.131,0,0,0,.363.873A1.315,1.315,0,0,0,66.51,20.422ZM78.744,23H74.783V5h3.961Zm6.6,0H81.381V10.32h3.961Zm-4.2-15.949a1.763,1.763,0,0,1,.609-1.383,2.591,2.591,0,0,1,3.164,0,1.763,1.763,0,0,1,.609,1.383,1.763,1.763,0,0,1-.609,1.383,2.591,2.591,0,0,1-3.164,0A1.763,1.763,0,0,1,81.146,7.051Zm6.129,9.516a7.746,7.746,0,0,1,1.3-4.746,4.282,4.282,0,0,1,3.633-1.734,3.641,3.641,0,0,1,2.859,1.336V5h3.961V23H95.479l-.2-1.359a3.739,3.739,0,0,1-3.094,1.594A4.274,4.274,0,0,1,88.6,21.5,7.991,7.991,0,0,1,87.275,16.566Zm3.949.246q0,3.375,1.969,3.375a1.944,1.944,0,0,0,1.875-1.1V14.258a1.892,1.892,0,0,0-1.852-1.125q-1.828,0-1.98,2.953Zm16.184,6.422a6.518,6.518,0,0,1-4.723-1.74,6.009,6.009,0,0,1-1.8-4.529v-.328A7.787,7.787,0,0,1,101.6,13.2a5.274,5.274,0,0,1,2.1-2.3,6.35,6.35,0,0,1,3.281-.814,5.489,5.489,0,0,1,4.219,1.658,6.516,6.516,0,0,1,1.547,4.623V17.9H104.9a2.846,2.846,0,0,0,.926,1.676,2.755,2.755,0,0,0,1.852.609,3.549,3.549,0,0,0,2.93-1.312l1.8,2.133a5.045,5.045,0,0,1-2.092,1.623A7.069,7.069,0,0,1,107.408,23.234Zm-.445-10.1q-1.734,0-2.062,2.3h3.984v-.3a1.956,1.956,0,0,0-.48-1.471A1.912,1.912,0,0,0,106.963,13.133ZM119,19.953h5.777V23h-10.77V20.8l5.625-7.43h-5.379V10.32h10.395v2.133Z" transform="translate(371.801 2618.051)" fill="#fff"/>
    <circle id="Ellipse_5034" data-name="Ellipse 5034" cx="230.741" cy="230.741" r="230.741" transform="translate(575.218 2279)" fill="url(#radial-gradient-11)" style="mix-blend-mode: multiply;isolation: isolate"/>
    <circle id="Ellipse_5035" data-name="Ellipse 5035" cx="170.036" cy="170.036" r="170.036" transform="translate(630.307 2327.999)" fill="url(#radial-gradient-12)"/>
    <path id="Path_199598" data-name="Path 199598" d="M30.076,17.223a6.231,6.231,0,0,1-.961,3.146,5.8,5.8,0,0,1-2.467,2.115,8.4,8.4,0,0,1-3.627.75,6.7,6.7,0,0,1-5.3-2.191,9.048,9.048,0,0,1-1.934-6.187v-.844a10.328,10.328,0,0,1,.873-4.389,6.615,6.615,0,0,1,2.514-2.906,7.013,7.013,0,0,1,3.8-1.025,7.354,7.354,0,0,1,4.992,1.635,6.459,6.459,0,0,1,2.145,4.506h-4.1a3.056,3.056,0,0,0-.785-2.238,3.229,3.229,0,0,0-2.25-.68,2.457,2.457,0,0,0-2.25,1.148,7.381,7.381,0,0,0-.75,3.668v1.207a8.167,8.167,0,0,0,.686,3.9,2.509,2.509,0,0,0,2.361,1.172,3.159,3.159,0,0,0,2.168-.668,2.835,2.835,0,0,0,.8-2.121Zm1.266-.68a7.484,7.484,0,0,1,.738-3.381A5.28,5.28,0,0,1,34.2,10.883a6.388,6.388,0,0,1,3.246-.8,5.83,5.83,0,0,1,4.488,1.764,6.768,6.768,0,0,1,1.641,4.8v.141a6.566,6.566,0,0,1-1.646,4.705,5.846,5.846,0,0,1-4.459,1.74,5.912,5.912,0,0,1-4.348-1.623,6.348,6.348,0,0,1-1.77-4.4Zm3.949.246a4.718,4.718,0,0,0,.551,2.578,1.835,1.835,0,0,0,1.629.82q2.109,0,2.156-3.246v-.4q0-3.41-2.18-3.41-1.98,0-2.145,2.941ZM48.943,10.32l.129,1.488a4.3,4.3,0,0,1,3.621-1.723,3.618,3.618,0,0,1,2.959,1.184,5.635,5.635,0,0,1,1.014,3.563V23H52.705V15a2.14,2.14,0,0,0-.387-1.412,1.789,1.789,0,0,0-1.406-.451,1.883,1.883,0,0,0-1.723.914V23H45.24V10.32ZM59.725,23V13.063h-1.84V10.32h1.84V9.313A4.381,4.381,0,0,1,61,5.949a5.047,5.047,0,0,1,3.586-1.2A7.853,7.853,0,0,1,66.439,5l.012,2.906a3.608,3.608,0,0,0-.973-.105q-1.793,0-1.793,1.547v.973h2.473v2.742H63.686V23Zm7.324-6.457a7.484,7.484,0,0,1,.738-3.381,5.28,5.28,0,0,1,2.121-2.279,6.388,6.388,0,0,1,3.246-.8,5.83,5.83,0,0,1,4.488,1.764,6.768,6.768,0,0,1,1.641,4.8v.141a6.566,6.566,0,0,1-1.646,4.705,5.846,5.846,0,0,1-4.459,1.74,5.912,5.912,0,0,1-4.348-1.623,6.348,6.348,0,0,1-1.77-4.4ZM71,16.789a4.718,4.718,0,0,0,.551,2.578,1.835,1.835,0,0,0,1.629.82q2.109,0,2.156-3.246v-.4q0-3.41-2.18-3.41-1.98,0-2.145,2.941Zm17.7-2.895-1.3-.094A2.336,2.336,0,0,0,85,14.973V23H81.053V10.32h3.7l.129,1.629a3.058,3.058,0,0,1,2.777-1.863,3.851,3.851,0,0,1,1.1.141ZM93.85,10.32l.129,1.488A4.36,4.36,0,0,1,97.6,10.086,3.21,3.21,0,0,1,100.846,12a4.22,4.22,0,0,1,3.727-1.91q3.855,0,3.961,4.664V23h-3.961V15a2.417,2.417,0,0,0-.328-1.418,1.4,1.4,0,0,0-1.2-.445,1.871,1.871,0,0,0-1.746,1.043l.012.164V23H97.354V15.02a2.541,2.541,0,0,0-.316-1.441,1.393,1.393,0,0,0-1.207-.445A1.894,1.894,0,0,0,94.1,14.176V23H90.146V10.32ZM114.955,23h-3.961V10.32h3.961Zm-4.2-15.949a1.763,1.763,0,0,1,.609-1.383,2.591,2.591,0,0,1,3.164,0,1.763,1.763,0,0,1,.609,1.383,1.763,1.763,0,0,1-.609,1.383,2.591,2.591,0,0,1-3.164,0A1.763,1.763,0,0,1,110.76,7.051Zm6.129,9.516a7.746,7.746,0,0,1,1.3-4.746,4.282,4.282,0,0,1,3.633-1.734,3.641,3.641,0,0,1,2.859,1.336V5h3.961V23h-3.551l-.2-1.359a3.739,3.739,0,0,1-3.094,1.594,4.274,4.274,0,0,1-3.586-1.734A7.991,7.991,0,0,1,116.889,16.566Zm3.949.246q0,3.375,1.969,3.375a1.944,1.944,0,0,0,1.875-1.1V14.258a1.892,1.892,0,0,0-1.852-1.125q-1.828,0-1.98,2.953ZM138.029,23a4.459,4.459,0,0,1-.375-1.137,3.672,3.672,0,0,1-3.047,1.371,4.5,4.5,0,0,1-3.047-1.084,3.45,3.45,0,0,1-1.254-2.725,3.546,3.546,0,0,1,1.523-3.117,7.761,7.761,0,0,1,4.43-1.055h1.219v-.671q0-1.755-1.512-1.755a1.236,1.236,0,0,0-1.406,1.39h-3.949a3.54,3.54,0,0,1,1.564-2.985,6.575,6.575,0,0,1,3.99-1.147A5.764,5.764,0,0,1,140,11.27a4.115,4.115,0,0,1,1.441,3.246v5.613a5.748,5.748,0,0,0,.539,2.672V23Zm-2.473-2.578a2.2,2.2,0,0,0,1.225-.316,1.983,1.983,0,0,0,.7-.715V17.363H136.33q-2.062,0-2.062,1.852a1.131,1.131,0,0,0,.363.873A1.315,1.315,0,0,0,135.557,20.422Zm7.57-3.855a7.746,7.746,0,0,1,1.3-4.746,4.282,4.282,0,0,1,3.633-1.734,3.641,3.641,0,0,1,2.859,1.336V5h3.961V23H151.33l-.2-1.359a3.739,3.739,0,0,1-3.094,1.594,4.274,4.274,0,0,1-3.586-1.734A7.991,7.991,0,0,1,143.127,16.566Zm3.949.246q0,3.375,1.969,3.375a1.944,1.944,0,0,0,1.875-1.1V14.258a1.892,1.892,0,0,0-1.852-1.125q-1.828,0-1.98,2.953Z" transform="translate(1057.199 2490.58)" fill="#fff"/>
    <path id="Path_199596" data-name="Path 199596" d="M25.834,17.211V23H21.721V5.938h6.809a7.93,7.93,0,0,1,3.463.721,5.431,5.431,0,0,1,2.332,2.051,5.6,5.6,0,0,1,.826,3.018,4.937,4.937,0,0,1-1.787,3.99,7.415,7.415,0,0,1-4.9,1.494Zm0-3.176h2.7a2.542,2.542,0,0,0,1.822-.6,2.221,2.221,0,0,0,.627-1.687,2.745,2.745,0,0,0-.645-1.91,2.282,2.282,0,0,0-1.758-.727H25.834Zm18.879,7.594a4.072,4.072,0,0,1-3.387,1.605,3.993,3.993,0,0,1-3.158-1.213A5.1,5.1,0,0,1,37.1,18.535V10.32h3.949v8.238a1.419,1.419,0,0,0,1.582,1.629,2.064,2.064,0,0,0,1.934-.973V10.32h3.973V23h-3.7ZM54.322,10.32l.129,1.488a4.3,4.3,0,0,1,3.621-1.723,3.618,3.618,0,0,1,2.959,1.184,5.635,5.635,0,0,1,1.014,3.563V23H58.084V15a2.14,2.14,0,0,0-.387-1.412,1.789,1.789,0,0,0-1.406-.451,1.883,1.883,0,0,0-1.723.914V23H50.619V10.32ZM68.83,7.168V10.32h2.086v2.742H68.83v5.8a1.481,1.481,0,0,0,.258,1,1.383,1.383,0,0,0,1.02.281,5.793,5.793,0,0,0,.984-.07v2.824a7.288,7.288,0,0,1-2.227.34,4.137,4.137,0,0,1-3.012-.961,3.939,3.939,0,0,1-.973-2.918V13.063H63.264V10.32h1.617V7.168ZM80.021,21.629a4.072,4.072,0,0,1-3.387,1.605,3.993,3.993,0,0,1-3.158-1.213A5.1,5.1,0,0,1,72.4,18.535V10.32h3.949v8.238a1.419,1.419,0,0,0,1.582,1.629,2.064,2.064,0,0,0,1.934-.973V10.32h3.973V23h-3.7ZM93.146,23a4.459,4.459,0,0,1-.375-1.137,3.672,3.672,0,0,1-3.047,1.371,4.5,4.5,0,0,1-3.047-1.084,3.45,3.45,0,0,1-1.254-2.725,3.546,3.546,0,0,1,1.523-3.117,7.761,7.761,0,0,1,4.43-1.055H92.6v-.671q0-1.755-1.512-1.755a1.236,1.236,0,0,0-1.406,1.39H85.729a3.54,3.54,0,0,1,1.564-2.985,6.575,6.575,0,0,1,3.99-1.147,5.764,5.764,0,0,1,3.832,1.184,4.115,4.115,0,0,1,1.441,3.246v5.613A5.748,5.748,0,0,0,97.1,22.8V23Zm-2.473-2.578a2.2,2.2,0,0,0,1.225-.316,1.983,1.983,0,0,0,.7-.715V17.363H91.447q-2.062,0-2.062,1.852a1.131,1.131,0,0,0,.363.873A1.315,1.315,0,0,0,90.674,20.422ZM102.908,23H98.947V5h3.961Zm6.6,0h-3.961V10.32h3.961Zm-4.2-15.949a1.763,1.763,0,0,1,.609-1.383,2.591,2.591,0,0,1,3.164,0,1.763,1.763,0,0,1,.609,1.383,1.763,1.763,0,0,1-.609,1.383,2.591,2.591,0,0,1-3.164,0A1.763,1.763,0,0,1,105.311,7.051Zm6.129,9.516a7.746,7.746,0,0,1,1.3-4.746,4.282,4.282,0,0,1,3.633-1.734,3.641,3.641,0,0,1,2.859,1.336V5h3.961V23h-3.551l-.2-1.359a3.739,3.739,0,0,1-3.094,1.594,4.274,4.274,0,0,1-3.586-1.734A7.991,7.991,0,0,1,111.439,16.566Zm3.949.246q0,3.375,1.969,3.375a1.944,1.944,0,0,0,1.875-1.1V14.258a1.892,1.892,0,0,0-1.852-1.125q-1.828,0-1.98,2.953ZM132.58,23a4.459,4.459,0,0,1-.375-1.137,3.672,3.672,0,0,1-3.047,1.371,4.5,4.5,0,0,1-3.047-1.084,3.45,3.45,0,0,1-1.254-2.725,3.546,3.546,0,0,1,1.523-3.117,7.761,7.761,0,0,1,4.43-1.055h1.219v-.671q0-1.755-1.512-1.755a1.236,1.236,0,0,0-1.406,1.39h-3.949a3.54,3.54,0,0,1,1.564-2.985,6.575,6.575,0,0,1,3.99-1.147,5.764,5.764,0,0,1,3.832,1.184,4.115,4.115,0,0,1,1.441,3.246v5.613a5.748,5.748,0,0,0,.539,2.672V23Zm-2.473-2.578a2.2,2.2,0,0,0,1.225-.316,1.983,1.983,0,0,0,.7-.715V17.363h-1.148q-2.062,0-2.062,1.852a1.131,1.131,0,0,0,.363.873A1.315,1.315,0,0,0,130.107,20.422Zm7.57-3.855a7.746,7.746,0,0,1,1.3-4.746,4.282,4.282,0,0,1,3.633-1.734,3.641,3.641,0,0,1,2.859,1.336V5h3.961V23h-3.551l-.2-1.359a3.739,3.739,0,0,1-3.094,1.594A4.274,4.274,0,0,1,139,21.5,7.991,7.991,0,0,1,137.678,16.566Zm3.949.246q0,3.375,1.969,3.375a1.944,1.944,0,0,0,1.875-1.1V14.258a1.892,1.892,0,0,0-1.852-1.125q-1.828,0-1.98,2.953Z" transform="translate(1057.199 2360.724)" fill="#fff"/>
    <path id="Path_199597" data-name="Path 199597" d="M32.186,19.813H26.549L25.564,23H21.17L27.428,5.938h3.867L37.6,23H33.182Zm-4.652-3.176H31.2l-1.84-5.918Zm16.488,3.551a1.756,1.756,0,0,0,1.289-.451,1.654,1.654,0,0,0,.445-1.26h3.7A4.384,4.384,0,0,1,47.965,21.9a5.558,5.558,0,0,1-3.85,1.336A5.627,5.627,0,0,1,39.756,21.5a6.834,6.834,0,0,1-1.594-4.8v-.164a7.723,7.723,0,0,1,.709-3.393,5.162,5.162,0,0,1,2.045-2.262,6.1,6.1,0,0,1,3.164-.791,5.488,5.488,0,0,1,3.926,1.371,4.863,4.863,0,0,1,1.453,3.715h-3.7a2.168,2.168,0,0,0-.48-1.512,1.658,1.658,0,0,0-1.289-.527q-1.535,0-1.793,1.957a13.809,13.809,0,0,0-.082,1.711,5.424,5.424,0,0,0,.457,2.648A1.582,1.582,0,0,0,44.021,20.188ZM55.729,7.168V10.32h2.086v2.742H55.729v5.8a1.481,1.481,0,0,0,.258,1,1.383,1.383,0,0,0,1.02.281,5.793,5.793,0,0,0,.984-.07v2.824a7.288,7.288,0,0,1-2.227.34,4.137,4.137,0,0,1-3.012-.961,3.939,3.939,0,0,1-.973-2.918V13.063H50.162V10.32h1.617V7.168ZM66.92,21.629a4.072,4.072,0,0,1-3.387,1.605,3.993,3.993,0,0,1-3.158-1.213A5.1,5.1,0,0,1,59.3,18.535V10.32h3.949v8.238a1.419,1.419,0,0,0,1.582,1.629,2.064,2.064,0,0,0,1.934-.973V10.32H70.74V23h-3.7ZM80.045,23a4.459,4.459,0,0,1-.375-1.137,3.672,3.672,0,0,1-3.047,1.371,4.5,4.5,0,0,1-3.047-1.084,3.45,3.45,0,0,1-1.254-2.725,3.546,3.546,0,0,1,1.523-3.117,7.761,7.761,0,0,1,4.43-1.055h1.219v-.671q0-1.755-1.512-1.755a1.236,1.236,0,0,0-1.406,1.39H72.627a3.54,3.54,0,0,1,1.564-2.985,6.575,6.575,0,0,1,3.99-1.147,5.764,5.764,0,0,1,3.832,1.184,4.115,4.115,0,0,1,1.441,3.246v5.613a5.748,5.748,0,0,0,.539,2.672V23Zm-2.473-2.578a2.2,2.2,0,0,0,1.225-.316,1.983,1.983,0,0,0,.7-.715V17.363H78.346q-2.062,0-2.062,1.852a1.131,1.131,0,0,0,.363.873A1.315,1.315,0,0,0,77.572,20.422ZM89.807,23H85.846V5h3.961Zm6.6,0H92.443V10.32H96.4Zm-4.2-15.949a1.763,1.763,0,0,1,.609-1.383,2.591,2.591,0,0,1,3.164,0,1.763,1.763,0,0,1,.609,1.383,1.763,1.763,0,0,1-.609,1.383,2.591,2.591,0,0,1-3.164,0A1.763,1.763,0,0,1,92.209,7.051Zm11.285,12.9h5.777V23H98.5V20.8l5.625-7.43H98.748V10.32h10.395v2.133ZM118.33,23a4.459,4.459,0,0,1-.375-1.137,3.672,3.672,0,0,1-3.047,1.371,4.5,4.5,0,0,1-3.047-1.084,3.45,3.45,0,0,1-1.254-2.725,3.546,3.546,0,0,1,1.523-3.117,7.761,7.761,0,0,1,4.43-1.055h1.219v-.671q0-1.755-1.512-1.755a1.236,1.236,0,0,0-1.406,1.39h-3.949a3.54,3.54,0,0,1,1.564-2.985,6.575,6.575,0,0,1,3.99-1.147A5.764,5.764,0,0,1,120.3,11.27a4.115,4.115,0,0,1,1.441,3.246v5.613a5.748,5.748,0,0,0,.539,2.672V23Zm-2.473-2.578a2.2,2.2,0,0,0,1.225-.316,1.983,1.983,0,0,0,.7-.715V17.363h-1.148q-2.062,0-2.062,1.852a1.131,1.131,0,0,0,.363.873A1.315,1.315,0,0,0,115.857,20.422Zm7.57-3.855a7.746,7.746,0,0,1,1.3-4.746,4.282,4.282,0,0,1,3.633-1.734,3.641,3.641,0,0,1,2.859,1.336V5h3.961V23h-3.551l-.2-1.359a3.739,3.739,0,0,1-3.094,1.594,4.274,4.274,0,0,1-3.586-1.734A7.991,7.991,0,0,1,123.428,16.566Zm3.949.246q0,3.375,1.969,3.375a1.944,1.944,0,0,0,1.875-1.1V14.258a1.892,1.892,0,0,0-1.852-1.125q-1.828,0-1.98,2.953Zm9.551-.27a7.484,7.484,0,0,1,.738-3.381,5.28,5.28,0,0,1,2.121-2.279,6.388,6.388,0,0,1,3.246-.8,5.83,5.83,0,0,1,4.488,1.764,6.768,6.768,0,0,1,1.641,4.8v.141a6.566,6.566,0,0,1-1.646,4.705,5.846,5.846,0,0,1-4.459,1.74,5.912,5.912,0,0,1-4.348-1.623,6.348,6.348,0,0,1-1.77-4.4Zm3.949.246a4.718,4.718,0,0,0,.551,2.578,1.835,1.835,0,0,0,1.629.82q2.109,0,2.156-3.246v-.4q0-3.41-2.18-3.41-1.98,0-2.145,2.941Z" transform="translate(1057.199 2425.65)" fill="#fff"/>
    <path id="Path_199599" data-name="Path 199599" d="M35.514,23h-4.1V5.938h4.1Zm6.3-12.68.129,1.488a4.3,4.3,0,0,1,3.621-1.723,3.618,3.618,0,0,1,2.959,1.184,5.635,5.635,0,0,1,1.014,3.563V23H45.58V15a2.14,2.14,0,0,0-.387-1.412,1.789,1.789,0,0,0-1.406-.451,1.883,1.883,0,0,0-1.723.914V23H38.115V10.32ZM56.326,7.168V10.32h2.086v2.742H56.326v5.8a1.481,1.481,0,0,0,.258,1,1.383,1.383,0,0,0,1.02.281,5.793,5.793,0,0,0,.984-.07v2.824a7.288,7.288,0,0,1-2.227.34,4.137,4.137,0,0,1-3.012-.961,3.939,3.939,0,0,1-.973-2.918V13.063H50.76V10.32h1.617V7.168ZM66.1,23.234a6.518,6.518,0,0,1-4.723-1.74,6.009,6.009,0,0,1-1.8-4.529v-.328a7.787,7.787,0,0,1,.721-3.434,5.274,5.274,0,0,1,2.1-2.3,6.35,6.35,0,0,1,3.281-.814A5.489,5.489,0,0,1,69.9,11.744a6.516,6.516,0,0,1,1.547,4.623V17.9H63.592a2.846,2.846,0,0,0,.926,1.676,2.755,2.755,0,0,0,1.852.609,3.549,3.549,0,0,0,2.93-1.312l1.8,2.133a5.045,5.045,0,0,1-2.092,1.623A7.069,7.069,0,0,1,66.1,23.234Zm-.445-10.1q-1.734,0-2.062,2.3h3.984v-.3a1.956,1.956,0,0,0-.48-1.471A1.912,1.912,0,0,0,65.654,13.133Zm6.914,3.434a8.561,8.561,0,0,1,.633-3.4,5.094,5.094,0,0,1,1.816-2.279,4.788,4.788,0,0,1,2.754-.8,3.807,3.807,0,0,1,3.094,1.336l.141-1.1h3.586v12.2a5.346,5.346,0,0,1-.779,2.912,5,5,0,0,1-2.256,1.9,8.292,8.292,0,0,1-3.422.662,7.153,7.153,0,0,1-2.7-.527,4.876,4.876,0,0,1-2-1.371l1.652-2.32a3.621,3.621,0,0,0,2.906,1.3q2.625,0,2.625-2.7v-.4a3.708,3.708,0,0,1-2.871,1.254A4.583,4.583,0,0,1,74,21.459a7.356,7.356,0,0,1-1.43-4.752Zm3.961.246a4.511,4.511,0,0,0,.586,2.467,1.849,1.849,0,0,0,1.641.908,2.1,2.1,0,0,0,1.863-.855V14a2.045,2.045,0,0,0-1.84-.867,1.861,1.861,0,0,0-1.652.943A5.144,5.144,0,0,0,76.529,16.813Zm17.977-2.918-1.3-.094a2.336,2.336,0,0,0-2.391,1.172V23H86.865V10.32h3.7l.129,1.629a3.058,3.058,0,0,1,2.777-1.863,3.851,3.851,0,0,1,1.1.141ZM100.1,23H96.135V10.32H100.1ZM95.9,7.051a1.763,1.763,0,0,1,.609-1.383,2.591,2.591,0,0,1,3.164,0,1.763,1.763,0,0,1,.609,1.383,1.763,1.763,0,0,1-.609,1.383,2.591,2.591,0,0,1-3.164,0A1.763,1.763,0,0,1,95.9,7.051Zm6.129,9.516a7.746,7.746,0,0,1,1.3-4.746,4.282,4.282,0,0,1,3.633-1.734,3.641,3.641,0,0,1,2.859,1.336V5h3.961V23h-3.551l-.2-1.359a3.739,3.739,0,0,1-3.094,1.594,4.274,4.274,0,0,1-3.586-1.734A7.991,7.991,0,0,1,102.029,16.566Zm3.949.246q0,3.375,1.969,3.375a1.944,1.944,0,0,0,1.875-1.1V14.258a1.892,1.892,0,0,0-1.852-1.125q-1.828,0-1.98,2.953ZM123.17,23a4.459,4.459,0,0,1-.375-1.137,3.672,3.672,0,0,1-3.047,1.371A4.5,4.5,0,0,1,116.7,22.15a3.45,3.45,0,0,1-1.254-2.725,3.546,3.546,0,0,1,1.523-3.117,7.761,7.761,0,0,1,4.43-1.055h1.219v-.671q0-1.755-1.512-1.755a1.236,1.236,0,0,0-1.406,1.39h-3.949a3.54,3.54,0,0,1,1.564-2.985,6.575,6.575,0,0,1,3.99-1.147,5.764,5.764,0,0,1,3.832,1.184,4.115,4.115,0,0,1,1.441,3.246v5.613a5.748,5.748,0,0,0,.539,2.672V23ZM120.7,20.422a2.2,2.2,0,0,0,1.225-.316,1.983,1.983,0,0,0,.7-.715V17.363h-1.148q-2.062,0-2.062,1.852a1.131,1.131,0,0,0,.363.873A1.315,1.315,0,0,0,120.7,20.422Zm7.57-3.855a7.746,7.746,0,0,1,1.3-4.746,4.282,4.282,0,0,1,3.633-1.734,3.641,3.641,0,0,1,2.859,1.336V5h3.961V23h-3.551l-.2-1.359a3.739,3.739,0,0,1-3.094,1.594,4.274,4.274,0,0,1-3.586-1.734A7.991,7.991,0,0,1,128.268,16.566Zm3.949.246q0,3.375,1.969,3.375a1.944,1.944,0,0,0,1.875-1.1V14.258a1.892,1.892,0,0,0-1.852-1.125q-1.828,0-1.98,2.953Z" transform="translate(1057.199 2555.508)" fill="#fff"/>
    <path id="Path_199600" data-name="Path 199600" d="M39.639,17.211V23H35.525V5.938h6.809a7.93,7.93,0,0,1,3.463.721,5.431,5.431,0,0,1,2.332,2.051,5.6,5.6,0,0,1,.826,3.018,4.937,4.937,0,0,1-1.787,3.99,7.415,7.415,0,0,1-4.9,1.494Zm0-3.176h2.7a2.542,2.542,0,0,0,1.822-.6,2.221,2.221,0,0,0,.627-1.687,2.745,2.745,0,0,0-.645-1.91,2.282,2.282,0,0,0-1.758-.727H39.639Zm19-.141-1.3-.094a2.336,2.336,0,0,0-2.391,1.172V23H50.994V10.32h3.7l.129,1.629A3.058,3.058,0,0,1,57.6,10.086a3.851,3.851,0,0,1,1.1.141Zm7.336,9.34a6.518,6.518,0,0,1-4.723-1.74,6.009,6.009,0,0,1-1.8-4.529v-.328a7.787,7.787,0,0,1,.721-3.434,5.274,5.274,0,0,1,2.1-2.3,6.35,6.35,0,0,1,3.281-.814,5.489,5.489,0,0,1,4.219,1.658,6.516,6.516,0,0,1,1.547,4.623V17.9H63.463a2.846,2.846,0,0,0,.926,1.676,2.755,2.755,0,0,0,1.852.609,3.549,3.549,0,0,0,2.93-1.312l1.8,2.133a5.045,5.045,0,0,1-2.092,1.623A7.069,7.069,0,0,1,65.971,23.234Zm-.445-10.1q-1.734,0-2.062,2.3h3.984v-.3a1.956,1.956,0,0,0-.48-1.471A1.912,1.912,0,0,0,65.525,13.133Zm12.738,7.055a1.756,1.756,0,0,0,1.289-.451A1.654,1.654,0,0,0,80,18.477h3.7A4.384,4.384,0,0,1,82.207,21.9a5.558,5.558,0,0,1-3.85,1.336A5.627,5.627,0,0,1,74,21.5,6.834,6.834,0,0,1,72.4,16.7v-.164a7.723,7.723,0,0,1,.709-3.393,5.162,5.162,0,0,1,2.045-2.262,6.1,6.1,0,0,1,3.164-.791,5.488,5.488,0,0,1,3.926,1.371A4.863,4.863,0,0,1,83.7,15.172H80a2.168,2.168,0,0,0-.48-1.512,1.658,1.658,0,0,0-1.289-.527q-1.535,0-1.793,1.957a13.809,13.809,0,0,0-.082,1.711,5.424,5.424,0,0,0,.457,2.648A1.582,1.582,0,0,0,78.264,20.188ZM89.537,23H85.576V10.32h3.961Zm-4.2-15.949a1.763,1.763,0,0,1,.609-1.383,2.591,2.591,0,0,1,3.164,0,1.763,1.763,0,0,1,.609,1.383,1.763,1.763,0,0,1-.609,1.383,2.591,2.591,0,0,1-3.164,0A1.763,1.763,0,0,1,85.342,7.051ZM98.607,19.438a.912.912,0,0,0-.527-.809,8.021,8.021,0,0,0-2-.633,9.138,9.138,0,0,1-2.437-.861,4.083,4.083,0,0,1-1.465-1.295,3.092,3.092,0,0,1-.5-1.746,3.5,3.5,0,0,1,1.441-2.877,5.938,5.938,0,0,1,3.773-1.131,6.579,6.579,0,0,1,4.031,1.137,3.555,3.555,0,0,1,1.523,2.988H98.479q0-1.523-1.605-1.523a1.591,1.591,0,0,0-1.043.346,1.07,1.07,0,0,0-.422.861.982.982,0,0,0,.516.855,4.872,4.872,0,0,0,1.646.539,14.228,14.228,0,0,1,1.986.5q2.859.984,2.859,3.527a3.321,3.321,0,0,1-1.541,2.824,6.758,6.758,0,0,1-3.99,1.09,6.9,6.9,0,0,1-2.906-.586,4.86,4.86,0,0,1-1.992-1.594,3.609,3.609,0,0,1-.715-2.121h3.691a1.526,1.526,0,0,0,.586,1.283,2.41,2.41,0,0,0,1.441.4,1.9,1.9,0,0,0,1.213-.328A1.05,1.05,0,0,0,98.607,19.438ZM108.428,23h-3.961V10.32h3.961Zm-4.2-15.949a1.763,1.763,0,0,1,.609-1.383,2.591,2.591,0,0,1,3.164,0,1.763,1.763,0,0,1,.609,1.383,1.763,1.763,0,0,1-.609,1.383,2.591,2.591,0,0,1-3.164,0A1.763,1.763,0,0,1,104.232,7.051Zm6.129,9.492a7.484,7.484,0,0,1,.738-3.381,5.28,5.28,0,0,1,2.121-2.279,6.388,6.388,0,0,1,3.246-.8,5.83,5.83,0,0,1,4.488,1.764,6.768,6.768,0,0,1,1.641,4.8v.141a6.566,6.566,0,0,1-1.646,4.705,5.846,5.846,0,0,1-4.459,1.74,5.912,5.912,0,0,1-4.348-1.623,6.348,6.348,0,0,1-1.77-4.4Zm3.949.246a4.718,4.718,0,0,0,.551,2.578,1.835,1.835,0,0,0,1.629.82q2.109,0,2.156-3.246v-.4q0-3.41-2.18-3.41-1.98,0-2.145,2.941ZM117.006,5h4.172L117.92,8.68,114.7,8.674Zm10.957,5.32.129,1.488a4.3,4.3,0,0,1,3.621-1.723,3.618,3.618,0,0,1,2.959,1.184,5.635,5.635,0,0,1,1.014,3.563V23h-3.961V15a2.14,2.14,0,0,0-.387-1.412,1.789,1.789,0,0,0-1.406-.451,1.883,1.883,0,0,0-1.723.914V23H124.26V10.32Z" transform="translate(1057.199 2618.051)" fill="#fff"/>
    <path id="Path_199601" data-name="Path 199601" d="M37.219,17.223a6.231,6.231,0,0,1-.961,3.146,5.8,5.8,0,0,1-2.467,2.115,8.4,8.4,0,0,1-3.627.75,6.7,6.7,0,0,1-5.3-2.191,9.048,9.048,0,0,1-1.934-6.187v-.844a10.328,10.328,0,0,1,.873-4.389A6.615,6.615,0,0,1,26.32,6.717a7.013,7.013,0,0,1,3.8-1.025,7.354,7.354,0,0,1,4.992,1.635,6.459,6.459,0,0,1,2.145,4.506h-4.1a3.056,3.056,0,0,0-.785-2.238,3.229,3.229,0,0,0-2.25-.68,2.457,2.457,0,0,0-2.25,1.148,7.381,7.381,0,0,0-.75,3.668v1.207a8.167,8.167,0,0,0,.686,3.9,2.509,2.509,0,0,0,2.361,1.172,3.159,3.159,0,0,0,2.168-.668,2.835,2.835,0,0,0,.8-2.121Zm9.434-3.328-1.3-.094a2.336,2.336,0,0,0-2.391,1.172V23H39.012V10.32h3.7l.129,1.629a3.058,3.058,0,0,1,2.777-1.863,3.851,3.851,0,0,1,1.1.141ZM52.242,23H48.281V10.32h3.961Zm-4.2-15.949a1.763,1.763,0,0,1,.609-1.383,2.591,2.591,0,0,1,3.164,0,1.763,1.763,0,0,1,.609,1.383,1.763,1.763,0,0,1-.609,1.383,2.591,2.591,0,0,1-3.164,0A1.763,1.763,0,0,1,48.047,7.051Zm11.227.117V10.32h2.086v2.742H59.273v5.8a1.481,1.481,0,0,0,.258,1,1.383,1.383,0,0,0,1.02.281,5.793,5.793,0,0,0,.984-.07v2.824a7.288,7.288,0,0,1-2.227.34,4.137,4.137,0,0,1-3.012-.961,3.939,3.939,0,0,1-.973-2.918V13.063H53.707V10.32h1.617V7.168Zm9.773,16.066a6.518,6.518,0,0,1-4.723-1.74,6.009,6.009,0,0,1-1.8-4.529v-.328A7.787,7.787,0,0,1,63.24,13.2a5.274,5.274,0,0,1,2.1-2.3,6.35,6.35,0,0,1,3.281-.814,5.489,5.489,0,0,1,4.219,1.658,6.516,6.516,0,0,1,1.547,4.623V17.9H66.539a2.846,2.846,0,0,0,.926,1.676,2.755,2.755,0,0,0,1.852.609,3.549,3.549,0,0,0,2.93-1.312l1.8,2.133a5.045,5.045,0,0,1-2.092,1.623A7.069,7.069,0,0,1,69.047,23.234Zm-.445-10.1q-1.734,0-2.062,2.3h3.984v-.3a1.956,1.956,0,0,0-.48-1.471A1.912,1.912,0,0,0,68.6,13.133Zm15.047.762-1.3-.094a2.336,2.336,0,0,0-2.391,1.172V23H76.008V10.32h3.7l.129,1.629a3.058,3.058,0,0,1,2.777-1.863,3.851,3.851,0,0,1,1.1.141ZM89.238,23H85.277V10.32h3.961Zm-4.2-15.949a1.763,1.763,0,0,1,.609-1.383,2.591,2.591,0,0,1,3.164,0,1.763,1.763,0,0,1,.609,1.383,1.763,1.763,0,0,1-.609,1.383,2.591,2.591,0,0,1-3.164,0A1.763,1.763,0,0,1,85.043,7.051Zm6.129,9.492a7.484,7.484,0,0,1,.738-3.381,5.28,5.28,0,0,1,2.121-2.279,6.388,6.388,0,0,1,3.246-.8,5.83,5.83,0,0,1,4.488,1.764,6.768,6.768,0,0,1,1.641,4.8v.141a6.566,6.566,0,0,1-1.646,4.705,5.846,5.846,0,0,1-4.459,1.74,5.912,5.912,0,0,1-4.348-1.623,6.348,6.348,0,0,1-1.77-4.4Zm3.949.246a4.718,4.718,0,0,0,.551,2.578,1.835,1.835,0,0,0,1.629.82q2.109,0,2.156-3.246v-.4q0-3.41-2.18-3.41-1.98,0-2.145,2.941Zm16.664,2.648a.912.912,0,0,0-.527-.809,8.021,8.021,0,0,0-2-.633,9.138,9.138,0,0,1-2.437-.861,4.083,4.083,0,0,1-1.465-1.295,3.092,3.092,0,0,1-.5-1.746,3.5,3.5,0,0,1,1.441-2.877,5.938,5.938,0,0,1,3.773-1.131,6.579,6.579,0,0,1,4.031,1.137,3.555,3.555,0,0,1,1.523,2.988h-3.961q0-1.523-1.605-1.523a1.591,1.591,0,0,0-1.043.346,1.07,1.07,0,0,0-.422.861.982.982,0,0,0,.516.855,4.872,4.872,0,0,0,1.646.539,14.228,14.228,0,0,1,1.986.5q2.859.984,2.859,3.527a3.321,3.321,0,0,1-1.541,2.824,6.758,6.758,0,0,1-3.99,1.09,6.9,6.9,0,0,1-2.906-.586,4.86,4.86,0,0,1-1.992-1.594,3.609,3.609,0,0,1-.715-2.121h3.691a1.526,1.526,0,0,0,.586,1.283,2.41,2.41,0,0,0,1.441.4,1.9,1.9,0,0,0,1.213-.328A1.05,1.05,0,0,0,111.785,19.438Zm11.133-2.871a7.746,7.746,0,0,1,1.3-4.746,4.282,4.282,0,0,1,3.633-1.734,3.641,3.641,0,0,1,2.859,1.336V5h3.961V23h-3.551l-.2-1.359a3.739,3.739,0,0,1-3.094,1.594,4.274,4.274,0,0,1-3.586-1.734A7.991,7.991,0,0,1,122.918,16.566Zm3.949.246q0,3.375,1.969,3.375a1.944,1.944,0,0,0,1.875-1.1V14.258a1.892,1.892,0,0,0-1.852-1.125q-1.828,0-1.98,2.953Zm16.184,6.422a6.518,6.518,0,0,1-4.723-1.74,6.009,6.009,0,0,1-1.8-4.529v-.328a7.787,7.787,0,0,1,.721-3.434,5.274,5.274,0,0,1,2.1-2.3,6.35,6.35,0,0,1,3.281-.814,5.489,5.489,0,0,1,4.219,1.658,6.516,6.516,0,0,1,1.547,4.623V17.9h-7.852a2.846,2.846,0,0,0,.926,1.676,2.755,2.755,0,0,0,1.852.609,3.549,3.549,0,0,0,2.93-1.312l1.8,2.133a5.045,5.045,0,0,1-2.092,1.623A7.069,7.069,0,0,1,143.051,23.234Zm-.445-10.1q-1.734,0-2.062,2.3h3.984v-.3a1.956,1.956,0,0,0-.48-1.471A1.912,1.912,0,0,0,142.605,13.133ZM23.783,40.637a9.222,9.222,0,0,1,1.828-4.8,4.53,4.53,0,0,1,3.82-1.746,3.455,3.455,0,0,1,2.684,1.359L33.346,29h3.867L34.1,47H30.662l.164-1.371a3.957,3.957,0,0,1-3.152,1.617,3.493,3.493,0,0,1-2.865-1.354A5.968,5.968,0,0,1,23.7,42.324a10.975,10.975,0,0,1,.047-1.441Zm3.844.27a9.2,9.2,0,0,0-.082,1.313q0,1.945,1.313,1.98a2.458,2.458,0,0,0,2.027-1.09l.867-4.863a1.561,1.561,0,0,0-1.547-1.113,1.971,1.971,0,0,0-1.74.932A6.009,6.009,0,0,0,27.627,40.906ZM43.506,47a3.438,3.438,0,0,1-.164-1.148,3.911,3.911,0,0,1-3.105,1.383,3.821,3.821,0,0,1-2.742-1.1,3.311,3.311,0,0,1-1.02-2.613A3.719,3.719,0,0,1,38.2,40.35a8.122,8.122,0,0,1,4.547-1.107l1.289.023.141-.715.047-.621a1.007,1.007,0,0,0-1.066-1.1A1.482,1.482,0,0,0,41.6,38.223l-3.867.012a3.673,3.673,0,0,1,.832-2.221,4.931,4.931,0,0,1,2.1-1.453,7.35,7.35,0,0,1,2.83-.475,5.668,5.668,0,0,1,2.525.6,3.76,3.76,0,0,1,1.623,1.582,4.042,4.042,0,0,1,.41,2.338L47.1,44.574l-.059.727a3.2,3.2,0,0,0,.223,1.477L47.256,47Zm-2.2-2.555A2.487,2.487,0,0,0,43.377,43.4l.387-2.039-1-.012a2.625,2.625,0,0,0-1.594.545,2.067,2.067,0,0,0-.785,1.424,1.038,1.038,0,0,0,.182.791A.928.928,0,0,0,41.3,44.445ZM56.057,31.168l-.551,3.152h2.027l-.48,2.742H55.025l-.984,5.824a1.552,1.552,0,0,0,.076.9q.158.3.791.328a9.164,9.164,0,0,0,1.008-.059l-.281,2.859a6.231,6.231,0,0,1-2.074.293,3.417,3.417,0,0,1-2.684-1.055,3.6,3.6,0,0,1-.727-2.8l1.031-6.293h-1.57l.469-2.742h1.57l.551-3.152ZM64.084,47a3.438,3.438,0,0,1-.164-1.148,3.911,3.911,0,0,1-3.105,1.383,3.821,3.821,0,0,1-2.742-1.1,3.311,3.311,0,0,1-1.02-2.613,3.719,3.719,0,0,1,1.723-3.17,8.122,8.122,0,0,1,4.547-1.107l1.289.023.141-.715.047-.621a1.007,1.007,0,0,0-1.066-1.1,1.482,1.482,0,0,0-1.559,1.395l-3.867.012a3.673,3.673,0,0,1,.832-2.221,4.931,4.931,0,0,1,2.1-1.453,7.35,7.35,0,0,1,2.83-.475,5.668,5.668,0,0,1,2.525.6,3.76,3.76,0,0,1,1.623,1.582,4.042,4.042,0,0,1,.41,2.338l-.949,5.965-.059.727a3.2,3.2,0,0,0,.223,1.477L67.834,47Zm-2.2-2.555A2.487,2.487,0,0,0,63.955,43.4l.387-2.039-1-.012a2.625,2.625,0,0,0-1.594.545,2.067,2.067,0,0,0-.785,1.424,1.038,1.038,0,0,0,.182.791A.928.928,0,0,0,61.881,44.445ZM75.955,40.6a10.641,10.641,0,0,1,1.008-3.5,5.591,5.591,0,0,1,1.951-2.3,4.666,4.666,0,0,1,2.678-.715A3.3,3.3,0,0,1,84.475,35.7l.6-1.395,3.387.012L85.412,51.875H81.545l1.184-5.953a3.726,3.726,0,0,1-2.895,1.313A3.479,3.479,0,0,1,77,45.887a5.975,5.975,0,0,1-1.113-3.6A13.67,13.67,0,0,1,75.955,40.6Zm3.773,1.219a3.2,3.2,0,0,0,.246,1.693,1.147,1.147,0,0,0,1.055.674,2.355,2.355,0,0,0,2.016-1.02l.9-5.051a1.548,1.548,0,0,0-1.559-1.008q-2.121-.035-2.566,3.492Zm16.629,3.8a4.2,4.2,0,0,1-3.422,1.629,3.322,3.322,0,0,1-2.807-1.3,4.8,4.8,0,0,1-.732-3.422l1.371-8.2h3.855l-1.395,8.26a2.752,2.752,0,0,0,0,.622,1.021,1.021,0,0,0,1.137,1,2.491,2.491,0,0,0,2.074-.962l1.57-8.917h3.879L99.686,47H96.1ZM108.908,47a3.438,3.438,0,0,1-.164-1.148,3.911,3.911,0,0,1-3.105,1.383,3.821,3.821,0,0,1-2.742-1.1,3.311,3.311,0,0,1-1.02-2.613,3.719,3.719,0,0,1,1.723-3.17,8.122,8.122,0,0,1,4.547-1.107l1.289.023.141-.715.047-.621a1.007,1.007,0,0,0-1.066-1.1A1.482,1.482,0,0,0,107,38.223l-3.867.012a3.673,3.673,0,0,1,.832-2.221,4.931,4.931,0,0,1,2.1-1.453,7.35,7.35,0,0,1,2.83-.475,5.668,5.668,0,0,1,2.525.6,3.76,3.76,0,0,1,1.623,1.582,4.042,4.042,0,0,1,.41,2.338l-.949,5.965-.059.727a3.2,3.2,0,0,0,.223,1.477l-.012.223Zm-2.2-2.555a2.487,2.487,0,0,0,2.074-1.043l.387-2.039-1-.012a2.625,2.625,0,0,0-1.594.545,2.067,2.067,0,0,0-.785,1.424,1.038,1.038,0,0,0,.182.791A.928.928,0,0,0,106.705,44.445ZM118.295,47h-3.867l3.117-18h3.867Zm6.516,0h-3.867l2.2-12.68h3.867Zm-1.324-15.879a1.788,1.788,0,0,1,.6-1.43,2.167,2.167,0,0,1,1.518-.574,2.237,2.237,0,0,1,1.506.516,1.757,1.757,0,0,1,.627,1.348,1.792,1.792,0,0,1-.6,1.436,2.174,2.174,0,0,1-1.523.568,2.265,2.265,0,0,1-1.494-.51A1.737,1.737,0,0,1,123.486,31.121Zm11,.047-.551,3.152h2.027l-.48,2.742h-2.027l-.984,5.824a1.552,1.552,0,0,0,.076.9q.158.3.791.328a9.164,9.164,0,0,0,1.008-.059l-.281,2.859a6.231,6.231,0,0,1-2.074.293,3.417,3.417,0,0,1-2.684-1.055,3.6,3.6,0,0,1-.727-2.8l1.031-6.293h-1.57l.469-2.742h1.57l.551-3.152Zm6.7,10.254,3.281-7.1h4.254L141.3,48.9a6.353,6.353,0,0,1-1.916,2.49,4.355,4.355,0,0,1-2.584.768,7.3,7.3,0,0,1-1.7-.258l.293-2.824h.445a3.193,3.193,0,0,0,1.254-.229,1.909,1.909,0,0,0,.9-.885l.551-1.055L136.518,34.32H140.5Z" transform="translate(714.259 2472.183)" fill="#12263f"/>
  </g>
</svg>
