<svg xmlns="http://www.w3.org/2000/svg" width="60" height="60" viewBox="0 0 60 60">
  <g id="_9" data-name="9" transform="translate(-28.444 -28.444)">
    <path id="Path_199479" data-name="Path 199479" d="M85.944,55.944H83.662A25.382,25.382,0,0,0,60.944,33.22V30.944a2.5,2.5,0,1,0-5,0v2.275h-.007A25.382,25.382,0,0,0,33.212,55.944H30.944a2.5,2.5,0,1,0,0,5h2.268A25.382,25.382,0,0,0,55.937,83.669h.007v2.275a2.5,2.5,0,1,0,5,0V83.668A25.382,25.382,0,0,0,83.662,60.944h2.282a2.5,2.5,0,1,0,0-5ZM58.437,73.794a15.35,15.35,0,1,1,15.35-15.35A15.369,15.369,0,0,1,58.437,73.794Z" fill="#fff"/>
    <path id="Path_199480" data-name="Path 199480" d="M209.906,212.5l-4.9,4.9-1.55-1.55a2.493,2.493,0,1,0-3.525,3.525l3.325,3.325a2.5,2.5,0,0,0,3.525,0l6.675-6.675a2.49,2.49,0,0,0,0-3.525A2.52,2.52,0,0,0,209.906,212.5Z" transform="translate(-148.244 -159.156)" fill="#fff"/>
  </g>
</svg>
