<svg xmlns="http://www.w3.org/2000/svg" width="190" height="115" viewBox="0 0 190 115">
  <g id="_9" data-name="9" transform="translate(-180 -3380)">
    <rect id="Rectangle_43993" data-name="Rectangle 43993" width="190" height="115" transform="translate(180 3380)" fill="none"/>
    <rect id="Rectangle_41430" data-name="Rectangle 41430" width="85" height="28" rx="14" transform="translate(285 3388)" fill="#feca2e" opacity="0.2"/>
    <rect id="Rectangle_41431" data-name="Rectangle 41431" width="85" height="28" rx="14" transform="translate(180 3449)" fill="#4dd0e1" opacity="0.2"/>
    <g id="Group_140999" data-name="Group 140999" transform="translate(19 3182)">
      <path id="Path_193751" data-name="Path 193751" d="M218.9,296.323a4.839,4.839,0,1,0,4.839,4.838A4.844,4.844,0,0,0,218.9,296.323Zm0,6.451a1.613,1.613,0,1,1,1.613-1.613A1.615,1.615,0,0,1,218.9,302.774Z" fill="#0f2771"/>
      <path id="Path_193752" data-name="Path 193752" d="M210.921,293.177l2.281,2.281a8.065,8.065,0,0,1,11.4,0l2.28-2.281a11.289,11.289,0,0,0-15.964,0Z" fill="#0f2771"/>
      <path id="Path_193753" data-name="Path 193753" d="M206.358,288.616l2.281,2.281a14.534,14.534,0,0,1,20.53,0l2.281-2.281A17.763,17.763,0,0,0,206.358,288.616Z" fill="#0f2771"/>
      <path id="Path_193754" data-name="Path 193754" d="M299.548,296.323h-3.225v-6.452H293.1v6.452h-3.226V293.1h-3.226v3.226h-3.226v-9.678h-3.225v12.9h19.354Z" fill="#0f2771"/>
      <path id="Path_193755" data-name="Path 193755" d="M301.161,244.71h-12.9a4.845,4.845,0,0,0-4.839,4.838v4.839h-6.534a20.846,20.846,0,0,0-4.98-12.011l15.408-15.408h12.235a6.452,6.452,0,0,0,1.508-12.726,9.68,9.68,0,0,0-19.145,0,6.433,6.433,0,0,0,.9,12.664L269.624,240.1a20.849,20.849,0,0,0-12.011-4.98v-6.534h4.839a4.845,4.845,0,0,0,4.838-4.839v-12.9A4.845,4.845,0,0,0,262.452,206h-12.9a4.845,4.845,0,0,0-4.838,4.839v12.9a4.845,4.845,0,0,0,4.838,4.839h4.839v6.534a20.846,20.846,0,0,0-12.011,4.98l-7.765-7.766a16.163,16.163,0,1,0-2.282,2.281l7.765,7.766a20.85,20.85,0,0,0-4.981,12.011h-6.532v-4.839a4.845,4.845,0,0,0-4.839-4.838h-12.9A4.845,4.845,0,0,0,206,249.548v12.9a4.845,4.845,0,0,0,4.839,4.838h12.9a4.845,4.845,0,0,0,4.839-4.838v-4.839h6.534a20.846,20.846,0,0,0,4.98,12.011l-11.042,11.042,2.281,2.281L242.376,271.9a20.849,20.849,0,0,0,12.011,4.98v6.534h-4.839a4.845,4.845,0,0,0-4.838,4.839v12.9A4.845,4.845,0,0,0,249.548,306h12.9a4.845,4.845,0,0,0,4.838-4.839v-12.9a4.845,4.845,0,0,0-4.838-4.839h-4.839v-6.534a20.846,20.846,0,0,0,12.011-4.98l8.35,8.35a4.828,4.828,0,0,0-4.232,4.777v16.129A4.845,4.845,0,0,0,278.581,306h22.58A4.845,4.845,0,0,0,306,301.161V285.032a4.845,4.845,0,0,0-4.839-4.838H282.474L271.9,269.624a20.849,20.849,0,0,0,4.98-12.011h6.534v4.839a4.845,4.845,0,0,0,4.839,4.838h12.9A4.845,4.845,0,0,0,306,262.452v-12.9a4.845,4.845,0,0,0-4.839-4.838Zm-37.1-25.807h-16.13v-3.226h16.13Zm-14.517-9.677h12.9a1.615,1.615,0,0,1,1.613,1.613v1.613h-16.13v-1.613A1.615,1.615,0,0,1,249.548,209.226Zm-1.613,14.516v-1.613h16.13v1.613a1.615,1.615,0,0,1-1.613,1.613h-12.9A1.615,1.615,0,0,1,247.935,223.742Zm-37.1,24.193h12.9a1.615,1.615,0,0,1,1.613,1.613v1.613H209.226v-1.613A1.615,1.615,0,0,1,210.839,247.935Zm14.516,6.452v3.226H209.226v-3.226Zm-1.613,9.678h-12.9a1.615,1.615,0,0,1-1.613-1.613v-1.613h16.129v1.613A1.615,1.615,0,0,1,223.742,264.065ZM247.935,293.1h16.13v3.226h-16.13Zm14.517,9.677h-12.9a1.615,1.615,0,0,1-1.613-1.613v-1.613h16.13v1.613A1.615,1.615,0,0,1,262.452,302.774Zm1.613-14.516v1.613h-16.13v-1.613a1.615,1.615,0,0,1,1.613-1.613h12.9A1.615,1.615,0,0,1,264.065,288.258ZM256,273.742c-1.734,0-3.581-2.463-4.853-6.452h9.708c-1.274,3.989-3.121,6.452-4.855,6.452Zm-5.676-9.677a40.075,40.075,0,0,1-.742-6.452h12.836a40.187,40.187,0,0,1-.742,6.452Zm-11.984-6.452h8.018a44.206,44.206,0,0,0,.66,6.452h-6.8a17.544,17.544,0,0,1-1.878-6.452ZM256,238.258c1.734,0,3.581,2.463,4.853,6.452h-9.708c1.274-3.989,3.121-6.452,4.855-6.452Zm5.676,9.677a40.073,40.073,0,0,1,.742,6.452H249.582a40.189,40.189,0,0,1,.742-6.452Zm-15.318,6.452H238.34a17.582,17.582,0,0,1,1.878-6.452h6.8a44.067,44.067,0,0,0-.66,6.452Zm19.284,3.226h8.018a17.582,17.582,0,0,1-1.878,6.452h-6.8A44.067,44.067,0,0,0,265.642,257.613Zm0-3.226a44.206,44.206,0,0,0-.66-6.452h6.8a17.621,17.621,0,0,1,1.878,6.452Zm14.552-33.871a3.229,3.229,0,0,1,3.225-3.226h1.613v-1.613a6.452,6.452,0,0,1,12.757-1.369,6.463,6.463,0,0,0-4.692,6.208h3.226a3.225,3.225,0,1,1,3.225,3.226H283.419A3.229,3.229,0,0,1,280.194,220.516ZM269.676,244.71h-5.441a22.283,22.283,0,0,0-2.243-5.389A17.814,17.814,0,0,1,269.676,244.71Zm-19.666-5.389a22.363,22.363,0,0,0-2.244,5.389h-5.44A17.79,17.79,0,0,1,250.01,239.321Zm-27.881-30.1a12.878,12.878,0,0,1,11.137,19.387,13,13,0,0,0-6.3-5.486,6.394,6.394,0,0,0,1.613-4.222,6.451,6.451,0,1,0-11.289,4.221,13,13,0,0,0-6.3,5.485,12.879,12.879,0,0,1,11.139-19.385ZM218.9,218.9a3.226,3.226,0,1,1,3.226,3.226A3.229,3.229,0,0,1,218.9,218.9Zm-5.713,12.51a9.624,9.624,0,0,1,17.878,0,12.849,12.849,0,0,1-17.878,0Zm29.134,35.877h5.441a22.284,22.284,0,0,0,2.243,5.389A17.814,17.814,0,0,1,242.324,267.29Zm19.666,5.389a22.363,22.363,0,0,0,2.244-5.389h5.44A17.79,17.79,0,0,1,261.99,272.679Zm40.784,12.353v16.129a1.614,1.614,0,0,1-1.613,1.613h-22.58a1.614,1.614,0,0,1-1.613-1.613V285.032a1.615,1.615,0,0,1,1.613-1.613h22.58A1.615,1.615,0,0,1,302.774,285.032Zm-14.516-37.1h12.9a1.615,1.615,0,0,1,1.613,1.613v1.613H286.645v-1.613A1.615,1.615,0,0,1,288.258,247.935Zm14.516,6.452v3.226H286.645v-3.226Zm-1.613,9.678h-12.9a1.615,1.615,0,0,1-1.613-1.613v-1.613h16.129v1.613A1.615,1.615,0,0,1,301.161,264.065Z" fill="#0f2771"/>
    </g>
  </g>
</svg>
